<svg width="190" height="248" viewBox="0 0 190 248" fill="none" xmlns="http://www.w3.org/2000/svg">
<path d="M71.9359 130.046C66.0679 130.531 59.2072 134.588 54.1983 140.549C52.2414 142.858 49.5158 147.428 48.5064 150.123C46.7583 154.85 46.3075 160.3 47.4104 163.913C48.3743 166.983 51.3001 170.515 54.0351 171.893L55.4394 172.601L53.4802 172.52L51.5248 172.41L54.0479 172.798C55.4385 173.009 56.5343 173.065 56.4756 172.912C56.3765 172.666 57.5347 172.846 61.1343 173.638C62.9451 174.05 64.4582 173.928 66.0759 173.207C66.5191 173.031 66.6961 173.084 66.9018 173.519C67.1479 174.047 67.2512 174.06 68.5248 173.76C74.2321 172.496 81.9478 165.519 85.2429 158.605C87.2962 154.356 88.0324 151.741 88.5219 147.199C88.8387 143.976 88.8634 142.784 88.5937 141.233C88.1708 138.846 86.7464 135.482 85.6016 134.196C83.9121 132.255 83.2966 131.941 80.3825 131.53C78.8886 131.305 77.2843 130.921 76.8162 130.684C75.8321 130.177 73.6372 129.889 71.9359 130.046ZM75.8257 131.429C76.8431 131.883 77.292 132.467 76.4916 132.362C75.7944 132.27 72.5678 133.043 72.534 133.301C72.5153 133.444 73.0134 133.451 73.6115 133.296C75.1879 132.891 75.2062 132.951 73.7693 133.696C71.9371 134.651 70.4317 136.32 69.3349 138.479C68.8308 139.521 67.8611 140.91 67.1992 141.552C66.5373 142.194 65.616 143.414 65.1677 144.23C64.7158 145.074 63.7427 146.288 62.9996 146.948C61.5097 148.298 60.9319 149.301 59.8 152.33C59.3584 153.497 58.2874 155.659 57.4097 157.148C55.8618 159.743 55.8135 159.912 55.3163 162.908C54.8341 165.789 54.7524 166.011 54.091 166.449C53.2005 167.032 51.3817 166.882 50.4056 166.113C48.4678 164.664 47.788 161.631 48.2633 156.796C48.5539 153.773 48.7364 152.981 49.6271 150.591C53.0229 141.503 61.797 133.062 69.5863 131.341C72.3219 130.708 74.2073 130.751 75.8257 131.429ZM83.5837 133.961C84.9347 135.478 85.0841 136.343 84.494 139.647C83.8551 143.324 82.0455 147.518 79.1425 152.239C73.6144 161.164 68.818 166.103 63.8029 168.099C61.949 168.819 61.1664 168.979 59.7608 168.882C58.3035 168.779 57.9495 168.674 57.4269 168.052C56.6723 167.195 56.6957 166.615 57.7623 163.082C58.5389 160.56 58.9425 159.884 61.2247 157.297C61.6279 156.825 62.4582 155.098 63.1185 153.464C64.1575 150.744 64.3945 150.337 65.7032 149.168C66.8049 148.175 67.2565 147.535 67.6723 146.365C68.051 145.278 68.5691 144.529 69.4676 143.685C70.7542 142.483 71.0875 141.944 72.1486 139.255C72.9388 137.231 74.1006 135.78 76.1444 134.211C78.2179 132.617 79.0117 132.371 81.0366 132.753C82.4235 132.992 82.8954 133.2 83.5837 133.961ZM86.9651 138.426C88.4969 143.378 87.6361 150.756 84.9683 155.887C84.4755 156.843 84.1231 157.73 84.1818 157.883C84.3138 158.279 82.0665 161.804 80.4461 163.749C77.4979 167.21 72.3164 171.079 68.8673 172.348C66.7402 173.148 66.5158 172.856 68.5029 171.921C69.4855 171.438 70.9637 170.378 71.7809 169.552C72.624 168.729 73.3558 168.155 73.422 168.251C73.492 168.318 73.2921 168.642 72.9926 168.923C72.6931 169.205 72.519 169.532 72.5852 169.628C72.8059 169.948 76.1148 166.942 78.1824 164.589C81.3969 160.9 85.8657 153.848 86.0649 152.125C86.1249 151.666 86.0362 151.742 85.6659 152.364C85.2289 153.094 85.1773 153.087 85.3889 152.474C85.4931 152.079 85.9718 150.83 86.4096 149.692C86.8475 148.554 87.2228 147.292 87.2495 146.887C87.2579 146.422 87.0171 146.857 86.5643 148.109C85.5694 150.894 85.11 151.796 84.8934 151.243C84.7943 150.997 84.921 150.43 85.2322 149.859C86.0549 148.188 86.9798 145.336 87.1528 143.814C87.2808 142.635 87.2442 142.514 87.0213 143.214C86.7984 143.913 86.7134 143.96 86.6148 143.51C86.549 143.21 86.5807 142.165 86.6825 141.187C86.848 139.722 86.8334 139.633 86.6246 140.626C86.2334 142.411 85.6882 141.961 86.0316 140.14C86.1845 139.373 86.213 138.152 86.0927 137.466C85.8996 136.333 85.9108 136.247 86.2052 136.606C86.3893 136.805 86.727 137.637 86.9651 138.426ZM72.8378 136.198C72.3012 136.885 71.4494 138.377 70.9636 139.479C70.3554 140.915 69.7335 141.854 68.9275 142.594C68.299 143.182 67.3072 144.539 66.744 145.631C66.1845 146.695 65.4072 147.817 65.0082 148.057C63.8295 148.835 63.0593 150.104 62.1052 152.778C61.3849 154.87 60.9404 155.657 59.3755 157.58C57.6181 159.769 57.2253 160.563 56.3699 163.687C56.2582 164.139 56.2999 163.619 56.4758 162.476C56.7859 160.71 57.0567 160.046 58.5454 157.5C59.4898 155.904 60.5941 153.688 60.9691 152.629C61.8377 150.207 62.2376 149.56 63.835 147.991C64.5006 147.32 65.4516 146.074 65.8998 145.258C66.3738 144.446 67.2694 143.222 67.935 142.552C68.6007 141.881 69.5741 140.463 70.1336 139.4C71.0784 137.6 72.0922 136.275 73.216 135.314C74.0145 134.632 73.9033 134.88 72.8378 136.198ZM85.3277 144.916C84.9269 145.971 84.5266 146.822 84.3975 146.805C84.0618 146.761 84.1772 146.281 84.9533 143.963C85.4991 142.402 85.7028 142.05 85.8348 142.446C85.9705 142.814 85.788 143.606 85.3277 144.916ZM86.1255 146.245C85.8135 147.224 85.3569 148.505 85.0678 149.108L84.5599 150.179L84.3809 149.339C84.2898 148.832 84.3057 148.309 84.4981 148.043C84.6352 147.798 85.0913 146.721 85.4883 145.695C85.9708 144.417 86.2744 143.903 86.4289 144.127C86.5834 144.351 86.4934 145.039 86.1255 146.245ZM83.8629 148.28C83.3501 149.991 77.2155 159.536 76.6695 159.494C76.2821 159.443 76.56 158.926 78.5365 156.066C80.7092 152.91 83.4465 148.051 83.5924 147.137C83.6449 146.736 83.7298 146.689 83.9064 146.945C84.0609 147.169 84.045 147.692 83.8629 148.28ZM82.4967 153.902C80.7267 156.789 76.116 162.919 75.7545 162.872C75.0831 162.784 75.7313 161.645 78.5401 157.844C80.2904 155.508 82.2153 152.641 82.8451 151.441C83.9345 149.339 83.964 149.314 84.0839 150.204C84.1634 151.001 83.963 151.529 82.4967 153.902ZM84.3247 153.18C84.0356 153.783 84.0577 153.815 84.4938 153.493C84.9557 153.175 84.974 153.235 84.7178 153.989C84.2091 155.467 80.7959 160.675 78.8094 163.01C76.3568 165.895 74.1234 168.11 73.9248 167.821C73.8327 167.722 74.6133 166.774 75.6451 165.714C76.6731 164.683 78.2747 162.881 79.2181 161.693C80.8201 159.687 83.8668 155.073 83.9343 154.557C84.0319 153.812 83.3771 154.6 81.8146 157.107C79.3598 161.012 73.9961 167.277 73.5988 166.7C73.4884 166.54 74.1324 165.633 75.0238 164.642C77.7904 161.565 81.3502 156.842 82.9352 154.164C83.9462 152.46 84.4865 151.743 84.5523 152.043C84.6218 152.315 84.5026 152.824 84.3247 153.18ZM75.8476 160.756C75.1557 161.628 74.8284 161.119 75.4982 160.215C75.8535 159.708 76.1085 159.566 76.1855 159.78C76.2663 159.966 76.1029 160.411 75.8476 160.756ZM74.8604 161.677C74.8342 161.877 74.3789 162.546 73.8536 163.148C72.6773 164.51 73.0755 164.678 74.3551 163.33C75.2094 162.422 75.2648 162.4 75.2043 163.062C75.1293 163.636 74.6407 164.359 73.3832 165.739C73.2611 165.869 72.4266 164.419 72.4421 164.1C72.4833 163.785 74.4961 161.25 74.7285 161.28C74.8317 161.294 74.8867 161.476 74.8604 161.677ZM72.19 164.621C72.2525 164.746 72.1817 165.086 71.9892 165.352C71.5635 165.996 71.0517 165.492 71.3779 164.806C71.6224 164.343 71.9473 164.268 72.19 164.621ZM70.7026 166.554C70.0519 167.11 69.6326 166.501 70.2612 165.913C70.6531 165.527 70.8118 165.519 70.933 165.797C71.0321 166.043 70.9133 166.348 70.7026 166.554ZM72.7259 165.944C72.7072 166.088 72.5847 166.421 72.4772 166.641C72.2993 166.996 72.1923 167.011 71.942 166.716C71.6917 166.421 71.7142 166.249 71.9583 165.99C72.354 165.575 72.7747 165.572 72.7259 165.944ZM71.3863 167.751C71.2051 167.932 70.976 168.076 70.8469 168.06C70.5112 168.016 70.6529 167.335 71.0669 166.981C71.5401 166.576 71.8412 167.286 71.3863 167.751ZM69.8012 167.019C69.9628 167.39 68.8357 168.175 68.53 167.902C68.3422 167.732 68.4239 167.509 68.7825 167.177C69.3519 166.64 69.6472 166.591 69.8012 167.019ZM70.4258 168.267C70.4883 168.392 70.2883 168.715 69.9964 168.939C69.3533 169.438 68.9485 168.919 69.5254 168.324C69.9507 167.884 70.268 167.867 70.4258 168.267ZM68.3226 168.283C68.3813 168.436 68.2701 168.684 68.041 168.829C67.7527 169.025 67.5978 169.004 67.4067 168.659C67.2156 168.313 67.2306 168.198 67.5038 168.118C68.0502 167.956 68.2052 167.976 68.3226 168.283ZM66.9373 169.034C67.1171 169.466 66.1492 170.039 65.6848 169.774C65.4637 169.658 65.3787 169.705 65.4815 169.922C65.6797 170.415 64.8084 170.65 64.4994 170.202C64.3229 169.946 64.4229 169.784 64.9139 169.644C65.2942 169.548 65.7744 169.29 65.9889 169.056C66.4733 168.566 66.7611 168.574 66.9373 169.034ZM68.6918 169.876C68.0492 170.171 67.659 169.741 68.1138 169.276C68.3875 168.991 68.5462 168.983 68.7927 169.306C69.065 169.634 69.0538 169.72 68.6918 169.876ZM56.219 168.652C56.5243 169.129 56.7483 169.625 56.7333 169.739C56.7145 169.882 57.0047 170.474 57.3687 171.105C58.2952 172.655 57.937 172.783 56.8147 171.324C55.9207 170.128 55.4892 170.014 56.2063 171.157C56.4012 171.474 56.4486 171.713 56.2937 171.693C55.8805 171.639 55.1381 170.288 55.044 169.401C55.0083 168.872 54.8796 168.651 54.7022 168.803C54.5247 168.955 54.5201 169.391 54.7033 169.998C55.0955 171.215 54.6565 171.158 54.0615 169.885L53.5839 168.919L54.3969 168.326C55.3837 167.609 55.5644 167.633 56.219 168.652ZM67.3248 170.688C66.6151 171.295 66.1624 170.74 66.8205 170.127C67.1792 169.795 67.4228 169.739 67.5773 169.964C67.7318 170.188 67.6501 170.41 67.3248 170.688ZM52.0679 168.662C52.4398 169.031 52.6426 169.087 52.8017 168.875C52.9646 168.634 53.1083 168.74 53.3215 169.118C53.6887 169.924 53.6104 170.321 53.154 169.795C52.9479 169.564 52.5572 169.338 52.3027 169.276C52.0225 169.21 51.6135 168.923 51.4149 168.635C50.9772 167.965 51.3941 167.991 52.0679 168.662ZM64.1812 170.627C64.2465 171.131 63.3827 171.309 63.0737 170.861C62.8751 170.572 62.9197 170.432 63.23 170.269C63.736 170.015 64.0863 170.148 64.1812 170.627ZM62.6972 170.928C62.8288 171.528 62.3044 171.722 61.8959 171.231C61.6235 170.904 61.6385 170.789 61.9193 170.651C62.4549 170.372 62.6061 170.42 62.6972 170.928ZM58.7734 171.609C59.0379 172.198 59.0924 172.584 58.9266 172.446C58.4294 172.031 57.8039 171.191 57.6353 170.673C57.3201 169.67 58.3146 170.5 58.7734 171.609ZM61.1391 171.394C60.8992 171.421 60.4898 171.339 60.2724 171.194C59.9076 170.971 59.9151 170.914 60.4062 170.774C60.731 170.7 61.0888 170.776 61.2691 171.003C61.5452 171.302 61.5081 171.384 61.1391 171.394ZM59.9579 171.59C60.2594 172.095 60.3877 172.52 60.2069 172.497C60.0261 172.473 59.6139 172.011 59.2607 171.498C58.8452 170.861 58.7536 170.557 59.0118 170.591C59.2184 170.618 59.6344 171.052 59.9579 171.59ZM63.3638 173.26C62.9835 173.356 62.3563 173.332 61.9211 173.246C61.2093 173.065 61.2389 173.04 62.3609 172.895C63.697 172.72 64.3717 172.984 63.3638 173.26Z" fill="#AB8E85"/>
<path d="M73.5338 131.683C73.2235 131.847 73.3672 131.953 74.0902 132.047C74.6066 132.115 75.0644 132.029 75.0831 131.886C75.1319 131.513 74.099 131.378 73.5338 131.683Z" fill="#AB8E85"/>
<path d="M67.2369 132.637C66.6238 132.906 65.5525 133.466 64.8432 133.868C64.1597 134.275 63.4504 134.677 63.3063 134.775C63.1363 134.869 63.0622 135.035 63.1542 135.134C63.2167 135.259 63.9405 134.945 64.7386 134.467C65.5108 133.985 66.8332 133.313 67.6421 132.952C68.4547 132.563 68.9424 132.248 68.7358 132.221C68.5293 132.194 67.8462 132.396 67.2369 132.637Z" fill="#AB8E85"/>
<path d="M66.9256 135.016C66.2862 135.486 65.8314 135.951 65.8976 136.047C66.0521 136.271 68.3725 134.797 68.4212 134.424C68.4996 134.026 68.0822 134.205 66.9256 135.016Z" fill="#AB8E85"/>
<path d="M69.5413 135.096C69.0794 135.414 68.7687 135.782 68.8311 135.906C68.9856 136.131 70.6963 135.101 70.745 134.729C70.8196 134.359 70.4356 134.484 69.5413 135.096Z" fill="#AB8E85"/>
<path d="M59.9648 137.427C57.599 139.45 54.3179 143.247 54.4053 143.783C54.4345 143.962 55.1592 143.24 56.0065 142.185C56.8833 141.105 58.7618 139.194 60.2184 137.898C61.6492 136.599 62.7105 135.513 62.5298 135.49C62.3748 135.469 61.2107 136.337 59.9648 137.427Z" fill="#AB8E85"/>
<path d="M63.353 137.026C62.6545 137.546 62.1367 138.091 62.225 138.219C62.3133 138.347 62.9635 137.995 63.6399 137.442C65.2627 136.08 65.0162 135.757 63.353 137.026Z" fill="#AB8E85"/>
<path d="M67.9433 138.676C67.5396 139.352 67.1951 139.977 67.1876 140.034C67.1501 140.321 67.6374 140.21 67.8116 139.883C67.9115 139.721 68.2302 139.092 68.5414 138.521C69.3341 137.08 68.8172 137.216 67.9433 138.676Z" fill="#AB8E85"/>
<path d="M63.7818 138.364C63.1016 138.946 62.5135 139.627 62.4835 139.856C62.4534 140.085 63.1074 139.704 63.9058 139.022C64.7301 138.343 65.3958 137.672 65.4108 137.557C65.4745 137.07 64.9943 137.328 63.7818 138.364Z" fill="#AB8E85"/>
<path d="M58.4929 142.452C57.524 143.433 57.3128 143.843 57.726 143.897C58.01 143.934 59.7008 141.853 59.5721 141.632C59.5059 141.536 59.0106 141.908 58.4929 142.452Z" fill="#AB8E85"/>
<path d="M64.5239 143.329C64.3647 143.542 64.0427 143.995 63.7912 144.312C63.5025 144.711 63.4467 144.937 63.6274 144.961C63.9889 145.008 64.9361 143.791 64.867 143.316C64.8233 143.048 64.7163 143.063 64.5239 143.329Z" fill="#AB8E85"/>
<path d="M60.6833 144.78C60.1839 145.385 59.8356 146.039 59.861 146.246C59.8901 146.425 60.3004 146.1 60.7778 145.462C61.2772 144.857 61.6255 144.203 61.5963 144.025C61.5672 143.846 61.1569 144.171 60.6833 144.78Z" fill="#AB8E85"/>
<path d="M52.1969 146.409C51.5858 147.466 51.1447 148.428 51.2146 148.496C51.2992 148.652 53.661 145.056 53.7098 144.683C53.7211 144.597 53.6253 144.526 53.4962 144.509C53.3929 144.496 52.7822 145.349 52.1969 146.409Z" fill="#AB8E85"/>
<path d="M51.8372 148.956C50.8366 150.982 50.6137 151.682 50.1761 154.423C49.8056 156.852 49.7789 157.257 50.1059 156.163C50.3143 155.374 50.6009 154.187 50.691 153.499C50.8031 152.843 51.3934 151.142 51.9941 149.764C53.4659 146.546 53.3564 145.978 51.8372 148.956Z" fill="#AB8E85"/>
<path d="M59.9169 149.431C59.5208 150.049 57.7036 154.3 57.6399 154.788C57.5348 155.59 58.2534 154.314 59.314 151.83C60.4563 149.122 60.6684 148.305 59.9169 149.431Z" fill="#AB8E85"/>
<path d="M53.8741 150.651C53.0119 151.821 51.409 157.645 51.9255 157.712C52.0804 157.733 52.385 156.811 52.6125 155.674C52.8621 154.57 53.3341 152.971 53.6495 152.166C54.2244 150.784 54.3257 150.011 53.8741 150.651Z" fill="#AB8E85"/>
<path d="M52.2201 151.047C52.1238 151.18 51.8897 151.965 51.7034 152.786C51.3455 154.518 51.4971 154.362 52.2691 152.277C52.7773 151.003 52.7308 150.356 52.2201 151.047Z" fill="#AB8E85"/>
<path d="M49.7714 152.096C49.304 153.259 48.8452 155.56 49.0776 155.591C49.2067 155.608 49.5 154.771 49.7163 153.721C50.1446 151.853 50.1609 151.127 49.7714 152.096Z" fill="#AB8E85"/>
<path d="M55.3048 154.569C55.2673 154.856 55.1186 155.39 54.9886 155.781C54.7919 156.28 54.8027 156.398 55.0356 156.225C55.5308 155.852 56.0141 154.167 55.6526 154.119C55.4977 154.099 55.3386 154.311 55.3048 154.569Z" fill="#AB8E85"/>
<path d="M53.5403 154.805C53.4141 155.167 53.2832 155.966 53.2524 156.604C53.1948 157.645 53.2243 157.62 53.7039 155.963C53.9864 155.009 54.1172 154.21 53.9881 154.193C53.8848 154.179 53.6886 154.474 53.5403 154.805Z" fill="#AB8E85"/>
<path d="M50.7326 156.39C50.4018 157.513 50.3833 159.26 50.6932 159.3C50.7964 159.314 50.9902 158.435 51.1365 157.318C51.4254 155.111 51.2234 154.647 50.7326 156.39Z" fill="#AB8E85"/>
<path d="M56.2261 156.76C55.9262 157.245 55.685 157.884 55.7028 158.149C55.7132 158.471 55.9202 158.294 56.3018 157.586C57.0574 156.227 56.985 155.576 56.2261 156.76Z" fill="#AB8E85"/>
<path d="M48.7167 158.75C48.6491 159.266 50.0396 161.284 50.9458 161.986C51.9036 162.694 53.3013 163.052 53.081 162.528C53.0261 162.346 52.7054 162.187 52.4214 162.15C51.5951 162.042 50.0042 160.551 49.5416 159.47C49.1415 158.514 48.7879 158.205 48.7167 158.75Z" fill="#AB8E85"/>
<path d="M54.5052 160.878C54.3889 161.766 54.4293 161.859 54.6701 161.424C55.085 160.662 55.1863 159.888 54.8764 159.848C54.7473 159.831 54.5544 160.301 54.5052 160.878Z" fill="#AB8E85"/>
<path d="M51.4182 160.182C51.377 160.497 52.4306 161.276 52.9728 161.347C53.5668 161.425 53.4756 160.918 52.8784 160.665C52.5502 160.563 52.1079 160.331 51.8905 160.186C51.6473 160.037 51.437 160.039 51.4182 160.182Z" fill="#AB8E85"/>
<path d="M49.1237 161.66C49.0186 162.462 51.2949 164.334 52.5602 164.5C53.6189 164.638 53.3728 164.111 52.2075 163.783C51.6249 163.62 50.7037 163.033 50.1477 162.464C49.5918 161.896 49.1387 161.545 49.1237 161.66Z" fill="#AB8E85"/>
<path d="M53.9211 163.133C53.8869 163.595 53.948 164.332 54.1166 164.849L54.3656 165.756L54.3865 164.593C54.3916 163.953 54.4375 163.201 54.475 162.914C54.5088 162.656 54.4355 162.413 54.2806 162.393C54.1515 162.376 53.9773 162.703 53.9211 163.133Z" fill="#AB8E85"/>
<path d="M49.3737 163.762C49.2424 164.765 52.8399 166.577 53.4134 165.807C53.5688 165.623 53.274 165.468 52.5251 165.37C51.9054 165.289 51.1791 165.019 50.9213 164.781C50.6339 164.568 50.1884 164.16 49.9047 163.919C49.647 163.681 49.3925 163.619 49.3737 163.762Z" fill="#AB8E85"/>
<path d="M78.5818 133.248C78.2715 133.411 78.526 133.473 79.4743 133.452C80.2123 133.432 80.8471 133.398 80.9062 133.348C81.1982 133.124 78.955 133.005 78.5818 133.248Z" fill="#AB8E85"/>
<path d="M82.9357 136.703C82.8345 137.477 82.8515 138.15 82.9806 138.167C83.0839 138.18 83.2734 137.534 83.3747 136.761C83.4797 135.958 83.459 135.314 83.3299 135.297C83.2008 135.28 83.0408 135.901 82.9357 136.703Z" fill="#AB8E85"/>
<path d="M74.9674 135.981C73.9985 136.962 73.6099 137.523 73.9197 137.563C74.1263 137.591 76.2752 135.219 76.1649 135.059C76.1245 134.966 75.5701 135.389 74.9674 135.981Z" fill="#AB8E85"/>
<path d="M81.7968 136.175C81.5011 136.428 81.3914 137.667 81.6496 137.701C81.7787 137.718 81.9862 137.337 82.0979 136.885C82.3099 136.067 82.2108 135.821 81.7968 136.175Z" fill="#AB8E85"/>
<path d="M79.2525 138.757C79.1375 139.034 78.6743 139.964 78.2444 140.84C77.7924 141.685 77.5324 142.467 77.6245 142.567C77.8381 142.74 79.164 140.436 79.5394 139.174C79.8402 138.28 79.6158 137.988 79.2525 138.757Z" fill="#AB8E85"/>
<path d="M80.7644 139.246C80.6494 139.523 80.0195 140.723 79.3638 141.92C78.7082 143.117 78.0858 144.259 77.9858 144.421C77.8821 144.612 77.9113 144.79 78.0662 144.811C78.3502 144.848 80.6834 140.868 81.0771 139.666C81.3521 138.77 81.1276 138.478 80.7644 139.246Z" fill="#AB8E85"/>
<path d="M82.2213 139.554C82.18 139.869 81.9834 140.368 81.8167 140.638C81.6206 140.933 81.583 141.219 81.7009 141.322C81.8187 141.425 82.0924 141.14 82.3149 140.645C82.8227 139.574 82.8939 139.03 82.5583 138.986C82.4292 138.969 82.2663 139.21 82.2213 139.554Z" fill="#AB8E85"/>
<path d="M83.197 140.527C82.9225 141.22 82.5925 141.934 82.5184 142.1C82.4147 142.29 82.4438 142.469 82.5729 142.486C82.9344 142.533 83.6909 140.766 83.6927 139.95C83.679 139.453 83.557 139.583 83.197 140.527Z" fill="#AB8E85"/>
<path d="M76.2465 141.657C75.0501 143.775 75.1892 144.317 76.448 142.325C77.444 140.736 77.826 139.824 77.542 139.787C77.4129 139.77 76.8318 140.597 76.2465 141.657Z" fill="#AB8E85"/>
<path d="M79.6051 144.691C78.6458 146.402 78.5233 146.736 78.9186 146.525C79.1439 146.409 80.9063 143.579 80.9476 143.264C80.9551 143.207 80.8593 143.136 80.7302 143.119C80.6269 143.105 80.1162 143.796 79.6051 144.691Z" fill="#AB8E85"/>
<path d="M80.0519 146.295C79.2479 147.822 77.4967 150.566 76.1829 152.376C74.8433 154.183 73.8253 155.74 73.8657 155.833C74.1122 156.157 77.3725 151.716 79.387 148.365C81.6497 144.522 82.113 143.591 81.7773 143.547C81.6482 143.531 80.8817 144.771 80.0519 146.295Z" fill="#AB8E85"/>
<path d="M75.2632 145.959C74.6155 146.895 74.1672 147.711 74.2335 147.807C74.3621 148.028 75.1056 147.163 76.0683 145.628C77.2605 143.743 76.592 144.035 75.2632 145.959Z" fill="#AB8E85"/>
<path d="M72.8963 146.786C72.2598 147.636 71.9778 148.386 72.2618 148.423C72.4684 148.45 73.783 146.232 73.6469 146.069C73.5807 145.972 73.2479 146.308 72.8963 146.786Z" fill="#AB8E85"/>
<path d="M79.5176 149.373C78.7878 150.735 78.2134 151.913 78.2833 151.981C78.3937 152.141 81.1784 147.521 81.2271 147.148C81.2384 147.062 81.1722 146.966 81.0689 146.953C80.9398 146.936 80.2437 148.04 79.5176 149.373Z" fill="#AB8E85"/>
<path d="M74.8647 149.405C72.8698 152.205 72.8069 152.284 73.1168 152.325C73.2976 152.348 74.5222 150.818 76.3208 148.313C76.7057 147.781 76.9319 147.256 76.8141 147.154C76.7221 147.054 75.8269 148.074 74.8647 149.405Z" fill="#AB8E85"/>
<path d="M77.0429 148.816C76.5984 149.603 75.4658 151.233 74.5407 152.482C72.5979 155.084 72.3746 155.988 74.2428 153.755C75.3712 152.357 78.2179 148.066 78.2742 147.636C78.3529 147.034 77.7502 147.626 77.0429 148.816Z" fill="#AB8E85"/>
<path d="M72.3165 150.413C71.1027 152.061 70.9619 152.334 71.2975 152.378C71.5816 152.415 73.6172 149.504 73.559 149.147C73.5298 148.968 72.9825 149.538 72.3165 150.413Z" fill="#AB8E85"/>
<path d="M67.485 149.401C65.9271 151.471 65.5305 152.293 66.314 151.726C66.8942 151.306 68.3971 149.054 68.3426 148.668C68.3135 148.489 67.929 148.818 67.485 149.401Z" fill="#AB8E85"/>
<path d="M70.0765 150.469C69.3105 151.506 69.834 151.72 70.6258 150.687C71.0032 150.211 71.0553 150.014 70.8229 149.984C70.6422 149.96 70.2985 150.178 70.0765 150.469Z" fill="#AB8E85"/>
<path d="M76.6639 153.518C76.3715 153.946 75.4947 155.026 74.7291 155.859C73.32 157.394 73.0121 158.141 74.1246 157.266C75.0301 156.568 77.2949 153.513 77.2441 153.098C77.1967 152.859 76.9638 153.032 76.6639 153.518Z" fill="#AB8E85"/>
<path d="M64.2798 152.217C63.6387 153.503 63.3299 154.658 63.6402 154.495C63.9801 154.306 64.9337 151.836 64.783 151.583C64.713 151.516 64.4947 151.779 64.2798 152.217Z" fill="#AB8E85"/>
<path d="M63.8688 156.361C63.399 156.941 63.062 157.509 63.1502 157.637C63.2164 157.733 63.316 157.775 63.3751 157.725C64.2294 156.816 65.1358 155.711 65.1546 155.567C65.2221 155.051 64.6494 155.414 63.8688 156.361Z" fill="#AB8E85"/>
<path d="M66.667 157.456C66.2084 157.95 65.916 158.378 66.0451 158.395C66.3034 158.429 67.8449 157.085 67.8824 156.799C67.9424 156.34 67.4622 156.598 66.667 157.456Z" fill="#AB8E85"/>
<path d="M68.8021 159.805C65.4073 163.267 60.7999 166.161 59.0956 165.938C58.8116 165.901 58.483 166.004 58.3534 166.191C57.9723 166.695 59.9727 166.461 61.6604 165.808C63.902 164.935 70.9512 159.037 70.8055 158.143C70.7764 157.965 69.8892 158.723 68.8021 159.805Z" fill="#AB8E85"/>
<path d="M70.3804 160.186C68.2394 162.296 67.6433 163.239 69.3473 161.859C70.5523 160.879 72.7641 158.429 72.6317 158.237C72.5655 158.141 71.5563 159.029 70.3804 160.186Z" fill="#AB8E85"/>
<path d="M67.2766 158.818C66.1524 159.983 66.1623 160.509 67.2898 159.52C67.7926 159.09 68.1996 158.589 68.1483 158.379C68.1267 158.143 67.7868 158.331 67.2766 158.818Z" fill="#AB8E85"/>
<path d="M72.3442 159.831C71.1787 161.311 66.9901 165.019 65.3016 166.08C63.6168 167.113 63.6417 167.525 65.3374 166.61C67.6573 165.339 71.1732 162.156 73.1714 159.532C74.0594 158.365 73.2877 158.643 72.3442 159.831Z" fill="#AB8E85"/>
<path d="M60.1677 159.753C59.6054 160.438 59.1722 161.139 59.2013 161.317C59.2304 161.496 59.7074 161.063 60.2659 160.407C60.8283 159.723 61.2615 159.022 61.2324 158.843C61.2032 158.665 60.7301 159.069 60.1677 159.753Z" fill="#AB8E85"/>
<path d="M64.3706 159.75C63.9566 160.103 63.6975 160.478 63.7416 160.542C63.9144 160.827 65.2007 159.829 65.1424 159.472C65.0949 159.232 64.818 159.342 64.3706 159.75Z" fill="#AB8E85"/>
<path d="M64.6619 161.537C64.2479 161.891 64.0109 162.297 64.0992 162.425C64.2978 162.713 65.4845 161.674 65.4116 161.227C65.3825 161.048 65.0797 161.154 64.6619 161.537Z" fill="#AB8E85"/>
<path d="M61.5878 161.746C61.1221 162.094 60.3095 162.483 59.848 162.597C59.357 162.737 58.9359 162.944 58.9209 163.059C58.8721 163.431 59.3519 163.378 60.4598 162.94C61.8522 162.335 63.3304 161.275 62.8398 161.211C62.6332 161.184 62.0755 161.431 61.5878 161.746Z" fill="#AB8E85"/>
<path d="M66.8495 163.485C64.8973 165.357 60.5348 167.584 59.2179 167.412C58.908 167.371 58.5535 167.471 58.424 167.658C58.0429 168.162 60.2757 167.958 61.9338 167.33C63.374 166.761 68.2673 163.087 67.703 162.984C67.548 162.964 67.1786 163.178 66.8495 163.485Z" fill="#AB8E85"/>
<path d="M62.105 163.213C61.6172 163.528 60.7197 163.965 60.1141 164.177C59.5085 164.389 59.0503 164.679 59.1128 164.804C59.2668 165.232 63.3369 163.433 63.4082 162.888C63.4532 162.544 63.0176 162.662 62.105 163.213Z" fill="#AB8E85"/>
<path d="M82.3474 159.858C82.0104 160.426 81.1777 161.571 80.4896 162.413C78.9838 164.286 79.0271 164.758 80.5437 163.003C81.8162 161.509 83.075 159.516 83.0243 159.102C82.9914 158.951 82.6844 159.29 82.3474 159.858Z" fill="#AB8E85"/>
<path d="M139.936 3.04557C134.068 3.53088 127.207 7.58819 122.198 13.5494C120.241 15.8584 117.516 20.4279 116.506 23.1233C114.758 27.8498 114.308 33.3001 115.41 36.9132C116.374 39.9835 119.3 43.5146 122.035 44.8928L123.439 45.6013L121.48 45.5198L119.525 45.4096L122.048 45.7981C123.438 46.0093 124.534 46.0653 124.476 45.9119C124.376 45.6657 125.535 45.8465 129.134 46.6383C130.945 47.0502 132.458 46.9277 134.076 46.2066C134.519 46.0314 134.696 46.0838 134.902 46.5188C135.148 47.0465 135.251 47.0601 136.525 46.7604C142.232 45.4962 149.948 38.5192 153.243 31.6049C155.296 27.3555 156.032 24.741 156.522 20.1995C156.839 16.9762 156.863 15.7843 156.594 14.2333C156.171 11.8459 154.746 8.4822 153.602 7.19552C151.912 5.25456 151.297 4.94079 148.382 4.53018C146.889 4.30548 145.284 3.92058 144.816 3.68441C143.832 3.17665 141.637 2.88934 139.936 3.04557ZM143.826 4.42924C144.843 4.88306 145.292 5.46651 144.492 5.36173C143.794 5.27047 140.568 6.04323 140.534 6.30115C140.515 6.44445 141.013 6.45135 141.611 6.29645C143.188 5.89067 143.206 5.95136 141.769 6.69605C139.937 7.65133 138.432 9.31984 137.335 11.4791C136.831 12.5208 135.861 13.9096 135.199 14.5517C134.537 15.1938 133.616 16.414 133.168 17.2299C132.716 18.0743 131.743 19.2878 131 19.9484C129.51 21.2983 128.932 22.3012 127.8 25.3303C127.358 26.4968 126.287 28.6594 125.41 30.1477C123.862 32.7434 123.813 32.912 123.316 35.9076C122.834 38.7886 122.752 39.0111 122.091 39.4492C121.201 40.0322 119.382 39.8816 118.406 39.1125C116.468 37.6637 115.788 34.6307 116.263 29.7958C116.554 26.7731 116.736 25.9809 117.627 23.5906C121.023 14.5033 129.797 6.06165 137.586 4.34123C140.322 3.70824 142.207 3.751 143.826 4.42924ZM151.584 6.96054C152.935 8.47824 153.084 9.34314 152.494 12.6472C151.855 16.3239 150.045 20.5177 147.142 25.2388C141.614 34.1636 136.818 39.1033 131.803 41.0994C129.949 41.8187 129.166 41.9786 127.761 41.8821C126.304 41.7787 125.95 41.6741 125.427 41.0519C124.672 40.1952 124.696 39.6153 125.762 36.0821C126.539 33.5603 126.943 32.8844 129.225 30.2973C129.628 29.8254 130.458 28.0977 131.118 26.4643C132.157 23.7437 132.395 23.3375 133.703 22.1679C134.805 21.1753 135.256 20.5348 135.672 19.365C136.051 18.2777 136.569 17.5294 137.468 16.685C138.754 15.4834 139.087 14.9441 140.149 12.2555C140.939 10.231 142.101 8.77987 144.144 7.211C146.218 5.61685 147.012 5.37098 149.037 5.75264C150.424 5.99248 150.895 6.19999 151.584 6.96054ZM154.965 11.4258C156.497 16.3776 155.636 23.7563 152.968 28.8872C152.476 29.8429 152.123 30.7296 152.182 30.883C152.314 31.2792 150.066 34.8036 148.446 36.7486C145.498 40.2104 140.316 44.0794 136.867 45.3478C134.74 46.1478 134.516 45.8561 136.503 44.9211C137.485 44.4376 138.964 43.3777 139.781 42.5519C140.624 41.7294 141.356 41.1548 141.422 41.2509C141.492 41.3184 141.292 41.642 140.993 41.9234C140.693 42.2049 140.519 42.5319 140.585 42.628C140.806 42.9484 144.115 39.9419 146.182 37.5891C149.397 33.8998 153.866 26.8476 154.065 25.1248C154.125 24.6662 154.036 24.7421 153.666 25.364C153.229 26.0938 153.177 26.0871 153.389 25.4735C153.493 25.079 153.972 23.83 154.41 22.6922C154.847 21.5544 155.223 20.2918 155.25 19.8872C155.258 19.4219 155.017 19.8568 154.564 21.1092C153.569 23.8939 153.11 24.7957 152.893 24.2427C152.794 23.9965 152.921 23.4301 153.232 22.8587C154.055 21.1883 154.98 18.3361 155.153 16.8138C155.281 15.6355 155.244 15.5141 155.021 16.2136C154.798 16.9132 154.713 16.9604 154.615 16.5102C154.549 16.2101 154.581 15.1649 154.682 14.1871C154.848 12.7222 154.833 12.6328 154.625 13.6257C154.233 15.4109 153.688 14.9606 154.032 13.14C154.185 12.373 154.213 11.1524 154.093 10.4662C153.9 9.33329 153.911 9.24731 154.205 9.60649C154.389 9.80549 154.727 10.6367 154.965 11.4258ZM140.838 9.19755C140.301 9.88521 139.449 11.3769 138.964 12.4793C138.355 13.9155 137.733 14.8543 136.928 15.5941C136.299 16.1823 135.307 17.5391 134.744 18.6313C134.185 19.6949 133.407 20.8174 133.008 21.0567C131.829 21.8352 131.059 23.1044 130.105 25.7778C129.385 27.8697 128.94 28.6569 127.375 30.5799C125.618 32.7693 125.225 33.5632 124.37 36.6868C124.258 37.1386 124.3 36.6194 124.476 35.4764C124.786 33.7097 125.057 33.0456 126.545 30.5004C127.49 28.9042 128.594 26.6877 128.969 25.6291C129.838 23.2068 130.238 22.5596 131.835 20.9906C132.501 20.3198 133.452 19.0743 133.9 18.2585C134.374 17.446 135.269 16.2224 135.935 15.5516C136.601 14.8809 137.574 13.4634 138.134 12.3998C139.078 10.5996 140.092 9.27486 141.216 8.31428C142.014 7.63177 141.903 7.87956 140.838 9.19755ZM153.328 17.9158C152.927 18.971 152.527 19.8222 152.397 19.8053C152.062 19.7614 152.177 19.281 152.953 16.9632C153.499 15.4022 153.703 15.05 153.835 15.4462C153.971 15.8137 153.788 16.606 153.328 17.9158ZM154.126 19.2445C153.813 20.2239 153.357 21.505 153.068 22.1084L152.56 23.1788L152.381 22.3392C152.29 21.8317 152.306 21.3091 152.498 21.0428C152.635 20.7984 153.091 19.7213 153.488 18.6947C153.971 17.417 154.274 16.9029 154.429 17.1272C154.583 17.3514 154.493 18.0392 154.126 19.2445ZM151.863 21.2803C151.35 22.9913 145.215 32.5363 144.669 32.4939C144.282 32.4432 144.56 31.9258 146.537 29.0655C148.709 25.9103 151.446 21.0509 151.592 20.1372C151.645 19.736 151.73 19.6888 151.906 19.9451C152.061 20.1694 152.045 20.692 151.863 21.2803ZM150.497 26.9022C148.727 29.7895 144.116 35.9194 143.755 35.8721C143.083 35.7842 143.731 34.6448 146.54 30.8441C148.29 28.5081 150.215 25.6411 150.845 24.4409C151.934 22.339 151.964 22.3137 152.084 23.2039C152.163 24.0014 151.963 24.529 150.497 26.9022ZM152.325 26.1795C152.036 26.783 152.058 26.815 152.494 26.4932C152.956 26.1747 152.974 26.2354 152.718 26.9889C152.209 28.4672 148.796 33.6754 146.809 36.0097C144.357 38.895 142.123 41.1095 141.925 40.8212C141.833 40.7217 142.613 39.7745 143.645 38.7144C144.673 37.683 146.275 35.8814 147.218 34.6931C148.82 32.6875 151.867 28.0726 151.934 27.5567C152.032 26.8116 151.377 27.6004 149.815 30.1068C147.36 34.0121 141.996 40.2767 141.599 39.7C141.488 39.5398 142.132 38.633 143.024 37.642C145.79 34.5645 149.35 29.8419 150.935 27.1636C151.946 25.4596 152.486 24.7432 152.552 25.0433C152.622 25.3148 152.503 25.8239 152.325 26.1795ZM143.848 33.7564C143.156 34.6278 142.828 34.1185 143.498 33.2151C143.854 32.7078 144.108 32.5663 144.185 32.7804C144.266 32.9659 144.103 33.4109 143.848 33.7564ZM142.86 34.6765C142.834 34.8772 142.379 35.5463 141.854 36.148C140.677 37.5098 141.075 37.6785 142.355 36.3302C143.209 35.4218 143.265 35.3999 143.204 36.0624C143.129 36.6356 142.641 37.3587 141.383 38.739C141.261 38.8688 140.427 37.4186 140.442 37.1C140.483 36.7848 142.496 34.2499 142.728 34.2803C142.832 34.2938 142.887 34.4759 142.86 34.6765ZM140.19 37.6209C140.252 37.7456 140.182 38.0862 139.989 38.3525C139.563 38.9963 139.052 38.4921 139.378 37.8061C139.622 37.3425 139.947 37.2684 140.19 37.6209ZM138.703 39.5541C138.052 40.1102 137.633 39.5015 138.261 38.9133C138.653 38.5274 138.812 38.519 138.933 38.7972C139.032 39.0434 138.913 39.3485 138.703 39.5541ZM140.726 38.9444C140.707 39.0877 140.585 39.4215 140.477 39.6406C140.299 39.9963 140.192 40.0114 139.942 39.7163C139.692 39.4212 139.714 39.2493 139.958 38.9897C140.354 38.5751 140.775 38.5719 140.726 38.9444ZM139.386 40.7512C139.205 40.9316 138.976 41.0765 138.847 41.0596C138.511 41.0156 138.653 40.3346 139.067 39.9807C139.54 39.5763 139.841 40.2861 139.386 40.7512ZM137.801 40.0191C137.963 40.39 136.836 41.1753 136.53 40.902C136.342 40.7317 136.424 40.5092 136.782 40.1772C137.352 39.6396 137.647 39.5908 137.801 40.0191ZM138.426 41.2668C138.488 41.3916 138.288 41.7152 137.996 41.9393C137.353 42.4381 136.948 41.9187 137.525 41.3238C137.951 40.884 138.268 40.8672 138.426 41.2668ZM136.323 41.283C136.381 41.4364 136.27 41.6842 136.041 41.8291C135.753 42.0246 135.598 42.0043 135.407 41.6586C135.216 41.313 135.231 41.1983 135.504 41.1175C136.05 40.9558 136.205 40.9761 136.323 41.283ZM134.937 42.0344C135.117 42.4661 134.149 43.0389 133.685 42.7741C133.464 42.6577 133.379 42.7049 133.482 42.9224C133.68 43.4147 132.808 43.6505 132.499 43.2019C132.323 42.9456 132.423 42.7838 132.914 42.644C133.294 42.5481 133.774 42.2903 133.989 42.056C134.473 41.5656 134.761 41.5741 134.937 42.0344ZM136.692 42.8762C136.049 43.171 135.659 42.741 136.114 42.2759C136.387 41.9911 136.546 41.9827 136.793 42.3064C137.065 42.6336 137.054 42.7196 136.692 42.8762ZM124.219 41.6516C124.524 42.1288 124.748 42.6245 124.733 42.7392C124.715 42.8825 125.005 43.4743 125.369 44.1049C126.295 45.6545 125.937 45.7825 124.815 44.3239C123.921 43.1283 123.489 43.0136 124.206 44.1568C124.401 44.4738 124.449 44.7132 124.294 44.6929C123.881 44.6389 123.138 43.2882 123.044 42.4015C123.008 41.8721 122.88 41.6512 122.702 41.8029C122.525 41.9545 122.52 42.3912 122.703 42.9981C123.095 44.2154 122.657 44.158 122.062 42.885L121.584 41.9188L122.397 41.3257C123.384 40.6095 123.564 40.6332 124.219 41.6516ZM135.325 43.6884C134.615 44.295 134.162 43.7403 134.821 43.1268C135.179 42.7948 135.423 42.7393 135.577 42.9635C135.732 43.1878 135.65 43.4103 135.325 43.6884ZM120.068 41.6621C120.44 42.0314 120.643 42.0871 120.802 41.8747C120.965 41.6337 121.108 41.74 121.321 42.1177C121.689 42.9236 121.61 43.3215 121.154 42.7953C120.948 42.5643 120.557 42.3383 120.303 42.2758C120.022 42.21 119.613 41.9232 119.415 41.6349C118.977 40.9655 119.394 40.9909 120.068 41.6621ZM132.181 43.6267C132.247 44.1308 131.383 44.3092 131.074 43.8606C130.875 43.5723 130.92 43.4324 131.23 43.269C131.736 43.0146 132.086 43.1478 132.181 43.6267ZM130.697 43.9279C130.829 44.5282 130.304 44.7219 129.896 44.2311C129.624 43.904 129.639 43.7894 129.919 43.6512C130.455 43.3715 130.606 43.4205 130.697 43.9279ZM126.773 44.6094C127.038 45.1979 127.092 45.584 126.927 45.4457C126.429 45.0308 125.804 44.191 125.635 43.6734C125.32 42.6702 126.315 43.5 126.773 44.6094ZM129.139 44.3944C128.899 44.4213 128.49 44.3386 128.272 44.1935C127.908 43.9709 127.915 43.9136 128.406 43.7738C128.731 43.6997 129.089 43.7757 129.269 44.0033C129.545 44.3018 129.508 44.3844 129.139 44.3944ZM127.958 44.5896C128.259 45.0955 128.388 45.5203 128.207 45.4967C128.026 45.473 127.614 45.011 127.261 44.4983C126.845 43.8609 126.754 43.5575 127.012 43.5913C127.218 43.6183 127.634 44.0517 127.958 44.5896ZM131.364 46.2597C130.984 46.3557 130.356 46.3319 129.921 46.2457C129.209 46.0651 129.239 46.0399 130.361 45.8952C131.697 45.7203 132.372 45.9835 131.364 46.2597Z" fill="#AB8E85"/>
<path d="M141.534 4.68307C141.224 4.8465 141.367 4.95276 142.09 5.0474C142.607 5.115 143.064 5.02917 143.083 4.88588C143.132 4.51332 142.099 4.37812 141.534 4.68307Z" fill="#AB8E85"/>
<path d="M135.237 5.63689C134.624 5.90643 133.553 6.46579 132.843 6.86847C132.16 7.27454 131.45 7.67723 131.306 7.77497C131.136 7.86932 131.062 8.03451 131.154 8.134C131.217 8.25878 131.941 7.94544 132.739 7.46692C133.511 6.98502 134.833 6.31279 135.642 5.95228C136.455 5.56311 136.942 5.24801 136.736 5.22097C136.529 5.19393 135.846 5.39601 135.237 5.63689Z" fill="#AB8E85"/>
<path d="M134.926 8.01556C134.286 8.4857 133.831 8.95085 133.898 9.04697C134.052 9.27124 136.372 7.79687 136.421 7.42431C136.5 7.02647 136.082 7.20504 134.926 8.01556Z" fill="#AB8E85"/>
<path d="M137.541 8.09564C137.079 8.41412 136.769 8.78153 136.831 8.90631C136.986 9.13057 138.696 8.10107 138.745 7.72851C138.82 7.35934 138.436 7.48396 137.541 8.09564Z" fill="#AB8E85"/>
<path d="M127.965 10.4274C125.599 12.4497 122.318 16.2469 122.405 16.783C122.434 16.9617 123.159 16.2404 124.006 15.1853C124.883 14.105 126.762 12.1938 128.218 10.8979C129.649 9.59854 130.711 8.5132 130.53 8.48954C130.375 8.46925 129.211 9.33709 127.965 10.4274Z" fill="#AB8E85"/>
<path d="M131.353 10.0256C130.654 10.5463 130.137 11.0907 130.225 11.2188C130.313 11.347 130.963 10.9948 131.64 10.4421C133.263 9.08045 133.016 8.75669 131.353 10.0256Z" fill="#AB8E85"/>
<path d="M135.943 11.6759C135.54 12.3518 135.195 12.9771 135.188 13.0344C135.15 13.321 135.637 13.2099 135.812 12.8829C135.912 12.7211 136.23 12.0924 136.541 11.521C137.334 10.0798 136.817 10.2162 135.943 11.6759Z" fill="#AB8E85"/>
<path d="M131.782 11.3643C131.102 11.9457 130.513 12.6266 130.483 12.8559C130.453 13.0851 131.107 12.7043 131.906 12.0218C132.73 11.3427 133.396 10.6719 133.411 10.5573C133.475 10.0701 132.994 10.3279 131.782 11.3643Z" fill="#AB8E85"/>
<path d="M126.493 15.4525C125.524 16.4333 125.313 16.8429 125.726 16.897C126.01 16.9342 127.701 14.8527 127.572 14.6318C127.506 14.5357 127.011 14.9081 126.493 15.4525Z" fill="#AB8E85"/>
<path d="M132.524 16.3294C132.365 16.5418 132.043 16.9952 131.791 17.312C131.502 17.7115 131.447 17.9374 131.627 17.961C131.989 18.0083 132.936 16.7915 132.867 16.316C132.823 16.048 132.716 16.0631 132.524 16.3294Z" fill="#AB8E85"/>
<path d="M128.683 17.7797C128.184 18.3847 127.836 19.0387 127.861 19.2461C127.89 19.4248 128.3 19.0996 128.778 18.4625C129.277 17.8574 129.625 17.2034 129.596 17.0247C129.567 16.846 129.157 17.1712 128.683 17.7797Z" fill="#AB8E85"/>
<path d="M120.197 19.4088C119.586 20.4657 119.145 21.4281 119.215 21.4956C119.299 21.6524 121.661 18.0556 121.71 17.683C121.721 17.597 121.625 17.5262 121.496 17.5093C121.393 17.4958 120.782 18.3486 120.197 19.4088Z" fill="#AB8E85"/>
<path d="M119.837 21.956C118.837 23.9821 118.614 24.6817 118.176 27.4227C117.806 29.8519 117.779 30.2565 118.106 29.1625C118.314 28.3736 118.601 27.1869 118.691 26.4991C118.803 25.8433 119.393 24.1425 119.994 22.7636C121.466 19.5458 121.356 18.9776 119.837 21.956Z" fill="#AB8E85"/>
<path d="M127.917 22.4307C127.521 23.0493 125.704 27.3004 125.64 27.7876C125.535 28.5901 126.253 27.3141 127.314 24.8295C128.456 22.1224 128.668 21.3048 127.917 22.4307Z" fill="#AB8E85"/>
<path d="M121.874 23.651C121.012 24.8207 119.409 30.6448 119.925 30.7124C120.08 30.7327 120.385 29.8106 120.612 28.6744C120.862 27.5703 121.334 25.9705 121.649 25.1665C122.224 23.7843 122.326 23.0105 121.874 23.651Z" fill="#AB8E85"/>
<path d="M120.22 24.0466C120.124 24.1798 119.89 24.9653 119.703 25.7863C119.346 27.5175 119.497 27.3625 120.269 25.2773C120.777 24.003 120.731 23.3556 120.22 24.0466Z" fill="#AB8E85"/>
<path d="M117.771 25.0961C117.304 26.2592 116.845 28.5602 117.078 28.5907C117.207 28.6076 117.5 27.7715 117.716 26.7213C118.145 24.8535 118.161 24.1269 117.771 25.0961Z" fill="#AB8E85"/>
<path d="M123.305 27.5694C123.267 27.856 123.119 28.3903 122.989 28.7814C122.792 29.2804 122.803 29.3984 123.036 29.2248C123.531 28.8524 124.014 27.1667 123.653 27.1194C123.498 27.0991 123.339 27.3115 123.305 27.5694Z" fill="#AB8E85"/>
<path d="M121.54 27.8048C121.414 28.1672 121.283 28.9663 121.252 29.6035C121.195 30.6454 121.224 30.6201 121.704 28.9631C121.986 28.009 122.117 27.2099 121.988 27.193C121.885 27.1795 121.689 27.4744 121.54 27.8048Z" fill="#AB8E85"/>
<path d="M118.733 29.3903C118.402 30.513 118.383 32.2595 118.693 32.3001C118.796 32.3136 118.99 31.4353 119.137 30.3176C119.425 28.111 119.223 27.6473 118.733 29.3903Z" fill="#AB8E85"/>
<path d="M124.226 29.7596C123.926 30.245 123.685 30.8839 123.703 31.1486C123.713 31.4706 123.92 31.2936 124.302 30.5857C125.057 29.2272 124.985 28.5764 124.226 29.7596Z" fill="#AB8E85"/>
<path d="M116.717 31.7499C116.649 32.2657 118.04 34.2841 118.946 34.9857C119.904 35.6941 121.301 36.052 121.081 35.5276C121.026 35.3455 120.705 35.1869 120.421 35.1497C119.595 35.0416 118.004 33.5508 117.542 32.47C117.141 31.514 116.788 31.2054 116.717 31.7499Z" fill="#AB8E85"/>
<path d="M122.505 33.8776C122.389 34.766 122.429 34.8587 122.67 34.4239C123.085 33.662 123.186 32.8882 122.876 32.8477C122.747 32.8308 122.554 33.3011 122.505 33.8776Z" fill="#AB8E85"/>
<path d="M119.418 33.182C119.377 33.4973 120.431 34.2765 120.973 34.3475C121.567 34.4252 121.476 33.9177 120.878 33.6647C120.55 33.5634 120.108 33.3306 119.891 33.1855C119.647 33.0371 119.437 33.0387 119.418 33.182Z" fill="#AB8E85"/>
<path d="M117.124 34.6598C117.019 35.4622 119.295 37.3342 120.56 37.4999C121.619 37.6384 121.373 37.1107 120.208 36.7833C119.625 36.6195 118.704 36.0326 118.148 35.4643C117.592 34.8959 117.139 34.5451 117.124 34.6598Z" fill="#AB8E85"/>
<path d="M121.921 36.1331C121.887 36.595 121.948 37.3317 122.117 37.8494L122.366 38.7564L122.387 37.5932C122.392 36.9526 122.438 36.2007 122.475 35.9141C122.509 35.6562 122.436 35.4134 122.281 35.3931C122.151 35.3762 121.977 35.7032 121.921 36.1331Z" fill="#AB8E85"/>
<path d="M117.374 36.7621C117.242 37.7652 120.84 39.5769 121.413 38.8067C121.569 38.623 121.274 38.4678 120.525 38.3698C119.905 38.2886 119.179 38.0187 118.921 37.7809C118.634 37.5684 118.188 37.1602 117.905 36.9191C117.647 36.6813 117.393 36.6188 117.374 36.7621Z" fill="#AB8E85"/>
<path d="M146.582 6.24749C146.272 6.41092 146.526 6.47338 147.474 6.45177C148.212 6.43178 148.847 6.39827 148.906 6.34771C149.198 6.12359 146.955 6.00485 146.582 6.24749Z" fill="#AB8E85"/>
<path d="M150.936 9.70321C150.834 10.477 150.851 11.1497 150.981 11.1666C151.084 11.1801 151.273 10.5345 151.375 9.76068C151.48 8.95824 151.459 8.31424 151.33 8.29734C151.201 8.28044 151.041 8.90078 150.936 9.70321Z" fill="#AB8E85"/>
<path d="M142.967 8.98078C141.999 9.96164 141.61 10.5229 141.92 10.5635C142.126 10.5905 144.275 8.2192 144.165 8.05901C144.124 7.96628 143.57 8.38924 142.967 8.98078Z" fill="#AB8E85"/>
<path d="M149.797 9.17518C149.501 9.42796 149.391 10.667 149.65 10.7008C149.779 10.7177 149.986 10.3368 150.098 9.88502C150.31 9.06745 150.211 8.82128 149.797 9.17518Z" fill="#AB8E85"/>
<path d="M147.252 11.7571C147.138 12.0335 146.674 12.964 146.244 13.8405C145.792 14.6849 145.532 15.4671 145.624 15.5666C145.838 15.7403 147.164 13.4362 147.539 12.1736C147.84 11.2802 147.616 10.9884 147.252 11.7571Z" fill="#AB8E85"/>
<path d="M148.764 12.2464C148.649 12.5229 148.02 13.723 147.364 14.9198C146.708 16.1165 146.086 17.2593 145.986 17.4211C145.882 17.6116 145.911 17.7903 146.066 17.8106C146.35 17.8478 148.683 13.8682 149.077 12.6663C149.352 11.7695 149.128 11.4778 148.764 12.2464Z" fill="#AB8E85"/>
<path d="M150.221 12.5538C150.18 12.869 149.983 13.3679 149.817 13.6376C149.621 13.9326 149.583 14.2192 149.701 14.3221C149.819 14.4249 150.092 14.1401 150.315 13.6445C150.823 12.5742 150.894 12.0297 150.558 11.9857C150.429 11.9688 150.266 12.2099 150.221 12.5538Z" fill="#AB8E85"/>
<path d="M151.197 13.5268C150.922 14.2196 150.593 14.9343 150.518 15.0995C150.415 15.29 150.444 15.4687 150.573 15.4856C150.934 15.5329 151.691 13.7664 151.693 12.9504C151.679 12.4531 151.557 12.5829 151.197 13.5268Z" fill="#AB8E85"/>
<path d="M144.247 14.6575C143.05 16.7745 143.189 17.3174 144.448 15.3251C145.444 13.7357 145.826 12.8238 145.542 12.7866C145.413 12.7697 144.832 13.5972 144.247 14.6575Z" fill="#AB8E85"/>
<path d="M147.605 17.6914C146.646 19.4022 146.523 19.736 146.919 19.5254C147.144 19.4091 148.906 16.5792 148.948 16.2639C148.955 16.2066 148.859 16.1358 148.73 16.1189C148.627 16.1053 148.116 16.7964 147.605 17.6914Z" fill="#AB8E85"/>
<path d="M148.052 19.2948C147.248 20.8219 145.497 23.5659 144.183 25.3761C142.843 27.1829 141.825 28.7403 141.866 28.8331C142.112 29.1568 145.372 24.7157 147.387 21.3648C149.65 17.5218 150.113 16.5914 149.777 16.5474C149.648 16.5305 148.882 17.7711 148.052 19.2948Z" fill="#AB8E85"/>
<path d="M143.263 18.9595C142.615 19.8949 142.167 20.7107 142.233 20.8068C142.362 21.0277 143.106 20.1631 144.068 18.6276C145.26 16.7432 144.592 17.0346 143.263 18.9595Z" fill="#AB8E85"/>
<path d="M140.896 19.7864C140.26 20.6359 139.978 21.386 140.262 21.4232C140.468 21.4502 141.783 19.2321 141.647 19.0685C141.581 18.9724 141.248 19.3078 140.896 19.7864Z" fill="#AB8E85"/>
<path d="M147.518 22.373C146.788 23.7349 146.213 24.9132 146.283 24.9806C146.394 25.1408 149.178 20.5208 149.227 20.1482C149.238 20.0622 149.172 19.9661 149.069 19.9526C148.94 19.9357 148.244 21.0397 147.518 22.373Z" fill="#AB8E85"/>
<path d="M142.865 22.4052C140.87 25.2048 140.807 25.284 141.117 25.3246C141.298 25.3482 142.522 23.8179 144.321 21.3133C144.706 20.7807 144.932 20.2564 144.814 20.1536C144.722 20.0541 143.827 21.0737 142.865 22.4052Z" fill="#AB8E85"/>
<path d="M145.043 21.8159C144.598 22.603 143.466 24.2329 142.541 25.4818C140.598 28.0841 140.375 28.9877 142.243 26.7545C143.371 25.3573 146.218 21.066 146.274 20.6362C146.353 20.0343 145.75 20.6259 145.043 21.8159Z" fill="#AB8E85"/>
<path d="M140.316 23.4125C139.103 25.0609 138.962 25.3339 139.298 25.3779C139.582 25.4151 141.617 22.5043 141.559 22.1468C141.53 21.9681 140.983 22.5378 140.316 23.4125Z" fill="#AB8E85"/>
<path d="M135.485 22.4011C133.927 24.4708 133.531 25.2934 134.314 24.7255C134.894 24.3059 136.397 22.0541 136.343 21.668C136.313 21.4893 135.929 21.818 135.485 22.4011Z" fill="#AB8E85"/>
<path d="M138.077 23.4691C137.31 24.5057 137.834 24.7199 138.626 23.6868C139.003 23.2115 139.055 23.0143 138.823 22.9838C138.642 22.9602 138.299 23.1775 138.077 23.4691Z" fill="#AB8E85"/>
<path d="M144.664 26.5176C144.372 26.9457 143.495 28.0261 142.729 28.8586C141.32 30.394 141.012 31.1407 142.125 30.2661C143.03 29.5685 145.295 26.5127 145.244 26.098C145.197 25.8586 144.964 26.0322 144.664 26.5176Z" fill="#AB8E85"/>
<path d="M132.28 25.2172C131.639 26.5033 131.33 27.658 131.64 27.4945C131.98 27.3058 132.934 24.8364 132.783 24.5834C132.713 24.516 132.495 24.7789 132.28 25.2172Z" fill="#AB8E85"/>
<path d="M131.869 29.3609C131.399 29.9407 131.062 30.5087 131.15 30.6368C131.216 30.7329 131.316 30.7751 131.375 30.7246C132.229 29.8162 133.136 28.7105 133.155 28.5673C133.222 28.0514 132.649 28.4137 131.869 29.3609Z" fill="#AB8E85"/>
<path d="M134.667 30.4559C134.208 30.9497 133.916 31.3778 134.045 31.3947C134.303 31.4285 135.845 30.0854 135.882 29.7988C135.942 29.3403 135.462 29.5981 134.667 30.4559Z" fill="#AB8E85"/>
<path d="M136.802 32.805C133.407 36.2666 128.8 39.1614 127.096 38.9383C126.812 38.9012 126.483 39.0039 126.353 39.191C125.972 39.6949 127.973 39.4612 129.66 38.8077C131.902 37.9351 138.951 32.0369 138.806 31.1434C138.776 30.9647 137.889 31.723 136.802 32.805Z" fill="#AB8E85"/>
<path d="M138.38 33.1865C136.239 35.2965 135.643 36.2387 137.347 34.8585C138.552 33.8794 140.764 31.4289 140.632 31.2367C140.566 31.1405 139.556 32.0287 138.38 33.1865Z" fill="#AB8E85"/>
<path d="M135.277 31.8183C134.152 32.9828 134.162 33.5088 135.29 32.5196C135.793 32.0899 136.2 31.5893 136.148 31.3785C136.127 31.1425 135.787 31.3312 135.277 31.8183Z" fill="#AB8E85"/>
<path d="M140.344 32.8314C139.179 34.3112 134.99 38.0187 133.302 39.0803C131.617 40.1132 131.642 40.5245 133.337 39.6096C135.657 38.3393 139.173 35.1558 141.171 32.5316C142.059 31.3653 141.288 31.6432 140.344 32.8314Z" fill="#AB8E85"/>
<path d="M128.168 32.7533C127.605 33.4375 127.172 34.1387 127.201 34.3174C127.23 34.4961 127.707 34.063 128.266 33.4074C128.828 32.7231 129.261 32.022 129.232 31.8433C129.203 31.6645 128.73 32.069 128.168 32.7533Z" fill="#AB8E85"/>
<path d="M132.371 32.7496C131.957 33.1035 131.697 33.4776 131.742 33.5417C131.914 33.8267 133.201 32.8291 133.142 32.4717C133.095 32.2322 132.818 32.3417 132.371 32.7496Z" fill="#AB8E85"/>
<path d="M132.662 34.5367C132.248 34.8906 132.011 35.2968 132.099 35.425C132.298 35.7133 133.484 34.6735 133.412 34.2268C133.383 34.0481 133.08 34.1542 132.662 34.5367Z" fill="#AB8E85"/>
<path d="M129.588 34.7464C129.122 35.0936 128.31 35.4827 127.848 35.5972C127.357 35.737 126.936 35.9442 126.921 36.0588C126.872 36.4314 127.352 36.3776 128.46 35.9396C129.852 35.3349 131.33 34.2749 130.84 34.2107C130.633 34.1837 130.076 34.4313 129.588 34.7464Z" fill="#AB8E85"/>
<path d="M134.85 36.4846C132.897 38.3569 128.535 40.5842 127.218 40.4118C126.908 40.3713 126.554 40.4706 126.424 40.6577C126.043 41.1616 128.276 40.9584 129.934 40.3301C131.374 39.7607 136.267 36.0872 135.703 35.9841C135.548 35.9639 135.179 36.1778 134.85 36.4846Z" fill="#AB8E85"/>
<path d="M130.105 36.2133C129.617 36.5284 128.72 36.9647 128.114 37.1769C127.508 37.3892 127.05 37.679 127.113 37.8038C127.267 38.232 131.337 36.4328 131.408 35.8883C131.453 35.5444 131.018 35.6623 130.105 36.2133Z" fill="#AB8E85"/>
<path d="M150.347 32.8583C150.01 33.4263 149.178 34.5707 148.49 35.4134C146.984 37.2859 147.027 37.758 148.544 36.0035C149.816 34.5085 151.075 32.5163 151.024 32.1015C150.991 31.9515 150.684 32.2902 150.347 32.8583Z" fill="#AB8E85"/>
<path d="M25.8365 210.192C25.2878 212.607 25.6324 217.237 26.5834 220.504C28.6842 227.791 32.7206 233.682 38.3245 237.709C41.1688 239.743 43.2909 240.742 46.261 241.406C52.2436 242.793 58.4485 240.621 62.6143 235.806C64.1394 234.033 66.1425 229.849 66.5923 227.423C67.6468 222.17 66.2398 215.759 62.9393 210.434C57.1174 201.067 44.5267 195.363 36.1876 198.325C33.4597 199.276 32.0892 200.206 29.9002 202.582C28.0219 204.591 26.4275 207.613 25.8365 210.192ZM30.5527 204.427C31.6551 203.993 33.3245 204.779 35.193 206.61C37.4012 208.747 38.0954 209.989 39.5849 214.315C41.1029 218.802 42.222 220.61 44.543 222.507C46.1705 223.822 47.3175 225.277 48.4228 227.482C49.6273 229.77 51.3543 231.534 53.9295 233.112C57.0424 235.016 57.5246 236.341 55.7594 238.331C53.3162 241.027 48.2968 241.119 42.836 238.55C36.7244 235.675 32.1517 230.704 29.217 223.72C26.4383 217.213 26.2476 211.081 28.6463 206.643C29.4083 205.243 29.8743 204.694 30.5527 204.427ZM35.949 199.934C38.4648 198.994 41.6036 198.786 44.7716 199.397C48.2082 200.025 56.0601 203.902 55.6792 204.711C55.5946 204.891 54.3921 204.362 52.5245 203.337C50.5438 202.259 49.4545 201.783 49.3698 201.963C49.2852 202.143 49.9646 202.756 50.8843 203.298C53.0916 204.703 56.6865 207.712 56.5172 208.072C56.4467 208.222 56.5741 208.392 56.758 208.442C57.536 208.698 57.8191 208.977 57.6216 209.397C57.5229 209.607 57.7924 210.43 58.2316 211.186C60.3284 214.809 61.7761 219.665 61.8083 223.195C61.8093 224.075 61.9374 224.831 62.0789 224.897C62.5033 225.097 62.5736 224.727 62.4439 222.579C62.2996 220.021 60.7383 214.745 59.2788 211.971C57.4085 208.455 58.1868 209.004 60.227 212.674C61.6721 215.258 63.1911 220.623 63.2222 223.128C63.2452 231.012 60.0259 235.064 55.8376 232.435C53.4888 230.964 52.4265 229.402 51.2912 225.718C50.1985 222.165 49.5187 221.186 46.1361 218.313C44.2678 216.702 44.1545 216.502 42.594 211.959C40.92 206.997 39.6739 205.385 36.2503 203.775C34.8497 203.079 33.5904 202.377 33.4629 202.134C33.0096 201.408 33.6876 200.775 35.949 199.934ZM35.6996 204.431C36.5767 204.844 38.7991 207.024 39.5356 208.177C39.9039 208.789 40.8822 211.117 41.6765 213.322C43.0809 217.388 43.0809 217.388 45.5862 219.702C48.4596 222.409 49.5642 223.954 50.0897 226.069C50.6009 227.994 50.2052 228.174 49.482 226.332C48.7305 224.477 47.5835 222.949 45.7295 221.381C42.9696 219.021 42.2755 217.925 40.715 213.382C39.183 208.926 37.993 206.975 35.8562 205.42C34.9081 204.718 34.7941 204.005 35.6996 204.431ZM57.8019 206.296C58.5662 206.949 59.1326 207.654 59.0762 207.774C58.9069 208.134 58.0722 207.705 57.0955 206.769C56.6425 206.337 56.1471 205.847 55.949 205.681C55.7366 205.471 55.7506 205.294 56.005 205.194C56.2594 205.094 56.9385 205.487 57.8019 206.296ZM61.2849 210.425C61.7806 211.134 61.8375 211.38 61.4982 211.441C60.7913 211.548 59.6017 209.889 60.1953 209.656C60.4497 209.556 60.8459 209.815 61.2849 210.425ZM62.8862 213.558C63.5653 213.878 63.8493 214.964 63.2413 214.934C62.718 214.871 62.0242 213.995 62.2076 213.605C62.2922 213.425 62.575 213.412 62.8862 213.558ZM64.7145 217.312C64.9557 218.048 63.8953 218.171 63.5693 217.469C63.3992 217.022 63.4698 216.946 63.9504 216.879C64.3463 216.845 64.6151 217.008 64.7145 217.312ZM65.0415 218.967C65.2967 219.526 65.2685 219.586 64.6888 219.643C64.2929 219.677 64.0807 219.54 64.0379 219.191C63.9946 218.401 64.7296 218.234 65.0415 218.967ZM65.4818 220.675C65.4963 221.012 65.2986 221.212 64.931 221.259C64.5775 221.275 64.3653 221.139 64.3225 220.789C64.3079 220.453 64.5057 220.253 64.8732 220.206C65.2267 220.189 65.439 220.326 65.4818 220.675ZM61.3543 234.444C61.9485 234.724 61.9344 234.754 61.1009 235.424C60.4369 235.954 60.027 236.017 59.4328 235.738C59.0084 235.538 58.6263 235.248 58.5554 235.105C58.4135 234.672 60.7036 234.138 61.3543 234.444ZM65.158 221.951C65.4409 222.084 65.6675 222.411 65.6396 222.691C65.5837 223.324 64.5232 223.301 64.4518 222.645C64.3944 221.885 64.5921 221.685 65.158 221.951ZM65.1884 223.797C65.6411 224.01 65.7129 225.032 65.2889 225.199C65.1334 225.236 64.8788 225.116 64.6664 224.906C64.2134 224.4 64.6225 223.53 65.1884 223.797ZM64.9219 225.759C65.5016 225.775 65.6434 226.135 65.319 226.824C64.9946 227.514 64.0754 227.411 64.2301 226.715C64.3987 225.769 64.4553 225.722 64.9219 225.759ZM63.0204 232.298C63.3033 232.431 63.2612 232.668 62.9364 233.064C62.6682 233.414 62.3999 233.764 62.3435 233.884C62.2729 234.034 61.976 234.004 61.693 233.871C61.212 233.645 61.226 233.542 61.8899 232.865C62.2994 232.435 62.8223 232.205 63.0204 232.298Z" fill="#AE9187"/>
<path d="M28.0614 214.571C28.2035 215.223 28.3878 215.64 28.5148 215.443C28.7264 214.993 28.6109 212.815 28.3279 212.682C27.9318 212.496 27.7914 213.382 28.0614 214.571Z" fill="#AE9187"/>
<path d="M28.504 218.331C28.7028 219.084 29.0145 219.67 29.1558 219.59C29.4809 219.486 28.9829 216.725 28.6009 216.509C28.2047 216.249 28.149 217.029 28.504 218.331Z" fill="#AE9187"/>
<path d="M31.4821 226.178C32.403 227.819 34.3432 230.526 34.7959 230.739C35.4184 231.032 35.262 230.336 34.4408 229.364C33.9877 228.784 33.0671 227.436 32.4438 226.337C31.1121 224.099 30.2494 223.95 31.4821 226.178Z" fill="#AE9187"/>
<path d="M37.3239 215.449C37.4798 215.779 37.6921 215.989 37.8193 215.938C38.2716 215.785 38.1997 214.762 37.747 214.55C37.2094 214.297 37.012 214.716 37.3239 215.449Z" fill="#AE9187"/>
<path d="M39.2799 219.665C39.9171 220.514 40.3407 219.981 39.7882 219.025C39.3915 218.326 39.2783 218.273 39.1091 218.633C38.9821 218.903 39.0816 219.352 39.2799 219.665Z" fill="#AE9187"/>
<path d="M36.0137 232.338C36.3677 232.834 37.8538 234.082 38.1792 234.199C38.7591 234.362 38.4473 233.775 37.3857 232.727C36.2108 231.551 35.2348 231.275 36.0137 232.338Z" fill="#AE9187"/>
<path d="M40.8378 222.009C41.0502 222.219 41.404 222.495 41.6303 222.602C41.9982 222.775 42.0405 222.685 41.9268 222.192C41.7847 221.539 40.8083 220.897 40.5967 221.347C40.5262 221.497 40.6255 221.8 40.8378 222.009Z" fill="#AE9187"/>
<path d="M38.3746 232.02C39.2664 232.916 40.4124 233.491 40.5816 233.132C40.6522 232.982 40.369 232.629 39.9586 232.326C39.5482 232.023 38.9538 231.523 38.5858 231.204C37.6658 230.442 37.4828 231.124 38.3746 232.02Z" fill="#AE9187"/>
<path d="M43.103 224.54C43.5136 224.989 44.164 225.002 44.1069 224.536C44.1209 224.359 43.866 224.02 43.5971 223.783C43.0026 223.284 42.5509 223.95 43.103 224.54Z" fill="#AE9187"/>
<path d="M40.8963 236.283C41.8726 236.925 42.3393 236.961 42.3104 236.435C42.2533 235.969 40.3576 235.077 40.1884 235.437C40.1178 235.587 40.4576 235.966 40.8963 236.283Z" fill="#AE9187"/>
<path d="M44.0091 238.113C44.2782 238.496 46.131 238.965 46.2721 238.665C46.4414 238.305 44.5457 237.413 44.15 237.667C43.9946 237.777 43.9242 238 44.0091 238.113Z" fill="#AE9187"/>
<path d="M47.3331 239.201C47.7009 239.374 48.563 238.937 48.7887 238.457C48.9438 238.127 48.8165 238.104 48.1664 238.311C47.3042 238.601 46.937 239.014 47.3331 239.201Z" fill="#AE9187"/>
<path d="M49.3674 237.594C49.5371 237.674 51.1617 236.351 51.3451 235.961C51.6554 235.302 50.9769 235.495 50.2284 236.278C49.3528 237.185 49.141 237.488 49.3674 237.594Z" fill="#AE9187"/>
<path d="M49.3414 239.56C49.921 239.503 51.9409 237.633 51.898 237.21C51.8836 237.02 51.2619 237.387 50.5273 237.993C49.0299 239.267 48.7335 239.676 49.3414 239.56Z" fill="#AE9187"/>
<path d="M51.0663 239.492C51.2078 239.559 51.6601 239.405 52.0698 239.122C53.0024 238.535 54.0331 237.226 53.7219 237.079C53.3683 236.949 50.7551 239.346 51.0663 239.492Z" fill="#AE9187"/>
<path d="M53.2999 239.078C53.7526 239.291 55.2358 237.975 55.7295 236.925C55.9552 236.445 56.0112 235.959 55.8697 235.892C55.7 235.813 55.3893 236.179 55.1636 236.659C54.9238 237.169 54.3449 237.885 53.8928 238.258C53.3984 238.648 53.1584 239.011 53.2999 239.078Z" fill="#AE9187"/>
<path d="M34.8483 201.833C35.1595 201.98 36.3886 201.056 36.2893 200.753C36.2326 200.58 35.8933 200.64 35.5259 200.834C34.7911 201.294 34.5087 201.674 34.8483 201.833Z" fill="#AE9187"/>
<path d="M39.8523 200.525C40.1918 200.685 41.747 200.538 41.8598 200.298C42.015 199.968 41.5199 199.772 40.6716 199.812C40.0636 199.856 39.4844 200.352 39.8523 200.525Z" fill="#AE9187"/>
<path d="M39.9136 204.802C40.508 205.301 41.1585 205.388 41.0166 204.955C40.8606 204.479 39.5871 203.66 39.446 203.96C39.3614 204.14 39.5739 204.496 39.9136 204.802Z" fill="#AE9187"/>
<path d="M43.3746 201.999C44.3929 202.185 44.6615 202.129 44.5197 201.769C44.4061 201.349 42.8364 201.16 42.6671 201.52C42.5684 201.73 42.8231 201.923 43.3746 201.999Z" fill="#AE9187"/>
<path d="M43.953 200.77C45.1268 200.992 45.7911 200.756 45.0272 200.396C44.2349 200.024 43.3865 199.991 43.2313 200.32C43.1608 200.47 43.4862 200.66 43.953 200.77Z" fill="#AE9187"/>
<path d="M46.7551 203.04C47.5191 203.4 48.3253 203.596 48.4807 203.486C48.6785 203.359 48.2539 203.013 47.3768 202.6C46.6128 202.241 45.8208 202.015 45.6512 202.155C45.4534 202.281 45.878 202.628 46.7551 203.04Z" fill="#AE9187"/>
<path d="M45.88 204.313C46.4033 204.449 47.1247 204.679 47.436 204.825C47.8604 205.025 47.9876 204.975 47.8741 204.628C47.6896 204.066 45.2709 203.331 45.0593 203.78C44.9747 203.96 45.286 204.18 45.88 204.313Z" fill="#AE9187"/>
<path d="M45.1605 205.842C45.5848 205.895 46.2779 206.112 46.7023 206.311C47.155 206.524 47.565 206.534 47.6497 206.354C47.8754 205.874 45.1171 204.906 44.7358 205.349C44.4815 205.596 44.5948 205.723 45.1605 205.842Z" fill="#AE9187"/>
<path d="M49.0489 205.73C49.8133 206.456 51.6384 207.425 51.7512 207.185C51.9205 206.825 51.6233 206.575 50.1517 205.59C49.4724 205.124 48.9915 204.971 48.9069 205.151C48.8222 205.331 48.9074 205.591 49.0489 205.73Z" fill="#AE9187"/>
<path d="M51.0419 205.167C52.669 206.115 53.1782 206.282 53.0221 205.805C52.8944 205.342 49.6544 203.562 49.5133 203.862C49.4287 204.042 50.1222 204.624 51.0419 205.167Z" fill="#AE9187"/>
<path d="M46.4171 216.834C47.4223 217.929 48.1433 217.792 47.2088 216.694C46.246 215.508 46.1328 215.455 45.9494 215.845C45.8648 216.025 46.0774 216.454 46.4171 216.834Z" fill="#AE9187"/>
<path d="M52.278 210.399C52.6602 210.835 53.1555 211.178 53.3959 211.181C53.7636 211.208 52.5314 209.42 52.0221 209.18C51.5694 208.967 51.7258 209.736 52.278 210.399Z" fill="#AE9187"/>
<path d="M53.2379 208.946C53.776 209.712 54.2289 210.072 54.4267 209.945C54.7941 209.678 53.3356 207.857 52.7417 207.797C52.5154 207.764 52.7423 208.31 53.2379 208.946Z" fill="#AE9187"/>
<path d="M54.3395 207.853C55.3305 208.979 55.6418 209.198 55.8252 208.809C55.9945 208.449 54.4374 206.911 53.8718 206.864C53.6738 206.844 53.844 207.291 54.3395 207.853Z" fill="#AE9187"/>
<path d="M49.1065 219.344C49.6587 220.08 49.8002 220.147 49.9695 219.787C50.0682 219.577 49.8698 219.117 49.516 218.841C48.5818 218.035 48.3559 218.295 49.1065 219.344Z" fill="#AE9187"/>
<path d="M54.3877 213.039C55.0961 214.252 55.704 214.135 55.0238 212.863C54.7121 212.276 54.344 211.884 54.1886 211.994C54.0332 212.104 54.1327 212.553 54.3877 213.039Z" fill="#AE9187"/>
<path d="M55.7302 212.389C56.2403 213.288 56.8355 214.521 57.0624 215.14C57.4595 216.206 58.0538 216.559 57.9821 215.683C57.8964 214.91 55.587 210.784 55.1911 210.744C54.9507 210.741 55.206 211.447 55.7302 212.389Z" fill="#AE9187"/>
<path d="M56.4779 210.727C56.8037 211.283 57.5122 212.642 58.065 213.817C58.6036 214.949 59.1843 215.845 59.3539 215.778C59.6507 215.662 59.5231 215.345 57.8509 212.068C57.2133 210.853 56.5476 209.844 56.3213 209.811C56.0809 209.808 56.1379 210.201 56.4779 210.727Z" fill="#AE9187"/>
<path d="M51.7979 223.686C52.2945 225.202 52.9447 224.995 52.5753 223.43C52.4048 222.69 52.1496 222.057 52.0081 221.991C51.5554 221.778 51.4432 222.604 51.7979 223.686Z" fill="#AE9187"/>
<path d="M55.9039 215.913C56.0883 216.403 56.3573 216.713 56.5269 216.646C56.9085 216.496 56.4545 215.184 55.9596 215.134C55.7333 215.101 55.7053 215.38 55.9039 215.913Z" fill="#AE9187"/>
<path d="M52.9622 227.896C53.5718 229.318 53.9258 229.741 54.1374 229.291C54.2502 229.051 53.0309 226.134 52.7763 226.014C52.3236 225.801 52.4094 226.647 52.9622 227.896Z" fill="#AE9187"/>
<path d="M57.2264 222.505C57.2702 223.807 57.4412 224.913 57.5826 224.979C57.9505 225.152 58.0068 224.959 57.9481 223.027C57.9176 221.109 57.7183 219.916 57.4354 219.783C57.1242 219.637 57.0823 220.093 57.2264 222.505Z" fill="#AE9187"/>
<path d="M58.5947 219.669C59.0923 222.137 59.1632 222.281 59.4171 221.741C59.544 221.471 59.3872 220.335 59.0607 219.193C58.3793 216.748 58.0685 217.042 58.5947 219.669Z" fill="#AE9187"/>
<path d="M59.3839 217.404C59.5537 217.484 59.8519 218.613 60.0655 219.922C60.2931 221.201 60.5771 222.213 60.7043 222.163C61.0859 222.013 60.9714 220.788 60.4035 218.763C59.8783 216.941 59.5242 216.371 59.242 216.971C59.1715 217.121 59.2425 217.338 59.3839 217.404Z" fill="#AE9187"/>
<path d="M55.2559 230.66C55.5107 230.926 55.8502 231.086 56.0198 231.019C56.3166 230.902 55.8915 230.043 55.3539 229.79C54.788 229.524 54.7039 230.144 55.2559 230.66Z" fill="#AE9187"/>
<path d="M60.4097 224.332C60.495 224.738 60.665 225.038 60.8346 224.971C61.1738 224.838 61.1439 223.359 60.8043 223.199C60.4082 223.013 60.2814 223.429 60.4097 224.332Z" fill="#AE9187"/>
<path d="M56.9963 231.735C57.0957 232.111 58.3682 232.051 58.5516 231.661C58.7491 231.241 58.353 231.128 57.5473 231.298C57.1939 231.388 56.9254 231.592 56.9963 231.735Z" fill="#AE9187"/>
<path d="M59.89 227.42C59.6653 228.779 60.1747 229.165 60.4702 227.876C60.8925 226.17 60.9204 225.817 60.6374 225.684C60.3262 225.538 60.157 225.971 59.89 227.42Z" fill="#AE9187"/>
<path d="M62.9243 228.481C62.7975 228.898 62.8545 229.291 63.0243 229.37C63.3638 229.53 63.9414 227.641 63.7286 226.992C63.5867 226.559 63.3045 227.085 62.9243 228.481Z" fill="#AE9187"/>
<path d="M59.4008 232.427C59.6554 232.546 61.279 230.344 61.2219 229.878C61.1933 229.571 60.9672 229.684 60.5719 230.231C59.8095 231.264 59.231 232.347 59.4008 232.427Z" fill="#AE9187"/>
<path d="M140.837 161.192C140.288 163.607 140.632 168.237 141.583 171.504C143.684 178.791 147.721 184.682 153.324 188.709C156.169 190.743 158.291 191.742 161.261 192.406C167.244 193.793 173.448 191.621 177.614 186.806C179.139 185.033 181.143 180.849 181.592 178.423C182.647 173.17 181.24 166.759 177.939 161.434C172.117 152.067 159.527 146.363 151.188 149.325C148.46 150.276 147.089 151.206 144.9 153.582C143.022 155.591 141.428 158.613 140.837 161.192ZM145.553 155.427C146.655 154.993 148.324 155.779 150.193 157.61C152.401 159.747 153.095 160.989 154.585 165.315C156.103 169.802 157.222 171.61 159.543 173.507C161.171 174.822 162.317 176.277 163.423 178.482C164.627 180.77 166.354 182.534 168.93 184.112C172.042 186.016 172.525 187.341 170.759 189.331C168.316 192.027 163.297 192.119 157.836 189.55C151.724 186.675 147.152 181.704 144.217 174.72C141.438 168.213 141.248 162.081 143.646 157.643C144.408 156.243 144.874 155.694 145.553 155.427ZM150.949 150.934C153.465 149.994 156.604 149.786 159.772 150.397C163.208 151.025 171.06 154.902 170.679 155.711C170.595 155.891 169.392 155.362 167.525 154.337C165.544 153.259 164.454 152.783 164.37 152.963C164.285 153.143 164.965 153.756 165.884 154.298C168.092 155.703 171.686 158.712 171.517 159.072C171.447 159.222 171.574 159.392 171.758 159.442C172.536 159.698 172.819 159.977 172.622 160.397C172.523 160.607 172.792 161.43 173.232 162.186C175.328 165.809 176.776 170.665 176.808 174.195C176.809 175.075 176.937 175.831 177.079 175.897C177.503 176.097 177.574 175.727 177.444 173.579C177.3 171.021 175.738 165.745 174.279 162.971C172.408 159.455 173.187 160.004 175.227 163.674C176.672 166.258 178.191 171.623 178.222 174.128C178.245 182.012 175.026 186.064 170.838 183.435C168.489 181.964 167.427 180.402 166.291 176.718C165.198 173.165 164.519 172.186 161.136 169.313C159.268 167.702 159.154 167.502 157.594 162.959C155.92 157.997 154.674 156.385 151.25 154.775C149.85 154.079 148.59 153.377 148.463 153.134C148.01 152.408 148.688 151.775 150.949 150.934ZM150.7 155.431C151.577 155.844 153.799 158.024 154.536 159.177C154.904 159.789 155.882 162.117 156.676 164.322C158.081 168.388 158.081 168.388 160.586 170.702C163.46 173.409 164.564 174.954 165.09 177.069C165.601 178.994 165.205 179.174 164.482 177.332C163.731 175.477 162.584 173.949 160.729 172.381C157.97 170.021 157.276 168.925 155.715 164.382C154.183 159.926 152.993 157.975 150.856 156.42C149.908 155.718 149.794 155.005 150.7 155.431ZM172.802 157.296C173.566 157.949 174.133 158.654 174.076 158.774C173.907 159.134 173.072 158.705 172.095 157.769C171.643 157.337 171.147 156.847 170.949 156.681C170.737 156.471 170.751 156.294 171.005 156.194C171.259 156.094 171.939 156.487 172.802 157.296ZM176.285 161.425C176.781 162.134 176.837 162.38 176.498 162.441C175.791 162.548 174.602 160.889 175.195 160.656C175.45 160.556 175.846 160.815 176.285 161.425ZM177.886 164.558C178.565 164.878 178.849 165.964 178.241 165.934C177.718 165.871 177.024 164.995 177.208 164.605C177.292 164.425 177.575 164.412 177.886 164.558ZM179.714 168.312C179.956 169.048 178.895 169.171 178.569 168.469C178.399 168.022 178.47 167.946 178.95 167.879C179.346 167.845 179.615 168.008 179.714 168.312ZM180.042 169.967C180.297 170.526 180.268 170.586 179.689 170.643C179.293 170.677 179.081 170.54 179.038 170.191C178.995 169.401 179.73 169.234 180.042 169.967ZM180.482 171.675C180.496 172.012 180.299 172.212 179.931 172.259C179.578 172.275 179.365 172.139 179.322 171.789C179.308 171.453 179.506 171.253 179.873 171.206C180.227 171.189 180.439 171.326 180.482 171.675ZM176.354 185.444C176.948 185.724 176.934 185.754 176.101 186.424C175.437 186.954 175.027 187.017 174.433 186.738C174.008 186.538 173.626 186.248 173.555 186.105C173.414 185.672 175.704 185.138 176.354 185.444ZM180.158 172.951C180.441 173.084 180.668 173.411 180.64 173.691C180.584 174.324 179.523 174.301 179.452 173.645C179.394 172.885 179.592 172.685 180.158 172.951ZM180.188 174.797C180.641 175.01 180.713 176.032 180.289 176.199C180.133 176.236 179.879 176.116 179.666 175.906C179.213 175.4 179.622 174.53 180.188 174.797ZM179.922 176.759C180.502 176.775 180.643 177.135 180.319 177.824C179.995 178.514 179.075 178.411 179.23 177.715C179.399 176.769 179.455 176.722 179.922 176.759ZM178.02 183.298C178.303 183.431 178.261 183.668 177.936 184.064C177.668 184.414 177.4 184.764 177.343 184.884C177.273 185.034 176.976 185.004 176.693 184.871C176.212 184.645 176.226 184.542 176.89 183.865C177.299 183.435 177.822 183.205 178.02 183.298Z" fill="#AE9187"/>
<path d="M143.061 165.571C143.204 166.223 143.388 166.64 143.515 166.443C143.726 165.993 143.611 163.815 143.328 163.682C142.932 163.496 142.791 164.382 143.061 165.571Z" fill="#AE9187"/>
<path d="M143.504 169.331C143.703 170.084 144.014 170.67 144.156 170.59C144.481 170.486 143.983 167.725 143.601 167.509C143.205 167.249 143.149 168.029 143.504 169.331Z" fill="#AE9187"/>
<path d="M146.482 177.178C147.403 178.819 149.343 181.526 149.796 181.739C150.418 182.032 150.262 181.336 149.441 180.364C148.988 179.784 148.067 178.436 147.444 177.337C146.112 175.099 145.249 174.95 146.482 177.178Z" fill="#AE9187"/>
<path d="M152.324 166.449C152.48 166.779 152.692 166.989 152.819 166.939C153.272 166.785 153.2 165.763 152.747 165.55C152.209 165.297 152.012 165.716 152.324 166.449Z" fill="#AE9187"/>
<path d="M154.28 170.665C154.917 171.514 155.341 170.981 154.788 170.025C154.392 169.326 154.278 169.273 154.109 169.633C153.982 169.903 154.082 170.352 154.28 170.665Z" fill="#AE9187"/>
<path d="M151.014 183.338C151.368 183.834 152.854 185.082 153.179 185.199C153.759 185.362 153.447 184.775 152.386 183.727C151.211 182.551 150.235 182.275 151.014 183.338Z" fill="#AE9187"/>
<path d="M155.838 173.009C156.05 173.219 156.404 173.495 156.63 173.602C156.998 173.775 157.04 173.685 156.927 173.192C156.785 172.539 155.808 171.897 155.597 172.347C155.526 172.497 155.626 172.8 155.838 173.009Z" fill="#AE9187"/>
<path d="M153.375 183.02C154.266 183.916 155.412 184.491 155.582 184.132C155.652 183.982 155.369 183.629 154.959 183.326C154.548 183.023 153.954 182.523 153.586 182.204C152.666 181.442 152.483 182.124 153.375 183.02Z" fill="#AE9187"/>
<path d="M158.103 175.54C158.514 175.989 159.164 176.002 159.107 175.536C159.121 175.359 158.866 175.02 158.597 174.783C158.003 174.284 157.551 174.95 158.103 175.54Z" fill="#AE9187"/>
<path d="M155.896 187.283C156.873 187.925 157.339 187.961 157.31 187.435C157.253 186.969 155.358 186.077 155.188 186.437C155.118 186.587 155.458 186.966 155.896 187.283Z" fill="#AE9187"/>
<path d="M159.009 189.113C159.278 189.496 161.131 189.965 161.272 189.665C161.441 189.305 159.546 188.413 159.15 188.667C158.995 188.777 158.924 189 159.009 189.113Z" fill="#AE9187"/>
<path d="M162.333 190.201C162.701 190.374 163.563 189.937 163.789 189.457C163.944 189.127 163.817 189.104 163.166 189.311C162.304 189.601 161.937 190.014 162.333 190.201Z" fill="#AE9187"/>
<path d="M164.367 188.594C164.537 188.674 166.162 187.351 166.345 186.961C166.655 186.302 165.977 186.495 165.228 187.278C164.353 188.185 164.141 188.488 164.367 188.594Z" fill="#AE9187"/>
<path d="M164.341 190.56C164.921 190.503 166.941 188.633 166.898 188.21C166.884 188.02 166.262 188.387 165.527 188.993C164.03 190.267 163.733 190.676 164.341 190.56Z" fill="#AE9187"/>
<path d="M166.066 190.492C166.208 190.559 166.66 190.405 167.07 190.122C168.002 189.535 169.033 188.226 168.722 188.079C168.368 187.949 165.755 190.346 166.066 190.492Z" fill="#AE9187"/>
<path d="M168.3 190.078C168.753 190.291 170.236 188.975 170.73 187.925C170.955 187.445 171.011 186.959 170.87 186.892C170.7 186.813 170.389 187.179 170.164 187.659C169.924 188.169 169.345 188.885 168.893 189.258C168.398 189.648 168.158 190.011 168.3 190.078Z" fill="#AE9187"/>
<path d="M149.848 152.833C150.16 152.98 151.389 152.056 151.289 151.753C151.233 151.58 150.893 151.64 150.526 151.834C149.791 152.294 149.509 152.674 149.848 152.833Z" fill="#AE9187"/>
<path d="M154.852 151.525C155.192 151.685 156.747 151.538 156.86 151.298C157.015 150.968 156.52 150.772 155.672 150.812C155.064 150.856 154.484 151.352 154.852 151.525Z" fill="#AE9187"/>
<path d="M154.914 155.802C155.508 156.302 156.159 156.388 156.017 155.955C155.861 155.479 154.587 154.66 154.446 154.96C154.361 155.14 154.574 155.496 154.914 155.802Z" fill="#AE9187"/>
<path d="M158.375 152.999C159.393 153.185 159.661 153.129 159.52 152.769C159.406 152.349 157.836 152.16 157.667 152.52C157.568 152.73 157.823 152.923 158.375 152.999Z" fill="#AE9187"/>
<path d="M158.953 151.77C160.127 151.992 160.791 151.756 160.027 151.396C159.235 151.024 158.387 150.991 158.231 151.32C158.161 151.47 158.486 151.66 158.953 151.77Z" fill="#AE9187"/>
<path d="M161.755 154.04C162.519 154.4 163.325 154.596 163.481 154.486C163.678 154.359 163.254 154.013 162.377 153.6C161.613 153.241 160.821 153.015 160.651 153.155C160.453 153.281 160.878 153.628 161.755 154.04Z" fill="#AE9187"/>
<path d="M160.88 155.313C161.403 155.449 162.125 155.679 162.436 155.825C162.86 156.025 162.988 155.975 162.874 155.628C162.69 155.066 160.271 154.331 160.059 154.78C159.975 154.96 160.286 155.18 160.88 155.313Z" fill="#AE9187"/>
<path d="M160.161 156.842C160.585 156.895 161.278 157.112 161.702 157.311C162.155 157.524 162.565 157.534 162.65 157.354C162.875 156.874 160.117 155.906 159.736 156.349C159.482 156.596 159.595 156.723 160.161 156.842Z" fill="#AE9187"/>
<path d="M164.049 156.73C164.813 157.456 166.638 158.425 166.751 158.185C166.92 157.825 166.623 157.575 165.152 156.59C164.472 156.124 163.992 155.971 163.907 156.151C163.822 156.331 163.907 156.591 164.049 156.73Z" fill="#AE9187"/>
<path d="M166.042 156.167C167.669 157.115 168.178 157.282 168.022 156.805C167.894 156.342 164.654 154.562 164.513 154.862C164.429 155.042 165.122 155.624 166.042 156.167Z" fill="#AE9187"/>
<path d="M161.417 167.834C162.422 168.929 163.143 168.792 162.209 167.694C161.246 166.508 161.133 166.455 160.949 166.845C160.865 167.025 161.077 167.454 161.417 167.834Z" fill="#AE9187"/>
<path d="M167.278 161.399C167.66 161.835 168.156 162.178 168.396 162.181C168.764 162.208 167.531 160.42 167.022 160.18C166.569 159.967 166.726 160.736 167.278 161.399Z" fill="#AE9187"/>
<path d="M168.238 159.946C168.776 160.712 169.229 161.072 169.427 160.945C169.794 160.678 168.336 158.857 167.742 158.797C167.515 158.764 167.742 159.31 168.238 159.946Z" fill="#AE9187"/>
<path d="M169.339 158.853C170.331 159.979 170.642 160.198 170.825 159.809C170.994 159.449 169.437 157.911 168.872 157.864C168.674 157.844 168.844 158.291 169.339 158.853Z" fill="#AE9187"/>
<path d="M164.106 170.344C164.659 171.08 164.8 171.147 164.969 170.787C165.068 170.577 164.87 170.117 164.516 169.841C163.582 169.035 163.356 169.295 164.106 170.344Z" fill="#AE9187"/>
<path d="M169.388 164.039C170.096 165.252 170.704 165.135 170.024 163.863C169.712 163.276 169.344 162.884 169.189 162.994C169.033 163.104 169.133 163.553 169.388 164.039Z" fill="#AE9187"/>
<path d="M170.73 163.389C171.24 164.288 171.835 165.521 172.062 166.14C172.46 167.206 173.054 167.559 172.982 166.683C172.896 165.91 170.587 161.784 170.191 161.744C169.951 161.741 170.206 162.447 170.73 163.389Z" fill="#AE9187"/>
<path d="M171.478 161.727C171.804 162.283 172.512 163.642 173.065 164.817C173.604 165.949 174.184 166.845 174.354 166.778C174.651 166.662 174.523 166.345 172.851 163.068C172.213 161.853 171.548 160.844 171.321 160.811C171.081 160.808 171.138 161.201 171.478 161.727Z" fill="#AE9187"/>
<path d="M166.798 174.686C167.294 176.202 167.945 175.995 167.575 174.43C167.405 173.69 167.15 173.057 167.008 172.991C166.555 172.778 166.443 173.604 166.798 174.686Z" fill="#AE9187"/>
<path d="M170.904 166.913C171.088 167.403 171.357 167.713 171.527 167.646C171.908 167.496 171.455 166.184 170.96 166.134C170.733 166.101 170.705 166.38 170.904 166.913Z" fill="#AE9187"/>
<path d="M167.962 178.896C168.572 180.318 168.926 180.741 169.137 180.291C169.25 180.051 168.031 177.134 167.776 177.014C167.324 176.801 167.409 177.647 167.962 178.896Z" fill="#AE9187"/>
<path d="M172.226 173.505C172.27 174.807 172.441 175.913 172.583 175.979C172.95 176.152 173.007 175.959 172.948 174.027C172.918 172.109 172.718 170.916 172.435 170.783C172.124 170.637 172.082 171.093 172.226 173.505Z" fill="#AE9187"/>
<path d="M173.595 170.669C174.092 173.137 174.163 173.281 174.417 172.741C174.544 172.471 174.387 171.335 174.061 170.193C173.379 167.748 173.069 168.042 173.595 170.669Z" fill="#AE9187"/>
<path d="M174.384 168.404C174.554 168.484 174.852 169.613 175.065 170.922C175.293 172.201 175.577 173.213 175.704 173.163C176.086 173.013 175.971 171.788 175.404 169.763C174.878 167.941 174.524 167.371 174.242 167.971C174.172 168.121 174.242 168.338 174.384 168.404Z" fill="#AE9187"/>
<path d="M170.256 181.66C170.511 181.926 170.85 182.086 171.02 182.019C171.317 181.902 170.891 181.043 170.354 180.79C169.788 180.524 169.704 181.144 170.256 181.66Z" fill="#AE9187"/>
<path d="M175.41 175.332C175.495 175.738 175.665 176.038 175.835 175.971C176.174 175.838 176.144 174.359 175.804 174.199C175.408 174.013 175.281 174.429 175.41 175.332Z" fill="#AE9187"/>
<path d="M171.996 182.735C172.096 183.111 173.368 183.051 173.552 182.661C173.749 182.241 173.353 182.128 172.547 182.298C172.194 182.388 171.925 182.592 171.996 182.735Z" fill="#AE9187"/>
<path d="M174.89 178.42C174.665 179.779 175.175 180.165 175.47 178.876C175.892 177.17 175.92 176.817 175.637 176.684C175.326 176.538 175.157 176.971 174.89 178.42Z" fill="#AE9187"/>
<path d="M177.924 179.481C177.798 179.898 177.855 180.291 178.024 180.37C178.364 180.53 178.941 178.641 178.729 177.992C178.587 177.559 178.305 178.085 177.924 179.481Z" fill="#AE9187"/>
<path d="M174.401 183.427C174.655 183.546 176.279 181.344 176.222 180.878C176.193 180.571 175.967 180.684 175.572 181.231C174.81 182.264 174.231 183.347 174.401 183.427Z" fill="#AE9187"/>
<path d="M8.83654 66.1915C8.2878 68.6067 8.63235 73.2366 9.58337 76.5038C11.6842 83.7909 15.7206 89.6815 21.3245 93.7093C24.1688 95.7432 26.2909 96.7415 29.261 97.4063C35.2436 98.7925 41.4485 96.6211 45.6143 91.8059C47.1394 90.0332 49.1425 85.8486 49.5923 83.4234C50.6468 78.17 49.2398 71.7586 45.9393 66.4339C40.1174 57.0667 27.5267 51.3634 19.1876 54.3251C16.4597 55.2757 15.0892 56.2057 12.9002 58.5817C11.0219 60.5912 9.42751 63.6131 8.83654 66.1915ZM13.5527 60.4268C14.6551 59.9932 16.3245 60.7785 18.193 62.6097C20.4012 64.7471 21.0954 65.9892 22.5849 70.3154C24.1029 74.8015 25.222 76.6097 27.543 78.5073C29.1705 79.8222 30.3175 81.2773 31.4228 83.4819C32.6273 85.7697 34.3543 87.5343 36.9295 89.1119C40.0424 91.0158 40.5246 92.3413 38.7594 94.3307C36.3162 97.0266 31.2968 97.1189 25.836 94.5499C19.7244 91.6748 15.1517 86.7039 12.217 79.7202C9.43828 73.2129 9.24758 67.0807 11.6463 62.6427C12.4083 61.2434 12.8743 60.6936 13.5527 60.4268ZM18.949 55.9341C21.4648 54.9936 24.6036 54.7856 27.7716 55.397C31.2082 56.025 39.0601 59.9018 38.6792 60.7114C38.5946 60.8913 37.3921 60.3623 35.5245 59.3372C33.5438 58.2589 32.4545 57.7831 32.3698 57.963C32.2852 58.1429 32.9646 58.7555 33.8843 59.298C36.0916 60.7027 39.6865 63.7122 39.5172 64.072C39.4467 64.2219 39.5741 64.3917 39.758 64.4416C40.536 64.6977 40.8191 64.9774 40.6216 65.3972C40.5229 65.6071 40.7924 66.4297 41.2316 67.1856C43.3284 70.8087 44.7761 75.6646 44.8083 79.1953C44.8093 80.0747 44.9374 80.8308 45.0789 80.8973C45.5033 81.097 45.5736 80.7272 45.4439 78.5788C45.2996 76.0207 43.7383 70.7452 42.2788 67.9712C40.4085 64.4546 41.1868 65.0039 43.227 68.6736C44.6721 71.2578 46.1911 76.6232 46.2222 79.1281C46.2452 87.0124 43.0259 91.0644 38.8376 88.4349C36.4888 86.9637 35.4265 85.402 34.2912 81.7185C33.1985 78.1649 32.5187 77.1859 29.1361 74.3129C27.2678 72.7015 27.1545 72.5017 25.594 67.9591C23.92 62.9967 22.6739 61.3851 19.2503 59.7745C17.8497 59.079 16.5904 58.3768 16.4629 58.1337C16.0096 57.4078 16.6876 56.7746 18.949 55.9341ZM18.6996 60.431C19.5767 60.8436 21.7991 63.0244 22.5356 64.1765C22.9039 64.7893 23.8822 67.1171 24.6765 69.3218C26.0809 73.3883 26.0809 73.3883 28.5862 75.7021C31.4596 78.4088 32.5642 79.9539 33.0897 82.0688C33.6009 83.9938 33.2052 84.1739 32.482 82.3322C31.7305 80.4772 30.5835 78.9489 28.7295 77.3808C25.9696 75.0205 25.2755 73.9249 23.715 69.3823C22.183 64.9262 20.993 62.9748 18.8562 61.4202C17.9081 60.7178 17.7941 60.0051 18.6996 60.431ZM40.8019 62.296C41.5662 62.9485 42.1326 63.6544 42.0762 63.7743C41.9069 64.1341 41.0722 63.7048 40.0955 62.7693C39.6425 62.3365 39.1471 61.8471 38.949 61.6806C38.7366 61.4709 38.7506 61.2943 39.005 61.1943C39.2594 61.0942 39.9385 61.487 40.8019 62.296ZM44.2849 66.4247C44.7806 67.134 44.8375 67.3804 44.4982 67.4406C43.7913 67.5475 42.6017 65.8892 43.1953 65.6558C43.4497 65.5557 43.8459 65.8154 44.2849 66.4247ZM45.8862 69.5584C46.5653 69.8779 46.8493 70.9636 46.2413 70.9339C45.718 70.8709 45.0242 69.9952 45.2076 69.6054C45.2922 69.4254 45.575 69.412 45.8862 69.5584ZM47.7145 73.3115C47.9557 74.0475 46.8953 74.1713 46.5693 73.4686C46.3992 73.0223 46.4698 72.9457 46.9504 72.8789C47.3463 72.8454 47.6151 73.0085 47.7145 73.3115ZM48.0415 74.9669C48.2967 75.5263 48.2685 75.5863 47.6888 75.6432C47.2929 75.6767 47.0807 75.5402 47.0379 75.1905C46.9946 74.4011 47.7296 74.2342 48.0415 74.9669ZM48.4818 76.6754C48.4963 77.0118 48.2986 77.2118 47.931 77.2586C47.5775 77.2754 47.3653 77.139 47.3225 76.7892C47.3079 76.4528 47.5057 76.2529 47.8732 76.206C48.2267 76.1892 48.439 76.3257 48.4818 76.6754ZM44.3543 90.4442C44.9485 90.7237 44.9344 90.7537 44.1009 91.4236C43.4369 91.9535 43.027 92.017 42.4328 91.7375C42.0084 91.5378 41.6263 91.2482 41.5554 91.105C41.4135 90.6721 43.7036 90.138 44.3543 90.4442ZM48.158 77.9513C48.4409 78.0844 48.6675 78.4108 48.6396 78.6906C48.5837 79.3235 47.5232 79.3007 47.4518 78.6445C47.3944 77.8851 47.5921 77.6851 48.158 77.9513ZM48.1884 79.7967C48.6411 80.0096 48.7129 81.0322 48.2889 81.1989C48.1334 81.2357 47.8788 81.1159 47.6664 80.9061C47.2134 80.4 47.6225 79.5305 48.1884 79.7967ZM47.9219 81.7587C48.5016 81.7751 48.6434 82.1348 48.319 82.8244C47.9946 83.5141 47.0754 83.4113 47.2301 82.715C47.3987 81.769 47.4553 81.7223 47.9219 81.7587ZM46.0204 88.2983C46.3033 88.4314 46.2612 88.6679 45.9364 89.0644C45.6682 89.4143 45.3999 89.7642 45.3435 89.8841C45.2729 90.034 44.976 90.0042 44.693 89.8711C44.212 89.6448 44.226 89.5415 44.8899 88.8651C45.2994 88.4352 45.8223 88.2051 46.0204 88.2983Z" fill="#AE9187"/>
<path d="M11.0614 70.5707C11.2035 71.2235 11.3878 71.6397 11.5148 71.4432C11.7264 70.9934 11.6109 68.815 11.3279 68.6819C10.9318 68.4955 10.7914 69.3816 11.0614 70.5707Z" fill="#AE9187"/>
<path d="M11.504 74.3311C11.7028 75.0838 12.0145 75.6699 12.1558 75.5899C12.4809 75.4864 11.9829 72.7253 11.6009 72.509C11.2047 72.2494 11.149 73.0288 11.504 74.3311Z" fill="#AE9187"/>
<path d="M14.4821 82.1775C15.403 83.8192 17.3432 86.5264 17.7959 86.7394C18.4184 87.0322 18.262 86.3361 17.4408 85.3638C16.9877 84.7845 16.0671 83.4359 15.4438 82.3369C14.1121 80.0992 13.2494 79.9497 14.4821 82.1775Z" fill="#AE9187"/>
<path d="M20.3239 71.4491C20.4798 71.7787 20.6921 71.9885 20.8193 71.9385C21.2716 71.785 21.1997 70.7625 20.747 70.5495C20.2094 70.2966 20.012 70.7164 20.3239 71.4491Z" fill="#AE9187"/>
<path d="M22.2799 75.6651C22.9171 76.5142 23.3407 75.9811 22.7882 75.0253C22.3915 74.326 22.2783 74.2728 22.1091 74.6326C21.9821 74.9025 22.0816 75.3521 22.2799 75.6651Z" fill="#AE9187"/>
<path d="M19.0137 88.3376C19.3677 88.8337 20.8538 90.0821 21.1792 90.1986C21.7591 90.3615 21.4473 89.7754 20.3857 88.7266C19.2108 87.5514 18.2348 87.2754 19.0137 88.3376Z" fill="#AE9187"/>
<path d="M23.8378 78.0093C24.0502 78.2191 24.404 78.4954 24.6303 78.6019C24.9982 78.7749 25.0405 78.6849 24.9268 78.192C24.7847 77.5392 23.8083 76.8968 23.5967 77.3466C23.5262 77.4965 23.6255 77.7996 23.8378 78.0093Z" fill="#AE9187"/>
<path d="M21.3746 88.02C22.2664 88.9156 23.4124 89.4913 23.5816 89.1315C23.6522 88.9816 23.369 88.6287 22.9586 88.3257C22.5482 88.0228 21.9538 87.5234 21.5858 87.2038C20.6658 86.4415 20.4828 87.1244 21.3746 88.02Z" fill="#AE9187"/>
<path d="M26.103 80.5397C26.5136 80.9892 27.164 81.0023 27.1069 80.5359C27.1209 80.3594 26.866 80.0198 26.5971 79.7834C26.0026 79.284 25.5509 79.9504 26.103 80.5397Z" fill="#AE9187"/>
<path d="M23.8963 92.2825C24.8726 92.9249 25.3393 92.9614 25.3104 92.4351C25.2533 91.9688 23.3576 91.077 23.1884 91.4368C23.1178 91.5867 23.4576 91.9663 23.8963 92.2825Z" fill="#AE9187"/>
<path d="M27.0091 94.113C27.2782 94.4959 29.131 94.9647 29.2721 94.6649C29.4414 94.305 27.5457 93.4132 27.15 93.6666C26.9946 93.7766 26.9242 93.9998 27.0091 94.113Z" fill="#AE9187"/>
<path d="M30.3331 95.2007C30.7009 95.3737 31.563 94.937 31.7887 94.4572C31.9438 94.1274 31.8165 94.1041 31.1664 94.3109C30.3042 94.6011 29.937 95.0144 30.3331 95.2007Z" fill="#AE9187"/>
<path d="M32.3674 93.5943C32.5371 93.6741 34.1617 92.351 34.3451 91.9612C34.6554 91.3015 33.9769 91.495 33.2284 92.2782C32.3528 93.1846 32.141 93.4878 32.3674 93.5943Z" fill="#AE9187"/>
<path d="M32.3414 95.5595C32.921 95.5026 34.9409 93.633 34.898 93.21C34.8836 93.0201 34.2619 93.3868 33.5273 93.9934C32.0299 95.2665 31.7335 95.6764 32.3414 95.5595Z" fill="#AE9187"/>
<path d="M34.0663 95.492C34.2078 95.5585 34.6601 95.4051 35.0698 95.1218C36.0024 94.5351 37.0331 93.2255 36.7219 93.0791C36.3683 92.9494 33.7551 95.3456 34.0663 95.492Z" fill="#AE9187"/>
<path d="M36.2999 95.0779C36.7526 95.2909 38.2358 93.9745 38.7295 92.925C38.9552 92.4452 39.0112 91.9589 38.8697 91.8923C38.7 91.8125 38.3893 92.179 38.1636 92.6588C37.9238 93.1685 37.3449 93.885 36.8928 94.2582C36.3984 94.6482 36.1584 95.0114 36.2999 95.0779Z" fill="#AE9187"/>
<path d="M17.8483 57.8333C18.1595 57.9797 19.3886 57.0564 19.2893 56.7533C19.2326 56.5802 18.8933 56.6403 18.5259 56.8336C17.7911 57.2937 17.5087 57.6735 17.8483 57.8333Z" fill="#AE9187"/>
<path d="M22.8523 56.5252C23.1918 56.6849 24.747 56.5376 24.8598 56.2978C25.015 55.9679 24.5199 55.7716 23.6716 55.812C23.0636 55.8556 22.4844 56.3522 22.8523 56.5252Z" fill="#AE9187"/>
<path d="M22.9136 60.8021C23.508 61.3015 24.1585 61.3878 24.0166 60.9548C23.8606 60.4786 22.5871 59.6597 22.446 59.9596C22.3614 60.1395 22.5739 60.4958 22.9136 60.8021Z" fill="#AE9187"/>
<path d="M26.3746 57.9992C27.3929 58.1852 27.6615 58.1285 27.5197 57.7688C27.4061 57.3491 25.8364 57.16 25.6671 57.5198C25.5684 57.7297 25.8231 57.9228 26.3746 57.9992Z" fill="#AE9187"/>
<path d="M26.953 56.7698C28.1268 56.9924 28.7911 56.7556 28.0272 56.3962C27.2349 56.0235 26.3865 55.9906 26.2313 56.3204C26.1608 56.4703 26.4862 56.6601 26.953 56.7698Z" fill="#AE9187"/>
<path d="M29.7551 59.0402C30.5191 59.3996 31.3253 59.5958 31.4807 59.4858C31.6785 59.3591 31.2539 59.0129 30.3768 58.6002C29.6128 58.2409 28.8208 58.0147 28.6512 58.1547C28.4534 58.2814 28.878 58.6276 29.7551 59.0402Z" fill="#AE9187"/>
<path d="M28.88 60.313C29.4033 60.4493 30.1247 60.6788 30.436 60.8252C30.8604 61.0249 30.9876 60.9748 30.8741 60.6285C30.6896 60.0656 28.2709 59.3306 28.0593 59.7804C27.9747 59.9603 28.286 60.18 28.88 60.313Z" fill="#AE9187"/>
<path d="M28.1605 61.8422C28.5848 61.8953 29.2779 62.1115 29.7023 62.3112C30.155 62.5241 30.565 62.5339 30.6497 62.354C30.8754 61.8743 28.1171 60.9063 27.7358 61.3495C27.4815 61.5961 27.5948 61.7226 28.1605 61.8422Z" fill="#AE9187"/>
<path d="M32.0489 61.7304C32.8133 62.4562 34.6384 63.4247 34.7512 63.1848C34.9205 62.825 34.6233 62.5753 33.1517 61.59C32.4724 61.124 31.9915 60.971 31.9069 61.1509C31.8222 61.3308 31.9074 61.5906 32.0489 61.7304Z" fill="#AE9187"/>
<path d="M34.0419 61.1666C35.669 62.1152 36.1782 62.2815 36.0221 61.8052C35.8944 61.3423 32.6544 59.5618 32.5133 59.8616C32.4287 60.0415 33.1222 60.6241 34.0419 61.1666Z" fill="#AE9187"/>
<path d="M29.4171 72.8339C30.4223 73.9293 31.1433 73.7924 30.2088 72.6936C29.246 71.5082 29.1328 71.455 28.9494 71.8448C28.8648 72.0247 29.0774 72.4543 29.4171 72.8339Z" fill="#AE9187"/>
<path d="M35.278 66.399C35.6602 66.8351 36.1555 67.178 36.3959 67.1812C36.7636 67.2077 35.5314 65.4195 35.0221 65.1799C34.5694 64.967 34.7258 65.7364 35.278 66.399Z" fill="#AE9187"/>
<path d="M36.2379 64.9463C36.776 65.7121 37.2289 66.0717 37.4267 65.945C37.7941 65.6783 36.3356 63.857 35.7417 63.7973C35.5154 63.7641 35.7423 64.3103 36.2379 64.9463Z" fill="#AE9187"/>
<path d="M37.3395 63.8532C38.3305 64.9786 38.6418 65.1983 38.8252 64.8085C38.9945 64.4487 37.4374 62.9105 36.8718 62.8641C36.6738 62.8442 36.844 63.2905 37.3395 63.8532Z" fill="#AE9187"/>
<path d="M32.1065 75.3441C32.6587 76.08 32.8002 76.1465 32.9695 75.7867C33.0682 75.5768 32.8698 75.1173 32.516 74.8409C31.5818 74.0353 31.3559 74.2952 32.1065 75.3441Z" fill="#AE9187"/>
<path d="M37.3877 69.0394C38.0961 70.2515 38.704 70.1346 38.0238 68.8625C37.7121 68.2764 37.344 67.8836 37.1886 67.9935C37.0332 68.1035 37.1327 68.5532 37.3877 69.0394Z" fill="#AE9187"/>
<path d="M38.7302 68.3893C39.2403 69.2884 39.8355 70.5205 40.0624 71.14C40.4595 72.2057 41.0538 72.5585 40.9821 71.6825C40.8964 70.9098 38.587 66.7838 38.1911 66.744C37.9507 66.7408 38.206 67.4468 38.7302 68.3893Z" fill="#AE9187"/>
<path d="M39.4779 66.7267C39.8037 67.2828 40.5122 68.6415 41.065 69.8171C41.6036 70.9494 42.1843 71.8451 42.3539 71.7784C42.6507 71.6617 42.5231 71.3453 40.8509 68.0685C40.2133 66.853 39.5476 65.844 39.3213 65.8108C39.0809 65.8076 39.1379 66.2006 39.4779 66.7267Z" fill="#AE9187"/>
<path d="M34.7979 79.6864C35.2945 81.2018 35.9447 80.995 35.5753 79.4296C35.4048 78.6902 35.1496 78.0574 35.0081 77.9909C34.5554 77.7779 34.4432 78.604 34.7979 79.6864Z" fill="#AE9187"/>
<path d="M38.9039 71.9133C39.0883 72.4029 39.3573 72.7125 39.5269 72.6458C39.9085 72.4957 39.4545 71.1836 38.9596 71.1338C38.7333 71.1006 38.7053 71.3804 38.9039 71.9133Z" fill="#AE9187"/>
<path d="M35.9622 83.8961C36.5718 85.3181 36.9258 85.741 37.1374 85.2912C37.2502 85.0513 36.0309 82.134 35.7763 82.0142C35.3236 81.8012 35.4094 82.6472 35.9622 83.8961Z" fill="#AE9187"/>
<path d="M40.2264 78.5046C40.2702 79.807 40.4412 80.9128 40.5826 80.9793C40.9505 81.1524 41.0068 80.9592 40.9481 79.0272C40.9176 77.1086 40.7183 75.9162 40.4354 75.7831C40.1242 75.6367 40.0823 76.0931 40.2264 78.5046Z" fill="#AE9187"/>
<path d="M41.5947 75.6694C42.0923 78.1374 42.1632 78.2806 42.4171 77.7408C42.544 77.471 42.3872 76.3352 42.0607 75.1928C41.3793 72.7482 41.0685 73.0415 41.5947 75.6694Z" fill="#AE9187"/>
<path d="M42.3839 73.404C42.5537 73.4839 42.8519 74.6129 43.0655 75.9219C43.2931 77.2009 43.5771 78.2134 43.7043 78.1633C44.0859 78.0133 43.9714 76.7875 43.4035 74.7626C42.8783 72.9408 42.5242 72.3714 42.242 72.9711C42.1715 73.121 42.2425 73.3375 42.3839 73.404Z" fill="#AE9187"/>
<path d="M38.2559 86.6597C38.5107 86.9261 38.8502 87.0858 39.0198 87.0191C39.3166 86.9024 38.8915 86.0432 38.3539 85.7903C37.788 85.5241 37.7039 86.1437 38.2559 86.6597Z" fill="#AE9187"/>
<path d="M43.4097 80.3319C43.495 80.7382 43.665 81.0379 43.8346 80.9712C44.1738 80.8378 44.1439 79.3589 43.8043 79.1992C43.4082 79.0128 43.2814 79.4292 43.4097 80.3319Z" fill="#AE9187"/>
<path d="M39.9963 87.7348C40.0957 88.1112 41.3682 88.0506 41.5516 87.6608C41.7491 87.241 41.353 87.1279 40.5473 87.2982C40.1939 87.3883 39.9254 87.5916 39.9963 87.7348Z" fill="#AE9187"/>
<path d="M42.89 83.42C42.6653 84.7791 43.1747 85.1653 43.4702 83.876C43.8925 82.1704 43.9204 81.8173 43.6374 81.6842C43.3262 81.5378 43.157 81.9709 42.89 83.42Z" fill="#AE9187"/>
<path d="M45.9243 84.4811C45.7975 84.8975 45.8545 85.2906 46.0243 85.3704C46.3638 85.5302 46.9414 83.6412 46.7286 82.9918C46.5867 82.5588 46.3045 83.0853 45.9243 84.4811Z" fill="#AE9187"/>
<path d="M42.4008 88.4266C42.6554 88.5464 44.279 86.3439 44.2219 85.8775C44.1933 85.5711 43.9672 85.6845 43.5719 86.2309C42.8095 87.2639 42.231 88.3467 42.4008 88.4266Z" fill="#AE9187"/>
</svg>
