<svg width="201" height="248" viewBox="0 0 201 248" fill="none" xmlns="http://www.w3.org/2000/svg">
<path d="M22.7519 195.354C20.1331 196.301 15.9624 199.419 13.4498 202.28C7.83326 208.641 4.71539 215.965 4.31323 223.626C4.11907 227.508 4.46535 230.09 5.64295 233.263C7.97043 239.681 13.7989 244.157 20.8884 245.135C23.4933 245.487 28.6707 244.828 31.2387 243.782C36.8504 241.593 42.0604 236.407 45.0905 230.112C50.4116 219.022 48.1492 203.832 40.2747 197.842C37.7161 195.871 36.0027 195.154 32.4233 194.548C29.3797 194.009 25.5508 194.347 22.7519 195.354ZM31.0746 196.271C32.1553 197.037 32.4277 199.069 31.8318 201.918C31.1527 205.269 30.3998 206.667 27.2128 210.67C23.8918 214.796 22.8618 216.932 22.4783 220.244C22.2242 222.556 21.5452 224.505 20.1318 226.868C18.6999 229.374 18.0809 232.051 18.1546 235.406C18.2468 239.46 17.2861 240.71 14.3302 240.265C10.2936 239.615 7.15315 234.988 6.26206 228.342C5.26478 220.904 7.18644 213.636 12.0086 206.679C16.475 200.156 22.1607 196.274 27.8185 195.831C29.6059 195.697 30.4095 195.799 31.0746 196.271ZM38.6074 198.591C41.0275 200.37 43.1334 203.172 44.4819 206.497C45.9782 210.082 47.0862 219.749 46.0886 219.882C45.8669 219.912 45.636 218.471 45.4698 216.109C45.2852 213.61 45.0728 212.307 44.8511 212.336C44.6294 212.366 44.4631 213.37 44.5092 214.556C44.523 217.463 43.8623 222.635 43.4189 222.694C43.2342 222.719 43.151 222.94 43.2157 223.142C43.4465 224.022 43.3542 224.455 42.8369 224.525C42.5782 224.559 41.9639 225.308 41.5159 226.174C39.3634 230.319 35.6499 234.602 32.329 236.765C31.4977 237.298 30.8603 237.874 30.8833 238.046C30.9526 238.562 31.3452 238.405 33.2989 236.986C35.6314 235.306 39.6729 230.663 41.4096 227.626C43.599 223.757 43.5527 224.814 41.3218 228.934C39.7559 231.844 35.6036 236.502 33.2527 238.044C25.8073 242.828 20.0156 242.272 19.9558 236.777C19.919 233.697 20.7504 231.763 23.5448 228.479C26.2422 225.313 26.7549 224.087 27.4156 219.196C27.8037 216.48 27.9238 216.254 31.2725 212.054C34.9491 207.495 35.7159 205.359 35.1572 201.192C34.9633 199.465 34.8617 197.866 35.0142 197.601C35.4253 196.739 36.4367 196.989 38.6074 198.591ZM34.2011 201.075C34.3443 202.142 33.6329 205.533 32.9908 206.916C32.6352 207.63 31.0278 209.948 29.425 212.021C26.432 215.788 26.432 215.788 25.7668 219.522C24.9537 223.838 24.1638 225.802 22.4826 227.569C20.9722 229.209 20.5612 228.949 21.8637 227.162C23.1616 225.34 23.9099 223.347 24.2657 220.67C24.8201 216.67 25.4344 215.36 28.7831 211.161C32.0671 207.04 33.1895 204.751 33.3605 201.818C33.4483 200.51 34.0534 199.973 34.2011 201.075ZM45.8806 222.82C45.7281 223.927 45.4048 224.882 45.257 224.901C44.8136 224.961 44.712 223.923 45.0031 222.447C45.1371 221.763 45.2987 221.005 45.3357 220.719C45.405 220.395 45.5805 220.301 45.8299 220.478C46.0793 220.655 46.1208 221.526 45.8806 222.82ZM44.0929 228.563C43.7234 229.454 43.5248 229.656 43.2616 229.375C42.7304 228.781 43.5758 226.669 44.1577 227.082C44.4071 227.259 44.4024 227.785 44.0929 228.563ZM42.1022 231.95C42.213 232.776 41.3585 233.697 41.0168 233.112C40.7581 232.586 41.1646 231.409 41.645 231.345C41.8667 231.315 42.0514 231.571 42.1022 231.95ZM39.6634 235.922C39.1137 236.592 38.3517 235.677 38.8182 234.949C39.1369 234.521 39.2524 234.54 39.608 234.948C39.8805 235.297 39.8897 235.646 39.6634 235.922ZM38.2962 237.227C37.9221 237.803 37.8482 237.813 37.4418 237.307C37.1693 236.958 37.1693 236.677 37.4741 236.426C38.1947 235.909 38.7997 236.494 38.2962 237.227ZM36.9475 238.67C36.6381 238.887 36.3286 238.823 36.0608 238.508C35.8299 238.189 35.8299 237.908 36.1347 237.657C36.4442 237.441 36.7536 237.504 37.0215 237.819C37.2524 238.138 37.2524 238.419 36.9475 238.67ZM21.4104 243.137C21.5073 243.86 21.4704 243.865 20.3296 243.492C19.4244 243.193 19.115 242.849 19.018 242.126C18.9487 241.609 18.9903 241.078 19.0827 240.925C19.406 240.531 21.3042 242.345 21.4104 243.137ZM35.5435 239.139C35.5896 239.483 35.4187 239.892 35.137 240.035C34.5042 240.365 33.8808 239.362 34.4581 238.899C35.1417 238.386 35.4511 238.45 35.5435 239.139ZM33.8161 240.282C33.8899 240.833 32.9662 241.517 32.5505 241.223C32.4212 241.1 32.3796 240.79 32.4489 240.465C32.6522 239.737 33.7237 239.593 33.8161 240.282ZM31.7977 241.218C32.1348 241.769 31.8808 242.119 31.031 242.233C30.1811 242.347 29.7193 241.427 30.4722 241.151C31.4698 240.737 31.5483 240.761 31.7977 241.218ZM24.454 243.395C24.5002 243.739 24.2508 243.843 23.6781 243.779C23.1839 243.74 22.6897 243.702 22.5419 243.721C22.3572 243.746 22.2048 243.451 22.1586 243.107C22.0801 242.521 22.1863 242.472 23.2301 242.683C23.886 242.805 24.4217 243.154 24.454 243.395Z" fill="#AE9187"/>
<path d="M19.9621 200.074C19.4309 200.601 19.1492 201.025 19.4124 201.024C19.9667 200.95 21.9574 199.526 21.9112 199.182C21.8465 198.7 20.9228 199.104 19.9621 200.074Z" fill="#AE9187"/>
<path d="M16.6736 202.759C16.0824 203.399 15.7175 204.044 15.8791 204.127C16.1747 204.368 18.4841 202.236 18.4564 201.749C18.4611 201.222 17.6897 201.641 16.6736 202.759Z" fill="#AE9187"/>
<path d="M11.0615 210.277C10.0684 212.128 8.68733 215.573 8.7612 216.124C8.86278 216.881 9.42627 216.315 9.84663 214.962C10.1192 214.189 10.8351 212.515 11.4956 211.27C12.8028 208.676 12.4195 207.781 11.0615 210.277Z" fill="#AE9187"/>
<path d="M24.765 209.246C24.5479 209.59 24.4786 209.915 24.6033 210.003C25.0236 210.333 25.9473 209.648 25.8734 209.097C25.7857 208.443 25.2684 208.512 24.765 209.246Z" fill="#AE9187"/>
<path d="M21.9659 213.617C21.5502 214.724 22.3122 214.798 22.8804 213.705C23.3007 212.912 23.2822 212.775 22.8388 212.834C22.5063 212.879 22.1414 213.243 21.9659 213.617Z" fill="#AE9187"/>
<path d="M7.98987 218.225C7.73581 218.855 7.4586 220.996 7.54634 221.37C7.74491 222.009 8.10981 221.364 8.45628 219.74C8.85356 217.934 8.52107 216.857 7.98987 218.225Z" fill="#AE9187"/>
<path d="M20.6958 216.486C20.6265 216.811 20.5803 217.308 20.6172 217.584C20.6772 218.031 20.7881 218.016 21.1853 217.613C21.7165 217.086 21.7304 215.787 21.1761 215.861C20.9914 215.886 20.7651 216.162 20.6958 216.486Z" fill="#AE9187"/>
<path d="M9.72633 220.236C9.42144 221.609 9.57379 223.026 10.0172 222.966C10.2019 222.941 10.3636 222.464 10.4006 221.898C10.4375 221.332 10.5484 220.476 10.627 219.94C10.7887 218.621 10.0312 218.863 9.72633 220.236Z" fill="#AE9187"/>
<path d="M19.6795 220.128C19.504 220.783 19.8873 221.397 20.2937 221.062C20.4692 220.969 20.6355 220.526 20.6956 220.132C20.8065 219.276 19.9012 219.257 19.6795 220.128Z" fill="#AE9187"/>
<path d="M7.22744 225.163C7.21352 226.462 7.46291 226.919 7.94326 226.574C8.34971 226.239 8.04037 223.932 7.59698 223.992C7.41223 224.017 7.2598 224.563 7.22744 225.163Z" fill="#AE9187"/>
<path d="M7.38903 229.173C7.19041 229.655 7.87388 231.667 8.24337 231.617C8.68675 231.558 8.37741 229.25 7.89709 229.034C7.69849 228.956 7.44446 229.025 7.38903 229.173Z" fill="#AE9187"/>
<path d="M8.3818 232.93C8.44182 233.378 9.37937 233.918 9.97055 233.839C10.377 233.785 10.3216 233.652 9.73041 233.17C8.93143 232.541 8.31716 232.448 8.3818 232.93Z" fill="#AE9187"/>
<path d="M11.139 233.858C11.1667 234.064 13.4067 234.781 13.887 234.716C14.6999 234.607 14.1041 234.091 12.9079 233.866C11.5177 233.597 11.1021 233.582 11.139 233.858Z" fill="#AE9187"/>
<path d="M9.26386 235.021C9.67027 235.527 12.6677 236.282 13.0418 235.986C13.2127 235.858 12.4876 235.5 11.4669 235.181C9.35163 234.553 8.78354 234.524 9.26386 235.021Z" fill="#AE9187"/>
<path d="M10.377 236.589C10.4 236.761 10.8203 237.09 11.3376 237.301C12.4599 237.817 14.3258 237.987 14.275 237.609C14.1826 237.2 10.3262 236.21 10.377 236.589Z" fill="#AE9187"/>
<path d="M12.1273 238.422C12.2012 238.973 14.3488 239.562 15.642 239.388C16.2332 239.309 16.7274 239.068 16.7043 238.895C16.6766 238.689 16.1408 238.62 15.5497 238.7C14.9215 238.784 13.8916 238.677 13.2635 238.48C12.5938 238.255 12.1042 238.25 12.1273 238.422Z" fill="#AE9187"/>
<path d="M36.1411 198.711C36.1918 199.09 37.8129 199.679 38.0393 199.403C38.1686 199.246 37.9053 198.966 37.4989 198.74C36.6168 198.332 36.0857 198.298 36.1411 198.711Z" fill="#AE9187"/>
<path d="M40.4223 202.589C40.4777 203.002 41.563 204.364 41.8586 204.325C42.2651 204.27 42.1496 203.69 41.5954 202.923C41.1844 202.382 40.3623 202.142 40.4223 202.589Z" fill="#AE9187"/>
<path d="M36.4133 205.23C36.3024 206.086 36.6164 206.745 36.9397 206.351C37.2954 205.918 37.2955 204.235 36.926 204.285C36.7043 204.315 36.4964 204.728 36.4133 205.23Z" fill="#AE9187"/>
<path d="M41.1703 206.766C41.6136 207.828 41.8307 208.044 42.0848 207.695C42.4127 207.335 41.6368 205.757 41.1934 205.816C40.9348 205.851 40.9071 206.205 41.1703 206.766Z" fill="#AE9187"/>
<path d="M42.6853 206.562C43.1887 207.792 43.8168 208.268 43.6921 207.339C43.5628 206.375 43.0779 205.563 42.6715 205.618C42.4867 205.642 42.5052 206.061 42.6853 206.562Z" fill="#AE9187"/>
<path d="M42.2416 210.548C42.3662 211.478 42.671 212.348 42.8696 212.427C43.1098 212.535 43.1791 211.93 43.036 210.862C42.9113 209.932 42.6435 209.057 42.4079 208.983C42.1678 208.875 42.0985 209.481 42.2416 210.548Z" fill="#AE9187"/>
<path d="M40.5051 210.5C40.6945 211.071 40.9161 211.882 40.9669 212.261C41.0362 212.778 41.1609 212.866 41.4195 212.551C41.8398 212.039 41.064 209.339 40.5098 209.413C40.2881 209.443 40.2696 209.866 40.5051 210.5Z" fill="#AE9187"/>
<path d="M38.6207 210.753C38.8286 211.181 39.0456 211.958 39.1149 212.474C39.1887 213.025 39.4289 213.414 39.6506 213.384C40.2418 213.305 39.4798 210.147 38.8286 210.059C38.4407 209.971 38.3898 210.153 38.6207 210.753Z" fill="#AE9187"/>
<path d="M41.0916 214.313C40.8698 215.464 41.0637 217.752 41.3593 217.712C41.8027 217.653 41.8581 217.225 41.8951 215.257C41.9229 214.342 41.7751 213.8 41.5534 213.83C41.3317 213.86 41.1377 214.096 41.0916 214.313Z" fill="#AE9187"/>
<path d="M42.8372 215.831C42.9295 217.922 43.0819 218.498 43.4376 218.064C43.7978 217.666 43.5117 213.568 43.1422 213.617C42.9205 213.647 42.7911 214.646 42.8372 215.831Z" fill="#AE9187"/>
<path d="M28.9859 218.565C28.5609 220.164 29.1289 220.754 29.6001 219.219C30.1359 217.604 30.1175 217.467 29.6371 217.531C29.4154 217.561 29.1383 218.019 28.9859 218.565Z" fill="#AE9187"/>
<path d="M38.6388 220.145C38.4586 220.765 38.4355 221.434 38.5787 221.66C38.7773 222.019 39.7196 219.79 39.6365 219.17C39.5626 218.619 38.9298 219.23 38.6388 220.145Z" fill="#AE9187"/>
<path d="M40.597 220.163C40.1998 221.128 40.1351 221.767 40.3752 221.875C40.8509 222.057 41.687 219.596 41.3822 219.006C41.276 218.775 40.8973 219.316 40.597 220.163Z" fill="#AE9187"/>
<path d="M42.3012 220.53C41.8393 222.135 41.8208 222.558 42.3012 222.493C42.7445 222.434 43.2527 220.052 42.9525 219.497C42.8509 219.3 42.5322 219.728 42.3012 220.53Z" fill="#AE9187"/>
<path d="M28.2468 222.59C27.8865 223.55 27.9096 223.722 28.353 223.663C28.6116 223.628 28.9257 223.165 28.9719 222.668C29.1659 221.31 28.7826 221.256 28.2468 222.59Z" fill="#AE9187"/>
<path d="M37.424 223.708C36.708 225.101 37.1883 225.598 37.9782 224.195C38.3431 223.55 38.4909 222.969 38.2923 222.891C38.0937 222.812 37.7288 223.177 37.424 223.708Z" fill="#AE9187"/>
<path d="M38.8556 224.568C38.3152 225.587 37.5115 226.886 37.0635 227.472C36.2968 228.486 36.3244 229.254 37.1096 228.658C37.7886 228.111 40.2875 223.464 40.0843 223.071C39.9411 222.845 39.4284 223.509 38.8556 224.568Z" fill="#AE9187"/>
<path d="M40.8833 224.261C40.5553 224.901 39.7008 226.383 38.9248 227.608C38.1812 228.795 37.6869 229.878 37.8532 229.995C38.1442 230.202 38.3659 229.892 40.449 226.352C41.2111 225.023 41.7608 223.793 41.6546 223.562C41.5114 223.335 41.1743 223.626 40.8833 224.261Z" fill="#AE9187"/>
<path d="M25.7756 227.724C24.644 229.102 25.2351 229.584 26.4914 228.294C27.0873 227.688 27.5307 227.068 27.5076 226.896C27.4337 226.345 26.5839 226.739 25.7756 227.724Z" fill="#AE9187"/>
<path d="M35.6272 226.858C35.2762 227.326 35.1468 227.764 35.3131 227.882C35.6872 228.147 36.6525 226.931 36.3985 226.44C36.2923 226.208 36.0106 226.351 35.6272 226.858Z" fill="#AE9187"/>
<path d="M22.501 231.353C21.5264 232.78 21.3416 233.366 21.8958 233.292C22.1914 233.252 24.2099 230.352 24.1683 230.042C24.0945 229.492 23.3462 230.083 22.501 231.353Z" fill="#AE9187"/>
<path d="M30.1955 232.074C28.99 232.901 28.0478 233.729 28.0709 233.901C28.1309 234.349 28.348 234.284 30.14 233.063C31.9367 231.875 32.9436 230.969 32.8974 230.625C32.8466 230.246 32.3894 230.483 30.1955 232.074Z" fill="#AE9187"/>
<path d="M33.7102 231.638C31.6779 233.593 31.5856 233.745 32.2507 233.656C32.5832 233.612 33.5624 232.779 34.4446 231.785C36.3429 229.672 35.8764 229.559 33.7102 231.638Z" fill="#AE9187"/>
<path d="M36.3335 231.005C36.3612 231.212 35.4744 232.172 34.3659 233.162C33.2943 234.147 32.5091 235.024 32.6338 235.112C33.0079 235.377 34.0979 234.53 35.6683 232.777C37.0725 231.187 37.3958 230.512 36.6568 230.611C36.4721 230.636 36.3104 230.833 36.3335 231.005Z" fill="#AE9187"/>
<path d="M21.2814 235.162C21.1844 235.561 21.2398 235.974 21.4061 236.092C21.697 236.298 22.2513 235.382 22.1636 234.728C22.0712 234.04 21.4339 234.335 21.2814 235.162Z" fill="#AE9187"/>
<path d="M30.4031 236.147C30.0705 236.472 29.8904 236.812 30.0567 236.93C30.3892 237.166 31.7702 236.244 31.7148 235.831C31.6502 235.349 31.1791 235.482 30.4031 236.147Z" fill="#AE9187"/>
<path d="M21.3229 237.435C21.0273 237.755 21.8586 238.905 22.339 238.841C22.8563 238.772 22.7223 238.334 22.0711 237.685C21.7709 237.41 21.4153 237.282 21.3229 237.435Z" fill="#AE9187"/>
<path d="M27.1653 237.528C25.7428 238.139 25.6873 238.848 27.0868 238.344C28.9573 237.708 29.3084 237.521 29.2622 237.176C29.2114 236.798 28.6987 236.901 27.1653 237.528Z" fill="#AE9187"/>
<path d="M28.007 240.999C27.5359 241.133 27.1988 241.423 27.2265 241.63C27.2819 242.043 29.4203 241.441 29.9053 240.85C30.2286 240.456 29.5589 240.511 28.007 240.999Z" fill="#AE9187"/>
<path d="M22.131 240.096C22.1725 240.406 25.2439 240.59 25.6503 240.255C25.9228 240.043 25.6781 239.901 24.9206 239.862C23.4796 239.775 22.1033 239.889 22.131 240.096Z" fill="#AE9187"/>
<path d="M142.093 126.917C139.31 126.819 134.277 128.156 130.879 129.873C123.295 133.681 117.67 139.313 114.439 146.27C112.811 149.8 112.169 152.325 112.078 155.708C111.843 162.531 115.581 168.858 121.795 172.41C124.08 173.708 129.13 175.028 131.902 175.016C137.926 175.078 144.694 172.21 149.854 167.499C158.928 159.195 162.495 144.257 157.423 135.762C155.784 132.979 154.462 131.675 151.367 129.777C148.744 128.142 145.066 127.028 142.093 126.917ZM149.473 130.873C150.19 131.987 149.685 133.974 148.069 136.395C146.189 139.251 144.969 140.267 140.519 142.792C135.898 145.381 134.146 146.979 132.555 149.908C131.456 151.959 130.099 153.514 127.907 155.179C125.643 156.97 124.07 159.223 122.887 162.363C121.461 166.159 120.103 166.961 117.526 165.445C114.024 163.336 112.836 157.872 114.488 151.373C116.337 144.1 120.832 138.073 127.901 133.418C134.478 129.032 141.201 127.551 146.616 129.25C148.325 129.792 149.032 130.187 149.473 130.873ZM155.597 135.835C157.179 138.388 158.087 141.774 158.098 145.362C158.149 149.246 155.571 158.629 154.596 158.38C154.379 158.325 154.702 156.902 155.429 154.649C156.19 152.261 156.479 150.973 156.262 150.918C156.046 150.862 155.517 151.732 155.117 152.849C154.045 155.552 151.503 160.104 151.07 159.993C150.889 159.947 150.729 160.122 150.714 160.333C150.6 161.236 150.353 161.604 149.847 161.475C149.594 161.411 148.745 161.876 148.006 162.512C144.463 165.555 139.419 168.144 135.531 168.912C134.562 169.096 133.755 169.393 133.712 169.561C133.584 170.066 134.007 170.066 136.349 169.479C139.14 168.79 144.622 165.99 147.366 163.82C150.841 161.046 150.403 162.011 146.796 165.001C144.258 167.116 138.668 169.889 135.912 170.443C127.219 172.104 122.053 169.428 124.047 164.307C125.162 161.436 126.655 159.952 130.472 157.947C134.156 156.016 135.089 155.07 137.527 150.778C138.9 148.403 139.096 148.238 143.769 145.59C148.881 142.732 150.389 141.036 151.425 136.961C151.89 135.287 152.392 133.766 152.632 133.576C153.335 132.93 154.18 133.539 155.597 135.835ZM150.582 136.496C150.317 137.54 148.392 140.42 147.28 141.464C146.684 141.994 144.328 143.545 142.067 144.871C137.885 147.249 137.885 147.249 135.875 150.466C133.511 154.167 132.045 155.694 129.826 156.707C127.813 157.665 127.529 157.27 129.404 156.098C131.288 154.892 132.726 153.322 134.054 150.971C136.061 147.466 137.119 146.48 141.793 143.833C146.377 141.234 148.272 139.53 149.525 136.873C150.094 135.691 150.856 135.419 150.582 136.496ZM153.307 161.028C152.753 161.999 152.096 162.764 151.952 162.727C151.518 162.617 151.811 161.616 152.632 160.355C153.011 159.77 153.444 159.127 153.585 158.876C153.77 158.601 153.968 158.579 154.134 158.837C154.299 159.094 154.013 159.917 153.307 161.028ZM149.506 165.69C148.831 166.379 148.571 166.492 148.432 166.134C148.161 165.384 149.733 163.74 150.119 164.34C150.284 164.597 150.083 165.084 149.506 165.69ZM146.396 168.09C146.19 168.898 145.054 169.433 144.955 168.763C144.911 168.178 145.727 167.239 146.197 167.358C146.414 167.413 146.49 167.719 146.396 168.09ZM142.651 170.866C141.891 171.282 141.525 170.149 142.23 169.647C142.685 169.369 142.785 169.43 142.963 169.941C143.086 170.367 142.964 170.694 142.651 170.866ZM140.896 171.567C140.334 171.962 140.261 171.943 140.073 171.322C139.951 170.896 140.055 170.636 140.432 170.517C141.293 170.306 141.636 171.074 140.896 171.567ZM139.106 172.402C138.738 172.488 138.475 172.313 138.344 171.922C138.249 171.539 138.353 171.279 138.73 171.159C139.098 171.074 139.361 171.248 139.492 171.64C139.587 172.023 139.483 172.283 139.106 172.402ZM123.024 170.751C122.844 171.458 122.808 171.449 121.889 170.677C121.161 170.062 121.002 169.627 121.182 168.92C121.31 168.415 121.547 167.938 121.69 167.83C122.136 167.586 123.221 169.976 123.024 170.751ZM137.629 172.313C137.543 172.65 137.232 172.965 136.917 172.993C136.207 173.063 136.003 171.9 136.711 171.686C137.536 171.465 137.8 171.64 137.629 172.313ZM135.599 172.729C135.462 173.268 134.35 173.559 134.074 173.13C134 172.968 134.077 172.665 134.263 172.39C134.723 171.79 135.771 172.056 135.599 172.729ZM133.377 172.846C133.485 173.482 133.119 173.712 132.288 173.501C131.457 173.289 131.371 172.264 132.173 172.288C133.253 172.276 133.317 172.328 133.377 172.846ZM125.752 172.126C125.666 172.462 125.396 172.465 124.889 172.193C124.445 171.972 124.001 171.752 123.856 171.715C123.675 171.669 123.644 171.339 123.73 171.002C123.875 170.43 123.992 170.423 124.882 171.008C125.445 171.366 125.812 171.89 125.752 172.126Z" fill="#AE9187"/>
<path d="M137.744 130.257C137.055 130.547 136.635 130.835 136.88 130.933C137.421 131.071 139.8 130.492 139.885 130.156C140.005 129.684 138.997 129.715 137.744 130.257Z" fill="#AE9187"/>
<path d="M133.691 131.52C132.904 131.894 132.325 132.356 132.444 132.494C132.628 132.827 135.566 131.71 135.722 131.248C135.923 130.761 135.051 130.862 133.691 131.52Z" fill="#AE9187"/>
<path d="M125.68 136.402C124.068 137.749 121.502 140.43 121.365 140.969C121.176 141.71 121.91 141.395 122.805 140.296C123.346 139.681 124.635 138.395 125.712 137.486C127.893 135.567 127.871 134.593 125.68 136.402Z" fill="#AE9187"/>
<path d="M138.779 140.557C138.449 140.796 138.264 141.071 138.346 141.2C138.613 141.662 139.726 141.372 139.863 140.833C140.026 140.193 139.52 140.064 138.779 140.557Z" fill="#AE9187"/>
<path d="M134.551 143.569C133.753 144.441 134.432 144.794 135.367 143.992C136.053 143.413 136.087 143.278 135.653 143.168C135.328 143.085 134.854 143.287 134.551 143.569Z" fill="#AE9187"/>
<path d="M119.865 142.631C119.394 143.121 118.339 145.003 118.281 145.383C118.226 146.05 118.806 145.588 119.733 144.211C120.775 142.683 120.868 141.56 119.865 142.631Z" fill="#AE9187"/>
<path d="M132.302 145.758C132.117 146.033 131.889 146.477 131.82 146.746C131.709 147.184 131.817 147.212 132.337 146.985C133.026 146.694 133.523 145.494 132.981 145.357C132.801 145.311 132.488 145.482 132.302 145.758Z" fill="#AE9187"/>
<path d="M120.726 145.144C119.931 146.304 119.544 147.676 119.978 147.786C120.158 147.832 120.486 147.449 120.732 146.938C120.977 146.427 121.399 145.674 121.672 145.206C122.314 144.042 121.521 143.984 120.726 145.144Z" fill="#AE9187"/>
<path d="M130.001 148.757C129.594 149.299 129.72 150.012 130.222 149.853C130.42 149.832 130.74 149.483 130.942 149.14C131.365 148.387 130.532 148.032 130.001 148.757Z" fill="#AE9187"/>
<path d="M116.57 148.784C116.072 149.983 116.133 150.501 116.707 150.36C117.209 150.201 117.783 147.945 117.349 147.835C117.169 147.789 116.824 148.239 116.57 148.784Z" fill="#AE9187"/>
<path d="M115.224 152.564C114.86 152.937 114.743 155.059 115.105 155.151C115.538 155.261 116.112 153.005 115.747 152.625C115.592 152.478 115.33 152.448 115.224 152.564Z" fill="#AE9187"/>
<path d="M114.743 156.421C114.632 156.859 115.3 157.71 115.878 157.857C116.276 157.958 116.274 157.814 115.905 157.147C115.398 156.265 114.863 155.95 114.743 156.421Z" fill="#AE9187"/>
<path d="M116.956 158.31C116.904 158.512 118.715 160.012 119.185 160.132C119.98 160.334 119.62 159.633 118.594 158.977C117.404 158.209 117.024 158.041 116.956 158.31Z" fill="#AE9187"/>
<path d="M114.782 158.689C114.97 159.311 117.47 161.129 117.927 160.995C118.133 160.94 117.594 160.337 116.766 159.66C115.038 158.288 114.522 158.05 114.782 158.689Z" fill="#AE9187"/>
<path d="M115.23 160.56C115.187 160.728 115.454 161.19 115.855 161.579C116.704 162.476 118.372 163.33 118.466 162.96C118.533 162.547 115.324 160.189 115.23 160.56Z" fill="#AE9187"/>
<path d="M116.17 162.914C116.033 163.453 117.806 164.8 119.07 165.121C119.649 165.268 120.197 165.228 120.24 165.06C120.291 164.858 119.82 164.595 119.242 164.448C118.627 164.292 117.712 163.808 117.202 163.392C116.665 162.932 116.213 162.746 116.17 162.914Z" fill="#AE9187"/>
<path d="M153.264 135.027C153.169 135.397 154.454 136.549 154.767 136.377C154.945 136.279 154.806 135.921 154.513 135.56C153.846 134.853 153.366 134.623 153.264 135.027Z" fill="#AE9187"/>
<path d="M155.789 140.222C155.687 140.626 156.185 142.294 156.475 142.368C156.872 142.469 156.981 141.887 156.753 140.969C156.574 140.314 155.901 139.784 155.789 140.222Z" fill="#AE9187"/>
<path d="M151.084 141.177C150.662 141.93 150.708 142.658 151.155 142.413C151.646 142.144 152.274 140.583 151.913 140.491C151.696 140.436 151.349 140.742 151.084 141.177Z" fill="#AE9187"/>
<path d="M154.925 144.376C154.94 145.527 155.061 145.808 155.427 145.579C155.866 145.368 155.735 143.614 155.301 143.503C155.048 143.439 154.89 143.757 154.925 144.376Z" fill="#AE9187"/>
<path d="M156.407 144.753C156.415 146.081 156.82 146.758 157.051 145.848C157.291 144.906 157.144 143.972 156.746 143.871C156.566 143.825 156.427 144.22 156.407 144.753Z" fill="#AE9187"/>
<path d="M154.508 148.285C154.277 149.194 154.235 150.115 154.39 150.262C154.573 150.452 154.863 149.916 155.128 148.873C155.359 147.964 155.437 147.051 155.246 146.895C155.064 146.705 154.774 147.241 154.508 148.285Z" fill="#AE9187"/>
<path d="M152.915 147.593C152.878 148.193 152.781 149.029 152.687 149.399C152.558 149.904 152.641 150.033 152.998 149.837C153.579 149.519 153.867 146.724 153.325 146.586C153.108 146.531 152.933 146.916 152.915 147.593Z" fill="#AE9187"/>
<path d="M151.072 147.125C151.106 147.599 151.017 148.401 150.889 148.906C150.752 149.445 150.83 149.895 151.046 149.95C151.624 150.097 152.095 146.883 151.524 146.558C151.197 146.332 151.082 146.482 151.072 147.125Z" fill="#AE9187"/>
<path d="M152.037 151.349C151.402 152.335 150.728 154.529 151.017 154.603C151.451 154.713 151.662 154.337 152.43 152.524C152.798 151.686 152.862 151.129 152.645 151.074C152.429 151.018 152.161 151.165 152.037 151.349Z" fill="#AE9187"/>
<path d="M153.09 153.409C152.396 155.383 152.323 155.974 152.814 155.705C153.297 155.469 154.56 151.56 154.199 151.468C153.982 151.413 153.49 152.292 153.09 153.409Z" fill="#AE9187"/>
<path d="M139.219 150.778C138.228 152.104 138.535 152.863 139.545 151.614C140.644 150.316 140.678 150.182 140.209 150.062C139.992 150.007 139.564 150.328 139.219 150.778Z" fill="#AE9187"/>
<path d="M147.586 155.845C147.187 156.353 146.916 156.966 146.965 157.229C147.015 157.636 148.721 155.919 148.875 155.313C149.012 154.774 148.197 155.105 147.586 155.845Z" fill="#AE9187"/>
<path d="M149.396 156.592C148.667 157.339 148.369 157.909 148.551 158.098C148.925 158.444 150.619 156.473 150.556 155.812C150.544 155.558 149.99 155.919 149.396 156.592Z" fill="#AE9187"/>
<path d="M150.84 157.569C149.813 158.885 149.638 159.271 150.108 159.39C150.541 159.501 151.901 157.48 151.83 156.853C151.809 156.632 151.353 156.911 150.84 157.569Z" fill="#AE9187"/>
<path d="M137.032 154.237C136.339 154.993 136.297 155.162 136.73 155.272C136.983 155.336 137.447 155.024 137.675 154.58C138.362 153.393 138.026 153.2 137.032 154.237Z" fill="#AE9187"/>
<path d="M145.129 158.698C143.945 159.723 144.206 160.363 145.462 159.356C146.041 158.894 146.395 158.41 146.24 158.263C146.085 158.116 145.61 158.318 145.129 158.698Z" fill="#AE9187"/>
<path d="M146.137 160.03C145.256 160.774 144.025 161.68 143.391 162.056C142.301 162.711 142.04 163.433 142.991 163.173C143.825 162.919 147.877 159.54 147.835 159.099C147.787 158.836 147.063 159.262 146.137 160.03Z" fill="#AE9187"/>
<path d="M148.133 160.501C147.59 160.973 146.244 162.029 145.067 162.876C143.935 163.7 143.072 164.52 143.182 164.691C143.375 164.991 143.697 164.786 146.95 162.28C148.153 161.331 149.122 160.394 149.109 160.14C149.061 159.877 148.64 160.021 148.133 160.501Z" fill="#AE9187"/>
<path d="M132.824 158.079C131.26 158.936 131.628 159.603 133.275 158.875C134.054 158.535 134.697 158.125 134.74 157.956C134.877 157.418 133.941 157.466 132.824 158.079Z" fill="#AE9187"/>
<path d="M142.287 160.951C141.787 161.254 141.503 161.612 141.614 161.783C141.862 162.169 143.211 161.401 143.159 160.85C143.147 160.596 142.832 160.623 142.287 160.951Z" fill="#AE9187"/>
<path d="M128.432 160.224C126.995 161.185 126.605 161.66 127.147 161.798C127.436 161.871 130.391 159.934 130.468 159.631C130.605 159.092 129.69 159.361 128.432 160.224Z" fill="#AE9187"/>
<path d="M135.302 163.763C133.875 164.082 132.692 164.498 132.649 164.666C132.538 165.104 132.763 165.125 134.882 164.66C136.992 164.229 138.264 163.764 138.349 163.427C138.444 163.057 137.931 163.105 135.302 163.763Z" fill="#AE9187"/>
<path d="M138.726 164.67C136.111 165.726 135.968 165.833 136.619 165.998C136.944 166.081 138.163 165.674 139.352 165.08C141.902 163.828 141.511 163.55 138.726 164.67Z" fill="#AE9187"/>
<path d="M141.396 165.062C141.344 165.264 140.163 165.824 138.765 166.329C137.404 166.843 136.348 167.363 136.431 167.492C136.679 167.878 138.007 167.498 140.117 166.458C142.013 165.506 142.565 165.001 141.842 164.817C141.662 164.771 141.438 164.893 141.396 165.062Z" fill="#AE9187"/>
<path d="M125.879 163.303C125.641 163.637 125.538 164.041 125.648 164.213C125.841 164.513 126.697 163.87 126.86 163.23C127.031 162.557 126.329 162.593 125.879 163.303Z" fill="#AE9187"/>
<path d="M133.975 167.62C133.545 167.798 133.251 168.046 133.362 168.217C133.582 168.56 135.207 168.22 135.31 167.816C135.43 167.345 134.943 167.293 133.975 167.62Z" fill="#AE9187"/>
<path d="M125.07 165.428C124.676 165.614 125.019 166.992 125.488 167.111C125.994 167.24 126.033 166.784 125.671 165.939C125.495 165.572 125.213 165.321 125.07 165.428Z" fill="#AE9187"/>
<path d="M130.456 167.694C128.908 167.73 128.592 168.367 130.078 168.422C132.051 168.529 132.447 168.487 132.533 168.15C132.627 167.779 132.112 167.684 130.456 167.694Z" fill="#AE9187"/>
<path d="M129.942 171.228C129.455 171.176 129.034 171.32 128.983 171.522C128.88 171.926 131.089 172.165 131.759 171.798C132.206 171.553 131.564 171.354 129.942 171.228Z" fill="#AE9187"/>
<path d="M124.827 168.198C124.75 168.501 127.531 169.818 128.033 169.658C128.365 169.564 128.191 169.34 127.503 169.022C126.198 168.403 124.879 167.996 124.827 168.198Z" fill="#AE9187"/>
<path d="M153.434 14.8375C150.841 20.1237 150.805 28.0943 153.354 35.4517C154.332 38.3159 156.857 42.9994 158.653 45.2484C161.814 49.1733 166.261 52.3557 169.928 53.2622C173.058 54.0095 177.59 53.309 180.176 51.6681L181.505 50.826L180.43 52.466L179.332 54.088L180.96 52.1215C181.855 51.036 182.465 50.1241 182.303 50.0958C182.041 50.0546 182.79 49.153 185.316 46.4691C186.598 45.1259 187.269 43.7641 187.48 42.0056C187.557 41.5353 187.693 41.4102 188.172 41.4567C188.751 41.5161 188.815 41.4344 189.211 40.1874C191.053 34.6396 189.022 24.4375 184.776 18.0624C182.181 14.1203 180.315 12.1473 176.667 9.39771C174.063 7.47247 173.052 6.83993 171.582 6.27592C169.316 5.41448 165.698 4.912 164.006 5.23478C161.473 5.68957 160.888 6.05704 159.041 8.34803C158.082 9.51522 156.929 10.695 156.486 10.9757C155.545 11.56 154.173 13.2968 153.434 14.8375ZM156.617 12.208C157.529 11.5673 158.26 11.4812 157.759 12.1147C157.323 12.6663 156.332 15.8326 156.536 15.9938C156.649 16.0834 156.911 15.6594 157.084 15.0665C157.545 13.5051 157.606 13.5205 157.508 15.136C157.389 17.1988 158.049 19.3469 159.34 21.3959C159.976 22.3629 160.67 23.9077 160.882 24.8052C161.094 25.7027 161.669 27.1196 162.139 27.9228C162.632 28.7439 163.175 30.2016 163.361 31.1784C163.756 33.1497 164.32 34.1601 166.34 36.6855C167.115 37.6628 168.422 39.6915 169.249 41.2083C170.684 43.8685 170.804 43.9964 173.12 45.9597C175.346 47.8513 175.495 48.0355 175.532 48.828C175.576 49.8915 174.514 51.3756 173.353 51.8191C171.115 52.7394 168.163 51.7673 164.256 48.8795C161.81 47.0796 161.224 46.5166 159.629 44.526C153.569 36.95 150.823 25.0881 153.341 17.519C154.201 14.846 155.205 13.2494 156.617 12.208ZM162.769 6.84647C164.765 6.46522 165.584 6.78056 168.118 8.98181C170.946 11.416 173.618 15.1205 176.182 20.0341C181.008 29.3573 182.789 36.0083 181.93 41.3373C181.597 43.2977 181.332 44.0515 180.529 45.2086C179.692 46.4066 179.421 46.6569 178.619 46.7863C177.496 46.9947 177.011 46.6772 174.525 43.9494C172.758 41.9893 172.385 41.2961 171.335 38.01C171.136 37.4219 170.079 35.823 169.015 34.4184C167.213 32.131 166.986 31.7192 166.653 29.9959C166.366 28.541 166.048 27.8249 165.257 26.8679C164.518 25.9852 164.141 25.1565 163.877 23.9522C163.505 22.2313 163.213 21.6686 161.45 19.3787C160.117 17.662 159.467 15.9204 159.169 13.3612C158.864 10.7636 159.06 9.95599 160.426 8.41347C161.343 7.34594 161.763 7.04731 162.769 6.84647ZM168.337 6.23399C173.373 7.45893 179.266 11.9825 182.302 16.9042C182.87 17.8175 183.45 18.5748 183.612 18.6031C184.02 18.693 185.893 22.4299 186.731 24.8185C188.191 29.1249 188.855 35.5574 188.174 39.1688C187.77 41.4051 187.405 41.4482 187.621 39.2628C187.71 38.1713 187.559 36.3587 187.269 35.2336C186.995 34.088 186.877 33.1651 186.994 33.1575C187.088 33.1321 187.263 33.4697 187.351 33.8711C187.439 34.2726 187.63 34.5898 187.747 34.5822C188.135 34.5571 187.251 30.1746 186.292 27.1928C184.774 22.5411 181.012 15.0878 179.635 14.0331C179.272 13.7464 179.292 13.8614 179.636 14.4983C180.038 15.2478 180.006 15.2887 179.588 14.7923C179.302 14.5005 178.476 13.449 177.724 12.4895C176.971 11.53 176.08 10.5602 175.746 10.3298C175.351 10.0839 175.601 10.5137 176.444 11.5448C178.324 13.8271 178.863 14.6841 178.277 14.5863C178.015 14.5451 177.593 14.1459 177.263 13.5857C176.251 12.0226 174.277 9.76574 173.058 8.83645C172.113 8.12218 171.99 8.09137 172.476 8.64152C172.962 9.19167 172.959 9.28881 172.522 9.14261C172.23 9.04515 171.35 8.48178 170.562 7.89295C169.39 6.9995 169.305 6.96617 170.051 7.65465C171.383 8.90617 170.716 9.14317 169.33 7.9146C168.75 7.38991 167.716 6.73946 167.066 6.49077C165.994 6.07546 165.926 6.0217 166.385 5.95319C166.651 5.89724 167.537 6.03371 168.337 6.23399ZM159.178 17.2187C159.493 18.0319 160.337 19.5283 161.034 20.5107C161.955 21.7695 162.442 22.7849 162.664 23.8562C162.846 24.6975 163.502 26.2448 164.151 27.2885C164.777 28.3143 165.342 29.5573 165.343 30.0225C165.406 31.4337 166.101 32.7459 167.906 34.9361C169.333 36.6274 169.781 37.4127 170.629 39.7425C171.607 42.374 172.087 43.1184 174.33 45.4549C174.66 45.7824 174.236 45.4803 173.345 44.7431C171.987 43.5708 171.556 42.9977 170.135 40.4142C169.249 38.7849 167.912 36.7 167.196 35.8351C165.562 33.8471 165.212 33.1718 164.684 30.9958C164.45 30.0803 163.868 28.6251 163.398 27.8219C162.943 26.9983 162.352 25.6019 162.118 24.6864C161.884 23.771 161.166 22.2083 160.54 21.1825C159.479 19.4481 158.862 17.8983 158.614 16.4409C158.437 15.4054 158.593 15.628 159.178 17.2187ZM173.068 10.9684C173.769 11.8537 174.294 12.634 174.213 12.7361C174.003 13.0018 173.65 12.6563 172.059 10.8012C170.998 9.53205 170.801 9.1765 171.208 9.26642C171.594 9.33842 172.18 9.90147 173.068 10.9684ZM174.618 10.965C175.299 11.7353 176.164 12.7843 176.534 13.342L177.193 14.3269L176.38 14.0499C175.898 13.8679 175.457 13.5862 175.327 13.2844C175.188 13.0414 174.497 12.0974 173.819 11.23C172.97 10.1605 172.684 9.63617 172.956 9.61857C173.228 9.60098 173.772 10.031 174.618 10.965ZM175.205 13.9515C176.411 15.2693 181.458 25.4313 181.142 25.8783C180.9 26.1848 180.598 25.6808 179.156 22.517C177.562 19.0336 174.795 14.1913 174.085 13.5975C173.768 13.3466 173.771 13.2495 174.081 13.2294C174.353 13.2118 174.794 13.4935 175.205 13.9515ZM179.331 18.0079C180.901 21.0082 183.799 28.1103 183.573 28.3964C183.153 28.9277 182.507 27.7868 180.685 23.4262C179.578 20.7255 178.104 17.6026 177.396 16.4464C176.151 14.4331 176.144 14.3948 176.97 14.7485C177.695 15.0893 178.045 15.5319 179.331 18.0079ZM179.648 16.0679C180.018 16.6256 180.056 16.6231 180.004 16.0837C179.967 15.5238 180.029 15.5392 180.544 16.1456C181.552 17.3406 184.273 22.9419 185.258 25.8445C186.477 29.4298 187.232 32.4829 186.883 32.5055C186.75 32.5335 186.337 31.3776 185.956 29.9482C185.598 28.5367 184.873 26.2377 184.337 24.8184C183.437 22.4144 181.038 17.432 180.63 17.1095C180.04 16.6436 180.382 17.6102 181.732 20.2371C183.825 24.3474 186.452 32.1651 185.753 32.2103C185.559 32.2229 185.111 31.205 184.717 29.9315C183.494 25.978 181.266 20.4999 179.78 17.7655C178.836 16.0236 178.498 15.1924 178.789 15.2899C179.058 15.3694 179.434 15.7328 179.648 16.0679ZM181.804 27.2313C182.197 28.2722 181.592 28.292 181.16 27.2536C180.907 26.6884 180.916 26.397 181.14 26.4407C181.34 26.4664 181.639 26.8349 181.804 27.2313ZM182.088 28.5507C182.246 28.6761 182.587 29.4102 182.834 30.1697C183.4 31.8779 183.749 31.6227 183.248 29.8327C182.906 28.6334 182.916 28.5746 183.454 28.9663C183.907 29.3247 184.277 30.115 184.817 31.9025C184.866 32.0738 183.193 32.0464 182.928 31.8698C182.678 31.6726 181.535 28.6447 181.68 28.4608C181.745 28.379 181.929 28.4253 182.088 28.5507ZM183.246 32.3532C183.385 32.3636 183.641 32.5991 183.771 32.9009C184.105 33.5966 183.41 33.7773 182.988 33.1454C182.716 32.6978 182.819 32.3809 183.246 32.3532ZM184.142 34.6217C184.286 35.4655 183.548 35.5132 183.366 34.672C183.235 34.1376 183.31 33.997 183.611 34.0357C183.873 34.0769 184.074 34.3353 184.142 34.6217ZM184.657 32.5721C184.77 32.6617 184.994 32.938 185.127 33.1427C185.341 33.4778 185.299 33.5774 184.917 33.6409C184.536 33.7044 184.399 33.5969 184.302 33.2542C184.149 32.7019 184.362 32.3391 184.657 32.5721ZM185.521 34.6488C185.582 34.8968 185.589 35.1678 185.509 35.27C185.299 35.5356 184.787 35.0647 184.695 34.5277C184.591 33.9141 185.355 34.0198 185.521 34.6488ZM184.079 35.634C184.48 35.6855 184.576 37.0558 184.185 37.1781C183.943 37.252 183.793 37.0677 183.692 36.5896C183.523 35.8251 183.632 35.5465 184.079 35.634ZM185.471 35.7377C185.61 35.7481 185.785 36.0858 185.828 36.4514C185.926 37.2593 185.272 37.3404 185.058 36.54C184.898 35.9493 185.047 35.6683 185.471 35.7377ZM184.406 37.5516C184.568 37.5799 184.723 37.8024 184.73 38.0734C184.75 38.4211 184.653 38.5437 184.258 38.5305C183.864 38.5173 183.773 38.4456 183.844 38.1696C183.985 37.6176 184.082 37.495 184.406 37.5516ZM184.34 39.1262C184.803 39.1932 184.798 40.318 184.333 40.5808C184.119 40.7109 184.116 40.808 184.356 40.8313C184.88 40.9137 184.636 41.7826 184.092 41.8178C183.781 41.8379 183.694 41.669 183.826 41.1758C183.938 40.8002 183.963 40.2557 183.872 39.9514C183.7 39.284 183.855 39.0413 184.34 39.1262ZM185.963 38.0518C185.886 38.7547 185.317 38.8691 185.151 38.2401C185.047 37.859 185.121 37.7185 185.525 37.673C185.946 37.607 186.014 37.6607 185.963 38.0518ZM178.514 48.1309C179.08 48.1136 179.621 48.1755 179.712 48.2472C179.825 48.3368 180.482 48.3912 181.21 48.4023C183.015 48.4017 182.941 48.7748 181.114 48.9901C179.629 49.1444 179.309 49.4559 180.658 49.4267C181.03 49.422 181.26 49.5041 181.163 49.6267C180.905 49.9536 179.365 49.8982 178.555 49.5241C178.082 49.2833 177.827 49.2805 177.866 49.5106C177.905 49.7407 178.278 49.9686 178.893 50.1227C180.139 50.4104 179.864 50.7577 178.466 50.6156L177.392 50.53L177.3 49.5278C177.191 48.3135 177.304 48.1704 178.514 48.1309ZM185.959 39.6418C186.116 40.5623 185.407 40.6663 185.218 39.7867C185.117 39.3086 185.194 39.0709 185.466 39.0533C185.738 39.0357 185.887 39.2199 185.959 39.6418ZM176.394 51.6997C176.902 51.5699 177.054 51.4244 176.953 51.1789C176.83 50.9154 176.994 50.8466 177.428 50.8573C178.308 50.9554 178.61 51.2267 177.924 51.3486C177.62 51.4071 177.225 51.6265 177.041 51.8129C176.841 52.0198 176.385 52.2238 176.036 52.2464C175.237 52.2787 175.472 51.9339 176.394 51.6997ZM184.293 42.3088C184.76 42.5113 184.47 43.3443 183.926 43.3795C183.577 43.4021 183.48 43.2921 183.499 42.9419C183.54 42.377 183.834 42.1447 184.293 42.3088ZM183.791 43.7372C184.374 43.9322 184.271 44.4817 183.64 44.5807C183.22 44.6467 183.129 44.575 183.154 44.2631C183.189 43.6599 183.309 43.5552 183.791 43.7372ZM182.363 47.4551C183.004 47.53 183.364 47.6812 183.16 47.7525C182.549 47.9666 181.507 48.0728 180.976 47.9521C179.953 47.7081 181.176 47.28 182.363 47.4551ZM183.392 45.3141C183.292 45.5338 183.011 45.8428 182.775 45.955C182.397 46.154 182.352 46.1182 182.484 45.6249C182.587 45.3081 182.835 45.0399 183.123 45.0019C183.521 44.918 183.573 44.9922 183.392 45.3141ZM182.954 46.4281C183.543 46.4288 183.973 46.5366 183.86 46.6797C183.747 46.8227 183.139 46.9396 182.518 46.9798C181.758 47.0097 181.45 46.9326 181.612 46.7283C181.741 46.5648 182.326 46.43 182.954 46.4281ZM186.135 44.361C186.022 44.7367 185.68 45.2629 185.383 45.5923C184.862 46.1107 184.856 46.0723 185.307 45.035C185.842 43.7983 186.414 43.3541 186.135 44.361Z" fill="#AB8E85"/>
<path d="M155.66 14.3055C155.641 14.6557 155.806 14.5869 156.258 14.0148C156.581 13.6061 156.742 13.1692 156.628 13.0796C156.334 12.8466 155.688 13.6639 155.66 14.3055Z" fill="#AB8E85"/>
<path d="M153.249 20.2005C153.166 20.865 153.096 22.0715 153.078 22.887C153.076 23.682 153.058 24.4975 153.068 24.6713C153.062 24.8656 153.166 25.014 153.298 24.986C153.437 24.9964 153.54 24.2142 153.538 23.2837C153.521 22.3737 153.622 20.8936 153.727 20.0144C153.81 19.1172 153.79 18.5369 153.66 18.7004C153.531 18.8638 153.354 19.5538 153.249 20.2005Z" fill="#AB8E85"/>
<path d="M155.131 21.6877C155.207 22.4777 155.373 23.1067 155.489 23.0992C155.761 23.0816 155.685 20.3334 155.391 20.1005C155.089 19.8292 155.028 20.279 155.131 21.6877Z" fill="#AB8E85"/>
<path d="M156.541 19.4832C156.578 20.0431 156.734 20.4983 156.873 20.5087C157.145 20.4911 157.138 18.4946 156.844 18.2616C156.565 18.0082 156.475 18.4018 156.541 19.4832Z" fill="#AB8E85"/>
<path d="M153.631 28.9001C154.154 31.9683 155.731 36.7325 156.236 36.9324C156.404 36.9991 156.156 36.0069 155.685 34.7385C155.208 33.4316 154.531 30.8388 154.165 28.9237C153.784 27.029 153.396 25.5612 153.283 25.7043C153.186 25.8269 153.334 27.2714 153.631 28.9001Z" fill="#AB8E85"/>
<path d="M155.024 25.7856C155.113 26.6523 155.315 27.3759 155.47 27.3659C155.625 27.3558 155.656 26.6171 155.529 25.7529C155.192 23.6614 154.788 23.707 155.024 25.7856Z" fill="#AB8E85"/>
<path d="M158.795 22.6915C159.168 23.3847 159.528 24.0011 159.574 24.037C159.801 24.2162 159.955 23.7409 159.764 23.4237C159.676 23.2548 159.3 22.6588 158.969 22.0986C158.138 20.6789 157.99 21.1926 158.795 22.6915Z" fill="#AB8E85"/>
<path d="M156.393 26.1039C156.543 26.986 156.826 27.8402 157.008 27.9835C157.189 28.1269 157.198 27.3702 157.021 26.3347C156.861 25.2787 156.627 24.3633 156.536 24.2916C156.15 23.987 156.125 24.5315 156.393 26.1039Z" fill="#AB8E85"/>
<path d="M157.19 32.7411C157.535 34.0759 157.778 34.4673 158.037 34.1404C158.214 33.9156 157.295 31.3966 157.039 31.3938C156.923 31.4013 156.988 32.0174 157.19 32.7411Z" fill="#AB8E85"/>
<path d="M161.036 28.0136C161.137 28.2591 161.361 28.7681 161.504 29.1466C161.699 29.5992 161.864 29.763 161.977 29.62C162.203 29.3339 161.644 27.8967 161.201 27.7121C160.948 27.6121 160.906 27.7118 161.036 28.0136Z" fill="#AB8E85"/>
<path d="M160.311 32.0544C160.574 32.7935 160.957 33.4279 161.148 33.5125C161.317 33.5791 161.248 33.0601 160.946 32.3235C160.683 31.5845 160.3 30.9501 160.131 30.8834C159.963 30.8168 160.032 31.3358 160.311 32.0544Z" fill="#AB8E85"/>
<path d="M157.357 40.1752C157.951 41.2418 158.551 42.1142 158.645 42.0888C158.822 42.0966 156.946 38.2242 156.651 37.9913C156.583 37.9375 156.473 37.9834 156.393 38.0856C156.328 38.1673 156.747 39.129 157.357 40.1752Z" fill="#AB8E85"/>
<path d="M159.359 41.7905C160.585 43.6887 161.071 44.2388 163.2 46.0204C165.095 47.5844 165.429 47.8148 164.657 46.973C164.087 46.3895 163.215 45.5347 162.671 45.1046C162.166 44.672 161.008 43.2929 160.133 42.07C158.125 39.1561 157.582 38.9587 159.359 41.7905Z" fill="#AB8E85"/>
<path d="M163.911 35.0978C164.239 35.7551 166.956 39.4955 167.341 39.8001C167.976 40.3019 167.25 39.0306 165.661 36.8457C163.923 34.4766 163.33 33.8752 163.911 35.0978Z" fill="#AB8E85"/>
<path d="M161.859 40.9112C162.421 42.2514 166.598 46.6146 166.921 46.2059C167.018 46.0833 166.383 45.3489 165.524 44.5709C164.704 43.7903 163.573 42.5645 163.045 41.8814C162.153 40.6789 161.541 40.1951 161.859 40.9112Z" fill="#AB8E85"/>
<path d="M161.35 42.534C161.415 42.6849 161.969 43.2888 162.579 43.8697C163.881 45.065 163.826 44.8553 162.432 43.1231C161.599 42.0332 161.019 41.7411 161.35 42.534Z" fill="#AB8E85"/>
<path d="M160.995 45.1743C161.754 46.1722 163.494 47.7462 163.639 47.5623C163.72 47.4602 163.153 46.7796 162.362 46.0552C160.978 44.7295 160.363 44.3428 160.995 45.1743Z" fill="#AB8E85"/>
<path d="M165.956 41.6927C166.183 41.8719 166.566 42.2737 166.835 42.5859C167.162 43.0106 167.269 43.0618 167.239 42.7729C167.174 42.1568 165.975 40.8773 165.748 41.1633C165.652 41.2859 165.752 41.5315 165.956 41.6927Z" fill="#AB8E85"/>
<path d="M165.254 43.3283C165.5 43.6225 166.119 44.1447 166.65 44.4981C167.515 45.0819 167.508 45.0435 166.332 43.782C165.658 43.0501 165.039 42.5279 164.958 42.6301C164.893 42.7118 165.046 43.0315 165.254 43.3283Z" fill="#AB8E85"/>
<path d="M165.175 46.5517C165.969 47.4115 167.458 48.3232 167.652 48.078C167.717 47.9963 167.062 47.3795 166.178 46.6806C164.432 45.3008 163.93 45.2363 165.175 46.5517Z" fill="#AB8E85"/>
<path d="M168.309 42.0254C168.572 42.5318 168.997 43.0665 169.233 43.187C169.515 43.3432 169.469 43.0747 169.057 42.3841C168.278 41.0386 167.683 40.7669 168.309 42.0254Z" fill="#AB8E85"/>
<path d="M166.166 49.4924C166.574 49.815 169.02 49.6566 170.087 49.2386C171.187 48.7796 172.211 47.7633 171.648 47.6835C171.463 47.6373 171.162 47.8312 170.985 48.056C170.468 48.7098 168.372 49.3108 167.207 49.1536C166.181 49.0067 165.735 49.1519 166.166 49.4924Z" fill="#AB8E85"/>
<path d="M170.962 45.6146C171.665 46.1701 171.765 46.183 171.515 45.7533C171.074 45.0063 170.462 44.5225 170.268 44.7677C170.187 44.8699 170.492 45.2767 170.962 45.6146Z" fill="#AB8E85"/>
<path d="M168.781 47.9079C169.031 48.105 170.24 47.6002 170.579 47.1711C170.95 46.7012 170.468 46.5191 169.944 46.902C169.689 47.1318 169.262 47.3921 169.026 47.5043C168.774 47.6369 168.668 47.8183 168.781 47.9079Z" fill="#AB8E85"/>
<path d="M168.873 50.6356C169.508 51.1373 172.282 50.1434 173.073 49.1422C173.735 48.3045 173.156 48.245 172.277 49.0774C171.838 49.4936 170.862 49.9834 170.089 50.1691C169.316 50.3549 168.782 50.5639 168.873 50.6356Z" fill="#AB8E85"/>
<path d="M172.598 47.2729C172.977 47.5392 173.641 47.8646 174.172 47.9853L175.078 48.2369L174.09 47.6223C173.543 47.2893 172.921 46.8643 172.694 46.6851C172.49 46.5238 172.244 46.4622 172.147 46.5848C172.067 46.687 172.258 47.0042 172.598 47.2729Z" fill="#AB8E85"/>
<path d="M170.806 51.4992C171.599 52.1263 175 49.9674 174.633 49.08C174.555 48.8524 174.27 49.0259 173.802 49.6184C173.415 50.1088 172.81 50.5939 172.474 50.6932C172.144 50.8309 171.565 51.0041 171.213 51.1238C170.877 51.2231 170.692 51.4096 170.806 51.4992Z" fill="#AB8E85"/>
<path d="M159.592 10.7746C159.573 11.1248 159.757 10.9384 160.225 10.1133C160.586 9.46946 160.883 8.90739 160.87 8.83068C160.827 8.46508 159.575 10.3298 159.592 10.7746Z" fill="#AB8E85"/>
<path d="M164.791 8.80935C165.404 9.29318 165.99 9.62359 166.071 9.52143C166.135 9.43969 165.678 8.94582 165.066 8.46199C164.431 7.96025 163.868 7.64775 163.787 7.74992C163.706 7.85208 164.157 8.30761 164.791 8.80935Z" fill="#AB8E85"/>
<path d="M160.084 15.2794C160.429 16.6142 160.712 17.2357 160.905 16.9905C161.035 16.827 160.101 13.766 159.907 13.7786C159.807 13.7657 159.886 14.4586 160.084 15.2794Z" fill="#AB8E85"/>
<path d="M163.754 9.51628C163.819 9.8998 164.827 10.6295 164.988 10.4251C165.069 10.323 164.848 9.94951 164.518 9.62193C163.925 9.02053 163.662 8.97934 163.754 9.51628Z" fill="#AB8E85"/>
<path d="M164.665 13.0247C164.844 13.2652 165.405 14.1401 165.937 14.9587C166.43 15.7798 166.968 16.4042 167.101 16.3762C167.359 16.2819 166.061 13.9619 165.17 12.992C164.557 12.2756 164.192 12.3186 164.665 13.0247Z" fill="#AB8E85"/>
<path d="M165.861 11.9779C166.039 12.2184 166.746 13.3746 167.437 14.5513C168.129 15.728 168.79 16.8484 168.878 17.0172C168.988 17.2039 169.157 17.2706 169.253 17.148C169.431 16.9232 167.212 12.8792 166.382 11.9248C165.753 11.2288 165.387 11.2718 165.861 11.9779Z" fill="#AB8E85"/>
<path d="M166.872 10.8848C167.121 11.0819 167.449 11.5066 167.595 11.788C167.748 12.1077 167.974 12.2869 168.123 12.2385C168.272 12.1901 168.168 11.8091 167.856 11.3639C167.198 10.379 166.767 10.0385 166.557 10.3042C166.477 10.4063 166.6 10.6698 166.872 10.8848Z" fill="#AB8E85"/>
<path d="M168.208 10.5463C168.662 11.1373 169.106 11.7871 169.21 11.9355C169.32 12.1222 169.488 12.1889 169.569 12.0867C169.795 11.8007 168.667 10.2452 167.967 9.82516C167.533 9.58183 167.582 9.75316 168.208 10.5463Z" fill="#AB8E85"/>
<path d="M165.613 17.0927C166.817 19.2056 167.355 19.3647 166.29 17.2622C165.436 15.592 164.849 14.7963 164.672 15.0211C164.591 15.1232 165.004 16.0465 165.613 17.0927Z" fill="#AB8E85"/>
<path d="M169.941 15.7658C170.917 17.4669 171.141 17.7432 171.163 17.2959C171.179 17.0428 169.653 14.0783 169.404 13.8812C169.358 13.8454 169.248 13.8913 169.168 13.9934C169.103 14.0751 169.434 14.868 169.941 15.7658Z" fill="#AB8E85"/>
<path d="M171.546 16.2047C172.445 17.6781 173.902 20.5888 174.782 22.6451C175.646 24.7218 176.461 26.3945 176.561 26.4074C176.966 26.3619 174.825 21.2852 172.982 17.8372C170.844 13.9236 170.283 13.0487 170.073 13.3144C169.992 13.4165 170.664 14.7108 171.546 16.2047Z" fill="#AB8E85"/>
<path d="M168.802 20.1435C169.273 21.1794 169.743 21.9826 169.86 21.975C170.115 21.9779 169.755 20.8962 168.93 19.2822C167.924 17.2923 167.831 18.0156 168.802 20.1435Z" fill="#AB8E85"/>
<path d="M168.298 22.5995C168.701 23.5816 169.2 24.2085 169.378 23.9837C169.507 23.8202 168.277 21.554 168.067 21.587C167.95 21.5945 168.067 22.0522 168.298 22.5995Z" fill="#AB8E85"/>
<path d="M173.915 18.2423C174.709 19.5673 175.426 20.6648 175.52 20.6393C175.714 20.6268 173.176 15.8666 172.882 15.6337C172.813 15.5799 172.697 15.5875 172.632 15.6692C172.552 15.7714 173.142 16.9351 173.915 18.2423Z" fill="#AB8E85"/>
<path d="M171.556 22.2529C172.936 25.4012 172.972 25.4959 173.165 25.2507C173.278 25.1076 172.593 23.2714 171.365 20.4428C171.105 19.8392 170.771 19.3761 170.623 19.4245C170.49 19.4525 170.906 20.7439 171.556 22.2529Z" fill="#AB8E85"/>
<path d="M172.167 20.0808C172.615 20.8661 173.433 22.6743 174.031 24.1091C175.268 27.1116 175.929 27.7667 174.97 25.0176C174.35 23.3323 172.126 18.6875 171.786 18.4187C171.31 18.0424 171.508 18.8632 172.167 20.0808Z" fill="#AB8E85"/>
<path d="M171.113 24.957C171.906 26.8445 172.068 27.1054 172.278 26.8398C172.456 26.615 171.001 23.3745 170.664 23.2412C170.496 23.1746 170.704 23.9366 171.113 24.957Z" fill="#AB8E85"/>
<path d="M167.767 28.5859C168.745 30.9848 169.247 31.7472 169.162 30.7833C169.099 30.0701 167.937 27.6249 167.578 27.4737C167.409 27.407 167.494 27.9056 167.767 28.5859Z" fill="#AB8E85"/>
<path d="M170.013 26.909C170.51 28.0983 170.963 27.7588 170.482 26.5491C170.267 25.9814 170.125 25.8355 169.979 26.0194C169.866 26.1624 169.877 26.5689 170.013 26.909Z" fill="#AB8E85"/>
<path d="M176.009 22.8178C176.226 23.2884 176.704 24.5952 177.026 25.6795C177.621 27.6767 178.104 28.3239 177.924 26.9203C177.79 25.7851 176.328 22.2737 175.946 22.1045C175.716 22.0225 175.746 22.3114 176.009 22.8178Z" fill="#AB8E85"/>
<path d="M168.54 32.7818C169.316 33.9918 170.149 34.8491 170.167 34.4989C170.18 34.1103 168.549 32.0251 168.255 32.0248C168.161 32.0503 168.275 32.3725 168.54 32.7818Z" fill="#AB8E85"/>
<path d="M171.887 35.2599C172.144 35.9606 172.458 36.5412 172.614 36.5312C172.73 36.5236 172.817 36.4598 172.804 36.3831C172.463 35.1838 171.978 33.8387 171.865 33.7491C171.457 33.4265 171.474 34.104 171.887 35.2599Z" fill="#AB8E85"/>
<path d="M174.262 33.4194C174.451 34.0663 174.668 34.5369 174.749 34.4348C174.911 34.2304 174.548 32.2182 174.321 32.039C173.959 31.7523 173.934 32.2968 174.262 33.4194Z" fill="#AB8E85"/>
<path d="M177.374 32.7915C178.604 37.4811 178.726 42.9212 177.66 44.2697C177.483 44.4945 177.402 44.8293 177.497 45.0365C177.734 45.6221 178.559 43.785 178.864 42.001C179.264 39.6292 177.817 30.5526 176.975 30.2193C176.807 30.1527 177.003 31.3033 177.374 32.7915Z" fill="#AB8E85"/>
<path d="M178.511 31.6324C179.224 34.5525 179.727 35.5475 179.416 33.3768C179.194 31.8402 178.225 28.6846 177.992 28.6997C177.875 28.7072 178.12 30.0291 178.511 31.6324Z" fill="#AB8E85"/>
<path d="M175.744 33.595C176.167 35.1574 176.624 35.4186 176.353 33.9433C176.242 33.2913 176.021 32.6852 175.814 32.6211C175.6 32.5186 175.588 32.9072 175.744 33.595Z" fill="#AB8E85"/>
<path d="M179.213 29.7642C179.886 31.5237 180.92 37.021 180.965 39.015C180.988 40.9911 181.354 41.1806 181.438 39.2558C181.537 36.6127 180.608 31.9617 179.38 28.9004C178.834 27.5398 178.677 28.3449 179.213 29.7642Z" fill="#AB8E85"/>
<path d="M172.901 40.177C173.2 41.0107 173.579 41.7422 173.748 41.8089C173.916 41.8755 173.789 41.244 173.513 40.4282C173.214 39.5945 172.834 38.863 172.666 38.7963C172.497 38.7297 172.602 39.3433 172.901 40.177Z" fill="#AB8E85"/>
<path d="M175.053 36.5673C175.145 37.1043 175.333 37.5186 175.411 37.5136C175.744 37.5114 175.547 35.8956 175.211 35.7623C174.981 35.6802 174.933 35.9741 175.053 36.5673Z" fill="#AB8E85"/>
<path d="M176.737 37.2339C176.828 37.7708 177.055 38.1826 177.211 38.1726C177.56 38.1499 177.276 36.5979 176.855 36.4313C176.687 36.3647 176.623 36.679 176.737 37.2339Z" fill="#AB8E85"/>
<path d="M175.34 39.9802C175.399 40.558 175.317 41.4552 175.178 41.9101C175.046 42.4033 175.008 42.8711 175.099 42.9428C175.394 43.1757 175.594 42.7363 175.786 41.5605C175.981 40.0551 175.829 38.2425 175.522 38.6307C175.393 38.7942 175.32 39.3999 175.34 39.9802Z" fill="#AB8E85"/>
<path d="M179.531 36.3549C180.137 38.9912 179.811 43.8785 178.988 44.9206C178.794 45.1658 178.698 45.521 178.792 45.7282C179.029 46.3138 180 44.2929 180.311 42.5472C180.561 41.0188 179.917 34.934 179.539 35.3656C179.442 35.4882 179.436 35.9151 179.531 36.3549Z" fill="#AB8E85"/>
<path d="M176.865 40.2886C176.885 40.8689 176.799 41.8633 176.671 42.492C176.542 43.1207 176.556 43.6627 176.695 43.673C177.142 43.7604 177.685 39.3437 177.254 39.0032C176.982 38.7882 176.86 39.2226 176.865 40.2886Z" fill="#AB8E85"/>
<path d="M184.367 21.1911C184.682 21.7717 185.237 23.0735 185.608 24.0964C186.443 26.3495 186.87 26.5545 186.142 24.3527C185.511 22.4935 184.447 20.391 184.064 20.2219C183.919 20.1731 184.052 20.6104 184.367 21.1911Z" fill="#AB8E85"/>
<path d="M96.092 97.5315C93.7348 92.1359 87.6765 86.9562 80.4156 84.1447C77.5978 83.0398 72.3924 81.9388 69.5154 81.8554C64.4775 81.7301 59.1744 83.0663 56.1122 85.2786C53.5187 87.1837 51.1238 91.0944 50.7042 94.1281L50.488 95.6861L49.9315 93.8059L49.4033 91.9199L49.8517 94.433C50.1017 95.8172 50.4031 96.8722 50.5293 96.767C50.7302 96.5936 50.9338 97.7481 51.3488 101.41C51.5447 103.257 52.1501 104.649 53.3556 105.947C53.6647 106.309 53.6724 106.494 53.3273 106.829C52.9075 107.233 52.9281 107.335 53.6236 108.443C56.6659 113.435 65.7634 118.479 73.3718 119.361C78.0569 119.929 80.769 119.78 85.2248 118.774C88.3772 118.032 89.5131 117.669 90.8935 116.912C93.0157 115.74 95.7379 113.304 96.5852 111.805C97.8754 109.578 97.9732 108.894 97.4192 106.004C97.1486 104.518 96.9939 102.875 97.066 102.356C97.2281 101.261 96.7901 99.0908 96.092 97.5315ZM96.0408 101.66C95.9405 102.769 95.5336 103.383 95.3738 102.591C95.2347 101.902 93.4598 99.099 93.2048 99.1504C93.0632 99.179 93.2178 99.6526 93.5578 100.168C94.4517 101.529 94.4001 101.566 93.2307 100.447C91.7342 99.0223 89.6684 98.1375 87.2705 97.798C86.1218 97.658 84.4939 97.1896 83.6723 96.771C82.8506 96.3524 81.3979 95.8752 80.481 95.7149C79.5357 95.5604 78.0727 95.0322 77.2073 94.5427C75.4481 93.5695 74.3122 93.3471 71.0798 93.2558C69.8332 93.2152 67.4404 92.9013 65.7482 92.5522C62.7914 91.927 62.6162 91.9358 59.6208 92.4342C56.7388 92.9098 56.5018 92.9045 55.8733 92.4203C55.0336 91.7663 54.5879 89.9965 54.9999 88.8241C55.744 86.5219 58.3942 84.8976 63.1229 83.7836C66.0771 83.0809 66.8858 82.9973 69.4357 83.067C79.1329 83.341 89.9587 88.9131 94.106 95.7273C95.5898 98.1111 96.1591 99.909 96.0408 101.66ZM96.1549 109.819C95.1557 111.589 94.3856 112.01 91.0683 112.52C87.3826 113.105 82.8289 112.749 77.4226 111.529C67.1895 109.185 60.9639 106.244 57.453 102.144C56.1728 100.622 55.7684 99.9336 55.4051 98.5722C55.0315 97.1599 55.016 96.7911 55.4358 96.0953C56.0023 95.1042 56.5586 94.9387 60.2469 94.8052C62.8843 94.7244 63.6545 94.8877 66.8406 96.2105C67.4176 96.4394 69.321 96.6662 71.0801 96.7627C73.9906 96.8658 74.4516 96.9587 75.9816 97.8188C77.2772 98.5403 78.0293 98.7604 79.2707 98.7754C80.422 98.7821 81.2978 99.0304 82.3873 99.6074C83.9405 100.436 84.5586 100.577 87.4459 100.712C89.6172 100.805 91.3661 101.435 93.5117 102.861C95.6908 104.307 96.1802 104.979 96.474 107.019C96.6956 108.409 96.6519 108.922 96.1549 109.819ZM93.0233 114.463C88.8331 117.514 81.5726 119.086 75.8546 118.222C74.7909 118.065 73.8379 118.018 73.7117 118.123C73.3795 118.376 69.3177 117.389 66.9532 116.485C62.7239 114.815 57.3869 111.164 55.0711 108.31C53.6261 106.556 53.8295 106.25 55.357 107.827C56.1323 108.601 57.6134 109.657 58.6591 110.163C59.71 110.695 60.4905 111.201 60.4209 111.295C60.3797 111.383 60.0088 111.299 59.6457 111.106C59.2825 110.914 58.9167 110.855 58.8472 110.949C58.6154 111.261 62.5306 113.42 65.4257 114.615C69.9563 116.463 78.0748 118.411 79.7695 118.042C80.2228 117.951 80.1224 117.891 79.4141 117.742C78.5821 117.565 78.5718 117.514 79.2209 117.516C79.6278 117.487 80.9646 117.535 82.1829 117.582C83.4011 117.628 84.7173 117.575 85.1087 117.469C85.5517 117.327 85.0624 117.24 83.7308 117.216C80.774 117.175 79.772 117.032 80.2253 116.649C80.4262 116.475 81.0031 116.412 81.6445 116.521C83.4912 116.76 86.4892 116.712 87.9856 116.384C89.142 116.124 89.2451 116.05 88.511 116.065C87.777 116.08 87.7048 116.015 88.0989 115.776C88.3616 115.617 89.3609 115.309 90.319 115.089C91.7587 114.772 91.8386 114.729 90.8315 114.853C89.0157 115.06 89.2655 114.398 91.0993 114.134C91.8746 114.031 93.0387 113.663 93.6491 113.327C94.6587 112.778 94.7437 112.761 94.499 113.156C94.3703 113.394 93.693 113.983 93.0233 114.463ZM90.5624 100.375C89.7382 100.089 88.0511 99.7658 86.8509 99.6628C85.2952 99.5517 84.2057 99.2669 83.2449 98.7436C82.4851 98.339 80.8804 97.8394 79.6647 97.6598C78.4773 97.4744 77.1637 97.102 76.8083 96.8018C75.6904 95.9382 74.2403 95.6199 71.402 95.5819C69.1895 95.5769 68.3009 95.4109 65.9751 94.5521C63.335 93.5973 62.4567 93.4823 59.2243 93.6833C58.7607 93.7237 59.2655 93.5952 60.4039 93.392C62.1759 93.1139 62.8919 93.1554 65.7818 93.7409C67.5976 94.1182 70.0522 94.4463 71.1752 94.4587C73.7482 94.4971 74.49 94.6662 76.4914 95.6702C77.3414 96.0831 78.8275 96.5801 79.7445 96.7404C80.6666 96.9261 82.1141 97.3778 82.9641 97.7907C83.8141 98.2036 85.4702 98.6662 86.6576 98.8516C88.6666 99.1634 90.2481 99.6942 91.5205 100.447C92.4246 100.982 92.1542 100.957 90.5624 100.375ZM86.3525 115.013C85.2244 114.975 84.2895 114.872 84.2637 114.744C84.1967 114.412 84.6886 114.366 87.1329 114.351C88.7864 114.362 89.1857 114.441 88.8534 114.694C88.5495 114.941 87.7408 115.025 86.3525 115.013ZM85.3533 116.198C84.3256 116.219 82.9657 116.202 82.3012 116.123L81.1241 115.989L81.8607 115.548C82.3114 115.298 82.8111 115.144 83.1253 115.24C83.4009 115.29 84.5677 115.373 85.6675 115.417C87.0325 115.46 87.6172 115.581 87.455 115.8C87.2927 116.019 86.6128 116.156 85.3533 116.198ZM82.6951 114.715C80.9103 114.783 69.8941 112.066 69.7576 111.536C69.6803 111.153 70.2598 111.248 73.6056 112.193C77.294 113.229 82.7775 114.247 83.6893 114.09C84.0859 114.009 84.158 114.075 83.9726 114.325C83.8104 114.543 83.3107 114.697 82.6951 114.715ZM76.9335 115.241C73.629 114.5 66.3372 112.12 66.265 111.762C66.1311 111.099 67.4189 111.343 71.9238 112.772C74.7004 113.673 78.0359 114.567 79.3752 114.775C81.7165 115.125 81.7499 115.145 80.9464 115.547C80.2175 115.88 79.6535 115.861 76.9335 115.241ZM78.2086 116.737C77.5441 116.659 77.5209 116.69 77.9665 116.998C78.4173 117.332 78.3658 117.369 77.5699 117.371C76.0065 117.367 69.9743 115.822 67.123 114.698C63.5994 113.31 60.7816 111.913 60.9902 111.632C61.0546 111.512 62.2033 111.945 63.5401 112.578C64.8486 113.217 67.0714 114.15 68.5009 114.658C70.9169 115.526 76.2692 116.916 76.7792 116.813C77.5158 116.664 76.5576 116.3 73.6806 115.632C69.1912 114.572 61.5285 111.523 61.9457 110.961C62.0616 110.804 63.1279 111.12 64.3539 111.643C68.1608 113.266 73.781 115.107 76.828 115.74C78.7675 116.146 79.62 116.425 79.3573 116.585C79.123 116.738 78.6027 116.79 78.2086 116.737ZM68.2972 111.166C67.2488 110.793 67.6248 110.319 68.6963 110.66C69.2913 110.833 69.5077 111.028 69.33 111.17C69.1806 111.307 68.7067 111.296 68.2972 111.166ZM67.1072 110.53C66.9088 110.57 66.1284 110.355 65.3892 110.053C63.7201 109.38 63.6893 109.812 65.3789 110.586C66.5148 111.101 66.5535 111.146 65.907 111.303C65.3404 111.418 64.4981 111.189 62.7853 110.446C62.623 110.372 63.7253 109.114 64.0317 109.025C64.3434 108.962 67.393 110.047 67.4394 110.277C67.46 110.379 67.3055 110.49 67.1072 110.53ZM63.4574 108.955C63.3595 109.055 63.0144 109.098 62.7002 109.002C61.9532 108.807 62.2648 108.16 63.0195 108.247C63.5372 108.328 63.7123 108.611 63.4574 108.955ZM61.147 108.173C60.4103 107.737 60.8507 107.143 61.6105 107.548C62.1025 107.794 62.1618 107.941 61.9377 108.146C61.7368 108.319 61.4097 108.306 61.147 108.173ZM62.3783 109.89C62.2366 109.919 61.8812 109.911 61.6391 109.88C61.245 109.827 61.1961 109.73 61.3944 109.398C61.5926 109.066 61.7626 109.032 62.0872 109.179C62.6075 109.419 62.7466 109.816 62.3783 109.89ZM60.2353 109.207C60.0061 109.094 59.7949 108.924 59.7691 108.796C59.7021 108.465 60.3924 108.378 60.8611 108.656C61.3969 108.973 60.8226 109.487 60.2353 109.207ZM60.4155 107.47C60.1167 107.743 59.0091 106.931 59.1688 106.553C59.2692 106.32 59.5062 106.326 59.9363 106.558C60.6292 106.922 60.7709 107.186 60.4155 107.47ZM59.4368 108.465C59.3389 108.564 58.968 108.48 58.6615 108.276C57.9815 107.829 58.3421 107.278 59.0916 107.631C59.6454 107.892 59.7639 108.186 59.4368 108.465ZM58.7412 106.48C58.615 106.585 58.3446 106.56 58.1334 106.39C57.8552 106.181 57.8243 106.028 58.0895 105.735C58.3548 105.442 58.4681 105.419 58.633 105.652C58.9627 106.117 58.9936 106.27 58.7412 106.48ZM57.5821 105.412C57.2318 105.722 56.3767 104.991 56.4771 104.466C56.5157 104.219 56.4436 104.154 56.271 104.322C55.8692 104.669 55.3644 103.921 55.6888 103.483C55.8743 103.233 56.0597 103.275 56.3508 103.695C56.5646 104.024 56.9639 104.395 57.2549 104.522C57.8757 104.822 57.9607 105.097 57.5821 105.412ZM57.353 107.345C56.8662 106.832 57.1469 106.324 57.7342 106.604C58.0922 106.77 58.1514 106.918 57.9248 107.256C57.7033 107.619 57.6183 107.637 57.353 107.345ZM54.4776 95.1463C54.1247 95.5895 53.7281 95.9618 53.6148 95.9847C53.4732 96.0133 53.007 96.4793 52.528 97.0277C51.3614 98.4056 51.1244 98.1081 52.1416 96.5743C52.9837 95.3416 52.9528 94.8962 52.1029 95.9445C51.866 96.2315 51.6548 96.3538 51.6239 96.2007C51.5414 95.7922 52.5793 94.6528 53.388 94.277C53.8774 94.072 54.0448 93.8788 53.8438 93.7599C53.6429 93.6411 53.2283 93.7779 52.7132 94.1476C51.6882 94.9124 51.6005 94.4785 52.6127 93.5037L53.3724 92.7393L54.1967 93.3167C55.1935 94.0188 55.2296 94.1975 54.4776 95.1463ZM56.1424 106.314C55.3388 105.839 55.7173 105.231 56.5107 105.655C56.9408 105.887 57.0722 106.1 56.9099 106.318C56.7477 106.537 56.5107 106.532 56.1424 106.314ZM53.125 91.2217C52.8958 91.6931 52.9087 91.903 53.1611 91.9849C53.4419 92.061 53.3878 92.2314 53.0994 92.5553C52.4555 93.1635 52.0537 93.218 52.404 92.616C52.5559 92.3462 52.6434 91.9034 52.6202 91.6424C52.5919 91.3559 52.7309 90.8762 52.9395 90.595C53.4314 89.9643 53.5422 90.367 53.125 91.2217ZM55.184 103.319C54.7281 103.544 54.2799 102.785 54.6044 102.347C54.813 102.066 54.9598 102.063 55.2148 102.304C55.6192 102.7 55.6064 103.075 55.184 103.319ZM54.4189 102.013C53.8935 102.331 53.5406 101.898 53.8728 101.352C54.0943 100.989 54.2076 100.966 54.4292 101.187C54.8671 101.603 54.8696 101.762 54.4189 102.013ZM52.5049 98.5201C52.0336 98.9606 51.686 99.1371 51.7632 98.9355C51.995 98.3308 52.5873 97.4674 53.0225 97.1404C53.8698 96.5177 53.4063 97.7271 52.5049 98.5201ZM53.4736 100.689C53.3705 100.471 53.3164 100.057 53.3833 99.804C53.476 99.3868 53.5327 99.3753 53.8238 99.7948C53.9989 100.078 54.0428 100.441 53.8857 100.686C53.6925 101.043 53.6024 101.035 53.4736 100.689ZM52.9068 99.6345C52.5257 100.083 52.1651 100.342 52.1291 100.163C52.093 99.9848 52.3969 99.4452 52.7677 98.9453C53.2364 98.3459 53.494 98.1611 53.5455 98.4163C53.5867 98.6205 53.3112 99.1544 52.9068 99.6345ZM52.4281 103.397C52.2143 103.069 52.034 102.467 51.9747 102.028C51.9154 101.296 51.9489 101.316 52.4486 102.331C53.0463 103.538 53.0154 104.262 52.4281 103.397Z" fill="#AB8E85"/>
<path d="M95.0593 99.5731C94.8043 99.3323 94.7503 99.5026 94.8946 100.217C94.9976 100.728 95.2269 101.133 95.3685 101.105C95.7369 101.03 95.5307 100.009 95.0593 99.5731Z" fill="#AB8E85"/>
<path d="M92.1201 93.9231C91.6667 93.4301 90.7909 92.5974 90.1805 92.0564C89.5751 91.541 88.9647 91.0001 88.8256 90.8953C88.6813 90.765 88.501 90.7483 88.4367 90.8676C88.3388 90.967 88.8694 91.5507 89.5803 92.151C90.2861 92.7259 91.3499 93.7598 91.9527 94.4085C92.5838 95.0516 93.0397 95.4112 92.9985 95.207C92.9572 95.0028 92.5451 94.4218 92.1201 93.9231Z" fill="#AB8E85"/>
<path d="M89.7685 94.3979C89.1169 93.945 88.5296 93.665 88.4601 93.7588C88.2978 93.9775 90.4435 95.6963 90.8118 95.6219C91.2136 95.5674 90.9096 95.2302 89.7685 94.3979Z" fill="#AB8E85"/>
<path d="M90.5388 96.8992C90.0881 96.5651 89.6399 96.3899 89.542 96.4894C89.3798 96.7081 90.9073 97.9938 91.2756 97.9194C91.649 97.8706 91.4069 97.5476 90.5388 96.8992Z" fill="#AB8E85"/>
<path d="M85.2349 88.5916C82.5562 87.007 77.9019 85.1305 77.4228 85.3866C77.2631 85.472 78.1801 85.9245 79.4525 86.3849C80.7584 86.8652 83.1744 88.0246 84.8718 88.9837C86.5641 89.9173 87.9344 90.5705 87.8983 90.3919C87.8674 90.2387 86.6696 89.4178 85.2349 88.5916Z" fill="#AB8E85"/>
<path d="M86.711 91.6675C85.9924 91.1749 85.3098 90.8611 85.2171 90.9861C85.1244 91.1111 85.6679 91.6124 86.4097 92.0737C88.2231 93.1688 88.4497 92.8308 86.711 91.6675Z" fill="#AB8E85"/>
<path d="M86.6342 96.5448C85.8641 96.3815 85.1609 96.2578 85.1043 96.2692C84.821 96.3264 85.0837 96.7516 85.4495 96.8106C85.6349 96.8528 86.3329 96.951 86.9742 97.0607C88.5943 97.3447 88.2981 96.8997 86.6342 96.5448Z" fill="#AB8E85"/>
<path d="M85.583 92.5063C84.8128 92.0507 83.9783 91.7144 83.7517 91.7602C83.525 91.8059 84.0969 92.3015 85.0009 92.8363C85.9102 93.3967 86.7602 93.8095 86.8735 93.7867C87.3551 93.6894 86.9559 93.3184 85.583 92.5063Z" fill="#AB8E85"/>
<path d="M80.0039 88.824C78.7624 88.2244 78.3065 88.1571 78.3889 88.5655C78.4456 88.8463 80.9621 89.7729 81.1295 89.5797C81.199 89.486 80.6864 89.1378 80.0039 88.824Z" fill="#AB8E85"/>
<path d="M81.1248 94.8145C80.8724 94.7326 80.3392 94.5746 79.958 94.439C79.4867 94.2951 79.2549 94.3153 79.2909 94.494C79.3631 94.8514 80.8209 95.3541 81.2485 95.1349C81.488 95.0069 81.439 94.9105 81.1248 94.8145Z" fill="#AB8E85"/>
<path d="M78.5103 91.6494C77.7762 91.3725 77.0447 91.2545 76.8567 91.3456C76.697 91.4309 77.1375 91.714 77.8947 91.9596C78.6288 92.2365 79.3603 92.3545 79.52 92.2691C79.6797 92.1837 79.2392 91.9007 78.5103 91.6494Z" fill="#AB8E85"/>
<path d="M74.2238 84.1461C73.0262 83.9097 71.9727 83.8035 71.9315 83.8916C71.8105 84.0223 75.9779 85.0938 76.3462 85.0194C76.4312 85.0023 76.4673 84.8887 76.4415 84.7611C76.4209 84.659 75.4164 84.357 74.2238 84.1461Z" fill="#AB8E85"/>
<path d="M71.6972 84.6297C69.4564 84.3382 68.7223 84.3535 65.9871 84.826C63.5686 85.2612 63.1771 85.3668 64.3181 85.3224C65.132 85.2643 66.3477 85.1518 67.0276 85.0145C67.6844 84.9085 69.4847 84.9169 70.9838 85.0394C74.5047 85.3913 75.0069 85.1039 71.6972 84.6297Z" fill="#AB8E85"/>
<path d="M73.8614 92.4286C73.1479 92.2539 68.5375 91.9094 68.0559 92.0066C67.2626 92.1668 68.7024 92.434 71.3965 92.634C74.3276 92.8393 75.1698 92.7755 73.8614 92.4286Z" fill="#AB8E85"/>
<path d="M70.7521 87.1051C69.3664 86.6676 63.337 87.0347 63.44 87.5452C63.4709 87.6984 64.4419 87.6883 65.5907 87.5361C66.7162 87.4152 68.3826 87.3444 69.2454 87.3828C70.7393 87.4797 71.5042 87.3253 70.7521 87.1051Z" fill="#AB8E85"/>
<path d="M69.8428 85.668C69.6857 85.62 68.8667 85.6525 68.0296 85.7418C66.2756 85.9631 66.4714 86.0564 68.6942 86.1124C70.0644 86.1812 70.6619 85.9277 69.8428 85.668Z" fill="#AB8E85"/>
<path d="M68.0577 83.6906C66.806 83.6245 64.4802 83.9346 64.5266 84.1643C64.5524 84.292 65.4384 84.2991 66.5021 84.164C68.408 83.9652 69.1009 83.7456 68.0577 83.6906Z" fill="#AB8E85"/>
<path d="M67.5071 89.7263C67.2238 89.7835 66.6701 89.8156 66.258 89.8191C65.7222 89.7944 65.6141 89.8428 65.8536 90.007C66.3662 90.3552 68.1176 90.2673 68.0454 89.9099C68.0145 89.7567 67.7621 89.6748 67.5071 89.7263Z" fill="#AB8E85"/>
<path d="M66.7136 88.133C66.3299 88.1308 65.5315 88.2654 64.9185 88.4423C63.914 88.7248 63.9475 88.7446 65.6706 88.6624C66.6648 88.6211 67.4632 88.4865 67.4374 88.3589C67.4168 88.2568 67.0742 88.1665 66.7136 88.133Z" fill="#AB8E85"/>
<path d="M64.3053 85.9891C63.1359 86.0392 61.4773 86.5866 61.5391 86.8929C61.5597 86.995 62.4535 86.8943 63.5584 86.6712C65.7399 86.2308 66.1133 85.8897 64.3053 85.9891Z" fill="#AB8E85"/>
<path d="M65.7326 91.3066C65.1763 91.1798 64.4937 91.1582 64.2491 91.2607C63.9477 91.3747 64.1821 91.5133 64.9754 91.6454C66.5054 91.921 67.0977 91.642 65.7326 91.3066Z" fill="#AB8E85"/>
<path d="M61.4205 84.8445C60.9106 84.9475 59.4504 86.916 59.0796 88.0004C58.7191 89.1359 58.8325 90.5742 59.2575 90.1962C59.412 90.0853 59.4583 89.7306 59.4016 89.4498C59.2367 88.6329 60.1329 86.6454 61.0059 85.8581C61.7811 85.1702 61.9588 84.7359 61.4205 84.8445Z" fill="#AB8E85"/>
<path d="M61.2794 91.0102C60.4011 91.1875 60.3265 91.2557 60.8158 91.3429C61.671 91.4891 62.4359 91.3346 62.3741 91.0283C62.3483 90.9007 61.8409 90.8703 61.2794 91.0102Z" fill="#AB8E85"/>
<path d="M60.9391 87.8642C60.6275 87.9271 60.231 89.1762 60.3392 89.7122C60.4577 90.2994 60.9084 90.049 60.9547 89.402C60.9444 89.0587 61.0216 88.5649 61.0886 88.3123C61.1504 88.0341 61.0808 87.8356 60.9391 87.8642Z" fill="#AB8E85"/>
<path d="M58.7986 86.1709C58.0054 86.331 56.9702 89.0905 57.2227 90.3413C57.434 91.3879 57.8538 90.9844 57.7867 89.7758C57.7532 89.1715 58.0107 88.11 58.3686 87.4001C58.7266 86.6902 58.912 86.148 58.7986 86.1709Z" fill="#AB8E85"/>
<path d="M58.9562 91.1869C58.5081 91.3039 57.8307 91.6001 57.3955 91.927L56.6177 92.456L57.7252 92.0996C58.333 91.8972 59.0593 91.6974 59.3426 91.6402C59.5976 91.5887 59.8036 91.4409 59.7727 91.2877C59.7469 91.1601 59.3812 91.1011 58.9562 91.1869Z" fill="#AB8E85"/>
<path d="M56.8902 87.0874C55.8986 87.2876 55.3478 91.2776 56.2621 91.5713C56.4862 91.6589 56.5377 91.3297 56.3883 90.5894C56.2646 89.9767 56.2851 89.2021 56.4267 88.8813C56.5349 88.5406 56.777 87.987 56.9134 87.6406C57.0551 87.3198 57.0319 87.0588 56.8902 87.0874Z" fill="#AB8E85"/>
<path d="M95.2117 104.856C94.9567 104.615 94.9799 104.876 95.3071 105.766C95.5647 106.458 95.8017 107.048 95.8687 107.088C96.1752 107.291 95.562 105.13 95.2117 104.856Z" fill="#AB8E85"/>
<path d="M93.35 110.093C92.5851 110.248 91.9541 110.482 91.9799 110.609C92.0005 110.711 92.6727 110.682 93.4376 110.527C94.2309 110.367 94.8336 110.139 94.8078 110.012C94.7821 109.884 94.1433 109.933 93.35 110.093Z" fill="#AB8E85"/>
<path d="M91.4563 102.32C90.2148 101.72 89.558 101.534 89.6198 101.84C89.6611 102.044 92.6 103.311 92.7158 103.155C92.7905 103.086 92.211 102.699 91.4563 102.32Z" fill="#AB8E85"/>
<path d="M93.4813 108.845C93.1465 108.647 91.9385 108.944 91.9901 109.199C92.0158 109.327 92.4434 109.4 92.907 109.359C93.7492 109.296 93.9501 109.122 93.4813 108.845Z" fill="#AB8E85"/>
<path d="M90.2153 107.273C89.9165 107.253 88.8862 107.116 87.9178 106.992C86.9725 106.838 86.1483 106.845 86.084 106.964C85.9887 107.222 88.5978 107.732 89.914 107.679C90.8566 107.674 91.0601 107.368 90.2153 107.273Z" fill="#AB8E85"/>
<path d="M90.2412 108.861C89.9424 108.842 88.6031 108.634 87.2586 108.401C85.9141 108.167 84.6314 107.948 84.446 107.906C84.2322 107.869 84.0725 107.955 84.1034 108.108C84.1601 108.389 88.6804 109.309 89.945 109.293C90.8825 109.263 91.086 108.956 90.2412 108.861Z" fill="#AB8E85"/>
<path d="M90.4216 110.339C90.1099 110.402 89.5742 110.377 89.2651 110.307C88.9225 110.217 88.6392 110.274 88.58 110.419C88.5208 110.564 88.8788 110.73 89.4197 110.781C90.5968 110.915 91.135 110.806 91.0681 110.474C91.0423 110.347 90.7615 110.271 90.4216 110.339Z" fill="#AB8E85"/>
<path d="M89.8164 111.577C89.0721 111.542 88.2891 111.461 88.1088 111.444C87.895 111.407 87.7353 111.493 87.7611 111.62C87.8332 111.978 89.7495 112.122 90.5222 111.86C90.9883 111.686 90.8261 111.613 89.8164 111.577Z" fill="#AB8E85"/>
<path d="M86.4985 105.366C84.1083 104.919 83.6396 105.226 85.9319 105.773C87.7581 106.201 88.7445 106.268 88.6879 105.987C88.6621 105.859 87.6911 105.577 86.4985 105.366Z" fill="#AB8E85"/>
<path d="M84.714 109.526C82.7848 109.171 82.4294 109.163 82.7565 109.469C82.9394 109.645 86.1873 110.397 86.499 110.334C86.5556 110.323 86.5917 110.209 86.5659 110.082C86.5453 109.98 85.7262 109.72 84.714 109.526Z" fill="#AB8E85"/>
<path d="M83.3413 110.467C81.6362 110.2 78.4733 109.431 76.3354 108.773C74.1925 108.09 72.3895 107.63 72.3148 107.698C72.0882 108.036 77.3452 109.685 81.1674 110.507C85.5358 111.405 86.566 111.543 86.499 111.211C86.4733 111.083 85.0515 110.759 83.3413 110.467Z" fill="#AB8E85"/>
<path d="M82.1097 105.827C81.015 105.517 80.0981 105.356 80.0286 105.45C79.8612 105.643 80.9198 106.067 82.6841 106.482C84.8528 107 84.3608 106.462 82.1097 105.827Z" fill="#AB8E85"/>
<path d="M80.5616 103.855C79.5519 103.527 78.7509 103.503 78.8076 103.784C78.8488 103.988 81.373 104.515 81.4837 104.333C81.5532 104.239 81.1282 104.033 80.5616 103.855Z" fill="#AB8E85"/>
<path d="M80.2557 110.957C78.7309 110.707 77.4302 110.544 77.389 110.632C77.2731 110.789 82.5455 111.929 82.9138 111.855C82.9988 111.838 83.0683 111.744 83.0477 111.642C83.022 111.514 81.7521 111.213 80.2557 110.957Z" fill="#AB8E85"/>
<path d="M78.7202 106.565C75.4259 105.583 75.3306 105.549 75.3925 105.855C75.4286 106.034 77.2728 106.697 80.2245 107.589C80.853 107.781 81.4222 107.826 81.4814 107.681C81.5458 107.562 80.2914 107.044 78.7202 106.565Z" fill="#AB8E85"/>
<path d="M79.9824 108.435C79.0938 108.269 77.1853 107.725 75.7042 107.253C72.6134 106.256 71.6862 106.337 74.4036 107.383C76.0907 107.999 81.072 109.304 81.497 109.219C82.0919 109.098 81.3372 108.719 79.9824 108.435Z" fill="#AB8E85"/>
<path d="M76.9429 104.479C74.9905 103.864 74.6866 103.819 74.7536 104.151C74.8103 104.431 78.2231 105.416 78.5424 105.245C78.7021 105.16 77.9861 104.826 76.9429 104.479Z" fill="#AB8E85"/>
<path d="M76.3372 99.5803C73.8748 98.7756 72.9682 98.6664 73.759 99.2241C74.3437 99.6374 76.9605 100.331 77.3082 100.155C77.4679 100.069 77.0326 99.8119 76.3372 99.5803Z" fill="#AB8E85"/>
<path d="M76.1648 102.378C74.9362 101.988 74.9028 102.553 76.1366 102.968C76.7084 103.172 76.9118 103.157 76.8654 102.927C76.8294 102.749 76.5126 102.494 76.1648 102.378Z" fill="#AB8E85"/>
<path d="M75.4108 109.597C74.9112 109.459 73.6053 108.979 72.5698 108.524C70.6612 107.687 69.8551 107.637 71.0425 108.407C71.9955 109.038 75.6195 110.193 75.9955 110.01C76.2067 109.888 75.9672 109.724 75.4108 109.597Z" fill="#AB8E85"/>
<path d="M72.6358 97.4581C71.2115 97.2675 70.019 97.3488 70.274 97.5896C70.5625 97.8501 73.2077 97.9538 73.3982 97.7293C73.4394 97.6413 73.1201 97.5198 72.6358 97.4581Z" fill="#AB8E85"/>
<path d="M68.5819 98.4094C67.8813 98.1523 67.2348 98.0172 67.1421 98.1422C67.0726 98.2359 67.0648 98.3437 67.1318 98.3834C68.2677 98.8979 69.6071 99.398 69.7487 99.3694C70.2587 99.2664 69.7306 98.8417 68.5819 98.4094Z" fill="#AB8E85"/>
<path d="M68.4509 101.412C67.8353 101.137 67.3356 100.999 67.3613 101.127C67.4129 101.382 69.1824 102.406 69.4657 102.349C69.919 102.258 69.5198 101.887 68.4509 101.412Z" fill="#AB8E85"/>
<path d="M66.9186 104.192C62.545 102.099 58.3155 98.6755 57.9754 96.9907C57.9187 96.7099 57.7152 96.4322 57.4963 96.3701C56.8961 96.1724 57.7643 97.9897 58.9286 99.3753C60.4793 101.214 68.3405 105.977 69.1389 105.55C69.2985 105.465 68.294 104.87 66.9186 104.192Z" fill="#AB8E85"/>
<path d="M67.0681 105.809C64.3791 104.465 63.2947 104.206 65.1518 105.372C66.468 106.195 69.5022 107.496 69.6413 107.308C69.7108 107.214 68.544 106.547 67.0681 105.809Z" fill="#AB8E85"/>
<path d="M67.3588 102.429C65.8932 101.742 65.3987 101.921 66.6995 102.668C67.2687 103.005 67.874 103.228 68.0569 103.112C68.2732 103.015 67.9847 102.754 67.3588 102.429Z" fill="#AB8E85"/>
<path d="M68.0392 107.552C66.262 106.928 61.399 104.164 59.8484 102.909C58.3261 101.649 57.9449 101.806 59.359 103.114C61.3115 104.899 65.461 107.196 68.5905 108.238C69.9814 108.701 69.4688 108.06 68.0392 107.552Z" fill="#AB8E85"/>
<path d="M64.1748 96.0047C63.3455 95.6939 62.5419 95.5108 62.3822 95.5962C62.2225 95.6815 62.7866 95.9927 63.5876 96.3092C64.417 96.62 65.2206 96.8032 65.3803 96.7178C65.54 96.6324 65.0042 96.3155 64.1748 96.0047Z" fill="#AB8E85"/>
<path d="M65.5377 99.9804C65.0689 99.703 64.631 99.5789 64.5847 99.6414C64.3709 99.8971 65.7309 100.792 66.0503 100.621C66.2615 100.498 66.0683 100.272 65.5377 99.9804Z" fill="#AB8E85"/>
<path d="M63.9409 100.834C63.4721 100.557 63.011 100.464 62.9183 100.589C62.7097 100.87 64.0775 101.657 64.4767 101.443C64.6363 101.358 64.438 101.106 63.9409 100.834Z" fill="#AB8E85"/>
<path d="M62.7481 97.9931C62.269 97.6647 61.6379 97.0217 61.3803 96.622C61.0892 96.2026 60.757 95.8712 60.6436 95.894C60.2753 95.9684 60.4814 96.405 61.2542 97.3117C62.2768 98.4336 63.7579 99.4896 63.66 99.0045C63.6187 98.8003 63.204 98.3527 62.7481 97.9931Z" fill="#AB8E85"/>
<path d="M62.8053 103.534C60.4021 102.292 56.8835 98.8848 56.6207 97.583C56.5588 97.2766 56.3502 96.9734 56.1312 96.9113C55.5311 96.7136 56.4456 98.7607 57.5765 100.126C58.581 101.305 63.6399 104.747 63.5548 104.18C63.5239 104.027 63.2019 103.746 62.8053 103.534Z" fill="#AB8E85"/>
<path d="M61.5274 98.957C61.0715 98.5974 60.3683 97.8892 59.9716 97.3848C59.5749 96.8804 59.1524 96.5406 59.0546 96.64C58.6992 96.9243 61.7181 100.194 62.2564 100.085C62.5964 100.016 62.3439 99.6423 61.5274 98.957Z" fill="#AB8E85"/>
<path d="M71.2493 117.026C70.6028 116.891 69.2506 116.473 68.2306 116.094C65.9717 115.275 65.539 115.469 67.6897 116.337C69.5159 117.057 71.8083 117.604 72.1843 117.422C72.3156 117.342 71.8958 117.161 71.2493 117.026Z" fill="#AB8E85"/>
</svg>
