<svg width="108" height="105" viewBox="0 0 108 105" fill="none" xmlns="http://www.w3.org/2000/svg">
<path d="M34.0933 5.91688C31.3103 5.81869 26.2774 7.15597 22.879 8.87298C15.2948 12.6804 9.67005 18.3124 6.43929 25.2701C4.81106 28.7994 4.16895 31.3248 4.07822 34.7073C3.8435 41.5306 7.58136 47.8582 13.7945 51.4097C16.0801 52.7078 21.1298 54.0276 23.9024 54.0156C29.9258 54.0773 36.6941 51.2096 41.8538 46.499C50.9275 38.1949 54.4949 23.2569 49.4233 14.7618C47.7844 11.9791 46.462 10.6749 43.3673 8.77677C40.7442 7.1419 37.0656 6.02734 34.0933 5.91688ZM41.4731 9.87249C42.1899 10.9868 41.6848 12.9734 40.069 15.3947C38.1889 18.2505 36.9689 19.2667 32.5188 21.7918C27.8984 24.3811 26.1459 25.9789 24.5548 28.9082C23.4564 30.9591 22.0994 32.514 19.9066 34.1791C17.6434 35.9697 16.0705 38.2225 14.8873 41.3631C13.4606 45.1588 12.1027 45.9607 9.52619 44.4452C6.02363 42.3358 4.83576 36.8716 6.48811 30.373C8.33738 23.0999 12.8317 17.0729 19.9006 12.4175C26.478 8.03147 33.2014 6.55046 38.6161 8.24985C40.3247 8.79181 41.032 9.18676 41.4731 9.87249ZM47.5967 14.8351C49.1786 17.3882 50.0872 20.7739 50.0982 24.3616C50.149 28.2461 47.5712 37.6283 46.5957 37.3803C46.3789 37.3251 46.7023 35.9017 47.429 33.6488C48.19 31.2612 48.4792 29.9725 48.2624 29.9174C48.0456 29.8622 47.5169 30.7316 47.1174 31.8488C46.0455 34.5517 43.5034 39.1034 43.0698 38.9932C42.8892 38.9472 42.7294 39.1217 42.7142 39.3329C42.6 40.2359 42.3527 40.6033 41.8469 40.4747C41.594 40.4103 40.7449 40.8756 40.006 41.5122C36.4629 44.5547 31.4194 47.144 27.5314 47.912C26.5616 48.0956 25.7552 48.3924 25.7124 48.5608C25.584 49.0659 26.0071 49.0659 28.3491 48.4784C31.1398 47.7898 36.6216 44.9894 39.3659 42.8193C42.8406 40.0462 42.4031 41.0104 38.7963 44.0008C36.2583 46.1158 30.6681 48.8887 27.9116 49.4426C19.219 51.104 14.0526 48.4282 16.047 43.3071C17.1617 40.4358 18.6547 38.9513 22.4725 36.9466C26.1562 35.0153 27.0891 34.0695 29.5265 29.778C30.8998 27.4027 31.0957 27.2374 35.7693 24.5899C40.8812 21.7313 42.3894 20.0355 43.4254 15.9612C43.8896 14.2868 44.3918 12.7655 44.6324 12.5757C45.3351 11.9299 46.1803 12.5391 47.5967 14.8351ZM42.582 15.4959C42.3166 16.5397 40.3918 19.4201 39.2802 20.4638C38.684 20.9933 36.3277 22.5451 34.0674 23.8704C29.8854 26.2486 29.8854 26.2486 27.875 29.4656C25.5108 33.1663 24.0454 34.6937 21.8261 35.7068C19.8131 36.6647 19.5288 36.2698 21.404 35.0976C23.2877 33.8916 24.7255 32.3214 26.0541 29.9706C28.0608 26.4657 29.1191 25.4801 33.7927 22.8327C38.3769 20.2342 40.2721 18.5293 41.5247 15.8723C42.0944 14.6908 42.856 14.4184 42.582 15.4959ZM45.307 40.028C44.7526 40.9984 44.0964 41.7636 43.9519 41.7268C43.5183 41.6166 43.8113 40.6156 44.632 39.3545C45.0114 38.7699 45.4441 38.1271 45.5849 37.8761C45.7703 37.6006 45.9681 37.5792 46.1335 37.8363C46.2989 38.0935 46.0126 38.9169 45.307 40.028ZM41.506 44.6898C40.8308 45.3785 40.5713 45.4917 40.4315 45.1336C40.1606 44.3836 41.7325 42.7399 42.1185 43.3399C42.2839 43.597 42.0832 44.0837 41.506 44.6898ZM38.3956 47.0895C38.1901 47.8976 37.0538 48.4332 36.955 47.7628C36.9114 47.1781 37.7273 46.2384 38.197 46.3578C38.4137 46.413 38.4898 46.7191 38.3956 47.0895ZM34.6509 49.8656C33.8912 50.2818 33.5252 49.1492 34.2299 48.6472C34.6853 48.3687 34.7852 48.4299 34.9629 48.9412C35.0855 49.3667 34.9638 49.6942 34.6509 49.8656ZM32.8956 50.5664C32.3337 50.9613 32.2614 50.9429 32.0732 50.3215C31.9506 49.896 32.0552 49.6358 32.4318 49.5164C33.2932 49.3053 33.6364 50.0737 32.8956 50.5664ZM31.1061 51.402C30.7381 51.4877 30.4748 51.3131 30.3436 50.9213C30.2486 50.5387 30.3532 50.2785 30.7297 50.1591C31.0977 50.0734 31.3611 50.2479 31.4922 50.6398C31.5873 51.0224 31.4826 51.2826 31.1061 51.402ZM15.0241 49.7507C14.8444 50.4578 14.8082 50.4486 13.8889 49.6771C13.1606 49.0617 13.0019 48.627 13.1817 47.9199C13.3101 47.4149 13.5469 46.9373 13.6895 46.8302C14.1365 46.5854 15.2211 48.9762 15.0241 49.7507ZM29.6285 51.3131C29.5429 51.6498 29.232 51.9651 28.9172 51.9926C28.207 52.0629 28.0027 50.8997 28.7111 50.6855C29.5364 50.4651 29.7998 50.6396 29.6285 51.3131ZM27.5994 51.7292C27.4625 52.268 26.35 52.5587 26.0743 52.1301C26.0001 51.9678 26.0772 51.6648 26.2626 51.3893C26.7229 50.7894 27.7707 51.0558 27.5994 51.7292ZM25.3774 51.8453C25.4847 52.4821 25.1186 52.7116 24.2876 52.5003C23.4566 52.289 23.3712 51.2636 24.1727 51.2881C25.2529 51.276 25.3166 51.328 25.3774 51.8453ZM17.7519 51.1253C17.6663 51.4621 17.3962 51.4651 16.8885 51.1926C16.4445 50.9722 16.0005 50.7517 15.856 50.715C15.6753 50.669 15.644 50.3384 15.7296 50.0017C15.8752 49.4293 15.9921 49.4232 16.882 50.0079C17.4449 50.3661 17.8118 50.8896 17.7519 51.1253Z" fill="#AE9187"/>
<path d="M29.7439 9.25627C29.0545 9.54701 28.6352 9.83472 28.8795 9.9327C29.4215 10.0705 31.7995 9.49215 31.8852 9.15543C32.005 8.68403 30.9971 8.71455 29.7439 9.25627Z" fill="#AE9187"/>
<path d="M25.6914 10.5201C24.9041 10.8935 24.325 11.3557 24.4438 11.4935C24.6282 11.8272 27.5664 10.7101 27.7224 10.2479C27.9231 9.76118 27.0512 9.86212 25.6914 10.5201Z" fill="#AE9187"/>
<path d="M17.68 15.402C16.0682 16.7488 13.5017 19.4301 13.3647 19.9688C13.1763 20.7096 13.9104 20.3944 14.8052 19.2955C15.3463 18.6803 16.6348 17.3947 17.7122 16.4856C19.8927 14.5665 19.8709 13.5931 17.68 15.402Z" fill="#AE9187"/>
<path d="M30.779 19.557C30.4491 19.7958 30.2636 20.0712 30.3463 20.1998C30.6134 20.6621 31.7259 20.3714 31.8629 19.8326C32.0256 19.1928 31.5198 19.0642 30.779 19.557Z" fill="#AE9187"/>
<path d="M26.5513 22.5688C25.7525 23.4412 26.4323 23.7933 27.3671 22.9914C28.0527 22.4129 28.0869 22.2782 27.6534 22.1679C27.3282 22.0853 26.8537 22.2872 26.5513 22.5688Z" fill="#AE9187"/>
<path d="M11.8651 21.6308C11.3944 22.1206 10.3387 24.0031 10.2807 24.3826C10.2264 25.05 10.8055 24.5878 11.7327 23.2104C12.775 21.6829 12.8683 20.5595 11.8651 21.6308Z" fill="#AE9187"/>
<path d="M24.3024 24.7573C24.117 25.0328 23.8887 25.4766 23.8203 25.746C23.709 26.1837 23.8173 26.2113 24.3365 25.9848C25.0259 25.694 25.5233 24.4941 24.9814 24.3563C24.8007 24.3104 24.4879 24.4818 24.3024 24.7573Z" fill="#AE9187"/>
<path d="M12.7262 24.1441C11.9312 25.3042 11.5441 26.6755 11.9776 26.7857C12.1583 26.8317 12.4863 26.4491 12.7317 25.9379C12.9771 25.4267 13.3993 24.6737 13.6723 24.2054C14.3142 23.0422 13.5212 22.9839 12.7262 24.1441Z" fill="#AE9187"/>
<path d="M22.0011 27.7571C21.5941 28.2989 21.7205 29.0122 22.2225 28.853C22.4203 28.8316 22.7398 28.4827 22.9424 28.1398C23.3646 27.3868 22.5317 27.0317 22.0011 27.7571Z" fill="#AE9187"/>
<path d="M8.56971 27.7833C8.07229 28.9833 8.13308 29.5006 8.70739 29.3598C9.20944 29.2007 9.78306 26.9447 9.3495 26.8344C9.16885 26.7885 8.82365 27.2385 8.56971 27.7833Z" fill="#AE9187"/>
<path d="M7.22396 31.5637C6.85976 31.9371 6.7435 34.0585 7.1048 34.1504C7.53836 34.2606 8.11198 32.0046 7.74691 31.625C7.59194 31.478 7.33047 31.4474 7.22396 31.5637Z" fill="#AE9187"/>
<path d="M6.74326 35.4208C6.63197 35.8585 7.30029 36.7096 7.87837 36.8566C8.2758 36.9576 8.27392 36.8137 7.90508 36.1464C7.3984 35.2647 6.86312 34.9494 6.74326 35.4208Z" fill="#AE9187"/>
<path d="M8.95554 37.3098C8.90417 37.5118 10.7153 39.0119 11.185 39.1313C11.9799 39.3334 11.6196 38.6324 10.5937 37.9772C9.40434 37.2088 9.02403 37.0404 8.95554 37.3098Z" fill="#AE9187"/>
<path d="M6.78197 37.6892C6.97016 38.3106 9.46964 40.1291 9.927 39.9945C10.1333 39.9394 9.5943 39.3363 8.76621 38.6597C7.03779 37.2882 6.52152 37.0494 6.78197 37.6892Z" fill="#AE9187"/>
<path d="M7.22972 39.5595C7.18691 39.7278 7.45403 40.1901 7.85523 40.5789C8.70421 41.4759 10.3718 42.3301 10.466 41.9597C10.5326 41.5464 7.32389 39.1891 7.22972 39.5595Z" fill="#AE9187"/>
<path d="M8.16972 41.9136C8.03274 42.4524 9.80585 43.7994 11.0704 44.121C11.6485 44.268 12.1971 44.2282 12.2399 44.0598C12.2913 43.8578 11.8197 43.5945 11.2416 43.4475C10.6274 43.2914 9.71184 42.8076 9.20225 42.3913C8.6651 41.9321 8.21253 41.7453 8.16972 41.9136Z" fill="#AE9187"/>
<path d="M45.2635 14.0268C45.1694 14.3972 46.4538 15.5483 46.7666 15.3769C46.9454 15.2789 46.8057 14.9208 46.5129 14.5595C45.8464 13.8523 45.3663 13.6227 45.2635 14.0268Z" fill="#AE9187"/>
<path d="M47.7892 19.2218C47.6865 19.6258 48.1855 21.2942 48.4745 21.3677C48.8719 21.4687 48.9813 20.8871 48.7533 19.9688C48.5736 19.3137 47.9005 18.7841 47.7892 19.2218Z" fill="#AE9187"/>
<path d="M43.0845 20.1763C42.6622 20.9293 42.7078 21.6579 43.1547 21.413C43.6463 21.1437 44.274 19.5826 43.9127 19.4907C43.6959 19.4356 43.3488 19.7417 43.0845 20.1763Z" fill="#AE9187"/>
<path d="M46.9254 23.3755C46.9405 24.5265 47.0612 24.8081 47.4273 24.5786C47.8656 24.3674 47.7346 22.6133 47.3011 22.5031C47.0481 22.4388 46.8903 22.7571 46.9254 23.3755Z" fill="#AE9187"/>
<path d="M48.4067 23.7523C48.4151 25.0808 48.8201 25.7574 49.0513 24.8483C49.291 23.9054 49.1437 22.9718 48.7463 22.8707C48.5656 22.8248 48.4268 23.2197 48.4067 23.7523Z" fill="#AE9187"/>
<path d="M46.5084 27.2846C46.2772 28.1938 46.2353 29.1152 46.3902 29.2621C46.5728 29.4519 46.8628 28.9162 47.1282 27.8724C47.3594 26.9633 47.4375 26.0511 47.2464 25.8949C47.0638 25.7051 46.7738 26.2408 46.5084 27.2846Z" fill="#AE9187"/>
<path d="M44.915 26.5928C44.8778 27.1927 44.7808 28.0284 44.6866 28.3988C44.5582 28.9039 44.6409 29.0325 44.9984 28.8366C45.5794 28.5183 45.8669 25.7235 45.3249 25.5857C45.1081 25.5306 44.9331 25.9163 44.915 26.5928Z" fill="#AE9187"/>
<path d="M43.0724 26.1243C43.1056 26.5988 43.0171 27.4008 42.8886 27.9058C42.7517 28.4446 42.8296 28.8946 43.0463 28.9497C43.6244 29.0967 44.0955 25.8825 43.5241 25.558C43.197 25.3315 43.0819 25.4814 43.0724 26.1243Z" fill="#AE9187"/>
<path d="M44.037 30.3487C43.4017 31.3343 42.7283 33.5291 43.0173 33.6026C43.4509 33.7128 43.662 33.3363 44.4305 31.5242C44.7976 30.6855 44.8623 30.1284 44.6455 30.0733C44.4287 30.0181 44.1606 30.1651 44.037 30.3487Z" fill="#AE9187"/>
<path d="M45.0902 32.4088C44.3958 34.3832 44.3225 34.974 44.8141 34.7046C45.2972 34.469 46.5603 30.56 46.199 30.4681C45.9823 30.413 45.4896 31.2915 45.0902 32.4088Z" fill="#AE9187"/>
<path d="M31.2189 29.7781C30.228 31.1035 30.535 31.8626 31.5449 30.6138C32.6442 29.316 32.6785 29.1813 32.2088 29.0619C31.992 29.0067 31.5641 29.3281 31.2189 29.7781Z" fill="#AE9187"/>
<path d="M39.5856 34.845C39.1872 35.3531 38.9161 35.9653 38.9646 36.2286C39.0149 36.6357 40.7209 34.9186 40.875 34.3125C41.012 33.7737 40.1971 34.1043 39.5856 34.845Z" fill="#AE9187"/>
<path d="M41.3958 35.5922C40.6674 36.339 40.3688 36.9084 40.5513 37.0982C40.925 37.4441 42.6186 35.4729 42.5559 34.8117C42.5436 34.5576 41.9902 34.9188 41.3958 35.5922Z" fill="#AE9187"/>
<path d="M42.84 36.5688C41.8129 37.885 41.6379 38.2707 42.1076 38.3901C42.5412 38.5004 43.9011 36.4801 43.8299 35.8526C43.809 35.6322 43.3535 35.9107 42.84 36.5688Z" fill="#AE9187"/>
<path d="M29.0316 33.2371C28.3394 33.9932 28.2966 34.1615 28.7301 34.2717C28.983 34.3361 29.4471 34.0239 29.6753 33.58C30.3619 32.3924 30.0263 32.1995 29.0316 33.2371Z" fill="#AE9187"/>
<path d="M37.1293 37.6978C35.9454 38.7231 36.2059 39.3629 37.462 38.3559C38.0411 37.8938 38.3949 37.4101 38.2399 37.2632C38.085 37.1162 37.6105 37.3182 37.1293 37.6978Z" fill="#AE9187"/>
<path d="M38.137 39.0296C37.2555 39.7733 36.025 40.6793 35.3908 41.0558C34.3011 41.7108 34.0404 42.4332 34.9913 42.1731C35.8252 41.9191 39.877 38.5399 39.8353 38.0991C39.7868 37.8359 39.0632 38.2613 38.137 39.0296Z" fill="#AE9187"/>
<path d="M40.1328 39.501C39.5898 39.9723 38.2443 41.0283 37.067 41.8762C35.9345 42.6995 35.072 43.5198 35.1823 43.6912C35.3753 43.9913 35.6967 43.7862 38.9497 41.2794C40.1526 40.3305 41.1216 39.3939 41.1093 39.1398C41.0608 38.8766 40.6396 39.0204 40.1328 39.501Z" fill="#AE9187"/>
<path d="M24.8238 37.0784C23.2596 37.9353 23.6284 38.6027 25.2753 37.8743C26.0541 37.5346 26.6969 37.1244 26.7397 36.9561C26.8767 36.4173 25.9411 36.4662 24.8238 37.0784Z" fill="#AE9187"/>
<path d="M34.2871 39.9505C33.7869 40.2535 33.5035 40.6116 33.6138 40.7831C33.8619 41.1688 35.2112 40.4006 35.159 39.8496C35.1466 39.5955 34.8319 39.623 34.2871 39.9505Z" fill="#AE9187"/>
<path d="M20.4318 39.224C18.995 40.1851 18.6051 40.6595 19.1471 40.7973C19.4361 40.8708 22.3906 38.9333 22.4676 38.6303C22.6046 38.0915 21.6899 38.3608 20.4318 39.224Z" fill="#AE9187"/>
<path d="M27.302 42.7631C25.8748 43.0813 24.692 43.4976 24.6491 43.6659C24.5378 44.1037 24.7632 44.1251 26.8817 43.66C28.9916 43.2285 30.2638 42.7634 30.3495 42.4266C30.4436 42.0563 29.9311 42.1052 27.302 42.7631Z" fill="#AE9187"/>
<path d="M30.7258 43.6695C28.1109 44.7254 27.9682 44.8325 28.6186 44.9979C28.9438 45.0806 30.1628 44.6735 31.3523 44.0798C33.9016 42.828 33.5108 42.5494 30.7258 43.6695Z" fill="#AE9187"/>
<path d="M33.3955 44.0616C33.3442 44.2636 32.1632 44.8237 30.7654 45.3287C29.4038 45.8428 28.3483 46.3631 28.431 46.4917C28.6791 46.8774 30.0065 46.498 32.1175 45.4573C34.0135 44.5055 34.565 44.0005 33.8424 43.8167C33.6618 43.7708 33.4383 43.8932 33.3955 44.0616Z" fill="#AE9187"/>
<path d="M17.8794 42.3031C17.6407 42.6368 17.538 43.0408 17.6482 43.2123C17.8412 43.5123 18.697 42.8695 18.8597 42.2297C19.0309 41.5563 18.3292 41.593 17.8794 42.3031Z" fill="#AE9187"/>
<path d="M25.9751 46.6201C25.5453 46.7976 25.2515 47.0456 25.3617 47.217C25.5823 47.5599 27.2073 47.2202 27.31 46.8162C27.4299 46.3448 26.9431 46.2927 25.9751 46.6201Z" fill="#AE9187"/>
<path d="M17.07 44.4274C16.6764 44.6141 17.0185 45.9917 17.4882 46.1111C17.994 46.2397 18.0331 45.7836 17.6709 44.9387C17.495 44.5714 17.2127 44.3203 17.07 44.4274Z" fill="#AE9187"/>
<path d="M22.456 46.6933C20.9081 46.7299 20.5924 47.3666 22.0785 47.4218C24.0514 47.5291 24.447 47.4863 24.5326 47.1496C24.6268 46.7792 24.1124 46.6842 22.456 46.6933Z" fill="#AE9187"/>
<path d="M21.942 50.2282C21.4552 50.1761 21.0339 50.32 20.9826 50.522C20.8798 50.926 23.0886 51.165 23.7589 50.7977C24.2058 50.5529 23.5641 50.3538 21.942 50.2282Z" fill="#AE9187"/>
<path d="M16.8272 47.1978C16.7501 47.5009 19.5311 48.8174 20.0331 48.6582C20.365 48.5634 20.191 48.3399 19.5027 48.0215C18.1982 47.403 16.8785 46.9958 16.8272 47.1978Z" fill="#AE9187"/>
<path d="M60.4343 59.8373C57.8412 65.1235 57.8053 73.0941 60.3536 80.4515C61.332 83.3157 63.8567 87.9991 65.6527 90.2481C68.8136 94.173 73.2611 97.3555 76.9285 98.2619C80.0585 99.0093 84.5905 98.3087 87.1764 96.6679L88.5049 95.8258L87.43 97.4657L86.3325 99.0878L87.9601 97.1212C88.8546 96.0358 89.4647 95.1238 89.3029 95.0955C89.0408 95.0543 89.79 94.1528 92.316 91.4688C93.5984 90.1256 94.2693 88.7638 94.4801 87.0053C94.557 86.535 94.6927 86.4099 95.1716 86.4565C95.7509 86.5159 95.8155 86.4342 96.2115 85.1871C98.0535 79.6393 96.0217 69.4373 91.7762 63.0622C89.1815 59.12 87.3147 57.147 83.6671 54.3975C81.0626 52.4722 80.0521 51.8397 78.5823 51.2757C76.316 50.4142 72.6978 49.9118 71.0061 50.2345C68.4733 50.6893 67.8883 51.0568 66.0411 53.3478C65.082 54.515 63.9287 55.6947 63.4859 55.9754C62.5452 56.5598 61.1729 58.2966 60.4343 59.8373ZM63.6173 57.2077C64.5287 56.5671 65.2598 56.481 64.7593 57.1144C64.3233 57.6661 63.3318 60.8323 63.5359 60.9936C63.6492 61.0832 63.9107 60.6591 64.0844 60.0662C64.5447 58.5048 64.6062 58.5202 64.5084 60.1357C64.3887 62.1986 65.0489 64.3466 66.3399 66.3957C66.9756 67.3627 67.6705 68.9075 67.8822 69.805C68.0939 70.7025 68.6689 72.1193 69.1393 72.9225C69.6324 73.7437 70.175 75.2014 70.361 76.1781C70.7556 78.1495 71.3202 79.1599 73.34 81.6852C74.1148 82.6626 75.422 84.6912 76.2494 86.208C77.6838 88.8682 77.8037 88.9962 80.1202 90.9594C82.3461 92.851 82.4952 93.0353 82.532 93.8278C82.5758 94.8912 81.5136 96.3753 80.3527 96.8188C78.1151 97.7392 75.1627 96.7671 71.256 93.8792C68.8103 92.0794 68.2238 91.5164 66.6288 89.5258C60.5695 81.9497 57.8232 70.0878 60.3415 62.5187C61.2012 59.8458 62.2049 58.2492 63.6173 57.2077ZM69.7694 51.8462C71.7652 51.465 72.5843 51.7803 75.118 53.9816C77.9465 56.4158 80.6185 60.1203 83.1823 65.0339C88.0084 74.3571 89.7887 81.0081 88.93 86.3371C88.5965 88.2974 88.3324 89.0513 87.5286 90.2084C86.6924 91.4064 86.421 91.6566 85.6188 91.7861C84.4964 91.9945 84.0106 91.677 81.5246 88.9492C79.7581 86.989 79.3849 86.2959 78.3346 83.0098C78.1363 82.4216 77.079 80.8227 76.0155 79.4181C74.2129 77.1308 73.9857 76.719 73.653 74.9956C73.366 73.5407 73.0478 72.8246 72.2568 71.8677C71.5177 70.9849 71.141 70.1562 70.877 68.9519C70.5055 67.2311 70.2134 66.6684 68.4496 64.3785C67.1171 62.6617 66.4672 60.9201 66.1687 58.3609C65.8637 55.7633 66.0598 54.9557 67.426 53.4132C68.3433 52.3457 68.7634 52.0471 69.7694 51.8462ZM75.3369 51.2337C80.3734 52.4587 86.2661 56.9822 89.3024 61.904C89.8701 62.8172 90.4504 63.5746 90.6122 63.6029C91.0201 63.6928 92.8929 67.4297 93.7315 69.8182C95.191 74.1247 95.8547 80.5572 95.1745 84.1685C94.7703 86.4049 94.4048 86.4479 94.6214 84.2625C94.7102 83.1711 94.5585 81.3584 94.2688 80.2333C93.9952 79.0878 93.8773 78.1648 93.9937 78.1573C94.0875 78.1318 94.2628 78.4695 94.3508 78.8709C94.4388 79.2723 94.6302 79.5895 94.7466 79.582C95.1349 79.5569 94.2511 75.1743 93.2919 72.1926C91.7736 67.5409 88.0118 60.0876 86.635 59.0328C86.2721 58.7461 86.2917 58.8612 86.6357 59.4981C87.0381 60.2475 87.0058 60.2884 86.5876 59.792C86.3024 59.5003 85.4757 58.4487 84.7235 57.4893C83.9714 56.5298 83.08 55.56 82.7464 55.3295C82.3513 55.0837 82.6011 55.5134 83.444 56.5446C85.3242 58.8269 85.8627 59.6839 85.2769 59.5861C85.0147 59.5449 84.5935 59.1456 84.2626 58.5854C83.2506 57.0224 81.2765 54.7655 80.0585 53.8362C79.1126 53.1219 78.9896 53.0911 79.4758 53.6413C79.962 54.1914 79.9589 54.2886 79.5219 54.1424C79.2305 54.0449 78.3495 53.4815 77.5624 52.8927C76.3897 51.9993 76.3055 51.9659 77.0508 52.6544C78.3826 53.9059 77.7164 54.1429 76.3296 52.9144C75.7496 52.3897 74.7165 51.7392 74.0657 51.4905C72.9941 51.0752 72.926 51.0215 73.3854 50.9529C73.6506 50.897 74.5374 51.0335 75.3369 51.2337ZM66.178 62.2184C66.4932 63.0317 67.3368 64.5281 68.034 65.5105C68.9549 66.7692 69.4418 67.7846 69.6635 68.856C69.846 69.6972 70.5021 71.2445 71.1508 72.2882C71.7769 73.314 72.3419 74.557 72.3426 75.0223C72.4063 76.4335 73.1008 77.7456 74.9065 79.9359C76.3328 81.6272 76.7806 82.4125 77.6287 84.7422C78.6068 87.3738 79.0868 88.1182 81.3296 90.4546C81.6601 90.7822 81.2358 90.4801 80.3448 89.7429C78.9872 88.5706 78.556 87.9975 77.1347 85.414C76.2489 83.7846 74.9125 81.6997 74.1961 80.8349C72.5622 78.8468 72.2117 78.1716 71.6841 75.9955C71.4497 75.0801 70.8682 73.6249 70.3978 72.8217C69.9435 71.998 69.3524 70.6016 69.118 69.6862C68.8836 68.7708 68.1661 67.2081 67.54 66.1823C66.4792 64.4479 65.862 62.8981 65.6138 61.4407C65.4375 60.4052 65.5931 60.6278 66.178 62.2184ZM80.0683 55.9682C80.7686 56.8535 81.294 57.6337 81.2133 57.7359C81.0034 58.0015 80.6502 57.656 79.0586 55.8009C77.9985 54.5318 77.8006 54.1763 78.2084 54.2662C78.5936 54.3382 79.1801 54.9012 80.0683 55.9682ZM81.6182 55.9648C82.2989 56.735 83.1644 57.7841 83.5342 58.3418L84.1925 59.3267L83.38 59.0497C82.8976 58.8677 82.4571 58.586 82.3272 58.2842C82.1877 58.0412 81.497 57.0971 80.8194 56.2298C79.97 55.1603 79.6844 54.6359 79.9562 54.6183C80.228 54.6007 80.7722 55.0308 81.6182 55.9648ZM82.2053 58.9513C83.411 60.2691 88.4584 70.431 88.142 70.878C87.8998 71.1845 87.5981 70.6806 86.1565 67.5168C84.5623 64.0333 81.7947 59.1911 81.0852 58.5972C80.7677 58.3464 80.7708 58.2492 81.0814 58.2291C81.3532 58.2115 81.7936 58.4932 82.2053 58.9513ZM86.3306 63.0076C87.9014 66.0079 90.7987 73.1101 90.5727 73.3962C90.1529 73.9274 89.5072 72.7866 87.6852 68.426C86.5776 65.7253 85.1037 62.6024 84.3965 61.4461C83.1508 59.4329 83.1443 59.3945 83.9699 59.7482C84.6953 60.089 85.0454 60.5317 86.3306 63.0076ZM86.6479 61.0677C87.0176 61.6254 87.0564 61.6229 87.0038 61.0834C86.9673 60.5236 87.0288 60.539 87.5443 61.1454C88.5524 62.3403 91.2727 67.9417 92.2576 70.8442C93.4766 74.4296 94.2321 77.4827 93.8827 77.5053C93.7501 77.5333 93.3373 76.3773 92.9565 74.9479C92.5984 73.5364 91.8732 71.2375 91.3371 69.8181C90.4371 67.4142 88.0381 62.4318 87.6299 62.1092C87.0403 61.6433 87.3815 62.61 88.7317 65.2368C90.8251 69.3472 93.4518 77.1648 92.753 77.2101C92.5589 77.2226 92.1108 76.2047 91.7173 74.9312C90.4944 70.9778 88.2662 65.4996 86.78 62.7653C85.8357 61.0233 85.4979 60.1922 85.7892 60.2896C86.0579 60.3692 86.4338 60.7326 86.6479 61.0677ZM88.8042 72.2311C89.1973 73.2719 88.5923 73.2917 88.1603 72.2534C87.9071 71.6881 87.9163 71.3967 88.1397 71.4404C88.3403 71.4662 88.6386 71.8346 88.8042 72.2311ZM89.0878 73.5504C89.2465 73.6759 89.5874 74.4099 89.8345 75.1694C90.4002 76.8777 90.7492 76.6224 90.2481 74.8325C89.9065 73.6332 89.9161 73.5744 90.4539 73.9661C90.9074 74.3245 91.2775 75.1148 91.8174 76.9023C91.8662 77.0736 90.1934 77.0462 89.9278 76.8695C89.6783 76.6724 88.5346 73.6444 88.6799 73.4605C88.7445 73.3788 88.929 73.425 89.0878 73.5504ZM90.2456 77.353C90.3848 77.3634 90.6408 77.5989 90.7707 77.9006C91.105 78.5963 90.4097 78.7771 89.988 78.1452C89.7155 77.6975 89.8186 77.3807 90.2456 77.353ZM91.1422 79.6215C91.2859 80.4652 90.5483 80.513 90.3658 79.6717C90.2355 79.1373 90.3097 78.9968 90.6107 79.0355C90.8728 79.0767 91.0738 79.3351 91.1422 79.6215ZM91.6567 77.5719C91.7701 77.6615 91.9938 77.9378 92.1268 78.1424C92.3408 78.4776 92.2989 78.5772 91.9172 78.6407C91.5355 78.7042 91.3995 78.5967 91.3019 78.254C91.1489 77.7017 91.3619 77.3389 91.6567 77.5719ZM92.5206 79.6486C92.5825 79.8966 92.5894 80.1676 92.5087 80.2697C92.2988 80.5354 91.7868 80.0644 91.6954 79.5275C91.5909 78.9139 92.3546 79.0195 92.5206 79.6486ZM91.0791 80.6337C91.4804 80.6853 91.5764 82.0556 91.1851 82.1779C90.9425 82.2517 90.7934 82.0675 90.6924 81.5894C90.5229 80.8248 90.6325 80.5463 91.0791 80.6337ZM92.4706 80.7375C92.6097 80.7479 92.785 81.0855 92.8276 81.4511C92.926 82.259 92.2725 82.3401 92.0577 81.5397C91.8982 80.949 92.0466 80.668 92.4706 80.7375ZM91.4057 82.5513C91.5675 82.5796 91.7232 82.8022 91.7301 83.0732C91.75 83.4209 91.6532 83.5435 91.2584 83.5302C90.8636 83.517 90.7729 83.4453 90.8437 83.1693C90.9852 82.6173 91.0821 82.4947 91.4057 82.5513ZM91.3402 84.126C91.803 84.1929 91.7983 85.3177 91.3328 85.5805C91.1195 85.7106 91.1164 85.8078 91.3559 85.8311C91.8802 85.9134 91.6356 86.7823 91.0921 86.8175C90.7815 86.8376 90.6939 86.6688 90.8258 86.1756C90.9384 85.7999 90.9635 85.2554 90.8724 84.9511C90.6998 84.2837 90.8548 84.0411 91.3402 84.126ZM92.9628 83.0515C92.8863 83.7544 92.317 83.8688 92.151 83.2398C92.0468 82.8588 92.121 82.7183 92.5254 82.6727C92.9459 82.6067 93.014 82.6605 92.9628 83.0515ZM85.5142 93.1306C86.0804 93.1134 86.6208 93.1753 86.7115 93.247C86.8249 93.3366 87.4818 93.391 88.2098 93.402C90.0153 93.4015 89.9415 93.7746 88.1137 93.9899C86.6288 94.1442 86.309 94.4557 87.6582 94.4265C88.0303 94.4218 88.2601 94.5039 88.1632 94.6264C87.9049 94.9534 86.3647 94.898 85.5552 94.5239C85.0824 94.2831 84.8268 94.2802 84.866 94.5103C84.9052 94.7404 85.2776 94.9684 85.8926 95.1224C87.1388 95.4101 86.8643 95.7575 85.4663 95.6153L84.392 95.5298L84.2998 94.5276C84.1911 93.3132 84.3041 93.1702 85.5142 93.1306ZM92.9588 84.6416C93.1156 85.562 92.4072 85.6661 92.2181 84.7865C92.1171 84.3083 92.1943 84.0707 92.4661 84.0531C92.7379 84.0355 92.887 84.2197 92.9588 84.6416ZM83.394 96.6995C83.9018 96.5697 84.0536 96.4241 83.9529 96.1786C83.8296 95.9152 83.9945 95.8463 84.4281 95.857C85.3083 95.9551 85.6096 96.2265 84.9239 96.3484C84.6198 96.4069 84.2254 96.6263 84.0413 96.8127C83.841 97.0195 83.3851 97.2235 83.0357 97.2461C82.2366 97.2785 82.4722 96.9336 83.394 96.6995ZM91.2935 87.3086C91.7597 87.511 91.4698 88.3441 90.9263 88.3793C90.5769 88.4019 90.4797 88.2918 90.4985 87.9416C90.5397 87.3767 90.8338 87.1444 91.2935 87.3086ZM90.791 88.737C91.3737 88.9319 91.271 89.4814 90.6402 89.5804C90.2197 89.6464 90.129 89.5747 90.1544 89.2629C90.189 88.6596 90.3086 88.555 90.791 88.737ZM89.3635 92.4549C90.0042 92.5297 90.3636 92.681 90.1599 92.7523C89.5487 92.9664 88.507 93.0726 87.9762 92.9518C86.9533 92.7079 88.1757 92.2797 89.3635 92.4549ZM90.3922 90.3138C90.2923 90.5335 90.0113 90.8426 89.7753 90.9548C89.397 91.1537 89.3517 91.1179 89.4835 90.6247C89.5866 90.3078 89.8353 90.0397 90.1232 90.0016C90.521 89.9177 90.5729 89.9919 90.3922 90.3138ZM89.954 91.4279C90.5428 91.4285 90.9733 91.5364 90.8603 91.6794C90.7473 91.8224 90.1392 91.9394 89.518 91.9796C88.7577 92.0094 88.4502 91.9324 88.6117 91.7281C88.7408 91.5646 89.3263 91.4298 89.954 91.4279ZM93.1345 89.3608C93.0219 89.7364 92.6797 90.2627 92.3826 90.5921C91.8625 91.1105 91.8559 91.0721 92.3073 90.0347C92.8424 88.7981 93.4144 88.3539 93.1345 89.3608Z" fill="#AB8E85"/>
<path d="M62.6596 59.3053C62.6407 59.6555 62.8057 59.5867 63.2577 59.0145C63.5807 58.6059 63.7417 58.1689 63.6284 58.0793C63.3335 57.8464 62.6877 58.6637 62.6596 59.3053Z" fill="#AB8E85"/>
<path d="M60.2486 65.2002C60.1656 65.8648 60.0963 67.0713 60.0782 67.8867C60.0762 68.6818 60.058 69.4972 60.068 69.6711C60.0619 69.8653 60.1656 70.0137 60.2982 69.9857C60.4374 69.9961 60.5397 69.214 60.5382 68.2835C60.5206 67.3734 60.6218 65.8934 60.7272 65.0141C60.8099 64.117 60.7896 63.5366 60.6604 63.7001C60.5313 63.8636 60.3544 64.5536 60.2486 65.2002Z" fill="#AB8E85"/>
<path d="M62.1309 66.6874C62.2066 67.4774 62.3726 68.1065 62.4891 68.0989C62.7608 68.0813 62.6853 65.3332 62.3905 65.1002C62.0892 64.8289 62.0284 65.2788 62.1309 66.6874Z" fill="#AB8E85"/>
<path d="M63.5414 64.483C63.5778 65.0428 63.7339 65.498 63.873 65.5084C64.1448 65.4908 64.1384 63.4943 63.8436 63.2614C63.5649 63.008 63.4749 63.4015 63.5414 64.483Z" fill="#AB8E85"/>
<path d="M60.6312 73.8998C61.1537 76.968 62.7305 81.7322 63.2356 81.9322C63.4039 81.9988 63.1565 81.0067 62.6853 79.7382C62.2076 78.4314 61.5305 75.8385 61.1651 73.9234C60.7836 72.0288 60.3962 70.561 60.2832 70.704C60.1863 70.8266 60.3342 72.2711 60.6312 73.8998Z" fill="#AB8E85"/>
<path d="M62.0241 70.7853C62.1128 71.652 62.3145 72.3757 62.4698 72.3656C62.6251 72.3556 62.6563 71.6168 62.5288 70.7527C62.1922 68.6612 61.7878 68.7068 62.0241 70.7853Z" fill="#AB8E85"/>
<path d="M65.7951 67.6912C66.1683 68.3844 66.5284 69.0009 66.5738 69.0367C66.8006 69.2159 66.9551 68.7406 66.7637 68.4234C66.6761 68.2546 66.2998 67.6586 65.9689 67.0984C65.1384 65.6787 64.9903 66.1923 65.7951 67.6912Z" fill="#AB8E85"/>
<path d="M63.3932 71.1037C63.5434 71.9858 63.8263 72.8399 64.0077 72.9833C64.1891 73.1266 64.1976 72.37 64.0213 71.3344C63.8611 70.2785 63.6267 69.3631 63.536 69.2914C63.1504 68.9868 63.1254 69.5312 63.3932 71.1037Z" fill="#AB8E85"/>
<path d="M64.1899 77.7409C64.535 79.0757 64.7783 79.467 65.0366 79.1401C65.2142 78.9154 64.2946 76.3963 64.039 76.3935C63.9225 76.401 63.9882 77.0172 64.1899 77.7409Z" fill="#AB8E85"/>
<path d="M68.0361 73.0133C68.1368 73.2589 68.3608 73.7678 68.5038 74.1463C68.6987 74.599 68.8639 74.7628 68.9769 74.6198C69.203 74.3337 68.6442 72.8964 68.2006 72.7119C67.9481 72.6119 67.9062 72.7115 68.0361 73.0133Z" fill="#AB8E85"/>
<path d="M67.3112 77.0542C67.5744 77.7933 67.9572 78.4276 68.1483 78.5122C68.3166 78.5789 68.2479 78.0599 67.9458 77.3233C67.6826 76.5842 67.2998 75.9498 67.1314 75.8832C66.963 75.8165 67.0318 76.3355 67.3112 77.0542Z" fill="#AB8E85"/>
<path d="M64.357 85.1749C64.9508 86.2416 65.5508 87.114 65.6445 87.0885C65.8225 87.0964 63.9462 83.224 63.6514 82.991C63.5834 82.9373 63.4735 82.9832 63.3927 83.0853C63.3281 83.1671 63.7471 84.1287 64.357 85.1749Z" fill="#AB8E85"/>
<path d="M66.3592 86.7903C67.5852 88.6884 68.0714 89.2386 70.2 91.0201C72.0953 92.5842 72.4289 92.8146 71.6575 91.9727C71.0871 91.3892 70.2154 90.5344 69.6712 90.1044C69.1657 89.6718 68.0084 88.2927 67.1329 87.0698C65.1255 84.1559 64.5816 83.9584 66.3592 86.7903Z" fill="#AB8E85"/>
<path d="M70.9108 80.0975C71.2386 80.7549 73.9559 84.4952 74.3415 84.7999C74.9764 85.3016 74.2496 84.0303 72.6608 81.8454C70.9227 79.4764 70.3297 78.875 70.9108 80.0975Z" fill="#AB8E85"/>
<path d="M68.8589 85.911C69.4207 87.2511 73.5983 91.6143 73.9212 91.2057C74.0181 91.0831 73.3828 90.3487 72.5241 89.5706C71.7043 88.79 70.5731 87.5643 70.0446 86.8812C69.153 85.6787 68.5407 85.1949 68.8589 85.911Z" fill="#AB8E85"/>
<path d="M68.3502 87.5337C68.4151 87.6846 68.9694 88.2885 69.5786 88.8695C70.8812 90.0647 70.8258 89.8551 69.4318 88.1229C68.5985 87.033 68.0189 86.7409 68.3502 87.5337Z" fill="#AB8E85"/>
<path d="M67.9952 90.1741C68.7539 91.1719 70.4939 92.746 70.6392 92.5621C70.7199 92.4599 70.1526 91.7793 69.362 91.055C67.9783 89.7293 67.3629 89.3426 67.9952 90.1741Z" fill="#AB8E85"/>
<path d="M72.9564 86.6925C73.1832 86.8717 73.5656 87.2734 73.8347 87.5856C74.1621 88.0103 74.269 88.0616 74.2394 87.7727C74.1737 87.1565 72.9745 85.877 72.7485 86.1631C72.6516 86.2857 72.7523 86.5312 72.9564 86.6925Z" fill="#AB8E85"/>
<path d="M72.2535 88.3281C72.4999 88.6223 73.1187 89.1445 73.6499 89.4978C74.5147 90.0816 74.5082 90.0433 73.3317 88.7817C72.6575 88.0499 72.0387 87.5277 71.958 87.6298C71.8934 87.7116 72.046 88.0313 72.2535 88.3281Z" fill="#AB8E85"/>
<path d="M72.1745 91.5514C72.9686 92.4112 74.4584 93.3229 74.6521 93.0777C74.7167 92.996 74.0622 92.3792 73.1777 91.6803C71.4316 90.3006 70.93 90.2361 72.1745 91.5514Z" fill="#AB8E85"/>
<path d="M75.3092 87.0251C75.572 87.5316 75.9967 88.0663 76.2331 88.1867C76.5149 88.343 76.4692 88.0745 76.0571 87.3838C75.2785 86.0383 74.6827 85.7667 75.3092 87.0251Z" fill="#AB8E85"/>
<path d="M73.166 94.4922C73.5742 94.8147 76.0201 94.6564 77.0872 94.2383C78.1866 93.7794 79.2106 92.7631 78.6475 92.6832C78.463 92.637 78.1624 92.831 77.9848 93.0557C77.4682 93.7096 75.3724 94.3106 74.2074 94.1533C73.1814 94.0065 72.7352 94.1517 73.166 94.4922Z" fill="#AB8E85"/>
<path d="M77.9616 90.6144C78.6646 91.1699 78.7649 91.1828 78.5151 90.753C78.0738 90.0061 77.4616 89.5223 77.2678 89.7675C77.1871 89.8696 77.4919 90.2764 77.9616 90.6144Z" fill="#AB8E85"/>
<path d="M75.7811 92.9077C76.0306 93.1048 77.2399 92.6 77.5789 92.1709C77.9503 91.7009 77.4679 91.5189 76.9443 91.9018C76.6891 92.1316 76.2624 92.3918 76.0264 92.5041C75.7742 92.6367 75.6677 92.8181 75.7811 92.9077Z" fill="#AB8E85"/>
<path d="M75.8728 95.6353C76.5078 96.1371 79.2823 95.1432 80.0735 94.142C80.7355 93.3042 80.1562 93.2448 79.2774 94.0772C78.838 94.4934 77.8617 94.9831 77.0886 95.1689C76.3156 95.3546 75.7821 95.5637 75.8728 95.6353Z" fill="#AB8E85"/>
<path d="M79.5982 92.2727C79.9771 92.539 80.641 92.8644 81.1718 92.9851L82.0781 93.2366L81.0903 92.622C80.543 92.2891 79.9211 91.864 79.6943 91.6848C79.4902 91.5236 79.2442 91.4619 79.1473 91.5845C79.0666 91.6867 79.258 92.0039 79.5982 92.2727Z" fill="#AB8E85"/>
<path d="M77.8058 96.4989C78.5995 97.1261 82 94.9672 81.6329 94.0797C81.5549 93.8521 81.2705 94.0256 80.8022 94.6182C80.4147 95.1086 79.8104 95.5936 79.4741 95.6929C79.1443 95.8306 78.5654 96.0038 78.2129 96.1236C77.8765 96.2229 77.6924 96.4093 77.8058 96.4989Z" fill="#AB8E85"/>
<path d="M66.5917 55.7744C66.5729 56.1246 66.757 55.9382 67.2249 55.113C67.5863 54.4692 67.883 53.9071 67.87 53.8304C67.8273 53.4648 66.5749 55.3296 66.5917 55.7744Z" fill="#AB8E85"/>
<path d="M71.7915 53.8091C72.4038 54.2929 72.9899 54.6233 73.0707 54.5212C73.1352 54.4395 72.6782 53.9456 72.066 53.4617C71.431 52.96 70.8675 52.6475 70.7868 52.7497C70.706 52.8518 71.1565 53.3074 71.7915 53.8091Z" fill="#AB8E85"/>
<path d="M67.0842 60.2791C67.4293 61.6139 67.7118 62.2354 67.9055 61.9902C68.0347 61.8268 67.1013 58.7658 66.9071 58.7784C66.8068 58.7655 66.8856 59.4583 67.0842 60.2791Z" fill="#AB8E85"/>
<path d="M70.754 54.516C70.8193 54.8996 71.8267 55.6292 71.9882 55.4249C72.0689 55.3227 71.8483 54.9493 71.5177 54.6217C70.9247 54.0203 70.6625 53.9791 70.754 54.516Z" fill="#AB8E85"/>
<path d="M71.6654 58.0245C71.8438 58.265 72.4049 59.1399 72.9368 59.9585C73.4299 60.7796 73.968 61.4039 74.1007 61.376C74.3594 61.2817 73.0615 58.9616 72.1701 57.9918C71.5575 57.2753 71.1919 57.3184 71.6654 58.0245Z" fill="#AB8E85"/>
<path d="M72.8609 56.9776C73.0393 57.2181 73.7464 58.3744 74.4375 59.5511C75.1285 60.7277 75.7903 61.8481 75.878 62.017C75.9883 62.2037 76.1566 62.2703 76.2535 62.1477C76.4311 61.923 74.2116 57.879 73.3818 56.9245C72.753 56.2285 72.3874 56.2716 72.8609 56.9776Z" fill="#AB8E85"/>
<path d="M73.872 55.8846C74.1215 56.0817 74.4489 56.5064 74.595 56.7877C74.7476 57.1075 74.9743 57.2867 75.1231 57.2382C75.2719 57.1898 75.1677 56.8088 74.8564 56.3637C74.198 55.3788 73.7671 55.0383 73.5572 55.3039C73.4765 55.4061 73.5999 55.6695 73.872 55.8846Z" fill="#AB8E85"/>
<path d="M75.2078 55.5461C75.6617 56.1371 76.106 56.7869 76.2098 56.9353C76.3201 57.122 76.4884 57.1887 76.5692 57.0865C76.7952 56.8004 75.6668 55.2449 74.9672 54.8249C74.5333 54.5816 74.5821 54.7529 75.2078 55.5461Z" fill="#AB8E85"/>
<path d="M72.6134 62.0925C73.8172 64.2054 74.3545 64.3645 73.29 62.262C72.4364 60.5917 71.8495 59.7961 71.6719 60.0208C71.5911 60.123 72.0035 61.0463 72.6134 62.0925Z" fill="#AB8E85"/>
<path d="M76.9406 60.7656C77.9172 62.4666 78.1409 62.7429 78.1628 62.2956C78.1786 62.0426 76.6532 59.0781 76.4037 58.881C76.3584 58.8451 76.2484 58.891 76.1677 58.9932C76.1031 59.0749 76.4344 59.8677 76.9406 60.7656Z" fill="#AB8E85"/>
<path d="M78.5462 61.2044C79.4448 62.6779 80.9021 65.5886 81.7822 67.6449C82.6462 69.7216 83.4609 71.3943 83.5613 71.4072C83.9656 71.3616 81.8254 66.2849 79.9821 62.8369C77.8437 58.9234 77.2826 58.0485 77.0727 58.3141C76.9919 58.4163 77.6637 59.7105 78.5462 61.2044Z" fill="#AB8E85"/>
<path d="M75.8021 65.1433C76.2729 66.1791 76.7433 66.9823 76.8598 66.9748C77.1154 66.9776 76.7545 65.8959 75.9301 64.282C74.924 62.292 74.8313 63.0153 75.8021 65.1433Z" fill="#AB8E85"/>
<path d="M75.298 67.5993C75.7008 68.5814 76.2 69.2082 76.3776 68.9835C76.5068 68.82 75.2769 66.5537 75.0667 66.5867C74.9502 66.5943 75.0674 67.052 75.298 67.5993Z" fill="#AB8E85"/>
<path d="M80.9146 63.242C81.7094 64.5671 82.4262 65.6646 82.52 65.6391C82.7141 65.6265 80.1764 60.8664 79.8815 60.6334C79.8135 60.5797 79.697 60.5872 79.6325 60.6689C79.5517 60.7711 80.1424 61.9349 80.9146 63.242Z" fill="#AB8E85"/>
<path d="M78.5557 67.2526C79.9358 70.401 79.9715 70.4956 80.1653 70.2504C80.2783 70.1074 79.5927 68.2712 78.3652 65.4425C78.1054 64.8389 77.7714 64.3759 77.6226 64.4243C77.49 64.4523 77.9062 65.7437 78.5557 67.2526Z" fill="#AB8E85"/>
<path d="M79.167 65.0805C79.6147 65.8658 80.433 67.6741 81.0306 69.1088C82.2681 72.1113 82.9292 72.7665 81.9703 70.0174C81.3497 68.3321 79.126 63.6873 78.7858 63.4185C78.3096 63.0422 78.5082 63.863 79.167 65.0805Z" fill="#AB8E85"/>
<path d="M78.1134 69.9568C78.9059 71.8443 79.0681 72.1052 79.278 71.8396C79.4556 71.6148 78.0009 68.3743 77.6642 68.241C77.4959 68.1743 77.7041 68.9364 78.1134 69.9568Z" fill="#AB8E85"/>
<path d="M74.7671 73.5857C75.7447 75.9846 76.2475 76.7469 76.1618 75.7831C76.0992 75.0698 74.937 72.6247 74.5776 72.4734C74.4093 72.4068 74.4942 72.9054 74.7671 73.5857Z" fill="#AB8E85"/>
<path d="M77.0131 71.9088C77.5101 73.098 77.9625 72.7585 77.4817 71.5489C77.2673 70.9811 77.1247 70.8352 76.9794 71.0191C76.8664 71.1622 76.8767 71.5686 77.0131 71.9088Z" fill="#AB8E85"/>
<path d="M83.0088 67.8176C83.2263 68.2882 83.704 69.595 84.026 70.6792C84.6213 72.6764 85.1044 73.3237 84.9242 71.9201C84.7898 70.7849 83.3282 67.2734 82.9462 67.1043C82.7163 67.0222 82.7459 67.3111 83.0088 67.8176Z" fill="#AB8E85"/>
<path d="M75.5405 77.7816C76.3157 78.9916 77.1486 79.8489 77.1675 79.4987C77.1798 79.1101 75.549 77.0249 75.2546 77.0246C75.1608 77.05 75.2746 77.3722 75.5405 77.7816Z" fill="#AB8E85"/>
<path d="M78.8868 80.2596C79.1436 80.9604 79.4583 81.541 79.6136 81.5309C79.7301 81.5234 79.8173 81.4596 79.8043 81.3829C79.4627 80.1836 78.9784 78.8384 78.865 78.7488C78.4568 78.4263 78.4741 79.1037 78.8868 80.2596Z" fill="#AB8E85"/>
<path d="M81.2621 78.4191C81.4508 79.0661 81.6683 79.5367 81.7491 79.4345C81.9105 79.2302 81.5482 77.2179 81.3214 77.0388C80.9586 76.752 80.9336 77.2965 81.2621 78.4191Z" fill="#AB8E85"/>
<path d="M84.3737 77.7912C85.6042 82.4809 85.726 87.9209 84.6604 89.2695C84.4827 89.4943 84.4024 89.8291 84.4965 90.0362C84.7337 90.6219 85.5591 88.7848 85.8637 87.0008C86.2644 84.629 84.8167 75.5524 83.9749 75.2191C83.8066 75.1524 84.0025 76.303 84.3737 77.7912Z" fill="#AB8E85"/>
<path d="M85.5108 76.6321C86.224 79.5522 86.7271 80.5472 86.4163 78.3765C86.1938 76.8399 85.2246 73.6843 84.9917 73.6994C84.8752 73.707 85.12 75.0289 85.5108 76.6321Z" fill="#AB8E85"/>
<path d="M82.7443 78.5948C83.1674 80.1571 83.624 80.4184 83.3531 78.9431C83.2421 78.2911 83.0211 77.685 82.8139 77.6209C82.6002 77.5184 82.5879 77.9069 82.7443 78.5948Z" fill="#AB8E85"/>
<path d="M86.2132 74.764C86.8858 76.5235 87.9201 82.0208 87.9653 84.0148C87.9879 85.9908 88.3538 86.1804 88.4381 84.2556C88.5375 81.6124 87.608 76.9614 86.3801 73.9001C85.8344 72.5395 85.6771 73.3446 86.2132 74.764Z" fill="#AB8E85"/>
<path d="M79.9008 85.1768C80.1998 86.0105 80.5795 86.742 80.7478 86.8086C80.9162 86.8753 80.789 86.2437 80.5127 85.428C80.2137 84.5943 79.834 83.8627 79.6656 83.7961C79.4973 83.7294 79.6018 84.3431 79.9008 85.1768Z" fill="#AB8E85"/>
<path d="M82.0533 81.5671C82.1447 82.104 82.333 82.5184 82.4107 82.5133C82.7439 82.5111 82.5472 80.8953 82.2105 80.762C81.9807 80.68 81.9326 80.9739 82.0533 81.5671Z" fill="#AB8E85"/>
<path d="M83.7368 82.2336C83.8283 82.7706 84.0554 83.1824 84.2107 83.1723C84.5601 83.1497 84.2762 81.5977 83.8553 81.4311C83.6869 81.3644 83.6227 81.6788 83.7368 82.2336Z" fill="#AB8E85"/>
<path d="M82.3401 84.98C82.3993 85.5578 82.3166 86.455 82.1781 86.9099C82.0463 87.4031 82.0082 87.8708 82.0989 87.9425C82.3937 88.1755 82.5936 87.736 82.7859 86.5603C82.9809 85.0548 82.8292 83.2422 82.5224 83.6304C82.3932 83.7939 82.3198 84.3997 82.3401 84.98Z" fill="#AB8E85"/>
<path d="M86.531 81.3547C87.137 83.9909 86.8114 88.8783 85.988 89.9204C85.7942 90.1655 85.6977 90.5208 85.7919 90.7279C86.029 91.3136 86.9997 89.2926 87.3108 87.547C87.5608 86.0186 86.917 79.9338 86.5392 80.3654C86.4423 80.488 86.4365 80.9149 86.531 81.3547Z" fill="#AB8E85"/>
<path d="M83.8646 85.2884C83.8849 85.8687 83.7992 86.863 83.6707 87.4917C83.5423 88.1204 83.5561 88.6624 83.6952 88.6728C84.1419 88.7602 84.685 84.3434 84.2541 84.003C83.982 83.7879 83.8597 84.2224 83.8646 85.2884Z" fill="#AB8E85"/>
<path d="M91.3669 66.1908C91.6817 66.7714 92.2371 68.0732 92.6075 69.0962C93.4426 71.3492 93.87 71.5542 93.1418 69.3524C92.5112 67.4933 91.4466 65.3908 91.0645 65.2216C90.9188 65.1729 91.0522 65.6102 91.3669 66.1908Z" fill="#AB8E85"/>
</svg>
