<svg width="218" height="224" viewBox="0 0 218 224" fill="none" xmlns="http://www.w3.org/2000/svg">
<path d="M144.093 69.9169C141.31 69.8187 136.277 71.156 132.879 72.873C125.295 76.6804 119.67 82.3124 116.439 89.2701C114.811 92.7994 114.169 95.3248 114.078 98.7073C113.844 105.531 117.581 111.858 123.795 115.41C126.08 116.708 131.13 118.028 133.902 118.016C139.926 118.077 146.694 115.21 151.854 110.499C160.928 102.195 164.495 87.2569 159.423 78.7618C157.784 75.9791 156.462 74.6749 153.367 72.7768C150.744 71.1419 147.066 70.0273 144.093 69.9169ZM151.473 73.8725C152.19 74.9868 151.685 76.9734 150.069 79.3947C148.189 82.2505 146.969 83.2667 142.519 85.7918C137.898 88.3811 136.146 89.9789 134.555 92.9082C133.456 94.9591 132.099 96.514 129.907 98.1791C127.643 99.9697 126.07 102.223 124.887 105.363C123.461 109.159 122.103 109.961 119.526 108.445C116.024 106.336 114.836 100.872 116.488 94.373C118.337 87.0999 122.832 81.0729 129.901 76.4175C136.478 72.0315 143.201 70.5505 148.616 72.2498C150.325 72.7918 151.032 73.1868 151.473 73.8725ZM157.597 78.8351C159.179 81.3882 160.087 84.7739 160.098 88.3616C160.149 92.2461 157.571 101.628 156.596 101.38C156.379 101.325 156.702 99.9017 157.429 97.6488C158.19 95.2612 158.479 93.9725 158.262 93.9174C158.046 93.8622 157.517 94.7316 157.117 95.8488C156.045 98.5517 153.503 103.103 153.07 102.993C152.889 102.947 152.729 103.122 152.714 103.333C152.6 104.236 152.353 104.603 151.847 104.475C151.594 104.41 150.745 104.876 150.006 105.512C146.463 108.555 141.419 111.144 137.531 111.912C136.562 112.096 135.755 112.392 135.712 112.561C135.584 113.066 136.007 113.066 138.349 112.478C141.14 111.79 146.622 108.989 149.366 106.819C152.841 104.046 152.403 105.01 148.796 108.001C146.258 110.116 140.668 112.889 137.912 113.443C129.219 115.104 124.053 112.428 126.047 107.307C127.162 104.436 128.655 102.951 132.473 100.947C136.156 99.0153 137.089 98.0695 139.527 93.778C140.9 91.4027 141.096 91.2374 145.769 88.5899C150.881 85.7313 152.389 84.0355 153.425 79.9612C153.89 78.2868 154.392 76.7655 154.632 76.5757C155.335 75.9299 156.18 76.5391 157.597 78.8351ZM152.582 79.4959C152.317 80.5397 150.392 83.4201 149.28 84.4638C148.684 84.9933 146.328 86.5451 144.067 87.8704C139.885 90.2486 139.885 90.2486 137.875 93.4656C135.511 97.1663 134.045 98.6937 131.826 99.7068C129.813 100.665 129.529 100.27 131.404 99.0976C133.288 97.8916 134.726 96.3214 136.054 93.9706C138.061 90.4657 139.119 89.4801 143.793 86.8327C148.377 84.2342 150.272 82.5293 151.525 79.8723C152.094 78.6908 152.856 78.4184 152.582 79.4959ZM155.307 104.028C154.753 104.998 154.096 105.764 153.952 105.727C153.518 105.617 153.811 104.616 154.632 103.355C155.011 102.77 155.444 102.127 155.585 101.876C155.77 101.601 155.968 101.579 156.134 101.836C156.299 102.093 156.013 102.917 155.307 104.028ZM151.506 108.69C150.831 109.378 150.571 109.492 150.432 109.134C150.161 108.384 151.733 106.74 152.119 107.34C152.284 107.597 152.083 108.084 151.506 108.69ZM148.396 111.089C148.19 111.898 147.054 112.433 146.955 111.763C146.911 111.178 147.727 110.238 148.197 110.358C148.414 110.413 148.49 110.719 148.396 111.089ZM144.651 113.866C143.891 114.282 143.525 113.149 144.23 112.647C144.685 112.369 144.785 112.43 144.963 112.941C145.086 113.367 144.964 113.694 144.651 113.866ZM142.896 114.566C142.334 114.961 142.261 114.943 142.073 114.321C141.951 113.896 142.055 113.636 142.432 113.516C143.293 113.305 143.636 114.074 142.896 114.566ZM141.106 115.402C140.738 115.488 140.475 115.313 140.344 114.921C140.249 114.539 140.353 114.278 140.73 114.159C141.098 114.073 141.361 114.248 141.492 114.64C141.587 115.022 141.483 115.283 141.106 115.402ZM125.024 113.751C124.844 114.458 124.808 114.449 123.889 113.677C123.161 113.062 123.002 112.627 123.182 111.92C123.31 111.415 123.547 110.937 123.69 110.83C124.136 110.585 125.221 112.976 125.024 113.751ZM139.629 115.313C139.543 115.65 139.232 115.965 138.917 115.993C138.207 116.063 138.003 114.9 138.711 114.685C139.536 114.465 139.8 114.64 139.629 115.313ZM137.599 115.729C137.462 116.268 136.35 116.559 136.074 116.13C136 115.968 136.077 115.665 136.263 115.389C136.723 114.789 137.771 115.056 137.599 115.729ZM135.377 115.845C135.485 116.482 135.119 116.712 134.288 116.5C133.457 116.289 133.371 115.264 134.173 115.288C135.253 115.276 135.317 115.328 135.377 115.845ZM127.752 115.125C127.666 115.462 127.396 115.465 126.889 115.193C126.445 114.972 126.001 114.752 125.856 114.715C125.675 114.669 125.644 114.338 125.73 114.002C125.875 113.429 125.992 113.423 126.882 114.008C127.445 114.366 127.812 114.89 127.752 115.125Z" fill="#AE9187"/>
<path d="M139.744 73.2563C139.055 73.547 138.635 73.8347 138.88 73.9327C139.421 74.0705 141.8 73.4921 141.885 73.1554C142.005 72.684 140.997 72.7146 139.744 73.2563Z" fill="#AE9187"/>
<path d="M135.691 74.5201C134.904 74.8935 134.325 75.3557 134.444 75.4935C134.628 75.8272 137.566 74.7101 137.722 74.2479C137.923 73.7612 137.051 73.8621 135.691 74.5201Z" fill="#AE9187"/>
<path d="M127.68 79.402C126.068 80.7488 123.502 83.4301 123.365 83.9688C123.176 84.7096 123.91 84.3944 124.805 83.2955C125.346 82.6803 126.635 81.3947 127.712 80.4856C129.893 78.5665 129.871 77.5931 127.68 79.402Z" fill="#AE9187"/>
<path d="M140.779 83.557C140.449 83.7958 140.264 84.0712 140.346 84.1998C140.613 84.6621 141.726 84.3714 141.863 83.8326C142.026 83.1928 141.52 83.0642 140.779 83.557Z" fill="#AE9187"/>
<path d="M136.551 86.5688C135.753 87.4412 136.432 87.7933 137.367 86.9914C138.053 86.4129 138.087 86.2782 137.653 86.1679C137.328 86.0853 136.854 86.2872 136.551 86.5688Z" fill="#AE9187"/>
<path d="M121.865 85.6308C121.394 86.1206 120.339 88.0031 120.281 88.3826C120.226 89.05 120.806 88.5878 121.733 87.2104C122.775 85.6829 122.868 84.5595 121.865 85.6308Z" fill="#AE9187"/>
<path d="M134.302 88.7573C134.117 89.0328 133.889 89.4766 133.82 89.746C133.709 90.1837 133.817 90.2113 134.337 89.9848C135.026 89.694 135.523 88.4941 134.981 88.3563C134.801 88.3104 134.488 88.4818 134.302 88.7573Z" fill="#AE9187"/>
<path d="M122.726 88.1441C121.931 89.3042 121.544 90.6755 121.978 90.7857C122.158 90.8317 122.486 90.4491 122.732 89.9379C122.977 89.4267 123.399 88.6737 123.672 88.2054C124.314 87.0422 123.521 86.9839 122.726 88.1441Z" fill="#AE9187"/>
<path d="M132.001 91.7571C131.594 92.2989 131.72 93.0122 132.223 92.853C132.42 92.8316 132.74 92.4827 132.942 92.1398C133.365 91.3868 132.532 91.0317 132.001 91.7571Z" fill="#AE9187"/>
<path d="M118.57 91.7833C118.072 92.9833 118.133 93.5006 118.707 93.3598C119.209 93.2007 119.783 90.9447 119.35 90.8344C119.169 90.7885 118.824 91.2385 118.57 91.7833Z" fill="#AE9187"/>
<path d="M117.224 95.5637C116.86 95.9371 116.744 98.0585 117.105 98.1504C117.538 98.2606 118.112 96.0046 117.747 95.625C117.592 95.478 117.33 95.4474 117.224 95.5637Z" fill="#AE9187"/>
<path d="M116.743 99.4208C116.632 99.8585 117.3 100.71 117.878 100.857C118.276 100.958 118.274 100.814 117.905 100.146C117.398 99.2647 116.863 98.9494 116.743 99.4208Z" fill="#AE9187"/>
<path d="M118.956 101.31C118.904 101.512 120.715 103.012 121.185 103.131C121.98 103.333 121.62 102.632 120.594 101.977C119.404 101.209 119.024 101.04 118.956 101.31Z" fill="#AE9187"/>
<path d="M116.782 101.689C116.97 102.311 119.47 104.129 119.927 103.994C120.133 103.939 119.594 103.336 118.766 102.66C117.038 101.288 116.522 101.049 116.782 101.689Z" fill="#AE9187"/>
<path d="M117.23 103.559C117.187 103.728 117.454 104.19 117.855 104.579C118.704 105.476 120.372 106.33 120.466 105.96C120.533 105.546 117.324 103.189 117.23 103.559Z" fill="#AE9187"/>
<path d="M118.17 105.914C118.033 106.452 119.806 107.799 121.07 108.121C121.648 108.268 122.197 108.228 122.24 108.06C122.291 107.858 121.82 107.595 121.242 107.448C120.627 107.291 119.712 106.808 119.202 106.391C118.665 105.932 118.213 105.745 118.17 105.914Z" fill="#AE9187"/>
<path d="M155.264 78.0268C155.169 78.3972 156.454 79.5483 156.767 79.3769C156.945 79.2789 156.806 78.9208 156.513 78.5595C155.846 77.8523 155.366 77.6227 155.264 78.0268Z" fill="#AE9187"/>
<path d="M157.789 83.2218C157.686 83.6258 158.185 85.2942 158.475 85.3677C158.872 85.4687 158.981 84.8871 158.753 83.9688C158.574 83.3137 157.901 82.7841 157.789 83.2218Z" fill="#AE9187"/>
<path d="M153.084 84.1763C152.662 84.9293 152.708 85.6579 153.155 85.413C153.646 85.1437 154.274 83.5826 153.913 83.4907C153.696 83.4356 153.349 83.7417 153.084 84.1763Z" fill="#AE9187"/>
<path d="M156.925 87.3755C156.94 88.5265 157.061 88.8081 157.427 88.5786C157.866 88.3674 157.735 86.6133 157.301 86.5031C157.048 86.4388 156.89 86.7571 156.925 87.3755Z" fill="#AE9187"/>
<path d="M158.407 87.7523C158.415 89.0808 158.82 89.7574 159.051 88.8483C159.291 87.9054 159.144 86.9718 158.746 86.8707C158.566 86.8248 158.427 87.2197 158.407 87.7523Z" fill="#AE9187"/>
<path d="M156.508 91.2846C156.277 92.1938 156.235 93.1152 156.39 93.2621C156.573 93.4519 156.863 92.9162 157.128 91.8724C157.359 90.9633 157.437 90.0511 157.246 89.8949C157.064 89.7051 156.774 90.2408 156.508 91.2846Z" fill="#AE9187"/>
<path d="M154.915 90.5928C154.878 91.1927 154.781 92.0284 154.687 92.3988C154.558 92.9039 154.641 93.0325 154.998 92.8366C155.579 92.5183 155.867 89.7235 155.325 89.5857C155.108 89.5306 154.933 89.9163 154.915 90.5928Z" fill="#AE9187"/>
<path d="M153.072 90.1243C153.106 90.5988 153.017 91.4008 152.889 91.9058C152.752 92.4446 152.83 92.8946 153.046 92.9497C153.624 93.0967 154.095 89.8825 153.524 89.558C153.197 89.3315 153.082 89.4814 153.072 90.1243Z" fill="#AE9187"/>
<path d="M154.037 94.3487C153.402 95.3343 152.728 97.5291 153.017 97.6026C153.451 97.7128 153.662 97.3363 154.43 95.5242C154.798 94.6855 154.862 94.1284 154.646 94.0733C154.429 94.0181 154.161 94.1651 154.037 94.3487Z" fill="#AE9187"/>
<path d="M155.09 96.4088C154.396 98.3832 154.323 98.974 154.814 98.7046C155.297 98.469 156.56 94.56 156.199 94.4681C155.982 94.413 155.49 95.2915 155.09 96.4088Z" fill="#AE9187"/>
<path d="M141.219 93.7781C140.228 95.1035 140.535 95.8626 141.545 94.6138C142.644 93.316 142.678 93.1813 142.209 93.0619C141.992 93.0067 141.564 93.3281 141.219 93.7781Z" fill="#AE9187"/>
<path d="M149.586 98.845C149.187 99.3531 148.916 99.9653 148.965 100.229C149.015 100.636 150.721 98.9186 150.875 98.3125C151.012 97.7737 150.197 98.1043 149.586 98.845Z" fill="#AE9187"/>
<path d="M151.396 99.5922C150.667 100.339 150.369 100.908 150.551 101.098C150.925 101.444 152.619 99.4729 152.556 98.8117C152.544 98.5576 151.99 98.9188 151.396 99.5922Z" fill="#AE9187"/>
<path d="M152.84 100.569C151.813 101.885 151.638 102.271 152.108 102.39C152.541 102.5 153.901 100.48 153.83 99.8526C153.809 99.6322 153.354 99.9107 152.84 100.569Z" fill="#AE9187"/>
<path d="M139.032 97.2371C138.339 97.9932 138.297 98.1615 138.73 98.2717C138.983 98.3361 139.447 98.0239 139.675 97.58C140.362 96.3924 140.026 96.1995 139.032 97.2371Z" fill="#AE9187"/>
<path d="M147.129 101.698C145.945 102.723 146.206 103.363 147.462 102.356C148.041 101.894 148.395 101.41 148.24 101.263C148.085 101.116 147.61 101.318 147.129 101.698Z" fill="#AE9187"/>
<path d="M148.137 103.03C147.255 103.773 146.025 104.679 145.391 105.056C144.301 105.711 144.04 106.433 144.991 106.173C145.825 105.919 149.877 102.54 149.835 102.099C149.787 101.836 149.063 102.261 148.137 103.03Z" fill="#AE9187"/>
<path d="M150.133 103.501C149.59 103.972 148.244 105.028 147.067 105.876C145.935 106.7 145.072 107.52 145.182 107.691C145.375 107.991 145.697 107.786 148.95 105.279C150.153 104.331 151.122 103.394 151.109 103.14C151.061 102.877 150.64 103.02 150.133 103.501Z" fill="#AE9187"/>
<path d="M134.824 101.078C133.26 101.935 133.628 102.603 135.275 101.874C136.054 101.535 136.697 101.124 136.74 100.956C136.877 100.417 135.941 100.466 134.824 101.078Z" fill="#AE9187"/>
<path d="M144.287 103.951C143.787 104.254 143.504 104.612 143.614 104.783C143.862 105.169 145.211 104.401 145.159 103.85C145.147 103.595 144.832 103.623 144.287 103.951Z" fill="#AE9187"/>
<path d="M130.432 103.224C128.995 104.185 128.605 104.659 129.147 104.797C129.436 104.871 132.391 102.933 132.468 102.63C132.605 102.092 131.69 102.361 130.432 103.224Z" fill="#AE9187"/>
<path d="M137.302 106.763C135.875 107.081 134.692 107.498 134.649 107.666C134.538 108.104 134.763 108.125 136.882 107.66C138.992 107.229 140.264 106.763 140.349 106.427C140.444 106.056 139.931 106.105 137.302 106.763Z" fill="#AE9187"/>
<path d="M140.726 107.67C138.111 108.725 137.968 108.833 138.619 108.998C138.944 109.081 140.163 108.674 141.352 108.08C143.902 106.828 143.511 106.549 140.726 107.67Z" fill="#AE9187"/>
<path d="M143.396 108.062C143.344 108.264 142.163 108.824 140.765 109.329C139.404 109.843 138.348 110.363 138.431 110.492C138.679 110.877 140.007 110.498 142.117 109.457C144.014 108.505 144.565 108 143.842 107.817C143.662 107.771 143.438 107.893 143.396 108.062Z" fill="#AE9187"/>
<path d="M127.879 106.303C127.641 106.637 127.538 107.041 127.648 107.212C127.841 107.512 128.697 106.87 128.86 106.23C129.031 105.556 128.329 105.593 127.879 106.303Z" fill="#AE9187"/>
<path d="M135.975 110.62C135.545 110.798 135.251 111.046 135.362 111.217C135.582 111.56 137.207 111.22 137.31 110.816C137.43 110.345 136.943 110.293 135.975 110.62Z" fill="#AE9187"/>
<path d="M127.07 108.427C126.676 108.614 127.019 109.992 127.488 110.111C127.994 110.24 128.033 109.784 127.671 108.939C127.495 108.571 127.213 108.32 127.07 108.427Z" fill="#AE9187"/>
<path d="M132.456 110.693C130.908 110.73 130.592 111.367 132.078 111.422C134.051 111.529 134.447 111.486 134.533 111.15C134.627 110.779 134.112 110.684 132.456 110.693Z" fill="#AE9187"/>
<path d="M131.942 114.228C131.455 114.176 131.034 114.32 130.983 114.522C130.88 114.926 133.089 115.165 133.759 114.798C134.206 114.553 133.564 114.354 131.942 114.228Z" fill="#AE9187"/>
<path d="M126.827 111.198C126.75 111.501 129.531 112.817 130.033 112.658C130.365 112.563 130.191 112.34 129.503 112.021C128.198 111.403 126.879 110.996 126.827 111.198Z" fill="#AE9187"/>
<path d="M17.8859 15.1165C16.2155 17.3446 14.438 22.2393 13.9058 26.0095C12.6981 34.4093 14.1074 42.2433 17.9723 48.8697C19.9389 52.2223 21.6448 54.192 24.3693 56.1989C29.8354 60.2894 37.1643 60.8364 43.6286 57.7657C45.9997 56.6313 49.9676 53.2407 51.5417 50.9582C55.0334 46.0497 56.5462 38.8563 55.6275 31.9303C53.9954 19.7391 43.7727 8.27749 33.9031 7.58708C30.6829 7.34253 28.857 7.68291 25.5312 9.13854C22.6908 10.3575 19.6746 12.7401 17.8859 15.1165ZM25.3484 11.3192C26.6725 11.3674 28.0145 12.9169 29.0787 15.6262C30.3486 18.8008 30.4857 20.3827 30.0159 25.4777C29.5017 30.7491 29.8119 33.1003 31.3073 36.0796C32.363 38.1528 32.864 40.1548 32.978 42.9058C33.1547 45.7862 34.1052 48.3642 36.007 51.1295C38.3073 54.4688 38.1898 56.0414 35.474 57.2904C31.7418 58.9601 26.5784 56.8135 22.1885 51.7448C17.2755 46.0721 14.8962 38.9403 15.1135 30.4789C15.2711 22.5749 17.8964 16.2105 22.3845 12.7371C23.8053 11.6444 24.5336 11.2895 25.3484 11.3192ZM32.9198 9.12811C35.919 9.28831 39.2168 10.4767 42.1677 12.5172C45.3851 14.6946 51.6129 22.1702 50.8521 22.8291C50.683 22.9756 49.6995 21.897 48.2655 20.0135C46.7406 18.0249 45.8481 17.0514 45.679 17.1978C45.5099 17.3442 45.9213 18.2748 46.6102 19.241C48.2162 21.6648 50.4999 26.3515 50.1617 26.6444C50.0208 26.7664 50.0727 26.9972 50.2374 27.1304C50.9133 27.74 51.0735 28.1528 50.679 28.4945C50.4818 28.6653 50.3785 29.628 50.479 30.5982C50.952 35.2443 50.196 40.8629 48.6053 44.4928C48.2019 45.3937 47.9849 46.2251 48.0987 46.3564C48.4398 46.7503 48.6816 46.4031 49.5372 44.1453C50.5664 41.4614 51.3995 35.3623 51.1861 31.8702C50.895 27.4341 51.4365 28.3441 51.8304 33.0127C52.1165 36.3041 51.1988 42.4764 50.0787 45.0552C46.4765 53.1389 41.3289 55.8506 38.265 51.2881C36.5452 48.7329 36.1797 46.6595 36.7153 42.3808C37.2346 38.2541 36.9912 36.9481 34.8614 32.4959C33.6963 30.0118 33.6725 29.7566 34.1695 24.4083C34.7435 18.5795 34.2133 16.3729 31.4611 13.1951C30.352 11.8576 29.3902 10.5763 29.3719 10.2705C29.2433 9.32473 30.2262 8.97905 32.9198 9.12811ZM30.5974 13.6215C31.3025 14.4356 32.567 17.6609 32.7886 19.1695C32.8826 19.9614 32.8102 22.7819 32.6067 25.3941C32.1695 30.1851 32.1695 30.1851 33.6615 33.673C35.3483 37.7275 35.7648 39.8028 35.3284 42.203C34.9647 44.4025 34.4782 44.4102 34.5873 42.2015C34.6736 39.9665 34.2062 37.8893 33.0357 35.4559C31.3054 31.8067 31.1011 30.375 31.598 25.0267C32.0841 19.7797 31.7675 17.2502 30.3023 14.7043C29.658 13.5618 29.8695 12.7811 30.5974 13.6215ZM52.2891 25.3994C52.7688 26.4088 53.022 27.3845 52.9093 27.4821C52.5711 27.775 51.9169 26.9627 51.3507 25.5687C51.0876 24.9233 50.8072 24.2009 50.6816 23.942C50.5614 23.6324 50.6568 23.4579 50.9624 23.469C51.268 23.4801 51.7802 24.1855 52.2891 25.3994ZM53.9439 31.1823C54.1235 32.1298 54.0681 32.4076 53.6943 32.3177C52.924 32.1116 52.4729 29.8824 53.1859 29.9084C53.4914 29.9195 53.7762 30.3623 53.9439 31.1823ZM54.1366 35.106C54.6825 35.7363 54.4729 36.9749 53.8662 36.6731C53.3614 36.3749 53.0563 35.1684 53.4226 34.8511C53.5917 34.7047 53.8864 34.8171 54.1366 35.106ZM54.2759 39.7654C54.1835 40.6268 53.0448 40.2801 53.0354 39.415C53.067 38.8821 53.1742 38.8351 53.6954 38.9813C54.1147 39.1237 54.3139 39.4107 54.2759 39.7654ZM53.8484 41.6065C53.8514 42.2933 53.795 42.3421 53.1775 42.1416C52.7582 41.9991 52.6044 41.7646 52.7216 41.3874C53.0404 40.5597 53.8671 40.717 53.8484 41.6065ZM53.5118 43.5526C53.3719 43.9036 53.0783 44.02 52.6817 43.9038C52.3134 43.7632 52.1596 43.5287 52.2767 43.1515C52.4166 42.8005 52.7103 42.6841 53.1068 42.8003C53.4752 42.9408 53.629 43.1754 53.5118 43.5526ZM42.9693 55.8087C43.447 56.3602 43.4188 56.3846 42.2604 56.6984C41.3393 56.9446 40.8919 56.8266 40.4142 56.2751C40.073 55.8811 39.8164 55.414 39.8099 55.2357C39.8643 54.729 42.4462 55.2046 42.9693 55.8087ZM52.5948 44.7145C52.8222 44.9772 52.9034 45.4125 52.7462 45.6865C52.3981 46.3097 51.3267 45.8128 51.5555 45.109C51.8462 44.3057 52.1399 44.1893 52.5948 44.7145ZM51.7772 46.6177C52.1411 47.0379 51.7442 48.117 51.2349 48.0985C51.0594 48.0666 50.8547 47.8303 50.7345 47.5207C50.505 46.8002 51.3223 46.0924 51.7772 46.6177ZM50.6031 48.5078C51.187 48.7834 51.1663 49.215 50.5181 49.7764C49.87 50.3377 48.9795 49.822 49.4576 49.1782C50.0646 48.2847 50.1437 48.2622 50.6031 48.5078ZM45.6559 54.3552C45.8834 54.6178 45.7316 54.8412 45.2179 55.1022C44.7833 55.3407 44.3488 55.5792 44.236 55.6768C44.0951 55.7989 43.8059 55.6357 43.5784 55.3731C43.1918 54.9266 43.2535 54.8271 44.2419 54.4308C44.8574 54.1735 45.4967 54.1713 45.6559 54.3552Z" fill="#AE9187"/>
<path d="M18.142 20.5941C17.9868 21.326 17.9834 21.8345 18.2034 21.6899C18.6261 21.3238 19.51 19.0416 19.2825 18.779C18.9641 18.4113 18.4134 19.256 18.142 20.5941Z" fill="#AE9187"/>
<path d="M16.8643 24.642C16.721 25.5015 16.7695 26.2409 16.9505 26.222C17.3297 26.2613 18.0914 23.2116 17.8011 22.8195C17.5163 22.3768 17.101 23.1501 16.8643 24.642Z" fill="#AE9187"/>
<path d="M16.2945 34.0064C16.479 36.0986 17.2136 39.737 17.5775 40.1572C18.0779 40.7349 18.2385 39.9524 17.8478 38.5901C17.652 37.7946 17.3329 36.0026 17.2023 34.599C16.8727 31.713 16.0613 31.1748 16.2945 34.0064Z" fill="#AE9187"/>
<path d="M27.1878 25.629C27.1953 26.0362 27.3155 26.3458 27.4682 26.3514C28.0002 26.3962 28.3972 25.3171 28.0332 24.8969C27.6011 24.3979 27.2066 24.7396 27.1878 25.629Z" fill="#AE9187"/>
<path d="M27.2446 30.8195C27.5043 31.9735 28.1816 31.6167 28.0574 30.3913C27.9743 29.4981 27.8833 29.3931 27.5452 29.686C27.2915 29.9056 27.1863 30.4104 27.2446 30.8195Z" fill="#AE9187"/>
<path d="M18.085 42.3374C18.218 43.0036 19.1601 44.9454 19.4385 45.2099C19.9552 45.6356 19.9066 44.8963 19.3058 43.3484C18.6476 41.6204 17.7788 40.902 18.085 42.3374Z" fill="#AE9187"/>
<path d="M27.7562 33.9154C27.8764 34.225 28.1103 34.6658 28.2922 34.8759C28.5879 35.2174 28.6725 35.1441 28.7832 34.5886C28.9383 33.8567 28.2377 32.763 27.815 33.1291C27.6741 33.2511 27.636 33.6058 27.7562 33.9154Z" fill="#AE9187"/>
<path d="M20.6397 43.0665C21.1377 44.3817 22.0421 45.4829 22.3803 45.19C22.5212 45.068 22.3946 44.5802 22.1152 44.0867C21.8358 43.5933 21.459 42.8166 21.2305 42.325C20.6425 41.1336 20.1417 41.7512 20.6397 43.0665Z" fill="#AE9187"/>
<path d="M28.9035 37.5181C29.1157 38.1616 29.7733 38.4654 29.9295 37.9624C30.0249 37.7878 29.921 37.3263 29.7554 36.9641C29.3786 36.1874 28.6113 36.6681 28.9035 37.5181Z" fill="#AE9187"/>
<path d="M21.2522 48.557C21.9529 49.6507 22.4123 49.8964 22.6248 49.3446C22.781 48.8416 21.2571 47.082 20.9189 47.3749C20.778 47.4969 20.9501 48.0373 21.2522 48.557Z" fill="#AE9187"/>
<path d="M23.5863 51.8212C23.6847 52.3334 25.3594 53.6407 25.6412 53.3966C25.9794 53.1038 24.4554 51.3442 23.9353 51.427C23.7262 51.4702 23.5516 51.6673 23.5863 51.8212Z" fill="#AE9187"/>
<path d="M26.4773 54.4191C26.773 54.7605 27.8533 54.6982 28.3042 54.3077C28.6142 54.0392 28.495 53.9586 27.7365 53.8801C26.7235 53.7923 26.1589 54.0514 26.4773 54.4191Z" fill="#AE9187"/>
<path d="M29.2915 53.6824C29.4279 53.8399 31.6938 53.2104 32.0601 52.8931C32.6801 52.3562 31.8989 52.2514 30.7751 52.7191C29.465 53.2563 29.1095 53.4723 29.2915 53.6824Z" fill="#AE9187"/>
<path d="M28.3612 55.6831C28.9787 55.8837 31.8992 54.8711 32.0499 54.4188C32.1226 54.2179 31.3197 54.3158 30.2913 54.609C28.1782 55.2441 27.6873 55.5314 28.3612 55.6831Z" fill="#AE9187"/>
<path d="M30.1521 56.3841C30.2658 56.5154 30.7978 56.5603 31.3461 56.4531C32.5673 56.2687 34.2211 55.3879 33.9709 55.0991C33.6698 54.8083 29.9019 56.0952 30.1521 56.3841Z" fill="#AE9187"/>
<path d="M32.6212 56.9574C32.9852 57.3776 35.1037 56.6918 36.09 55.8376C36.5409 55.4471 36.8217 54.9741 36.708 54.8428C36.5715 54.6852 36.086 54.9219 35.6351 55.3124C35.156 55.7273 34.236 56.2024 33.6031 56.3828C32.9194 56.5613 32.5075 56.8261 32.6212 56.9574Z" fill="#AE9187"/>
<path d="M30.9235 10.5814C31.1737 10.8703 32.8522 10.4737 32.8902 10.119C32.912 9.91635 32.5382 9.82643 32.0744 9.86039C31.1133 10.0034 30.6505 10.2663 30.9235 10.5814Z" fill="#AE9187"/>
<path d="M36.6301 11.476C36.903 11.7911 38.5574 12.3347 38.7829 12.1394C39.0928 11.8709 38.678 11.4489 37.7939 11.1115C37.1536 10.8847 36.3344 11.1346 36.6301 11.476Z" fill="#AE9187"/>
<path d="M34.726 15.883C35.1028 16.6597 35.7268 17.0385 35.7811 16.5319C35.8409 15.9745 34.9182 14.5675 34.6364 14.8115C34.4673 14.958 34.5203 15.4177 34.726 15.883Z" fill="#AE9187"/>
<path d="M39.546 14.5581C40.4993 15.2033 40.7994 15.2651 40.8201 14.8335C40.8972 14.3531 39.3827 13.4585 39.0445 13.7514C38.8473 13.9223 39.0184 14.2337 39.546 14.5581Z" fill="#AE9187"/>
<path d="M40.7014 13.5573C41.7966 14.3094 42.5832 14.3635 41.9691 13.6544C41.3322 12.9191 40.4817 12.5066 40.1718 12.775C40.0309 12.8971 40.2756 13.2366 40.7014 13.5573Z" fill="#AE9187"/>
<path d="M42.5161 17.1335C43.1302 17.8426 43.8625 18.4034 44.0717 18.3602C44.3317 18.3188 44.0578 17.7747 43.3526 16.9605C42.7385 16.2515 42.0344 15.6662 41.7971 15.7339C41.537 15.7753 41.811 16.3194 42.5161 17.1335Z" fill="#AE9187"/>
<path d="M41.038 18.0459C41.5092 18.4192 42.1396 18.9763 42.3898 19.2652C42.731 19.6591 42.8838 19.6647 42.9272 19.2593C42.9979 18.6006 40.8683 16.7681 40.4456 17.1342C40.2765 17.2806 40.4931 17.6446 41.038 18.0459Z" fill="#AE9187"/>
<path d="M39.6008 19.2907C40.0092 19.5345 40.6169 20.0653 40.958 20.4593C41.322 20.8795 41.7358 21.0726 41.9049 20.9261C42.3558 20.5356 39.9868 18.3129 39.394 18.5965C39.0213 18.7355 39.0786 18.9156 39.6008 19.2907Z" fill="#AE9187"/>
<path d="M43.6191 20.9122C44.0651 21.9967 45.4818 23.8032 45.7073 23.608C46.0454 23.3151 45.857 22.9268 44.8087 21.2608C44.33 20.4803 43.9097 20.109 43.7407 20.2554C43.5716 20.4018 43.539 20.7058 43.6191 20.9122Z" fill="#AE9187"/>
<path d="M45.9117 21.2248C47.1355 22.9226 47.5786 23.3202 47.6383 22.7629C47.7209 22.2318 45.2341 18.9619 44.9523 19.206C44.7833 19.3524 45.2229 20.2586 45.9117 21.2248Z" fill="#AE9187"/>
<path d="M35.8282 31.1069C36.35 32.6774 37.1485 32.8591 36.7004 31.3167C36.2632 29.6731 36.1722 29.568 35.8059 29.8853C35.6368 30.0317 35.6561 30.5665 35.8282 31.1069Z" fill="#AE9187"/>
<path d="M44.7666 27.1343C44.956 27.7516 45.3037 28.3238 45.5474 28.4344C45.9103 28.6257 45.4755 26.2445 45.0661 25.7718C44.7022 25.3516 44.508 26.2093 44.7666 27.1343Z" fill="#AE9187"/>
<path d="M46.4139 26.0755C46.6108 27.1 46.9075 27.6703 47.1676 27.6289C47.6649 27.5199 47.0146 25.0037 46.4361 24.6774C46.2205 24.5424 46.2008 25.203 46.4139 26.0755Z" fill="#AE9187"/>
<path d="M48.0405 25.4481C48.534 27.043 48.7506 27.4069 49.117 27.0897C49.4551 26.7968 48.5739 24.5265 48.0181 24.2265C47.8253 24.1177 47.7937 24.6507 48.0405 25.4481Z" fill="#AE9187"/>
<path d="M37.4177 34.8781C37.6427 35.8782 37.7564 36.0095 38.0946 35.7167C38.2919 35.5458 38.3007 34.9866 38.0668 34.5457C37.4843 33.3037 37.1342 33.4689 37.4177 34.8781Z" fill="#AE9187"/>
<path d="M45.7049 30.7802C45.8701 32.3376 46.5441 32.4893 46.4351 30.8831C46.3866 30.1437 46.1918 29.5771 45.9826 29.6203C45.7735 29.6636 45.6682 30.1684 45.7049 30.7802Z" fill="#AE9187"/>
<path d="M47.3735 30.7138C47.4804 31.8622 47.521 33.3897 47.4677 34.1253C47.3828 35.3939 47.8268 36.0204 48.1565 35.0914C48.4244 34.2619 47.9657 29.0059 47.58 28.7884C47.3362 28.6777 47.272 29.5147 47.3735 30.7138Z" fill="#AE9187"/>
<path d="M48.9007 29.3452C48.9774 30.0601 49.0755 31.7677 49.0988 33.2183C49.1276 34.6182 49.3082 35.7947 49.5119 35.8021C49.8683 35.8151 49.8836 35.4342 49.6845 31.3321C49.5929 29.8028 49.3778 28.4724 49.1622 28.3374C48.9184 28.2267 48.7958 28.6546 48.9007 29.3452Z" fill="#AE9187"/>
<path d="M38.1667 40.5261C37.9765 42.2995 38.7349 42.378 39.0779 40.6102C39.2439 39.7769 39.2745 39.0151 39.1608 38.8837C38.7969 38.4635 38.3025 39.2594 38.1667 40.5261Z" fill="#AE9187"/>
<path d="M45.9301 34.4C45.8931 34.9836 46.0251 35.4208 46.2288 35.4282C46.6872 35.4449 46.8275 33.8986 46.3454 33.6267C46.1298 33.4917 45.9726 33.7657 45.9301 34.4Z" fill="#AE9187"/>
<path d="M37.4187 45.3565C37.3867 47.0848 37.5533 47.6759 37.976 47.3098C38.2015 47.1146 38.2991 43.5829 38.0944 43.3465C37.7304 42.9263 37.4289 43.8309 37.4187 45.3565Z" fill="#AE9187"/>
<path d="M44.2483 41.7397C43.6941 43.0929 43.36 44.3015 43.4737 44.4328C43.7694 44.7743 43.9158 44.6016 44.7442 42.5971C45.5955 40.6189 45.9405 39.3089 45.713 39.0463C45.4628 38.7574 45.2102 39.206 44.2483 41.7397Z" fill="#AE9187"/>
<path d="M46.9481 39.4475C46.3209 42.1969 46.3273 42.3752 46.8346 41.9359C47.0882 41.7162 47.4505 40.4832 47.6427 39.1677C48.0716 36.3602 47.6197 36.5217 46.9481 39.4475Z" fill="#AE9187"/>
<path d="M48.795 37.4802C48.9315 37.6378 48.7165 38.9271 48.3324 40.3628C47.9766 41.7741 47.8007 42.9376 47.9534 42.9432C48.4118 42.9599 48.8586 41.6536 49.2105 39.3266C49.5124 37.2266 49.4129 36.4854 48.8493 36.9736C48.7084 37.0956 48.6813 37.3489 48.795 37.4802Z" fill="#AE9187"/>
<path d="M38.4878 49.2107C38.6253 49.5972 38.8983 49.9123 39.102 49.9198C39.4584 49.9328 39.4198 48.8631 38.9876 48.3642C38.5327 47.8389 38.1619 48.4358 38.4878 49.2107Z" fill="#AE9187"/>
<path d="M46.6558 45.0321C46.556 45.4863 46.5916 45.8691 46.7953 45.8765C47.2027 45.8914 47.8523 44.3636 47.5793 44.0484C47.2609 43.6808 46.94 44.0506 46.6558 45.0321Z" fill="#AE9187"/>
<path d="M39.7691 51.0885C39.6974 51.5182 41.0235 52.0244 41.3899 51.7071C41.7844 51.3654 41.4323 51.0728 40.532 50.8874C40.13 50.8219 39.7626 50.9102 39.7691 51.0885Z" fill="#AE9187"/>
<path d="M44.7055 47.9621C43.8513 49.2535 44.1935 49.8764 45.0878 48.6882C46.3029 47.1302 46.4937 46.7811 46.2663 46.5184C46.0161 46.2295 45.6443 46.5975 44.7055 47.9621Z" fill="#AE9187"/>
<path d="M47.3133 50.4036C46.9924 50.7734 46.8698 51.2013 47.0063 51.3588C47.2792 51.674 48.7372 49.9977 48.8187 49.2376C48.873 48.7309 48.343 49.144 47.3133 50.4036Z" fill="#AE9187"/>
<path d="M41.9041 52.8705C42.1088 53.1069 44.778 51.5765 44.9342 51.0735C45.0459 50.7469 44.7631 50.762 44.1086 51.1451C42.8558 51.8624 41.7676 52.713 41.9041 52.8705Z" fill="#AE9187"/>
<path d="M170.434 123.837C167.841 129.123 167.805 137.094 170.354 144.451C171.332 147.316 173.857 151.999 175.653 154.248C178.814 158.173 183.261 161.355 186.929 162.262C190.059 163.009 194.59 162.309 197.176 160.668L198.505 159.826L197.43 161.466L196.332 163.088L197.96 161.121C198.855 160.036 199.465 159.124 199.303 159.096C199.041 159.054 199.79 158.153 202.316 155.469C203.598 154.126 204.269 152.764 204.48 151.005C204.557 150.535 204.693 150.41 205.172 150.456C205.751 150.516 205.815 150.434 206.211 149.187C208.054 143.639 206.022 133.437 201.776 127.062C199.182 123.12 197.315 121.147 193.667 118.397C191.063 116.472 190.052 115.84 188.582 115.276C186.316 114.414 182.698 113.912 181.006 114.235C178.473 114.689 177.888 115.057 176.041 117.348C175.082 118.515 173.929 119.695 173.486 119.975C172.545 120.56 171.173 122.297 170.434 123.837ZM173.617 121.208C174.529 120.567 175.26 120.481 174.759 121.114C174.323 121.666 173.332 124.832 173.536 124.994C173.649 125.083 173.911 124.659 174.084 124.066C174.545 122.505 174.606 122.52 174.508 124.136C174.389 126.199 175.049 128.347 176.34 130.396C176.976 131.363 177.67 132.907 177.882 133.805C178.094 134.702 178.669 136.119 179.139 136.923C179.632 137.744 180.175 139.201 180.361 140.178C180.756 142.149 181.32 143.16 183.34 145.685C184.115 146.663 185.422 148.691 186.249 150.208C187.684 152.868 187.804 152.996 190.12 154.959C192.346 156.851 192.495 157.035 192.532 157.828C192.576 158.891 191.514 160.375 190.353 160.819C188.115 161.739 185.163 160.767 181.256 157.879C178.81 156.079 178.224 155.516 176.629 153.526C170.569 145.95 167.823 134.088 170.341 126.519C171.201 123.846 172.205 122.249 173.617 121.208ZM179.769 115.846C181.765 115.465 182.584 115.78 185.118 117.982C187.946 120.416 190.618 124.12 193.182 129.034C198.008 138.357 199.789 145.008 198.93 150.337C198.597 152.297 198.332 153.051 197.529 154.208C196.692 155.406 196.421 155.657 195.619 155.786C194.496 155.994 194.011 155.677 191.525 152.949C189.758 150.989 189.385 150.296 188.335 147.01C188.136 146.422 187.079 144.823 186.015 143.418C184.213 141.131 183.986 140.719 183.653 138.996C183.366 137.541 183.048 136.825 182.257 135.868C181.518 134.985 181.141 134.156 180.877 132.952C180.505 131.231 180.213 130.668 178.45 128.378C177.117 126.662 176.467 124.92 176.169 122.361C175.864 119.763 176.06 118.956 177.426 117.413C178.343 116.346 178.763 116.047 179.769 115.846ZM185.337 115.234C190.373 116.459 196.266 120.982 199.302 125.904C199.87 126.817 200.45 127.575 200.612 127.603C201.02 127.693 202.893 131.43 203.731 133.818C205.191 138.125 205.855 144.557 205.174 148.169C204.77 150.405 204.405 150.448 204.621 148.263C204.71 147.171 204.559 145.358 204.269 144.233C203.995 143.088 203.877 142.165 203.994 142.157C204.088 142.132 204.263 142.469 204.351 142.871C204.439 143.272 204.63 143.59 204.747 143.582C205.135 143.557 204.251 139.174 203.292 136.193C201.774 131.541 198.012 124.088 196.635 123.033C196.272 122.746 196.292 122.861 196.636 123.498C197.038 124.248 197.006 124.288 196.588 123.792C196.302 123.5 195.476 122.449 194.724 121.489C193.971 120.53 193.08 119.56 192.746 119.33C192.351 119.084 192.601 119.513 193.444 120.545C195.324 122.827 195.863 123.684 195.277 123.586C195.015 123.545 194.593 123.146 194.263 122.585C193.251 121.022 191.277 118.765 190.059 117.836C189.113 117.122 188.99 117.091 189.476 117.641C189.962 118.191 189.959 118.289 189.522 118.142C189.231 118.045 188.35 117.482 187.562 116.893C186.39 115.999 186.305 115.966 187.051 116.654C188.383 117.906 187.716 118.143 186.33 116.914C185.75 116.39 184.716 115.739 184.066 115.491C182.994 115.075 182.926 115.021 183.385 114.953C183.651 114.897 184.537 115.033 185.337 115.234ZM176.178 126.218C176.493 127.032 177.337 128.528 178.034 129.51C178.955 130.769 179.442 131.785 179.664 132.856C179.846 133.697 180.502 135.245 181.151 136.288C181.777 137.314 182.342 138.557 182.343 139.022C182.406 140.433 183.101 141.746 184.906 143.936C186.333 145.627 186.781 146.412 187.629 148.742C188.607 151.374 189.087 152.118 191.33 154.455C191.66 154.782 191.236 154.48 190.345 153.743C188.987 152.571 188.556 151.997 187.135 149.414C186.249 147.785 184.913 145.7 184.196 144.835C182.562 142.847 182.212 142.172 181.684 139.996C181.45 139.08 180.868 137.625 180.398 136.822C179.944 135.998 179.352 134.602 179.118 133.686C178.884 132.771 178.166 131.208 177.54 130.182C176.479 128.448 175.862 126.898 175.614 125.441C175.437 124.405 175.593 124.628 176.178 126.218ZM190.068 119.968C190.769 120.853 191.294 121.634 191.213 121.736C191.003 122.002 190.65 121.656 189.059 119.801C187.999 118.532 187.801 118.176 188.208 118.266C188.594 118.338 189.18 118.901 190.068 119.968ZM191.618 119.965C192.299 120.735 193.164 121.784 193.534 122.342L194.193 123.327L193.38 123.05C192.898 122.868 192.457 122.586 192.327 122.284C192.188 122.041 191.497 121.097 190.819 120.23C189.97 119.16 189.684 118.636 189.956 118.618C190.228 118.601 190.772 119.031 191.618 119.965ZM192.205 122.951C193.411 124.269 198.458 134.431 198.142 134.878C197.9 135.185 197.598 134.681 196.157 131.517C194.562 128.033 191.795 123.191 191.085 122.597C190.768 122.346 190.771 122.249 191.081 122.229C191.353 122.212 191.794 122.493 192.205 122.951ZM196.331 127.008C197.901 130.008 200.799 137.11 200.573 137.396C200.153 137.927 199.507 136.787 197.685 132.426C196.578 129.725 195.104 126.602 194.396 125.446C193.151 123.433 193.144 123.395 193.97 123.748C194.695 124.089 195.045 124.532 196.331 127.008ZM196.648 125.068C197.018 125.625 197.056 125.623 197.004 125.083C196.967 124.524 197.029 124.539 197.544 125.145C198.552 126.34 201.273 131.942 202.258 134.844C203.477 138.43 204.232 141.483 203.883 141.505C203.75 141.533 203.337 140.377 202.957 138.948C202.598 137.536 201.873 135.237 201.337 133.818C200.437 131.414 198.038 126.432 197.63 126.109C197.04 125.643 197.382 126.61 198.732 129.237C200.825 133.347 203.452 141.165 202.753 141.21C202.559 141.223 202.111 140.205 201.717 138.931C200.494 134.978 198.266 129.5 196.78 126.765C195.836 125.023 195.498 124.192 195.789 124.29C196.058 124.369 196.434 124.733 196.648 125.068ZM198.804 136.231C199.197 137.272 198.592 137.292 198.16 136.253C197.907 135.688 197.916 135.397 198.14 135.44C198.34 135.466 198.639 135.835 198.804 136.231ZM199.088 137.55C199.247 137.676 199.587 138.41 199.835 139.169C200.4 140.878 200.749 140.622 200.248 138.832C199.907 137.633 199.916 137.574 200.454 137.966C200.907 138.324 201.278 139.115 201.817 140.902C201.866 141.074 200.193 141.046 199.928 140.87C199.678 140.672 198.535 137.644 198.68 137.461C198.745 137.379 198.929 137.425 199.088 137.55ZM200.246 141.353C200.385 141.363 200.641 141.599 200.771 141.901C201.105 142.596 200.41 142.777 199.988 142.145C199.716 141.698 199.819 141.381 200.246 141.353ZM201.142 143.621C201.286 144.465 200.548 144.513 200.366 143.672C200.236 143.137 200.31 142.997 200.611 143.035C200.873 143.077 201.074 143.335 201.142 143.621ZM201.657 141.572C201.77 141.661 201.994 141.938 202.127 142.142C202.341 142.478 202.299 142.577 201.917 142.641C201.536 142.704 201.399 142.597 201.302 142.254C201.149 141.702 201.362 141.339 201.657 141.572ZM202.521 143.649C202.583 143.897 202.589 144.168 202.509 144.27C202.299 144.535 201.787 144.064 201.695 143.527C201.591 142.914 202.355 143.02 202.521 143.649ZM201.079 144.634C201.48 144.685 201.576 146.056 201.185 146.178C200.943 146.252 200.793 146.068 200.692 145.589C200.523 144.825 200.632 144.546 201.079 144.634ZM202.471 144.738C202.61 144.748 202.785 145.086 202.828 145.451C202.926 146.259 202.273 146.34 202.058 145.54C201.898 144.949 202.047 144.668 202.471 144.738ZM201.406 146.551C201.568 146.58 201.723 146.802 201.73 147.073C201.75 147.421 201.653 147.543 201.258 147.53C200.864 147.517 200.773 147.445 200.844 147.169C200.985 146.617 201.082 146.495 201.406 146.551ZM201.34 148.126C201.803 148.193 201.798 149.318 201.333 149.581C201.119 149.711 201.116 149.808 201.356 149.831C201.88 149.913 201.636 150.782 201.092 150.818C200.782 150.838 200.694 150.669 200.826 150.176C200.938 149.8 200.963 149.255 200.872 148.951C200.7 148.284 200.855 148.041 201.34 148.126ZM202.963 147.052C202.886 147.754 202.317 147.869 202.151 147.24C202.047 146.859 202.121 146.718 202.525 146.673C202.946 146.607 203.014 146.66 202.963 147.052ZM195.514 157.131C196.08 157.113 196.621 157.175 196.712 157.247C196.825 157.337 197.482 157.391 198.21 157.402C200.015 157.401 199.941 157.775 198.114 157.99C196.629 158.144 196.309 158.456 197.658 158.426C198.03 158.422 198.26 158.504 198.163 158.626C197.905 158.953 196.365 158.898 195.555 158.524C195.082 158.283 194.827 158.28 194.866 158.51C194.905 158.74 195.278 158.968 195.893 159.122C197.139 159.41 196.864 159.757 195.466 159.615L194.392 159.53L194.3 158.528C194.191 157.313 194.304 157.17 195.514 157.131ZM202.959 148.642C203.116 149.562 202.407 149.666 202.218 148.786C202.117 148.308 202.194 148.071 202.466 148.053C202.738 148.035 202.887 148.22 202.959 148.642ZM193.394 160.699C193.902 160.57 194.054 160.424 193.953 160.179C193.83 159.915 193.994 159.846 194.428 159.857C195.308 159.955 195.61 160.226 194.924 160.348C194.62 160.407 194.225 160.626 194.041 160.813C193.841 161.02 193.385 161.224 193.036 161.246C192.237 161.278 192.472 160.934 193.394 160.699ZM201.293 151.309C201.76 151.511 201.47 152.344 200.926 152.379C200.577 152.402 200.48 152.292 200.499 151.942C200.54 151.377 200.834 151.144 201.293 151.309ZM200.791 152.737C201.374 152.932 201.271 153.481 200.64 153.58C200.22 153.646 200.129 153.575 200.154 153.263C200.189 152.66 200.309 152.555 200.791 152.737ZM199.363 156.455C200.004 156.53 200.364 156.681 200.16 156.752C199.549 156.966 198.507 157.073 197.976 156.952C196.953 156.708 198.176 156.28 199.363 156.455ZM200.392 154.314C200.292 154.534 200.011 154.843 199.775 154.955C199.397 155.154 199.352 155.118 199.484 154.625C199.587 154.308 199.835 154.04 200.123 154.002C200.521 153.918 200.573 153.992 200.392 154.314ZM199.954 155.428C200.543 155.429 200.973 155.536 200.86 155.679C200.747 155.822 200.139 155.939 199.518 155.98C198.758 156.009 198.45 155.932 198.612 155.728C198.741 155.565 199.326 155.43 199.954 155.428ZM203.135 153.361C203.022 153.736 202.68 154.263 202.383 154.592C201.862 155.11 201.856 155.072 202.307 154.035C202.842 152.798 203.414 152.354 203.135 153.361Z" fill="#AB8E85"/>
<path d="M172.66 123.305C172.641 123.655 172.806 123.587 173.258 123.015C173.581 122.606 173.742 122.169 173.628 122.079C173.334 121.846 172.688 122.664 172.66 123.305Z" fill="#AB8E85"/>
<path d="M170.249 129.2C170.166 129.865 170.096 131.071 170.078 131.887C170.076 132.682 170.058 133.497 170.068 133.671C170.062 133.865 170.166 134.014 170.298 133.986C170.437 133.996 170.54 133.214 170.538 132.283C170.521 131.373 170.622 129.893 170.727 129.014C170.81 128.117 170.79 127.537 170.66 127.7C170.531 127.864 170.354 128.554 170.249 129.2Z" fill="#AB8E85"/>
<path d="M172.131 130.687C172.207 131.477 172.373 132.106 172.489 132.099C172.761 132.081 172.685 129.333 172.391 129.1C172.089 128.829 172.028 129.279 172.131 130.687Z" fill="#AB8E85"/>
<path d="M173.541 128.483C173.578 129.043 173.734 129.498 173.873 129.508C174.145 129.491 174.138 127.494 173.844 127.261C173.565 127.008 173.475 127.402 173.541 128.483Z" fill="#AB8E85"/>
<path d="M170.631 137.9C171.154 140.968 172.731 145.732 173.236 145.932C173.404 145.999 173.156 145.007 172.685 143.738C172.208 142.431 171.531 139.839 171.165 137.923C170.784 136.029 170.396 134.561 170.283 134.704C170.186 134.827 170.334 136.271 170.631 137.9Z" fill="#AB8E85"/>
<path d="M172.024 134.785C172.113 135.652 172.315 136.376 172.47 136.366C172.625 136.356 172.656 135.617 172.529 134.753C172.192 132.661 171.788 132.707 172.024 134.785Z" fill="#AB8E85"/>
<path d="M175.795 131.691C176.168 132.384 176.528 133.001 176.574 133.037C176.801 133.216 176.955 132.741 176.764 132.423C176.676 132.255 176.3 131.659 175.969 131.098C175.138 129.679 174.99 130.192 175.795 131.691Z" fill="#AB8E85"/>
<path d="M173.393 135.104C173.543 135.986 173.826 136.84 174.008 136.983C174.189 137.127 174.198 136.37 174.021 135.334C173.861 134.278 173.627 133.363 173.536 133.291C173.15 132.987 173.125 133.531 173.393 135.104Z" fill="#AB8E85"/>
<path d="M174.19 141.741C174.535 143.076 174.778 143.467 175.037 143.14C175.214 142.915 174.295 140.396 174.039 140.394C173.923 140.401 173.988 141.017 174.19 141.741Z" fill="#AB8E85"/>
<path d="M178.036 137.013C178.137 137.259 178.361 137.768 178.504 138.146C178.699 138.599 178.864 138.763 178.977 138.62C179.203 138.334 178.644 136.896 178.201 136.712C177.948 136.612 177.906 136.712 178.036 137.013Z" fill="#AB8E85"/>
<path d="M177.311 141.054C177.574 141.793 177.957 142.428 178.148 142.512C178.317 142.579 178.248 142.06 177.946 141.323C177.683 140.584 177.3 139.95 177.131 139.883C176.963 139.817 177.032 140.336 177.311 141.054Z" fill="#AB8E85"/>
<path d="M174.357 149.175C174.951 150.242 175.551 151.114 175.645 151.089C175.823 151.096 173.946 147.224 173.651 146.991C173.583 146.937 173.473 146.983 173.393 147.085C173.328 147.167 173.747 148.129 174.357 149.175Z" fill="#AB8E85"/>
<path d="M176.359 150.79C177.585 152.688 178.071 153.239 180.2 155.02C182.095 156.584 182.429 156.815 181.658 155.973C181.087 155.389 180.215 154.534 179.671 154.104C179.166 153.672 178.008 152.293 177.133 151.07C175.125 148.156 174.582 147.958 176.359 150.79Z" fill="#AB8E85"/>
<path d="M180.911 144.098C181.239 144.755 183.956 148.495 184.341 148.8C184.976 149.302 184.25 148.03 182.661 145.845C180.923 143.476 180.33 142.875 180.911 144.098Z" fill="#AB8E85"/>
<path d="M178.859 149.911C179.421 151.251 183.598 155.614 183.921 155.206C184.018 155.083 183.383 154.349 182.524 153.571C181.704 152.79 180.573 151.564 180.045 150.881C179.153 149.679 178.541 149.195 178.859 149.911Z" fill="#AB8E85"/>
<path d="M178.35 151.534C178.415 151.685 178.969 152.289 179.579 152.869C180.881 154.065 180.826 153.855 179.432 152.123C178.599 151.033 178.019 150.741 178.35 151.534Z" fill="#AB8E85"/>
<path d="M177.995 154.174C178.754 155.172 180.494 156.746 180.639 156.562C180.72 156.46 180.153 155.779 179.362 155.055C177.978 153.729 177.363 153.343 177.995 154.174Z" fill="#AB8E85"/>
<path d="M182.956 150.692C183.183 150.872 183.566 151.273 183.835 151.586C184.162 152.01 184.269 152.062 184.239 151.773C184.174 151.157 182.975 149.877 182.749 150.163C182.652 150.286 182.752 150.531 182.956 150.692Z" fill="#AB8E85"/>
<path d="M182.254 152.328C182.5 152.622 183.119 153.144 183.65 153.498C184.515 154.082 184.508 154.043 183.332 152.782C182.658 152.05 182.039 151.528 181.958 151.63C181.893 151.712 182.046 152.031 182.254 152.328Z" fill="#AB8E85"/>
<path d="M182.175 155.551C182.969 156.411 184.458 157.323 184.652 157.078C184.717 156.996 184.062 156.379 183.178 155.68C181.432 154.301 180.93 154.236 182.175 155.551Z" fill="#AB8E85"/>
<path d="M185.309 151.025C185.572 151.532 185.997 152.066 186.233 152.187C186.515 152.343 186.469 152.074 186.057 151.384C185.278 150.038 184.683 149.767 185.309 151.025Z" fill="#AB8E85"/>
<path d="M183.166 158.492C183.574 158.815 186.02 158.656 187.087 158.238C188.187 157.779 189.211 156.763 188.648 156.683C188.463 156.637 188.162 156.831 187.985 157.056C187.468 157.71 185.372 158.311 184.207 158.153C183.181 158.006 182.735 158.152 183.166 158.492Z" fill="#AB8E85"/>
<path d="M187.962 154.614C188.665 155.17 188.765 155.183 188.515 154.753C188.074 154.006 187.462 153.522 187.268 153.767C187.187 153.87 187.492 154.276 187.962 154.614Z" fill="#AB8E85"/>
<path d="M185.781 156.908C186.031 157.105 187.24 156.6 187.579 156.171C187.95 155.701 187.468 155.519 186.944 155.902C186.689 156.132 186.262 156.392 186.026 156.504C185.774 156.637 185.668 156.818 185.781 156.908Z" fill="#AB8E85"/>
<path d="M185.873 159.635C186.508 160.137 189.282 159.143 190.073 158.142C190.735 157.304 190.156 157.245 189.277 158.077C188.838 158.493 187.862 158.983 187.089 159.169C186.316 159.355 185.782 159.564 185.873 159.635Z" fill="#AB8E85"/>
<path d="M189.598 156.273C189.977 156.539 190.641 156.864 191.172 156.985L192.078 157.237L191.09 156.622C190.543 156.289 189.921 155.864 189.694 155.685C189.49 155.524 189.244 155.462 189.147 155.585C189.067 155.687 189.258 156.004 189.598 156.273Z" fill="#AB8E85"/>
<path d="M187.806 160.499C188.6 161.126 192 158.967 191.633 158.08C191.555 157.852 191.27 158.026 190.802 158.618C190.415 159.109 189.81 159.594 189.474 159.693C189.144 159.831 188.565 160.004 188.213 160.124C187.877 160.223 187.692 160.409 187.806 160.499Z" fill="#AB8E85"/>
<path d="M176.592 119.774C176.573 120.125 176.757 119.938 177.225 119.113C177.586 118.469 177.883 117.907 177.87 117.83C177.827 117.465 176.575 119.33 176.592 119.774Z" fill="#AB8E85"/>
<path d="M181.791 117.809C182.404 118.293 182.99 118.623 183.071 118.521C183.135 118.439 182.678 117.946 182.066 117.462C181.431 116.96 180.868 116.648 180.787 116.75C180.706 116.852 181.157 117.307 181.791 117.809Z" fill="#AB8E85"/>
<path d="M177.084 124.279C177.429 125.614 177.712 126.235 177.906 125.99C178.035 125.827 177.101 122.766 176.907 122.778C176.807 122.765 176.886 123.458 177.084 124.279Z" fill="#AB8E85"/>
<path d="M180.754 118.516C180.819 118.9 181.827 119.629 181.988 119.425C182.069 119.323 181.848 118.949 181.518 118.622C180.925 118.02 180.663 117.979 180.754 118.516Z" fill="#AB8E85"/>
<path d="M181.665 122.024C181.844 122.265 182.405 123.14 182.937 123.958C183.43 124.78 183.968 125.404 184.101 125.376C184.359 125.282 183.061 122.962 182.17 121.992C181.557 121.275 181.192 121.318 181.665 122.024Z" fill="#AB8E85"/>
<path d="M182.861 120.978C183.039 121.218 183.746 122.374 184.437 123.551C185.129 124.728 185.79 125.848 185.878 126.017C185.988 126.204 186.157 126.27 186.254 126.148C186.431 125.923 184.212 121.879 183.382 120.925C182.753 120.229 182.387 120.272 182.861 120.978Z" fill="#AB8E85"/>
<path d="M183.872 119.885C184.121 120.082 184.449 120.506 184.595 120.788C184.748 121.107 184.974 121.287 185.123 121.238C185.272 121.19 185.168 120.809 184.856 120.364C184.198 119.379 183.767 119.038 183.557 119.304C183.477 119.406 183.6 119.67 183.872 119.885Z" fill="#AB8E85"/>
<path d="M185.208 119.546C185.662 120.137 186.106 120.787 186.21 120.935C186.32 121.122 186.488 121.189 186.569 121.086C186.795 120.8 185.667 119.245 184.967 118.825C184.533 118.582 184.582 118.753 185.208 119.546Z" fill="#AB8E85"/>
<path d="M182.613 126.092C183.817 128.205 184.355 128.364 183.29 126.262C182.436 124.592 181.849 123.796 181.672 124.021C181.591 124.123 182.004 125.046 182.613 126.092Z" fill="#AB8E85"/>
<path d="M186.941 124.766C187.917 126.467 188.141 126.743 188.163 126.296C188.179 126.043 186.653 123.078 186.404 122.881C186.358 122.845 186.248 122.891 186.168 122.993C186.103 123.075 186.434 123.868 186.941 124.766Z" fill="#AB8E85"/>
<path d="M188.546 125.204C189.445 126.678 190.902 129.589 191.782 131.645C192.646 133.722 193.461 135.394 193.561 135.407C193.966 135.362 191.825 130.285 189.982 126.837C187.844 122.923 187.283 122.048 187.073 122.314C186.992 122.416 187.664 123.711 188.546 125.204Z" fill="#AB8E85"/>
<path d="M185.802 129.143C186.273 130.179 186.743 130.982 186.86 130.975C187.115 130.978 186.755 129.896 185.93 128.282C184.924 126.292 184.831 127.015 185.802 129.143Z" fill="#AB8E85"/>
<path d="M185.298 131.599C185.701 132.581 186.2 133.208 186.378 132.983C186.507 132.82 185.277 130.554 185.067 130.587C184.95 130.594 185.067 131.052 185.298 131.599Z" fill="#AB8E85"/>
<path d="M190.915 127.242C191.709 128.567 192.426 129.665 192.52 129.639C192.714 129.627 190.176 124.866 189.882 124.633C189.814 124.58 189.697 124.587 189.632 124.669C189.552 124.771 190.142 125.935 190.915 127.242Z" fill="#AB8E85"/>
<path d="M188.556 131.253C189.936 134.401 189.972 134.496 190.165 134.25C190.278 134.107 189.593 132.271 188.365 129.443C188.105 128.839 187.771 128.376 187.623 128.424C187.49 128.452 187.906 129.744 188.556 131.253Z" fill="#AB8E85"/>
<path d="M189.167 129.081C189.615 129.866 190.433 131.674 191.031 133.109C192.268 136.111 192.929 136.766 191.97 134.017C191.35 132.332 189.126 127.687 188.786 127.418C188.31 127.042 188.508 127.863 189.167 129.081Z" fill="#AB8E85"/>
<path d="M188.113 133.957C188.906 135.844 189.068 136.105 189.278 135.84C189.456 135.615 188.001 132.374 187.664 132.241C187.496 132.174 187.704 132.936 188.113 133.957Z" fill="#AB8E85"/>
<path d="M184.767 137.586C185.745 139.985 186.247 140.747 186.162 139.783C186.099 139.07 184.937 136.625 184.578 136.473C184.409 136.407 184.494 136.905 184.767 137.586Z" fill="#AB8E85"/>
<path d="M187.013 135.909C187.51 137.098 187.963 136.759 187.482 135.549C187.267 134.981 187.125 134.835 186.979 135.019C186.866 135.162 186.877 135.569 187.013 135.909Z" fill="#AB8E85"/>
<path d="M193.009 131.818C193.226 132.288 193.704 133.595 194.026 134.679C194.621 136.676 195.104 137.324 194.924 135.92C194.79 134.785 193.328 131.273 192.946 131.104C192.716 131.022 192.746 131.311 193.009 131.818Z" fill="#AB8E85"/>
<path d="M185.541 141.782C186.316 142.992 187.149 143.849 187.168 143.499C187.18 143.11 185.549 141.025 185.255 141.025C185.161 141.05 185.275 141.372 185.541 141.782Z" fill="#AB8E85"/>
<path d="M188.887 144.26C189.144 144.96 189.458 145.541 189.614 145.531C189.73 145.523 189.817 145.46 189.804 145.383C189.463 144.184 188.978 142.838 188.865 142.749C188.457 142.426 188.474 143.104 188.887 144.26Z" fill="#AB8E85"/>
<path d="M191.262 142.419C191.451 143.066 191.668 143.537 191.749 143.435C191.911 143.23 191.548 141.218 191.321 141.039C190.959 140.752 190.934 141.297 191.262 142.419Z" fill="#AB8E85"/>
<path d="M194.374 141.791C195.604 146.481 195.726 151.921 194.66 153.27C194.483 153.494 194.402 153.829 194.497 154.036C194.734 154.622 195.559 152.785 195.864 151.001C196.264 148.629 194.817 139.552 193.975 139.219C193.807 139.152 194.003 140.303 194.374 141.791Z" fill="#AB8E85"/>
<path d="M195.511 140.632C196.224 143.552 196.727 144.547 196.416 142.377C196.194 140.84 195.225 137.684 194.992 137.699C194.875 137.707 195.12 139.029 195.511 140.632Z" fill="#AB8E85"/>
<path d="M192.744 142.595C193.167 144.157 193.624 144.418 193.353 142.943C193.242 142.291 193.021 141.685 192.814 141.621C192.6 141.518 192.588 141.907 192.744 142.595Z" fill="#AB8E85"/>
<path d="M196.213 138.764C196.886 140.523 197.92 146.021 197.965 148.015C197.988 149.991 198.354 150.18 198.438 148.256C198.537 145.612 197.608 140.961 196.38 137.9C195.834 136.54 195.677 137.345 196.213 138.764Z" fill="#AB8E85"/>
<path d="M189.901 149.177C190.2 150.01 190.579 150.742 190.748 150.809C190.916 150.875 190.789 150.244 190.513 149.428C190.214 148.594 189.834 147.863 189.666 147.796C189.497 147.729 189.602 148.343 189.901 149.177Z" fill="#AB8E85"/>
<path d="M192.053 145.567C192.145 146.104 192.333 146.518 192.411 146.513C192.744 146.511 192.547 144.895 192.211 144.762C191.981 144.68 191.933 144.974 192.053 145.567Z" fill="#AB8E85"/>
<path d="M193.737 146.234C193.828 146.771 194.055 147.182 194.211 147.172C194.56 147.15 194.276 145.598 193.855 145.431C193.687 145.364 193.623 145.679 193.737 146.234Z" fill="#AB8E85"/>
<path d="M192.34 148.98C192.399 149.558 192.317 150.455 192.178 150.91C192.046 151.403 192.008 151.871 192.099 151.943C192.394 152.175 192.594 151.736 192.786 150.56C192.981 149.055 192.829 147.242 192.522 147.63C192.393 147.794 192.32 148.4 192.34 148.98Z" fill="#AB8E85"/>
<path d="M196.531 145.355C197.137 147.991 196.811 152.878 195.988 153.92C195.794 154.166 195.698 154.521 195.792 154.728C196.029 155.314 197 153.293 197.311 151.547C197.561 150.019 196.917 143.934 196.539 144.365C196.442 144.488 196.436 144.915 196.531 145.355Z" fill="#AB8E85"/>
<path d="M193.865 149.288C193.885 149.869 193.799 150.863 193.671 151.492C193.542 152.12 193.556 152.662 193.695 152.673C194.142 152.76 194.685 148.343 194.254 148.003C193.982 147.788 193.86 148.222 193.865 149.288Z" fill="#AB8E85"/>
<path d="M201.367 130.191C201.682 130.771 202.237 132.073 202.608 133.096C203.443 135.349 203.87 135.554 203.142 133.352C202.511 131.493 201.447 129.391 201.065 129.222C200.919 129.173 201.052 129.61 201.367 130.191Z" fill="#AB8E85"/>
<path d="M77.8973 176.489C72.405 178.611 66.9685 184.44 63.8461 191.573C62.6206 194.341 61.2958 199.494 61.0883 202.364C60.7456 207.392 61.8516 212.748 63.9296 215.903C65.7209 218.576 69.5246 221.138 72.5373 221.688L74.0845 221.971L72.182 222.446L70.2751 222.892L72.8052 222.553C74.1989 222.363 75.2659 222.107 75.1662 221.977C75.0017 221.768 76.1638 221.615 79.8406 221.358C81.694 221.242 83.111 220.698 84.4594 219.549C84.8351 219.256 85.0196 219.256 85.3398 219.616C85.7248 220.053 85.8277 220.036 86.965 219.389C92.0833 216.565 97.5157 207.694 98.725 200.131C99.4953 195.475 99.4635 192.759 98.651 188.264C98.0451 185.082 97.7324 183.932 97.0358 182.52C95.9562 180.349 93.6401 177.524 92.1787 176.613C90.01 175.228 89.3309 175.101 86.4194 175.529C84.9228 175.736 83.2752 175.819 82.7594 175.725C81.672 175.515 79.4853 175.859 77.8973 176.489ZM82.0195 176.719C83.1236 176.867 83.719 177.3 82.9215 177.425C82.2269 177.535 79.3497 179.187 79.3901 179.444C79.4125 179.587 79.8923 179.453 80.4224 179.135C81.8202 178.301 81.8549 178.354 80.6866 179.474C79.1985 180.908 78.2254 182.933 77.7827 185.314C77.5932 186.456 77.0549 188.062 76.6012 188.865C76.1476 189.668 75.6081 191.098 75.4084 192.007C75.2132 192.945 74.6223 194.384 74.0959 195.227C73.0476 196.943 72.7764 198.068 72.5456 201.294C72.4513 202.537 72.0343 204.914 71.6124 206.59C70.8602 209.517 70.8614 209.692 71.2301 212.707C71.5807 215.606 71.5652 215.843 71.0544 216.45C70.3647 217.261 68.5773 217.63 67.4238 217.167C65.1558 216.324 63.6475 213.607 62.7387 208.834C62.1642 205.852 62.1156 205.041 62.2954 202.496C62.9878 192.82 69.0222 182.245 76.009 178.396C78.4546 177.016 80.2755 176.525 82.0195 176.719ZM90.1766 176.957C91.901 178.032 92.2885 178.819 92.6551 182.156C93.08 185.863 92.5278 190.397 91.0756 195.746C88.2917 205.868 85.0848 211.961 80.8371 215.292C79.2617 216.505 78.556 216.879 77.1803 217.183C75.7532 217.496 75.384 217.495 74.707 217.046C73.7413 216.437 73.6 215.874 73.6258 212.183C73.659 209.545 73.8554 208.783 75.3145 205.657C75.5681 205.09 75.8769 203.198 76.0492 201.445C76.278 198.542 76.3907 198.085 77.316 196.594C78.0928 195.33 78.3451 194.588 78.4138 193.349C78.4701 192.199 78.756 191.335 79.3796 190.271C80.2747 188.755 80.4421 188.144 80.7011 185.265C80.8878 183.1 81.5926 181.38 83.1105 179.297C84.6496 177.183 85.3418 176.723 87.3921 176.517C88.7902 176.356 89.3015 176.422 90.1766 176.957ZM94.6809 180.286C97.5482 184.604 98.8053 191.926 97.6944 197.601C97.4914 198.657 97.4036 199.607 97.5033 199.738C97.7417 200.081 96.5807 204.096 95.5753 206.419C93.7241 210.573 89.8456 215.747 86.8948 217.937C85.0801 219.305 84.7824 219.089 86.4248 217.631C87.2309 216.89 88.3498 215.456 88.9007 214.433C89.4773 213.406 90.0171 212.648 90.1078 212.722C90.194 212.766 90.0935 213.133 89.8856 213.488C89.6778 213.842 89.603 214.205 89.6937 214.279C89.9959 214.524 92.3215 210.706 93.6409 207.865C95.6832 203.418 97.9795 195.391 97.6843 193.682C97.6125 193.225 97.5488 193.323 97.3691 194.024C97.1559 194.848 97.1044 194.856 97.1343 194.208C97.1228 193.8 97.2295 192.466 97.3283 191.251C97.4272 190.036 97.4309 188.719 97.3423 188.323C97.219 187.875 97.1107 188.36 97.0299 189.689C96.8615 192.641 96.6753 193.636 96.3115 193.167C96.1469 192.959 96.1086 192.379 96.2458 191.743C96.5635 189.909 96.6457 186.911 96.3819 185.402C96.1721 184.236 96.1027 184.13 96.0863 184.864C96.0699 185.598 96.0018 185.667 95.78 185.263C95.6322 184.994 95.3676 183.982 95.1892 183.015C94.9345 181.563 94.8953 181.481 94.9753 182.493C95.1038 184.316 94.4538 184.038 94.2692 182.194C94.1994 181.415 93.8822 180.236 93.5731 179.612C93.068 178.58 93.0545 178.494 93.4384 178.756C93.6711 178.894 94.2297 179.597 94.6809 180.286ZM80.4991 182.137C80.1785 182.948 79.7824 184.619 79.6276 185.814C79.4495 187.363 79.1179 188.44 78.5535 189.377C78.1166 190.119 77.5481 191.7 77.3161 192.907C77.0797 194.085 76.6509 195.382 76.3356 195.724C75.4246 196.803 75.044 198.238 74.8834 201.072C74.7829 203.282 74.5787 204.163 73.6203 206.45C72.5524 209.046 72.3996 209.919 72.4608 213.157C72.4812 213.622 72.3746 213.112 72.2207 211.966C72.0195 210.183 72.0917 209.47 72.8015 206.608C73.2569 204.81 73.6906 202.372 73.7515 201.25C73.901 198.681 74.1019 197.948 75.1914 195.991C75.6406 195.16 76.2013 193.697 76.4011 192.788C76.6265 191.874 77.1402 190.448 77.5894 189.616C78.0386 188.785 78.5724 187.15 78.8088 185.972C79.207 183.978 79.8057 182.421 80.6126 181.183C81.186 180.302 81.1492 180.572 80.4991 182.137ZM94.9421 186.975C94.8555 188.1 94.7117 189.03 94.5831 189.05C94.2486 189.103 94.2237 188.609 94.3141 186.166C94.397 184.515 94.493 184.119 94.7314 184.462C94.9654 184.777 95.014 185.588 94.9421 186.975ZM96.0825 188.024C96.0596 189.052 95.9832 190.41 95.8762 191.07L95.6912 192.24L95.2825 191.485C95.0518 191.024 94.9195 190.518 95.029 190.209C95.0914 189.935 95.225 188.773 95.3161 187.677C95.4182 186.315 95.5644 185.736 95.7759 185.907C95.9875 186.079 96.0952 186.764 96.0825 188.024ZM94.4867 190.616C94.4776 192.402 91.2869 203.29 90.7512 203.404C90.3653 203.465 90.4858 202.89 91.5745 199.588C92.7682 195.948 94.0224 190.513 93.9044 189.596C93.8415 189.196 93.9097 189.127 94.1514 189.323C94.363 189.494 94.4953 190 94.4867 190.616ZM94.763 196.395C93.88 199.664 91.1872 206.846 90.827 206.903C90.1582 207.008 90.4583 205.732 92.08 201.293C93.0997 198.558 94.137 195.264 94.4025 193.935C94.8541 191.611 94.8754 191.579 95.2416 192.399C95.543 193.141 95.4997 193.704 94.763 196.395ZM96.3126 195.185C96.2056 195.846 96.2359 195.87 96.5634 195.439C96.9166 195.003 96.9513 195.056 96.9182 195.851C96.8475 197.413 95.0433 203.373 93.7965 206.173C92.2582 209.633 90.7407 212.388 90.4688 212.167C90.3524 212.098 90.8339 210.969 91.5244 209.661C92.2195 208.381 93.2473 206.201 93.817 204.794C94.7877 202.418 96.4077 197.131 96.3269 196.617C96.2101 195.874 95.8046 196.816 95.0132 199.661C93.7607 204.101 90.3835 211.625 89.8396 211.184C89.6885 211.061 90.0503 210.01 90.6257 208.807C92.4111 205.074 94.493 199.539 95.2575 196.522C95.7463 194.602 96.0624 193.762 96.2102 194.031C96.3535 194.272 96.3829 194.794 96.3126 195.185ZM90.3191 204.847C89.9014 205.878 89.4436 205.482 89.8312 204.426C90.0288 203.839 90.2334 203.632 90.3677 203.815C90.4976 203.971 90.4665 204.444 90.3191 204.847ZM89.6318 206.008C89.6633 206.208 89.4154 206.979 89.0814 207.704C88.3373 209.343 88.7669 209.392 89.6138 207.738C90.177 206.625 90.2239 206.588 90.3529 207.241C90.4428 207.812 90.1781 208.644 89.3614 210.323C89.281 210.482 88.0711 209.326 87.9959 209.016C87.9465 208.702 89.1619 205.702 89.3934 205.666C89.4963 205.649 89.6004 205.809 89.6318 206.008ZM87.9012 209.587C87.9963 209.689 88.0245 210.036 87.9151 210.345C87.6884 211.083 87.0551 210.744 87.1743 209.994C87.2781 209.48 87.5688 209.317 87.9012 209.587ZM87.0199 211.861C86.5528 212.579 85.9786 212.113 86.4156 211.371C86.6827 210.89 86.8325 210.838 87.0273 211.07C87.1918 211.278 87.1641 211.605 87.0199 211.861ZM88.7889 210.705C88.8114 210.848 88.7881 211.203 88.7468 211.443C88.6766 211.835 88.5782 211.88 88.2548 211.667C87.9314 211.455 87.9044 211.283 88.0653 210.965C88.3279 210.456 88.7305 210.334 88.7889 210.705ZM88.0138 212.817C87.8909 213.041 87.712 213.245 87.5834 213.265C87.249 213.317 87.1926 212.624 87.4899 212.168C87.8297 211.646 88.3189 212.242 88.0138 212.817ZM86.2865 212.562C86.5462 212.872 85.6866 213.944 85.3163 213.768C85.088 213.657 85.1035 213.421 85.3538 213.001C85.7483 212.325 86.0178 212.195 86.2865 212.562ZM87.2379 213.583C87.3331 213.685 87.2326 214.052 87.0158 214.349C86.5396 215.009 86.0047 214.625 86.3902 213.891C86.674 213.349 86.9737 213.244 87.2379 213.583ZM85.2248 214.192C85.3244 214.322 85.2877 214.592 85.1088 214.795C84.8875 215.064 84.7331 215.088 84.4522 214.811C84.1712 214.533 84.1533 214.419 84.3926 214.264C84.8712 213.955 85.0255 213.931 85.2248 214.192ZM84.1079 215.304C84.4023 215.667 83.6354 216.49 83.1152 216.367C82.8702 216.318 82.802 216.387 82.9621 216.566C83.2912 216.983 82.5219 217.455 82.0988 217.112C81.8571 216.916 81.9073 216.732 82.3389 216.46C82.6767 216.26 83.0646 215.877 83.2043 215.592C83.5305 214.985 83.809 214.912 84.1079 215.304ZM86.0288 215.616C85.4955 216.08 84.9997 215.778 85.3048 215.203C85.4869 214.853 85.6368 214.8 85.9647 215.041C86.3183 215.278 86.3318 215.364 86.0288 215.616ZM73.7175 217.962C74.1451 218.334 74.4999 218.746 74.5179 218.86C74.5403 219.003 74.9858 219.489 75.513 219.991C76.8392 221.216 76.5318 221.44 75.0434 220.358C73.8482 219.463 73.4019 219.475 74.4125 220.369C74.6889 220.618 74.802 220.834 74.6477 220.859C74.2361 220.923 73.1425 219.837 72.802 219.013C72.6183 218.515 72.4325 218.34 72.3051 218.535C72.1777 218.731 72.2965 219.151 72.6436 219.682C73.3634 220.739 72.9261 220.808 71.9959 219.754L71.265 218.962L71.8775 218.164C72.622 217.198 72.8021 217.17 73.7175 217.962ZM84.9466 216.781C84.437 217.563 83.8461 217.159 84.3043 216.385C84.5546 215.965 84.7727 215.843 84.9842 216.014C85.1957 216.186 85.1802 216.422 84.9466 216.781ZM69.7382 219.144C70.1992 219.393 70.4095 219.389 70.5022 219.141C70.5904 218.864 70.7582 218.925 71.0694 219.227C71.6492 219.897 71.6864 220.3 71.1 219.924C70.837 219.761 70.3985 219.654 70.1367 219.666C69.8493 219.682 69.376 219.523 69.104 219.302C68.4952 218.784 68.9023 218.69 69.7382 219.144ZM81.9134 217.609C82.1184 218.074 81.3401 218.489 80.917 218.146C80.6451 217.926 80.6484 217.779 80.8999 217.535C81.3136 217.148 81.6872 217.177 81.9134 217.609ZM80.5749 218.317C80.8705 218.856 80.4221 219.19 79.8917 218.834C79.5381 218.597 79.5201 218.483 79.7504 218.271C80.1853 217.852 80.3442 217.856 80.5749 218.317ZM77.003 220.079C77.4228 220.568 77.5841 220.923 77.386 220.838C76.7919 220.58 75.9548 219.951 75.6469 219.502C75.0614 218.628 76.2497 219.144 77.003 220.079ZM79.2118 219.204C78.9892 219.298 78.5731 219.334 78.3236 219.256C77.9108 219.146 77.9018 219.089 78.3334 218.816C78.6242 218.653 78.9888 218.625 79.2261 218.793C79.5752 219.001 79.563 219.091 79.2118 219.204ZM78.1337 219.725C78.5658 220.125 78.8087 220.497 78.6286 220.525C78.4485 220.553 77.9226 220.226 77.4391 219.834C76.8605 219.34 76.687 219.075 76.9442 219.034C77.1501 219.002 77.6715 219.3 78.1337 219.725ZM81.8725 220.366C81.5348 220.565 80.9264 220.72 80.4845 220.76C79.7507 220.787 79.772 220.755 80.8076 220.299C82.04 219.754 82.7615 219.816 81.8725 220.366Z" fill="#AB8E85"/>
<path d="M79.8924 177.609C79.6409 177.854 79.8087 177.915 80.529 177.802C81.0436 177.721 81.4584 177.509 81.436 177.367C81.3776 176.995 80.3486 177.157 79.8924 177.609Z" fill="#AB8E85"/>
<path d="M74.1208 180.302C73.6087 180.734 72.7389 181.573 72.1721 182.159C71.6311 182.742 71.0643 183.328 70.9536 183.463C70.8172 183.601 70.7927 183.781 70.9091 183.85C71.0042 183.952 71.6102 183.447 72.2407 182.763C72.8455 182.082 73.9244 181.064 74.5986 180.49C75.2683 179.887 75.6472 179.447 75.4414 179.48C75.2356 179.512 74.6374 179.899 74.1208 180.302Z" fill="#AB8E85"/>
<path d="M74.4936 182.672C74.013 183.303 73.7079 183.878 73.7986 183.951C74.0101 184.123 75.8199 182.053 75.7616 181.682C75.7244 181.278 75.3744 181.568 74.4936 182.672Z" fill="#AB8E85"/>
<path d="M77.0257 182.01C76.6725 182.446 76.4781 182.886 76.5732 182.988C76.7848 183.16 78.1352 181.689 78.0768 181.318C78.0441 180.943 77.7109 181.171 77.0257 182.01Z" fill="#AB8E85"/>
<path d="M68.4969 186.95C66.7981 189.558 64.7224 194.127 64.9576 194.617C65.036 194.78 65.5277 193.883 66.0426 192.632C66.5788 191.348 67.8415 188.984 68.873 187.33C69.8788 185.68 70.5906 184.339 70.4105 184.367C70.2561 184.391 69.3843 185.553 68.4969 186.95Z" fill="#AB8E85"/>
<path d="M71.6338 185.608C71.1107 186.305 70.7677 186.973 70.8885 187.071C71.0094 187.169 71.5337 186.648 72.0266 185.927C73.199 184.163 72.8711 183.922 71.6338 185.608Z" fill="#AB8E85"/>
<path d="M76.5033 185.896C76.3069 186.658 76.1529 187.355 76.1619 187.412C76.2068 187.698 76.6429 187.454 76.7177 187.091C76.7679 186.908 76.8961 186.214 77.0334 185.578C77.387 183.972 76.9297 184.249 76.5033 185.896Z" fill="#AB8E85"/>
<path d="M72.4231 186.772C71.9347 187.521 71.5627 188.341 71.5986 188.569C71.6345 188.797 72.1544 188.247 72.7277 187.367C73.3268 186.483 73.776 185.652 73.758 185.538C73.6817 185.052 73.2937 185.435 72.4231 186.772Z" fill="#AB8E85"/>
<path d="M68.5033 192.187C67.8507 193.401 67.7637 193.854 68.1753 193.789C68.4583 193.744 69.4927 191.27 69.3069 191.095C69.2163 191.021 68.8463 191.518 68.5033 192.187Z" fill="#AB8E85"/>
<path d="M74.5366 191.325C74.4439 191.574 74.263 192.1 74.111 192.475C73.9469 192.94 73.9571 193.172 74.1372 193.144C74.4973 193.087 75.0625 191.652 74.862 191.216C74.7444 190.971 74.646 191.016 74.5366 191.325Z" fill="#AB8E85"/>
<path d="M71.2616 193.801C70.9533 194.522 70.8038 195.248 70.8867 195.44C70.9651 195.603 71.2668 195.175 71.5449 194.429C71.8533 193.708 72.0027 192.982 71.9243 192.819C71.8459 192.656 71.5442 193.083 71.2616 193.801Z" fill="#AB8E85"/>
<path d="M63.5802 197.759C63.2923 198.946 63.1407 199.993 63.2269 200.038C63.3522 200.165 64.6027 196.048 64.5443 195.677C64.5309 195.591 64.419 195.55 64.2903 195.57C64.1874 195.586 63.8424 196.577 63.5802 197.759Z" fill="#AB8E85"/>
<path d="M63.9542 200.305C63.5662 202.531 63.5498 203.265 63.9038 206.018C64.2341 208.453 64.3227 208.848 64.3276 207.707C64.3047 206.891 64.2448 205.672 64.137 204.986C64.0594 204.326 64.1456 202.527 64.3327 201.035C64.8363 197.533 64.5708 197.018 63.9542 200.305Z" fill="#AB8E85"/>
<path d="M71.8393 198.479C71.6339 199.184 71.0906 203.775 71.167 204.261C71.2927 205.06 71.6219 203.633 71.938 200.95C72.2697 198.031 72.2424 197.187 71.8393 198.479Z" fill="#AB8E85"/>
<path d="M66.3866 201.355C65.8896 202.721 65.9961 208.761 66.5106 208.68C66.6649 208.655 66.6968 207.685 66.5943 206.531C66.5221 205.401 66.5234 203.733 66.5989 202.873C66.7603 201.384 66.639 200.614 66.3866 201.355Z" fill="#AB8E85"/>
<path d="M64.9116 202.202C64.8569 202.357 64.854 203.177 64.9071 204.017C65.0524 205.779 65.1541 205.587 65.306 203.369C65.4339 202.003 65.2065 201.395 64.9116 202.202Z" fill="#AB8E85"/>
<path d="M62.8587 203.9C62.7387 205.148 62.9481 207.485 63.1796 207.448C63.3082 207.428 63.3536 206.543 63.2646 205.475C63.1483 203.562 62.9588 202.86 62.8587 203.9Z" fill="#AB8E85"/>
<path d="M68.8652 204.711C68.9101 204.996 68.9183 205.551 68.904 205.963C68.8562 206.497 68.8999 206.607 69.0743 206.375C69.4442 205.878 69.432 204.124 69.0719 204.181C68.9175 204.205 68.8248 204.454 68.8652 204.711Z" fill="#AB8E85"/>
<path d="M67.239 205.435C67.2202 205.818 67.3202 206.621 67.4705 207.241C67.7094 208.257 67.7306 208.225 67.7229 206.5C67.7245 205.505 67.6245 204.701 67.4959 204.721C67.393 204.737 67.288 205.076 67.239 205.435Z" fill="#AB8E85"/>
<path d="M64.9931 207.748C64.9927 208.918 65.4679 210.599 65.7766 210.551C65.8796 210.534 65.8175 209.637 65.6424 208.524C65.2966 206.325 64.9719 205.937 64.9931 207.748Z" fill="#AB8E85"/>
<path d="M70.3674 206.552C70.2167 207.102 70.1656 207.783 70.2575 208.032C70.3583 208.338 70.507 208.11 70.6732 207.323C71.0146 205.806 70.7615 205.202 70.3674 206.552Z" fill="#AB8E85"/>
<path d="M63.7252 210.581C63.806 211.095 65.7097 212.639 66.7771 213.056C67.8959 213.465 69.3378 213.414 68.9785 212.973C68.8743 212.814 68.5219 212.752 68.2389 212.797C67.4157 212.926 65.4688 211.945 64.7199 211.039C64.0662 210.235 63.6398 210.038 63.7252 210.581Z" fill="#AB8E85"/>
<path d="M69.8789 210.988C70.0181 211.873 70.0831 211.951 70.1913 211.465C70.3742 210.617 70.253 209.847 69.9443 209.895C69.8156 209.915 69.7634 210.421 69.8789 210.988Z" fill="#AB8E85"/>
<path d="M66.7211 211.192C66.7705 211.506 68.0013 211.956 68.5415 211.871C69.1332 211.778 68.9025 211.317 68.2581 211.243C67.9147 211.238 67.4247 211.14 67.1752 211.062C66.9 210.988 66.6987 211.049 66.7211 211.192Z" fill="#AB8E85"/>
<path d="M64.9371 213.257C65.0628 214.057 67.775 215.21 69.0356 215.012C70.0903 214.846 69.7053 214.409 68.4949 214.424C67.8898 214.431 66.8403 214.128 66.1466 213.74C65.4528 213.352 64.9191 213.143 64.9371 213.257Z" fill="#AB8E85"/>
<path d="M69.9552 213.317C70.0528 213.769 70.3194 214.459 70.6273 214.908L71.1222 215.708L70.8139 214.586C70.638 213.97 70.4697 213.236 70.4248 212.95C70.3844 212.693 70.2456 212.481 70.0912 212.505C69.9626 212.525 69.8879 212.888 69.9552 213.317Z" fill="#AB8E85"/>
<path d="M65.7704 215.204C65.9276 216.203 69.8902 216.926 70.223 216.025C70.3202 215.805 69.9935 215.739 69.2475 215.856C68.63 215.954 67.857 215.9 67.5426 215.744C67.207 215.622 66.6643 215.356 66.3241 215.204C66.0097 215.049 65.748 215.061 65.7704 215.204Z" fill="#AB8E85"/>
<path d="M85.1768 177.685C84.9252 177.93 85.187 177.918 86.0906 177.629C86.793 177.402 87.3925 177.19 87.4349 177.125C87.6518 176.828 85.4663 177.347 85.1768 177.685Z" fill="#AB8E85"/>
<path d="M90.3292 179.771C90.4504 180.542 90.6566 181.183 90.7853 181.162C90.8882 181.146 90.8878 180.473 90.7665 179.702C90.6408 178.903 90.4391 178.291 90.3104 178.311C90.1818 178.331 90.2034 178.972 90.3292 179.771Z" fill="#AB8E85"/>
<path d="M82.4808 181.328C81.8283 182.542 81.6139 183.19 81.9226 183.142C82.1284 183.109 83.5205 180.228 83.3694 180.105C83.3045 180.028 82.8921 180.59 82.4808 181.328Z" fill="#AB8E85"/>
<path d="M89.0874 179.586C88.8751 179.912 89.1196 181.132 89.3769 181.091C89.5055 181.071 89.597 180.647 89.5766 180.182C89.5493 179.338 89.3847 179.13 89.0874 179.586Z" fill="#AB8E85"/>
<path d="M87.3755 182.781C87.3432 183.079 87.1615 184.102 86.9965 185.065C86.8013 186.002 86.7727 186.826 86.889 186.896C87.143 187.002 87.7646 184.417 87.7683 183.1C87.8047 182.158 87.507 181.941 87.3755 182.781Z" fill="#AB8E85"/>
<path d="M88.9639 182.824C88.9317 183.122 88.6662 184.451 88.375 185.784C88.0838 187.117 87.8094 188.389 87.7591 188.572C87.7134 188.784 87.7918 188.948 87.9462 188.923C88.2291 188.879 89.344 184.403 89.3825 183.138C89.3931 182.2 89.0954 181.984 88.9639 182.824Z" fill="#AB8E85"/>
<path d="M90.4483 182.708C90.4977 183.022 90.45 183.556 90.3662 183.862C90.2613 184.2 90.3062 184.485 90.4483 184.551C90.5904 184.616 90.7725 184.266 90.846 183.728C91.0311 182.557 90.9457 182.015 90.6113 182.068C90.4827 182.088 90.3945 182.365 90.4483 182.708Z" fill="#AB8E85"/>
<path d="M91.6591 183.366C91.5913 184.108 91.4765 184.887 91.452 185.066C91.4063 185.278 91.4846 185.441 91.6133 185.421C91.9734 185.364 92.2005 183.456 91.9719 182.673C91.8184 182.2 91.7379 182.359 91.6591 183.366Z" fill="#AB8E85"/>
<path d="M85.3105 186.412C84.7604 188.781 85.047 189.263 85.6923 186.996C86.1991 185.19 86.3081 184.207 86.0251 184.252C85.8965 184.272 85.5727 185.23 85.3105 186.412Z" fill="#AB8E85"/>
<path d="M89.3889 188.375C88.9515 190.287 88.9283 190.641 89.248 190.328C89.4313 190.153 90.3233 186.94 90.2739 186.626C90.2649 186.569 90.153 186.528 90.0244 186.548C89.9215 186.565 89.6266 187.372 89.3889 188.375Z" fill="#AB8E85"/>
<path d="M90.2702 189.787C89.93 191.479 89.0246 194.606 88.2752 196.713C87.5001 198.824 86.9631 200.606 87.028 200.683C87.3559 200.924 89.23 195.744 90.2166 191.96C91.3025 187.635 91.4843 186.612 91.1498 186.664C91.0212 186.684 90.6361 188.091 90.2702 189.787Z" fill="#AB8E85"/>
<path d="M85.5815 190.817C85.2241 191.897 85.0244 192.806 85.1151 192.88C85.3009 193.056 85.7701 192.016 86.2602 190.271C86.8719 188.127 86.3129 188.595 85.5815 190.817Z" fill="#AB8E85"/>
<path d="M83.5443 192.279C83.1735 193.273 83.1147 194.072 83.3976 194.028C83.6035 193.995 84.2385 191.496 84.0617 191.378C83.971 191.304 83.7464 191.72 83.5443 192.279Z" fill="#AB8E85"/>
<path d="M90.6265 192.891C90.3108 194.403 90.0923 195.696 90.1785 195.741C90.3296 195.863 91.6969 190.645 91.6385 190.274C91.625 190.188 91.5344 190.115 91.4314 190.131C91.3028 190.151 90.9467 191.407 90.6265 192.891Z" fill="#AB8E85"/>
<path d="M86.1719 194.235C85.0485 197.484 85.0105 197.578 85.3192 197.529C85.4993 197.501 86.2421 195.687 87.2606 192.776C87.4795 192.157 87.5485 191.59 87.4064 191.525C87.29 191.455 86.7191 192.686 86.1719 194.235Z" fill="#AB8E85"/>
<path d="M88.0952 193.055C87.891 193.935 87.2645 195.819 86.7296 197.278C85.6004 200.323 85.6412 201.253 86.803 198.583C87.4911 196.924 89.0107 192.004 88.9433 191.575C88.849 190.976 88.4378 191.713 88.0952 193.055Z" fill="#AB8E85"/>
<path d="M84.0117 195.921C83.3126 197.845 83.2546 198.146 83.589 198.094C83.872 198.049 85.0032 194.682 84.8464 194.356C84.768 194.192 84.4038 194.893 84.0117 195.921Z" fill="#AB8E85"/>
<path d="M79.0911 196.314C78.1809 198.74 78.0326 199.641 78.6239 198.875C79.0621 198.308 79.8682 195.724 79.7069 195.369C79.6285 195.206 79.3525 195.63 79.0911 196.314Z" fill="#AB8E85"/>
<path d="M81.8788 196.607C81.4366 197.818 81.9993 197.876 82.4673 196.661C82.6951 196.099 82.6894 195.895 82.4579 195.931C82.2778 195.959 82.0095 196.265 81.8788 196.607Z" fill="#AB8E85"/>
<path d="M89.0588 197.672C88.8991 198.166 88.3629 199.45 87.8635 200.464C86.9451 202.335 86.8605 203.138 87.6809 201.985C88.3527 201.06 89.6627 197.49 89.497 197.106C89.3838 196.89 89.2095 197.122 89.0588 197.672Z" fill="#AB8E85"/>
<path d="M76.8113 199.921C76.5593 201.335 76.589 202.53 76.8406 202.286C77.1134 202.009 77.3311 199.371 77.1151 199.171C77.0289 199.126 76.8938 199.439 76.8113 199.921Z" fill="#AB8E85"/>
<path d="M77.5866 204.012C77.2996 204.701 77.1366 205.341 77.2575 205.439C77.3481 205.512 77.4555 205.525 77.498 205.459C78.0611 204.347 78.6186 203.03 78.5961 202.887C78.5153 202.374 78.0681 202.883 77.5866 204.012Z" fill="#AB8E85"/>
<path d="M80.5802 204.272C80.2797 204.876 80.12 205.369 80.2486 205.349C80.5059 205.308 81.6056 203.585 81.5607 203.299C81.4888 202.842 81.1009 203.225 80.5802 204.272Z" fill="#AB8E85"/>
<path d="M83.2915 205.923C81.012 210.202 77.4091 214.28 75.7112 214.547C75.4282 214.592 75.1419 214.783 75.0705 214.999C74.8471 215.59 76.7002 214.801 78.1347 213.698C80.0389 212.228 85.1364 204.58 84.7444 203.764C84.666 203.601 84.029 204.578 83.2915 205.923Z" fill="#AB8E85"/>
<path d="M84.9134 205.844C83.4551 208.472 83.1492 209.544 84.3943 207.739C85.2739 206.46 86.704 203.485 86.5227 203.338C86.4321 203.264 85.7146 204.401 84.9134 205.844Z" fill="#AB8E85"/>
<path d="M81.5495 205.407C80.7998 206.842 80.9578 207.344 81.7602 206.076C82.1212 205.522 82.3703 204.927 82.2617 204.739C82.1743 204.519 81.9016 204.796 81.5495 205.407Z" fill="#AB8E85"/>
<path d="M86.6971 204.949C85.9968 206.697 83.0251 211.436 81.7049 212.931C80.3802 214.398 80.5202 214.785 81.8886 213.429C83.7556 211.555 86.2299 207.509 87.406 204.427C87.9287 203.058 87.2668 203.542 86.6971 204.949Z" fill="#AB8E85"/>
<path d="M74.9938 208.311C74.6475 209.126 74.4298 209.921 74.5082 210.084C74.5866 210.247 74.9219 209.697 75.2727 208.911C75.619 208.096 75.8367 207.301 75.7583 207.137C75.6799 206.974 75.3401 207.496 74.9938 208.311Z" fill="#AB8E85"/>
<path d="M79.0247 207.121C78.7274 207.577 78.5844 208.009 78.6449 208.058C78.8911 208.283 79.8434 206.963 79.6866 206.636C79.5735 206.42 79.3387 206.603 79.0247 207.121Z" fill="#AB8E85"/>
<path d="M79.8086 208.753C79.5114 209.21 79.3986 209.666 79.5195 209.764C79.7915 209.985 80.6364 208.652 80.4404 208.244C80.362 208.081 80.1014 208.268 79.8086 208.753Z" fill="#AB8E85"/>
<path d="M76.9187 209.822C76.57 210.287 75.9003 210.889 75.4899 211.13C75.0583 211.402 74.7128 211.72 74.7308 211.834C74.7892 212.205 75.2343 212.018 76.1735 211.285C77.3385 210.312 78.4574 208.878 77.9686 208.955C77.7628 208.987 77.2977 209.382 76.9187 209.822Z" fill="#AB8E85"/>
<path d="M82.4571 210.004C81.1128 212.352 77.5565 215.72 76.2444 215.926C75.9357 215.975 75.6237 216.17 75.5523 216.386C75.3289 216.977 77.4135 216.152 78.8268 215.081C80.0478 214.128 83.7051 209.223 83.1346 209.283C82.9803 209.308 82.6862 209.617 82.4571 210.004Z" fill="#AB8E85"/>
<path d="M77.829 211.083C77.45 211.523 76.7121 212.195 76.1911 212.57C75.67 212.944 75.3123 213.352 75.4074 213.454C75.6761 213.821 79.0728 210.946 78.9875 210.404C78.9336 210.061 78.5489 210.297 77.829 211.083Z" fill="#AB8E85"/>
<path d="M96.301 202.151C96.138 202.791 95.6623 204.124 95.24 205.126C94.324 207.348 94.4988 207.788 95.4585 205.677C96.2572 203.884 96.9025 201.617 96.7367 201.234C96.6628 201.099 96.4639 201.511 96.301 202.151Z" fill="#AB8E85"/>
</svg>
