<svg width="40" height="40" viewBox="0 0 40 40" fill="none" xmlns="http://www.w3.org/2000/svg">
<g clip-path="url(#clip0_13_1251)">
<path d="M6.25 0C5.5625 0 5 0.5625 5 1.25C5 3.17969 5.76562 5.03906 7.13281 6.39844L8.59375 7.85938C9.49219 8.76562 10 9.98438 10 11.25C10 11.9375 10.5625 12.5 11.25 12.5C11.9375 12.5 12.5 11.9375 12.5 11.25C12.5 9.32031 11.7344 7.46094 10.3672 6.10156L8.89844 4.63281C8.00781 3.73438 7.5 2.51562 7.5 1.25C7.5 0.5625 6.9375 0 6.25 0ZM2.5 17.5H26.25H27.5V32.5C27.5 35.2578 25.2578 37.5 22.5 37.5H7.5C4.74219 37.5 2.5 35.2578 2.5 32.5V17.5ZM30 17.5H31.25C34.7031 17.5 37.5 20.2969 37.5 23.75C37.5 27.2031 34.7031 30 31.25 30H30V17.5ZM30 32.5H31.25C36.0859 32.5 40 28.5859 40 23.75C40 18.9141 36.0859 15 31.25 15H27.5H26.25H2.5C1.11719 15 0 16.1172 0 17.5V32.5C0 36.6406 3.35938 40 7.5 40H22.5C26.6406 40 30 36.6406 30 32.5ZM17.5 1.25C17.5 0.5625 16.9375 0 16.25 0C15.5625 0 15 0.5625 15 1.25C15 3.17969 15.7656 5.03906 17.1328 6.39844L18.5938 7.85938C19.4922 8.76562 20 9.98438 20 11.25C20 11.9375 20.5625 12.5 21.25 12.5C21.9375 12.5 22.5 11.9375 22.5 11.25C22.5 9.32031 21.7344 7.46094 20.3672 6.10156L18.8984 4.63281C18.0078 3.73438 17.5 2.51562 17.5 1.25Z" fill="#1E3050"/>
</g>
<defs>
<clipPath id="clip0_13_1251">
<rect width="40" height="40" fill="white"/>
</clipPath>
</defs>
</svg>
