<svg width="40" height="40" viewBox="0 0 40 40" fill="none" xmlns="http://www.w3.org/2000/svg">
<g clip-path="url(#clip0_13_1247)">
<path d="M2.5 22.5C2.5 21.3047 2.60156 20.1406 2.80469 19.0078L16.0547 24.3516L6.36719 31.8828L5.45312 32.5312C5.38281 32.5469 5.32031 32.5547 5.27344 32.5469C5.22656 32.5391 5.20312 32.5312 5.19531 32.5234C5.1875 32.5234 5.17969 32.5078 5.15625 32.4766C3.46875 29.5391 2.5 26.1406 2.5 22.5ZM0.578125 17.4141C0.203125 19.0469 0 20.75 0 22.5C0 26.5859 1.09375 30.4219 3 33.7266C3.72656 34.9922 5.25781 35.3516 6.53906 34.7969C8.54688 36.9766 11.0234 38.7031 13.8203 39.8203C14.125 39.9375 14.4453 40 14.7734 40H15.1953C16.4688 40 17.5078 38.9688 17.5078 37.6875C17.5078 37.5625 17.5 37.4297 17.4766 37.3047L16.25 30V27.3594L18.9141 25.2891C20.3906 25.4453 21.8906 24.9375 22.9688 23.8516L23.8516 22.9688C24.9375 21.8828 25.4453 20.3906 25.2891 18.9141L27.3594 16.25H30L37.3125 17.4688C37.4375 17.4922 37.5625 17.5 37.6953 17.5C38.9688 17.5 40.0078 16.4688 40.0078 15.1875V14.7656C40.0078 14.4375 39.9531 14.1172 39.8281 13.8125C38.7109 11.0156 36.9766 8.53906 34.8047 6.53125C35.3594 5.25 35 3.71875 33.7344 2.99219C30.4219 1.09375 26.5859 0 22.5 0C20.75 0 19.0469 0.203125 17.4141 0.578125C16.8438 0.210938 16.1719 0 15.4609 0C15.0703 0 14.6797 0.0625 14.3203 0.195312C7.78125 2.59375 2.59375 7.78125 0.195312 14.3203C0.0625 14.6875 0 15.0781 0 15.4609C0 16.1719 0.210938 16.8438 0.578125 17.4062V17.4141ZM19.0078 2.80469C20.1406 2.60156 21.3047 2.5 22.5 2.5C26.1406 2.5 29.5391 3.46875 32.4766 5.16406C32.5078 5.17969 32.5156 5.19531 32.5234 5.20312C32.5312 5.21094 32.5391 5.23438 32.5469 5.28125C32.5547 5.32812 32.5547 5.39062 32.5312 5.46094L31.8828 6.375L24.3516 16.0625L19.0078 2.80469ZM14.7344 37.5C12.3906 36.5625 10.2969 35.125 8.57812 33.3281L13.75 29.3047V30V30.2031L13.7812 30.4062L14.9688 37.5H14.7656C14.7578 37.5 14.75 37.5 14.7422 37.5C14.7344 37.5 14.7344 37.5 14.7344 37.5ZM29.3047 13.75L33.3203 8.58594C35.1172 10.2969 36.5547 12.3906 37.4922 14.7422C37.4922 14.75 37.4922 14.7578 37.4922 14.7734V14.9688L30.4062 13.7891L30.2031 13.7578H30H29.3047V13.75ZM2.53906 15.1797C4.6875 9.33594 9.33594 4.6875 15.1797 2.53906C15.2422 2.51562 15.3359 2.5 15.4609 2.5C15.8984 2.5 16.2891 2.76562 16.4531 3.17188L22.6328 18.5C23.0078 19.4297 22.7891 20.4922 22.0781 21.2031L21.1953 22.0859C20.4844 22.7969 19.4219 23.0078 18.4922 22.6406L3.17188 16.4609C2.76562 16.2969 2.5 15.9062 2.5 15.4688C2.5 15.3438 2.52344 15.25 2.53906 15.1875V15.1797Z" fill="#1E3050"/>
</g>
<defs>
<clipPath id="clip0_13_1247">
<rect width="40" height="40" fill="white"/>
</clipPath>
</defs>
</svg>
