<svg width="36" height="36" viewBox="0 0 36 36" fill="none" xmlns="http://www.w3.org/2000/svg">
<path d="M18.3608 9.17665C13.3542 9.17665 9.31587 13.215 9.31587 18.2216C9.31587 23.2282 13.3542 27.2665 18.3608 27.2665C23.3674 27.2665 27.4057 23.2282 27.4057 18.2216C27.4057 13.215 23.3674 9.17665 18.3608 9.17665ZM18.3608 24.102C15.1254 24.102 12.4804 21.4648 12.4804 18.2216C12.4804 14.9783 15.1175 12.3412 18.3608 12.3412C21.6041 12.3412 24.2412 14.9783 24.2412 18.2216C24.2412 21.4648 21.5962 24.102 18.3608 24.102ZM29.8854 8.80667C29.8854 9.97959 28.9408 10.9164 27.7757 10.9164C26.6028 10.9164 25.666 9.97172 25.666 8.80667C25.666 7.64161 26.6106 6.69697 27.7757 6.69697C28.9408 6.69697 29.8854 7.64161 29.8854 8.80667ZM35.876 10.9478C35.7422 8.1218 35.0967 5.61851 33.0263 3.55604C30.9639 1.49358 28.4606 0.848077 25.6345 0.706381C22.7219 0.541069 13.9918 0.541069 11.0792 0.706381C8.26102 0.840205 5.75773 1.48571 3.68739 3.54817C1.61706 5.61064 0.979425 8.11393 0.837729 10.94C0.672417 13.8526 0.672417 22.5827 0.837729 25.4953C0.971553 28.3213 1.61706 30.8246 3.68739 32.8871C5.75773 34.9496 8.25315 35.5951 11.0792 35.7368C13.9918 35.9021 22.7219 35.9021 25.6345 35.7368C28.4606 35.6029 30.9639 34.9574 33.0263 32.8871C35.0888 30.8246 35.7343 28.3213 35.876 25.4953C36.0413 22.5827 36.0413 13.8605 35.876 10.9478ZM32.1132 28.6205C31.4992 30.1634 30.3105 31.3521 28.7597 31.974C26.4375 32.895 20.9271 32.6824 18.3608 32.6824C15.7945 32.6824 10.2763 32.8871 7.96189 31.974C6.41897 31.3599 5.2303 30.1713 4.60842 28.6205C3.68739 26.2982 3.89994 20.7878 3.89994 18.2216C3.89994 15.6553 3.69526 10.137 4.60842 7.82267C5.22243 6.27975 6.4111 5.09108 7.96189 4.4692C10.2841 3.54817 15.7945 3.76072 18.3608 3.76072C20.9271 3.76072 26.4453 3.55604 28.7597 4.4692C30.3026 5.08321 31.4913 6.27188 32.1132 7.82267C33.0342 10.1449 32.8217 15.6553 32.8217 18.2216C32.8217 20.7878 33.0342 26.3061 32.1132 28.6205Z" fill="#AB8E85"/>
</svg>
