<svg width="45" height="56" viewBox="0 0 45 56" fill="none" xmlns="http://www.w3.org/2000/svg">
<path d="M21.5124 0.207462C19.1497 1.09344 17.7715 3.45605 17.9684 6.24525C18.1325 8.7063 19.1169 9.95324 22.7593 12.4143C27.4189 15.5316 28.8627 17.5661 28.8627 21.1428C28.8627 22.0288 28.633 23.2757 28.3377 23.8336C28.0423 24.4242 27.9111 24.9164 28.0423 24.9164C28.4689 24.9164 30.0768 22.4554 30.569 21.0772C31.8816 17.402 29.9127 13.3659 25.5813 10.8392C24.4984 10.2157 23.0218 9.19851 22.2671 8.60786C19.9373 6.73746 19.6091 4.07952 21.578 2.43882C23.5468 0.765301 26.4345 1.81535 26.4345 4.21078C26.4345 4.86706 26.2704 5.58897 26.0407 5.81866C25.0891 6.77027 23.1859 5.85148 23.6125 4.67017C23.7765 4.17796 23.7437 4.17796 23.3171 4.70299C22.6608 5.55615 22.6937 6.08118 23.4812 6.86871C25.0891 8.4766 28.0752 6.8359 28.0752 4.34203C28.0752 2.70133 27.0251 1.02781 25.6141 0.43716C24.4984 -0.0222359 22.464 -0.153492 21.5124 0.207462ZM25.0563 12.1846C25.1219 12.3487 25.286 12.3815 25.45 12.283C25.7782 12.0861 29.0596 15.3019 29.0596 15.827C29.0596 16.0566 28.4361 15.5644 27.6486 14.7441C26.861 13.9237 25.3844 12.7096 24.3672 12.0205C23.3499 11.3642 22.4968 10.7408 22.4968 10.6423C22.4968 10.4126 24.925 11.8893 25.0563 12.1846Z" fill="#AB8E85"/>
<path d="M14.0964 8.01719C13.7683 8.5094 13.5714 9.52664 13.5714 10.4782C13.5714 12.808 14.523 14.0878 17.7716 16.0566C20.9218 17.9927 22.6609 19.7646 23.1531 21.6678C23.875 24.3586 22.7593 27.5744 20.3639 29.8057C18.592 31.4464 18.9857 31.5449 21.2827 30.0682C26.5658 26.6884 27.6486 21.0116 23.8422 16.9426C23.3828 16.4176 21.6437 15.2035 20.003 14.219C18.3294 13.2346 16.5247 11.9221 15.9997 11.2986C14.9824 10.1829 14.3589 8.21407 14.7855 7.55779C15.2449 6.80307 14.6215 7.22965 14.0964 8.01719ZM22.2343 17.1395C23.6125 18.3864 24.7938 20.4537 24.761 21.635C24.7282 22.2913 24.6626 22.2257 24.3344 21.1756C24.1047 20.4865 23.1531 19.0427 22.2015 17.9927C20.3311 15.8926 20.3311 15.466 22.2343 17.1395Z" fill="#AB8E85"/>
<path d="M13.4073 18.6818C10.5525 20.4209 10.7166 24.8836 13.6698 26.4259C15.1465 27.1806 17.9685 26.9181 19.0185 25.9337C20.167 24.8508 20.6592 23.5054 20.3639 22.0616L20.1014 20.8147L19.7404 22.0616C19.1826 23.932 18.0997 24.9164 16.5247 24.9164C13.8339 24.9164 12.6854 22.1929 14.5886 20.2897C15.7371 19.174 16.82 19.0755 18.0341 20.0272C19.3795 21.0772 19.4451 20.4865 18.1325 19.174C16.7872 17.8286 15.1136 17.6317 13.4073 18.6818Z" fill="#AB8E85"/>
<path d="M10.0603 28.526C7.36956 28.9197 5.43353 29.5432 5.43353 30.0026C5.43353 30.6917 6.057 30.7245 8.51805 30.2651C9.7978 30.0026 12.5542 29.7073 14.6215 29.576C17.6404 29.3791 18.3951 29.2479 18.3951 28.8541C18.3951 28.4604 17.8044 28.3619 15.1137 28.3291C13.3089 28.2963 11.0447 28.3947 10.0603 28.526Z" fill="#AB8E85"/>
<path d="M25.6141 28.7557L24.6297 29.3463L28.0752 29.576C29.9784 29.7073 32.5051 30.0354 33.7192 30.2651C35.4912 30.6589 36.049 30.6589 36.5084 30.3308C37.0006 29.937 37.0006 29.9042 36.4099 29.6088C35.3927 29.051 32.6691 28.5588 29.519 28.3619C27.0908 28.1978 26.4345 28.2635 25.6141 28.7557Z" fill="#AB8E85"/>
<path d="M4.35065 32.9231C4.74442 38.1733 6.02417 41.1922 9.17432 44.408C14.3261 49.6254 21.939 50.938 28.5674 47.7222C32.8332 45.6878 35.8521 42.0782 37.3288 37.2874C38.0835 34.7935 38.9038 34.0059 40.5774 34.17C41.9227 34.3013 43.0056 35.6467 42.7103 36.828C42.3821 38.2061 41.0039 39.5187 38.5757 40.7985C37.3288 41.4547 36.1147 42.3079 35.9178 42.6689C35.6224 43.2595 35.6553 43.3251 36.1803 43.1939C36.5084 43.0954 37.5913 42.8001 38.5757 42.5048C44.5807 40.8313 47.0089 35.5482 43.104 32.6934C42.0868 31.9387 39.757 31.8402 38.5757 32.4637C37.8538 32.8575 37.821 32.8246 38.0179 31.8402C38.2476 30.6917 38.1819 30.6261 37.1647 31.3152C36.2131 31.9387 32.7348 32.6278 28.1408 33.12C21.2499 33.8747 8.94462 32.9887 5.56477 31.4793L4.18658 30.8886L4.35065 32.9231ZM9.40402 33.6778C11.5697 34.1044 13.998 34.2356 20.6921 34.2685C25.3845 34.2685 30.1425 34.1372 31.291 33.9731L33.3583 33.6778L33.1286 35.1216C32.6364 38.3702 31.0941 40.8313 27.8783 43.3251C25.9095 44.9002 25.3188 45.9174 26.1064 46.4097C26.8611 46.8691 26.3361 47.4925 24.8922 47.8863C22.989 48.3785 19.4123 48.3457 17.3122 47.8535C11.6354 46.4753 6.5492 40.9953 5.76166 35.4498C5.4007 32.759 5.26945 32.8246 9.40402 33.6778ZM35.885 35.6467C35.4584 38.5015 33.6536 41.9798 31.5863 43.8173C29.88 45.3596 27.5174 46.6722 27.0252 46.3768C26.4017 45.9831 26.8611 45.2612 28.2065 44.4736C29.88 43.4892 32.1113 41.061 33.0629 39.2234C33.4239 38.5343 33.9161 36.992 34.1458 35.8107C34.6052 33.645 35.1302 32.8903 35.8193 33.4809C36.0818 33.6778 36.0818 34.3341 35.885 35.6467Z" fill="#AB8E85"/>
<path d="M4.67881 45.9174C-4.11536 48.7066 -0.0464161 53.2678 12.9808 55.2694C25.8767 57.2383 43.4978 53.4647 42.3821 49.0019C41.9556 47.3612 36.2787 44.8674 34.1458 45.3924C32.8661 45.7205 33.2598 46.2127 35.2943 46.9018C37.4929 47.6566 38.7398 48.9363 38.2148 49.9207C37.6897 50.8723 34.9334 52.0208 31.0285 52.8412C26.2048 53.8584 16.3934 53.8912 11.4713 52.874C7.82896 52.1521 5.1382 51.1349 4.25222 50.1504C3.7272 49.5926 3.7272 49.4942 4.25222 48.6738C4.84288 47.8206 7.07423 46.6065 8.12428 46.5737C8.879 46.5737 9.23996 45.9174 8.68212 45.5565C7.99303 45.1299 6.77891 45.2283 4.67881 45.9174ZM3.23499 49.9207L3.36624 51.4958L2.44745 50.8067C1.36459 50.052 1.20052 49.0019 2.0865 48.3457C2.84122 47.7878 3.0381 48.0831 3.23499 49.9207ZM40.8071 49.4285C40.9055 50.1832 39.3633 51.6271 38.8382 51.2989C38.6413 51.1677 38.6413 50.9708 38.871 50.7411C39.0679 50.5442 39.232 49.7895 39.232 49.1004C39.232 47.8206 39.232 47.8206 39.9867 48.28C40.3805 48.5754 40.7414 49.0676 40.8071 49.4285Z" fill="#AB8E85"/>
<path d="M12.0292 49.4285C13.1777 50.6426 14.9168 51.4302 17.2794 51.8239C22.8906 52.7099 28.1409 51.7583 30.3394 49.4285L31.0942 48.5753L29.0925 49.3957C24.7282 51.1677 17.6732 51.1348 13.1777 49.3629L11.2745 48.5753L12.0292 49.4285Z" fill="#AB8E85"/>
</svg>
