<svg width="905" height="982" viewBox="0 0 905 982" fill="none" xmlns="http://www.w3.org/2000/svg">
<path d="M439.507 220.201C570.524 185.134 483.5 0.499993 534.5 -9.00001C585.5 -18.5 914 -9.00001 914 -9.00001V699.946C914 748.392 832.051 833.096 762.243 817.341C692.435 801.587 747.432 969 716.716 982C686 995 -79.5001 982 6.99991 982C93.4999 982 15.5995 726.881 170.897 677.585C326.195 628.289 85.4075 449.909 299.891 423.483C514.374 397.056 308.49 255.267 439.507 220.201Z" fill="#FFFBFF"/>
<path d="M524.56 105.54C527.845 105.54 530.96 106.05 533.905 107.069C536.907 108.089 538.861 109.137 539.768 110.213C540.447 109.76 540.957 109.278 541.297 108.769C541.693 108.259 541.92 107.806 541.977 107.409C542.09 107.013 542.231 106.191 542.401 104.945H545.12L544.865 122.532H543.166C542.43 117.944 540.447 114.376 537.219 111.827C534.047 109.222 529.601 107.919 523.88 107.919C518.329 107.919 514.138 110.213 511.306 114.801C508.474 119.389 507.001 125.591 506.888 133.407C506.888 150.683 512.948 159.32 525.069 159.32C527.845 159.32 530.28 158.952 532.376 158.216C534.472 157.423 536.256 156.262 537.729 154.732C539.258 153.203 540.447 151.674 541.297 150.145C542.203 148.615 543.166 146.689 544.186 144.367L546.14 145.896C541.722 156.545 534.642 161.897 524.899 161.954C516.29 161.954 509.267 159.519 503.829 154.647C498.392 149.72 495.673 142.838 495.673 134.002C495.673 129.754 496.324 125.931 497.627 122.532C498.93 119.134 500.601 116.415 502.64 114.376C504.679 112.337 507.001 110.609 509.606 109.193C512.269 107.777 514.817 106.814 517.253 106.305C519.745 105.795 522.181 105.54 524.56 105.54ZM585.477 159.32C590.801 159.32 595.134 156.913 598.476 152.099C601.874 147.228 603.573 141.025 603.573 133.492C603.573 124.543 601.931 117.746 598.646 113.102C595.36 108.457 590.744 106.135 584.797 106.135C581.965 106.135 579.416 106.531 577.15 107.324C574.941 108.117 572.817 109.448 570.778 111.317C568.739 113.187 567.153 116.019 566.021 119.813C564.944 123.552 564.406 128.14 564.406 133.577C564.406 135.616 564.576 137.712 564.916 139.864C565.312 141.96 566.021 144.197 567.04 146.576C568.06 148.955 569.306 151.079 570.778 152.948C572.308 154.761 574.347 156.29 576.896 157.536C579.444 158.726 582.305 159.32 585.477 159.32ZM585.477 104.69C587.516 104.69 589.64 104.917 591.849 105.37C594.058 105.823 596.493 106.729 599.155 108.089C601.817 109.392 604.14 111.062 606.122 113.102C608.161 115.141 609.86 117.944 611.22 121.513C612.579 125.024 613.259 129.018 613.259 133.492C613.259 137.854 612.381 141.818 610.625 145.387C608.926 148.955 606.688 151.872 603.913 154.138C601.138 156.347 598.136 158.046 594.907 159.235C591.679 160.425 588.479 161.02 585.307 161.02C576.754 161.02 569.447 158.584 563.387 153.713C557.326 148.785 554.296 142.271 554.296 134.172C554.296 129.527 554.947 125.421 556.25 121.853C557.609 118.284 559.337 115.452 561.433 113.356C563.528 111.204 565.992 109.477 568.824 108.174C571.713 106.814 574.488 105.908 577.15 105.455C579.869 104.945 582.645 104.69 585.477 104.69ZM644.354 160.34C641.522 160.113 637.926 160 633.564 160C629.203 160 625.21 160.113 621.585 160.34V158.98C623.001 158.98 624.502 158.839 626.088 158.556C627.674 158.216 628.495 157.706 628.552 157.026C628.665 155.667 628.807 151.051 628.977 143.178C629.146 135.248 629.231 128.31 629.231 122.362C629.231 115.282 629.146 111.261 628.977 110.298C628.863 109.675 627.787 109.137 625.748 108.684L622.689 108.089V106.56C628.58 106.786 635.235 106.899 642.655 106.899C650.132 106.899 656.192 106.786 660.837 106.56L661.092 118.879H659.478C659.194 117.463 658.77 116.104 658.203 114.801C657.637 113.441 656.674 112.11 655.314 110.808C653.955 109.448 652.397 108.769 650.642 108.769H637.303V131.878H649.027C651.633 131.878 653.049 129.641 653.275 125.166H655.229V140.459H653.615C653.332 136.041 651.718 133.832 648.772 133.832H637.303V154.478C637.303 157.026 638.294 158.442 640.276 158.726C640.729 158.782 641.353 158.811 642.146 158.811L644.354 158.726C644.354 158.726 644.354 158.867 644.354 159.15C644.354 159.434 644.354 159.66 644.354 159.83C644.354 160.057 644.354 160.227 644.354 160.34ZM692.188 160.34C689.355 160.113 685.759 160 681.397 160C677.036 160 673.043 160.113 669.418 160.34V158.98C670.834 158.98 672.335 158.839 673.921 158.556C675.507 158.216 676.328 157.706 676.385 157.026C676.498 155.667 676.64 151.051 676.81 143.178C676.979 135.248 677.064 128.31 677.064 122.362C677.064 115.282 676.979 111.261 676.81 110.298C676.696 109.675 675.62 109.137 673.581 108.684L670.522 108.089V106.56C676.413 106.786 683.068 106.899 690.488 106.899C697.965 106.899 704.025 106.786 708.67 106.56L708.925 118.879H707.311C707.027 117.463 706.603 116.104 706.036 114.801C705.47 113.441 704.507 112.11 703.147 110.808C701.788 109.448 700.23 108.769 698.475 108.769H685.136V131.878H696.86C699.466 131.878 700.882 129.641 701.108 125.166H703.062V140.459H701.448C701.165 136.041 699.551 133.832 696.605 133.832H685.136V154.478C685.136 157.026 686.127 158.442 688.109 158.726C688.562 158.782 689.186 158.811 689.979 158.811L692.188 158.726C692.188 158.726 692.188 158.867 692.188 159.15C692.188 159.434 692.188 159.66 692.188 159.83C692.188 160.057 692.188 160.227 692.188 160.34ZM756.673 160H717.251V158.641C717.251 158.697 718.044 158.726 719.63 158.726C722.405 158.726 723.935 158.046 724.218 156.687C724.728 153.628 724.982 142.696 724.982 123.892C724.982 115.622 724.869 111.091 724.643 110.298C724.529 109.675 723.453 109.137 721.414 108.684L718.355 108.089V106.56C724.359 106.729 731.043 106.814 738.406 106.814C745.826 106.814 751.858 106.729 756.503 106.56L756.758 118.879H755.144C754.86 117.463 754.436 116.104 753.869 114.801C753.303 113.441 752.34 112.11 750.98 110.808C749.621 109.448 748.063 108.769 746.308 108.769H732.969V131.878H745.543C748.148 131.878 749.564 129.641 749.791 125.166H751.83V140.459H750.131C749.848 136.041 748.233 133.832 745.288 133.832H732.969V154.138C732.969 156.856 733.96 158.244 735.942 158.301H748.771C750.244 158.244 751.66 156.998 753.02 154.562C754.436 152.07 755.285 149.578 755.568 147.086H757.438L756.673 160ZM806.205 160H766.783V158.641C766.783 158.697 767.576 158.726 769.162 158.726C771.938 158.726 773.467 158.046 773.75 156.687C774.26 153.628 774.515 142.696 774.515 123.892C774.515 115.622 774.401 111.091 774.175 110.298C774.062 109.675 772.985 109.137 770.946 108.684L767.888 108.089V106.56C773.892 106.729 780.575 106.814 787.938 106.814C795.358 106.814 801.391 106.729 806.035 106.56L806.29 118.879H804.676C804.393 117.463 803.968 116.104 803.401 114.801C802.835 113.441 801.872 112.11 800.513 110.808C799.153 109.448 797.596 108.769 795.84 108.769H782.501V131.878H795.075C797.681 131.878 799.097 129.641 799.323 125.166H801.362V140.459H799.663C799.38 136.041 797.766 133.832 794.82 133.832H782.501V154.138C782.501 156.856 783.492 158.244 785.475 158.301H798.304C799.776 158.244 801.192 156.998 802.552 154.562C803.968 152.07 804.817 149.578 805.101 147.086H806.97L806.205 160Z" fill="#EBD8D0" fill-opacity="0.33"/>
<path d="M552.585 309H513.163V307.641C513.163 307.697 513.956 307.726 515.542 307.726C518.317 307.726 519.847 307.046 520.13 305.687C520.64 302.628 520.895 291.696 520.895 272.892C520.895 264.622 520.781 260.091 520.555 259.298C520.441 258.675 519.365 258.137 517.326 257.684L514.268 257.089V255.56C520.271 255.729 526.955 255.814 534.318 255.814C541.738 255.814 547.771 255.729 552.415 255.56L552.67 267.879H551.056C550.772 266.463 550.348 265.104 549.781 263.801C549.215 262.441 548.252 261.11 546.893 259.808C545.533 258.448 543.976 257.769 542.22 257.769H528.881V280.878H541.455C544.061 280.878 545.477 278.641 545.703 274.166H547.742V289.459H546.043C545.76 285.041 544.146 282.832 541.2 282.832H528.881V303.138C528.881 305.856 529.872 307.244 531.854 307.301H544.684C546.156 307.244 547.572 305.998 548.932 303.562C550.348 301.07 551.197 298.578 551.48 296.086H553.35L552.585 309ZM584.105 253.521C588.467 253.521 592.177 255.135 595.235 258.363C596.651 258.193 597.784 257.004 598.634 254.795H599.823L599.568 271.277C599.568 271.277 599.03 271.277 597.954 271.277C597.784 269.295 597.558 267.426 597.274 265.67C596.991 263.857 596.368 262.3 595.405 260.997C592.743 257.089 588.92 255.135 583.936 255.135C581.273 255.135 579.008 256.183 577.139 258.278C575.27 260.317 574.335 262.441 574.335 264.65C574.335 267.029 575.468 269.267 577.733 271.362C579.999 273.458 583.001 275.186 586.739 276.545C591.894 278.471 596.028 280.935 599.144 283.937C602.315 286.938 603.901 290.309 603.901 294.047C603.901 298.861 602.315 302.77 599.144 305.771C595.972 308.773 590.704 310.274 583.341 310.274C581.755 310.274 580.226 310.104 578.753 309.765C577.28 309.425 576.062 309 575.1 308.49C574.193 307.98 573.287 307.471 572.381 306.961C571.531 306.395 570.908 305.941 570.512 305.602C569.379 306.111 568.331 307.272 567.368 309.085H565.584L565.754 293.622H567.453C568.416 298.267 570.059 301.863 572.381 304.412C574.76 306.961 578.3 308.235 583.001 308.235C590.931 308.235 594.896 304.412 594.896 296.766C594.896 291.781 590.704 287.816 582.321 284.871C577.79 283.285 574.222 281.048 571.616 278.159C569.011 275.214 567.708 272.099 567.708 268.813C567.651 258.618 573.117 253.521 584.105 253.521ZM653.773 271.022C653.773 275.271 652.159 278.641 648.931 281.133C645.702 283.625 641.284 284.871 635.677 284.871C633.694 284.871 632.137 284.729 631.004 284.446L629.305 283.937L629.22 305.007C629.22 306.026 629.814 306.791 631.004 307.301C632.193 307.811 633.638 308.065 635.337 308.065C635.79 308.065 636.271 308.037 636.781 307.98V309.255C636.781 309.142 629.021 309.085 613.502 309.085V307.726C613.502 307.726 613.644 307.726 613.927 307.726C618.175 307.726 620.355 307.074 620.469 305.771C620.639 304.072 620.724 296.681 620.724 283.597C620.724 270.456 620.639 262.356 620.469 259.298C620.412 258.562 619.449 258.023 617.58 257.684L614.691 257.089V255.56C618.033 255.56 622.338 255.588 627.605 255.645C632.873 255.701 636.215 255.729 637.631 255.729C641.482 255.729 645.136 257.117 648.591 259.893C652.046 262.668 653.773 266.378 653.773 271.022ZM645.192 271.022C645.192 269.267 645.107 267.794 644.938 266.604C644.824 265.358 644.513 264.084 644.003 262.781C643.55 261.479 642.757 260.431 641.624 259.638C640.548 258.788 639.16 258.222 637.461 257.938C636.498 257.769 635.309 257.684 633.893 257.684C633.383 257.684 632.618 257.712 631.599 257.769C630.579 257.769 629.814 257.769 629.305 257.769V282.662C629.305 282.945 631.202 283.087 634.997 283.087C638.282 283.087 640.774 281.897 642.474 279.519C644.229 277.083 645.136 274.251 645.192 271.022ZM709.678 309.17L694.3 308.915C694.3 308.688 694.3 308.462 694.3 308.235C694.3 306.14 693.535 302.231 692.006 296.511C689.4 286.995 685.945 282.209 681.641 282.152L675.948 282.067L676.033 303.138C676.033 303.987 676.09 304.695 676.203 305.262C676.316 305.771 676.6 306.253 677.053 306.706C677.506 307.159 678.157 307.386 679.007 307.386C681.499 307.442 682.745 307.499 682.745 307.556L682.66 309.17C679.488 308.943 675.269 308.83 670.001 308.83C665.81 308.83 662.581 308.915 660.315 309.085V307.641C664.733 307.641 667.056 306.989 667.282 305.687C667.509 304.78 667.622 303.789 667.622 302.713C667.849 296.992 667.962 289.771 667.962 281.048C667.962 268.077 667.849 260.912 667.622 259.553C667.509 258.93 666.461 258.392 664.479 257.938L661.42 257.259V255.729C664.762 255.843 668.727 255.899 673.314 255.899C675.184 255.899 677.534 255.899 680.366 255.899C683.198 255.843 685.011 255.814 685.804 255.814C687.956 255.814 690.108 256.324 692.261 257.344C694.413 258.307 696.254 259.836 697.783 261.932C699.369 264.027 700.162 266.406 700.162 269.068C700.162 271.957 698.774 274.591 695.999 276.97C693.224 279.292 689.938 280.51 686.144 280.623C687.899 280.793 689.514 281.303 690.986 282.152C692.459 282.945 693.648 283.795 694.555 284.701C695.461 285.607 696.367 286.91 697.273 288.609C698.236 290.309 698.888 291.668 699.228 292.688C699.624 293.707 700.19 295.208 700.927 297.19C702.683 301.835 703.815 304.497 704.325 305.177C705.571 306.933 707.355 307.867 709.678 307.98V309.17ZM685.379 258.023C684.133 257.74 682.575 257.599 680.706 257.599C679.007 257.599 677.449 257.684 676.033 257.854V280.028C679.885 280.085 681.839 280.113 681.896 280.113C685.067 280.113 687.475 279.009 689.117 276.8C690.816 274.591 691.666 271.957 691.666 268.898C691.666 266.293 691.1 263.942 689.967 261.847C688.834 259.751 687.305 258.477 685.379 258.023ZM753.772 309H714.351V307.641C714.351 307.697 715.144 307.726 716.729 307.726C719.505 307.726 721.034 307.046 721.317 305.687C721.827 302.628 722.082 291.696 722.082 272.892C722.082 264.622 721.969 260.091 721.742 259.298C721.629 258.675 720.553 258.137 718.514 257.684L715.455 257.089V255.56C721.459 255.729 728.143 255.814 735.506 255.814C742.926 255.814 748.958 255.729 753.603 255.56L753.857 267.879H752.243C751.96 266.463 751.535 265.104 750.969 263.801C750.402 262.441 749.439 261.11 748.08 259.808C746.721 258.448 745.163 257.769 743.407 257.769H730.068V280.878H742.643C745.248 280.878 746.664 278.641 746.891 274.166H748.93V289.459H747.23C746.947 285.041 745.333 282.832 742.388 282.832H730.068V303.138C730.068 305.856 731.06 307.244 733.042 307.301H745.871C747.344 307.244 748.76 305.998 750.119 303.562C751.535 301.07 752.385 298.578 752.668 296.086H754.537L753.772 309ZM785.293 253.521C789.654 253.521 793.364 255.135 796.423 258.363C797.839 258.193 798.972 257.004 799.821 254.795H801.011L800.756 271.277C800.756 271.277 800.218 271.277 799.142 271.277C798.972 269.295 798.745 267.426 798.462 265.67C798.179 263.857 797.556 262.3 796.593 260.997C793.931 257.089 790.107 255.135 785.123 255.135C782.461 255.135 780.195 256.183 778.326 258.278C776.457 260.317 775.522 262.441 775.522 264.65C775.522 267.029 776.655 269.267 778.921 271.362C781.187 273.458 784.188 275.186 787.927 276.545C793.081 278.471 797.216 280.935 800.331 283.937C803.503 286.938 805.089 290.309 805.089 294.047C805.089 298.861 803.503 302.77 800.331 305.771C797.159 308.773 791.892 310.274 784.528 310.274C782.942 310.274 781.413 310.104 779.94 309.765C778.468 309.425 777.25 309 776.287 308.49C775.381 307.98 774.475 307.471 773.568 306.961C772.719 306.395 772.096 305.941 771.699 305.602C770.566 306.111 769.519 307.272 768.556 309.085H766.771L766.941 293.622H768.641C769.604 298.267 771.246 301.863 773.568 304.412C775.947 306.961 779.487 308.235 784.188 308.235C792.118 308.235 796.083 304.412 796.083 296.766C796.083 291.781 791.892 287.816 783.509 284.871C778.978 283.285 775.409 281.048 772.804 278.159C770.198 275.214 768.896 272.099 768.896 268.813C768.839 258.618 774.305 253.521 785.293 253.521ZM835.165 253.521C839.526 253.521 843.236 255.135 846.295 258.363C847.711 258.193 848.844 257.004 849.693 254.795H850.883L850.628 271.277C850.628 271.277 850.09 271.277 849.014 271.277C848.844 269.295 848.617 267.426 848.334 265.67C848.051 263.857 847.428 262.3 846.465 260.997C843.803 257.089 839.979 255.135 834.995 255.135C832.333 255.135 830.067 256.183 828.198 258.278C826.329 260.317 825.395 262.441 825.395 264.65C825.395 267.029 826.527 269.267 828.793 271.362C831.059 273.458 834.061 275.186 837.799 276.545C842.953 278.471 847.088 280.935 850.203 283.937C853.375 286.938 854.961 290.309 854.961 294.047C854.961 298.861 853.375 302.77 850.203 305.771C847.031 308.773 841.764 310.274 834.4 310.274C832.814 310.274 831.285 310.104 829.812 309.765C828.34 309.425 827.122 309 826.159 308.49C825.253 307.98 824.347 307.471 823.44 306.961C822.591 306.395 821.968 305.941 821.571 305.602C820.438 306.111 819.391 307.272 818.428 309.085H816.644L816.813 293.622H818.513C819.476 298.267 821.118 301.863 823.44 304.412C825.819 306.961 829.359 308.235 834.061 308.235C841.99 308.235 845.955 304.412 845.955 296.766C845.955 291.781 841.764 287.816 833.381 284.871C828.85 283.285 825.281 281.048 822.676 278.159C820.07 275.214 818.768 272.099 818.768 268.813C818.711 258.618 824.177 253.521 835.165 253.521ZM894.808 308.32C900.132 308.32 904.465 305.913 907.807 301.099C911.205 296.228 912.904 290.025 912.904 282.492C912.904 273.543 911.262 266.746 907.977 262.102C904.691 257.457 900.075 255.135 894.128 255.135C891.296 255.135 888.747 255.531 886.481 256.324C884.272 257.117 882.148 258.448 880.109 260.317C878.07 262.187 876.484 265.019 875.352 268.813C874.275 272.552 873.737 277.14 873.737 282.577C873.737 284.616 873.907 286.712 874.247 288.864C874.644 290.96 875.352 293.197 876.371 295.576C877.391 297.955 878.637 300.079 880.109 301.948C881.639 303.761 883.678 305.29 886.227 306.536C888.775 307.726 891.636 308.32 894.808 308.32ZM894.808 253.69C896.847 253.69 898.971 253.917 901.18 254.37C903.389 254.823 905.824 255.729 908.486 257.089C911.148 258.392 913.471 260.062 915.453 262.102C917.492 264.141 919.191 266.944 920.551 270.513C921.91 274.024 922.59 278.018 922.59 282.492C922.59 286.854 921.712 290.818 919.956 294.387C918.257 297.955 916.02 300.872 913.244 303.138C910.469 305.347 907.467 307.046 904.238 308.235C901.01 309.425 897.81 310.02 894.638 310.02C886.085 310.02 878.778 307.584 872.718 302.713C866.657 297.785 863.627 291.271 863.627 283.172C863.627 278.527 864.278 274.421 865.581 270.853C866.94 267.284 868.668 264.452 870.764 262.356C872.859 260.204 875.323 258.477 878.155 257.174C881.044 255.814 883.819 254.908 886.481 254.455C889.2 253.945 891.976 253.69 894.808 253.69Z" fill="#EBD8D0" fill-opacity="0.33"/>
<path d="M379.448 437.551H362.371L354.3 456.497C354.13 456.78 354.045 457.063 354.045 457.347C354.045 458.14 354.668 458.791 355.914 459.301C357.16 459.754 358.406 459.98 359.652 459.98L359.737 461.34L343 461.425V459.726C343.057 459.726 343.113 459.726 343.17 459.726C344.246 459.726 345.407 459.499 346.653 459.046C347.899 458.536 348.891 457.856 349.627 457.007C350.59 455.874 354.583 447.293 361.606 431.264L372.142 407.305H374.945L393.552 451.399C395.138 455.194 396.865 457.545 398.734 458.451C399.244 458.678 399.782 458.848 400.349 458.961C400.915 459.018 401.453 459.046 401.963 459.046C402.473 459.046 402.841 459.074 403.067 459.131L402.897 461.255C399.103 461.085 394.826 461 390.068 461C385.764 461 382.28 461.085 379.618 461.255L379.703 459.641C379.703 459.697 380.213 459.726 381.232 459.726C383.271 459.726 384.688 459.244 385.48 458.281C385.877 457.828 386.075 457.205 386.075 456.412C386.075 455.676 385.905 454.854 385.565 453.948L385.141 452.674L379.448 437.551ZM363.391 435.512H378.769L371.207 417.16L363.391 435.512ZM420.654 407.729C434.645 434.69 442.008 449.021 442.744 450.72L461.521 408.069L476.134 407.475V409.174C475.397 409.23 474.491 409.344 473.415 409.514C472.396 409.684 471.234 410.023 469.932 410.533C468.686 410.986 468.062 411.553 468.062 412.232V455.987L468.742 457.177C469.195 457.97 469.818 458.593 470.611 459.046C471.461 459.499 472.565 459.754 473.925 459.811L475.964 459.641V461.17C472.735 461.057 468.912 461 464.494 461C459.566 461 455.8 461.085 453.194 461.255V459.896C453.308 459.896 453.987 459.839 455.233 459.726C456.479 459.612 457.414 459.386 458.037 459.046C459.566 458.366 460.331 457.46 460.331 456.327V417.84L440.365 462.189H439.006L416.661 418.35C416.661 418.35 416.661 425.798 416.661 440.694C416.661 447.095 416.661 451.881 416.661 455.053C416.661 456.072 416.718 456.78 416.831 457.177C416.944 457.517 417.199 457.828 417.596 458.111C418.049 458.338 418.417 458.593 418.7 458.876C419.946 459.329 421.476 459.584 423.288 459.641C423.345 459.641 423.43 459.641 423.543 459.641C423.656 459.641 423.741 459.641 423.798 459.641V461.17C421.022 461 418.021 460.915 414.792 460.915C411.224 460.915 408.08 461.028 405.361 461.255V459.896L408.76 459.471C411.025 459.131 412.498 458.649 413.178 458.026C413.574 457.687 413.886 457.233 414.112 456.667L414.367 455.817C414.48 455.817 414.537 442.535 414.537 415.971C414.254 414.271 413.064 412.827 410.969 411.638C408.873 410.448 406.777 409.769 404.682 409.599V408.069L420.654 407.729ZM521.418 461H481.996V459.641C481.996 459.697 482.789 459.726 484.375 459.726C487.15 459.726 488.68 459.046 488.963 457.687C489.473 454.628 489.728 443.696 489.728 424.892C489.728 416.622 489.614 412.091 489.388 411.298C489.274 410.675 488.198 410.137 486.159 409.684L483.101 409.089V407.56C489.104 407.729 495.788 407.814 503.151 407.814C510.571 407.814 516.604 407.729 521.248 407.56L521.503 419.879H519.889C519.605 418.463 519.181 417.104 518.614 415.801C518.048 414.441 517.085 413.11 515.726 411.808C514.366 410.448 512.809 409.769 511.053 409.769H497.714V432.878H510.288C512.894 432.878 514.31 430.641 514.536 426.166H516.575V441.459H514.876C514.593 437.041 512.979 434.832 510.033 434.832H497.714V455.138C497.714 457.856 498.705 459.244 500.688 459.301H513.517C514.989 459.244 516.405 457.998 517.765 455.562C519.181 453.07 520.03 450.578 520.313 448.086H522.183L521.418 461ZM580.891 461.17L565.513 460.915C565.513 460.688 565.513 460.462 565.513 460.235C565.513 458.14 564.748 454.231 563.219 448.511C560.613 438.995 557.158 434.209 552.854 434.152L547.161 434.067L547.246 455.138C547.246 455.987 547.303 456.695 547.416 457.262C547.529 457.771 547.812 458.253 548.266 458.706C548.719 459.159 549.37 459.386 550.22 459.386C552.712 459.442 553.958 459.499 553.958 459.556L553.873 461.17C550.701 460.943 546.481 460.83 541.214 460.83C537.022 460.83 533.794 460.915 531.528 461.085V459.641C535.946 459.641 538.269 458.989 538.495 457.687C538.722 456.78 538.835 455.789 538.835 454.713C539.062 448.992 539.175 441.771 539.175 433.048C539.175 420.077 539.062 412.912 538.835 411.553C538.722 410.93 537.674 410.392 535.691 409.938L532.633 409.259V407.729C535.975 407.843 539.939 407.899 544.527 407.899C546.396 407.899 548.747 407.899 551.579 407.899C554.411 407.843 556.224 407.814 557.017 407.814C559.169 407.814 561.321 408.324 563.474 409.344C565.626 410.307 567.467 411.836 568.996 413.932C570.582 416.027 571.375 418.406 571.375 421.068C571.375 423.957 569.987 426.591 567.212 428.97C564.437 431.292 561.151 432.51 557.356 432.623C559.112 432.793 560.727 433.303 562.199 434.152C563.672 434.945 564.861 435.795 565.768 436.701C566.674 437.607 567.58 438.91 568.486 440.609C569.449 442.309 570.101 443.668 570.44 444.688C570.837 445.707 571.403 447.208 572.14 449.19C573.896 453.835 575.028 456.497 575.538 457.177C576.784 458.933 578.568 459.867 580.891 459.98V461.17ZM556.592 410.023C555.346 409.74 553.788 409.599 551.919 409.599C550.22 409.599 548.662 409.684 547.246 409.854V432.028C551.098 432.085 553.052 432.113 553.108 432.113C556.28 432.113 558.688 431.009 560.33 428.8C562.029 426.591 562.879 423.957 562.879 420.898C562.879 418.293 562.312 415.942 561.18 413.847C560.047 411.751 558.518 410.477 556.592 410.023ZM602.216 411.468C602.216 411.524 602.188 413.11 602.131 416.226C602.131 419.341 602.103 423.249 602.046 427.95C602.046 432.595 602.046 436.843 602.046 440.694C602.046 448.397 602.103 453.892 602.216 457.177C602.272 458.819 604.425 459.641 608.673 459.641L608.758 461C606.945 460.943 604.708 460.915 602.046 460.915C595.929 460.915 590.718 461.028 586.413 461.255V459.896C586.413 459.896 586.526 459.896 586.753 459.896C590.944 459.896 593.153 459.244 593.38 457.941C593.663 456.242 593.805 440.694 593.805 411.298C593.805 410.675 592.785 410.137 590.746 409.684L587.603 409.089V407.814C590.265 408.041 593.691 408.154 597.883 408.154C602.244 408.154 605.643 408.041 608.078 407.814V409.514C604.17 409.797 602.216 410.448 602.216 411.468ZM646.905 406.54C650.19 406.54 653.306 407.05 656.251 408.069C659.253 409.089 661.207 410.137 662.113 411.213C662.793 410.76 663.303 410.278 663.643 409.769C664.039 409.259 664.266 408.806 664.322 408.409C664.436 408.013 664.577 407.191 664.747 405.945H667.466L667.211 423.532H665.512C664.775 418.944 662.793 415.376 659.564 412.827C656.393 410.222 651.946 408.919 646.226 408.919C640.675 408.919 636.483 411.213 633.651 415.801C630.819 420.389 629.347 426.591 629.233 434.407C629.233 451.683 635.294 460.32 647.415 460.32C650.19 460.32 652.626 459.952 654.722 459.216C656.817 458.423 658.602 457.262 660.074 455.732C661.604 454.203 662.793 452.674 663.643 451.145C664.549 449.615 665.512 447.689 666.531 445.367L668.485 446.896C664.067 457.545 656.987 462.897 647.245 462.954C638.636 462.954 631.612 460.519 626.175 455.647C620.737 450.72 618.019 443.838 618.019 435.002C618.019 430.754 618.67 426.931 619.973 423.532C621.275 420.134 622.946 417.415 624.985 415.376C627.024 413.337 629.347 411.609 631.952 410.193C634.614 408.777 637.163 407.814 639.599 407.305C642.091 406.795 644.526 406.54 646.905 406.54ZM708.927 437.551H691.85L683.778 456.497C683.608 456.78 683.523 457.063 683.523 457.347C683.523 458.14 684.146 458.791 685.393 459.301C686.639 459.754 687.885 459.98 689.131 459.98L689.216 461.34L672.479 461.425V459.726C672.535 459.726 672.592 459.726 672.648 459.726C673.725 459.726 674.886 459.499 676.132 459.046C677.378 458.536 678.369 457.856 679.105 457.007C680.068 455.874 684.062 447.293 691.085 431.264L701.62 407.305H704.424L723.03 451.399C724.616 455.194 726.344 457.545 728.213 458.451C728.723 458.678 729.261 458.848 729.827 458.961C730.394 459.018 730.932 459.046 731.441 459.046C731.951 459.046 732.319 459.074 732.546 459.131L732.376 461.255C728.581 461.085 724.305 461 719.547 461C715.242 461 711.759 461.085 709.097 461.255L709.182 459.641C709.182 459.697 709.691 459.726 710.711 459.726C712.75 459.726 714.166 459.244 714.959 458.281C715.355 457.828 715.554 457.205 715.554 456.412C715.554 455.676 715.384 454.854 715.044 453.948L714.619 452.674L708.927 437.551ZM692.869 435.512H708.247L700.686 417.16L692.869 435.512ZM789.13 409.684C788.337 409.74 787.431 409.854 786.411 410.023C785.448 410.137 784.4 410.392 783.268 410.788C782.135 411.185 781.568 411.694 781.568 412.317C781.455 414.187 781.37 419.397 781.313 427.95L781.568 461.935H778.595L762.367 439.76C751.605 424.977 745.913 417.273 745.29 416.65C745.233 421.465 745.205 425.401 745.205 428.46C745.205 432.312 745.262 435.993 745.375 439.505C745.545 443.017 745.63 447.378 745.63 452.589C745.63 453.608 745.63 454.741 745.63 455.987C745.63 458.31 746.621 459.471 748.604 459.471C751.832 459.471 753.475 459.527 753.531 459.641V461.17C750.756 461 747.612 460.915 744.101 460.915C740.192 460.915 736.879 461.028 734.16 461.255V459.896C734.16 459.896 734.33 459.896 734.67 459.896C739.314 459.896 741.778 459.244 742.062 457.941C742.345 441.062 742.486 431.179 742.486 428.29C742.486 423.929 742.43 418.888 742.316 413.167C742.203 412.544 740.872 411.694 738.323 410.618L734.5 409.089V407.56L750.218 407.645C753.56 412.289 759.054 419.596 766.7 429.564L778.34 444.518L778.425 412.317C778.368 411.524 777.66 410.901 776.301 410.448C774.941 409.938 773.327 409.684 771.458 409.684C771.062 409.684 770.637 409.684 770.184 409.684L770.014 407.729C772.393 408.013 775.338 408.154 778.85 408.154C782.078 408.154 785.505 408.041 789.13 407.814V409.684ZM826.173 460.32C831.497 460.32 835.83 457.913 839.172 453.099C842.57 448.228 844.27 442.025 844.27 434.492C844.27 425.543 842.627 418.746 839.342 414.102C836.057 409.457 831.44 407.135 825.493 407.135C822.661 407.135 820.112 407.531 817.847 408.324C815.638 409.117 813.514 410.448 811.475 412.317C809.436 414.187 807.85 417.019 806.717 420.813C805.641 424.552 805.103 429.14 805.103 434.577C805.103 436.616 805.272 438.712 805.612 440.864C806.009 442.96 806.717 445.197 807.736 447.576C808.756 449.955 810.002 452.079 811.475 453.948C813.004 455.761 815.043 457.29 817.592 458.536C820.141 459.726 823.001 460.32 826.173 460.32ZM826.173 405.69C828.212 405.69 830.336 405.917 832.545 406.37C834.754 406.823 837.189 407.729 839.852 409.089C842.514 410.392 844.836 412.062 846.818 414.102C848.857 416.141 850.557 418.944 851.916 422.513C853.275 426.024 853.955 430.018 853.955 434.492C853.955 438.854 853.077 442.818 851.321 446.387C849.622 449.955 847.385 452.872 844.609 455.138C841.834 457.347 838.832 459.046 835.604 460.235C832.375 461.425 829.175 462.02 826.003 462.02C817.45 462.02 810.144 459.584 804.083 454.713C798.022 449.785 794.992 443.271 794.992 435.172C794.992 430.527 795.644 426.421 796.946 422.853C798.306 419.284 800.033 416.452 802.129 414.356C804.225 412.204 806.688 410.477 809.521 409.174C812.409 407.814 815.185 406.908 817.847 406.455C820.565 405.945 823.341 405.69 826.173 405.69Z" fill="#EBD8D0" fill-opacity="0.33"/>
<path d="M120.56 741.54C123.845 741.54 126.96 742.05 129.905 743.069C132.907 744.089 134.861 745.137 135.768 746.213C136.447 745.76 136.957 745.278 137.297 744.769C137.693 744.259 137.92 743.806 137.977 743.409C138.09 743.013 138.231 742.191 138.401 740.945H141.12L140.865 758.532H139.166C138.43 753.944 136.447 750.376 133.219 747.827C130.047 745.222 125.601 743.919 119.88 743.919C114.329 743.919 110.138 746.213 107.306 750.801C104.474 755.389 103.001 761.591 102.888 769.407C102.888 786.683 108.948 795.32 121.069 795.32C123.845 795.32 126.28 794.952 128.376 794.216C130.472 793.423 132.256 792.262 133.729 790.732C135.258 789.203 136.447 787.674 137.297 786.145C138.203 784.615 139.166 782.689 140.186 780.367L142.14 781.896C137.722 792.545 130.642 797.897 120.899 797.954C112.29 797.954 105.267 795.519 99.8291 790.647C94.3916 785.72 91.6729 778.838 91.6729 770.002C91.6729 765.754 92.3242 761.931 93.627 758.532C94.9297 755.134 96.6006 752.415 98.6396 750.376C100.679 748.337 103.001 746.609 105.606 745.193C108.269 743.777 110.817 742.814 113.253 742.305C115.745 741.795 118.181 741.54 120.56 741.54ZM182.581 772.551H165.504L157.433 791.497C157.263 791.78 157.178 792.063 157.178 792.347C157.178 793.14 157.801 793.791 159.047 794.301C160.293 794.754 161.539 794.98 162.785 794.98L162.87 796.34L146.133 796.425V794.726C146.189 794.726 146.246 794.726 146.303 794.726C147.379 794.726 148.54 794.499 149.786 794.046C151.032 793.536 152.023 792.856 152.76 792.007C153.723 790.874 157.716 782.293 164.739 766.264L175.274 742.305H178.078L196.685 786.399C198.271 790.194 199.998 792.545 201.867 793.451C202.377 793.678 202.915 793.848 203.481 793.961C204.048 794.018 204.586 794.046 205.096 794.046C205.605 794.046 205.974 794.074 206.2 794.131L206.03 796.255C202.235 796.085 197.959 796 193.201 796C188.896 796 185.413 796.085 182.751 796.255L182.836 794.641C182.836 794.697 183.346 794.726 184.365 794.726C186.404 794.726 187.82 794.244 188.613 793.281C189.01 792.828 189.208 792.205 189.208 791.412C189.208 790.676 189.038 789.854 188.698 788.948L188.273 787.674L182.581 772.551ZM166.523 770.512H181.901L174.34 752.16L166.523 770.512ZM251.484 758.022C251.484 762.271 249.87 765.641 246.642 768.133C243.413 770.625 238.995 771.871 233.388 771.871C231.405 771.871 229.848 771.729 228.715 771.446L227.016 770.937L226.931 792.007C226.931 793.026 227.525 793.791 228.715 794.301C229.904 794.811 231.349 795.065 233.048 795.065C233.501 795.065 233.982 795.037 234.492 794.98V796.255C234.492 796.142 226.732 796.085 211.213 796.085V794.726C211.213 794.726 211.354 794.726 211.638 794.726C215.886 794.726 218.066 794.074 218.18 792.771C218.35 791.072 218.435 783.681 218.435 770.597C218.435 757.456 218.35 749.356 218.18 746.298C218.123 745.562 217.16 745.023 215.291 744.684L212.402 744.089V742.56C215.744 742.56 220.049 742.588 225.316 742.645C230.584 742.701 233.926 742.729 235.342 742.729C239.193 742.729 242.847 744.117 246.302 746.893C249.757 749.668 251.484 753.378 251.484 758.022ZM242.903 758.022C242.903 756.267 242.818 754.794 242.648 753.604C242.535 752.358 242.224 751.084 241.714 749.781C241.261 748.479 240.468 747.431 239.335 746.638C238.259 745.788 236.871 745.222 235.172 744.938C234.209 744.769 233.02 744.684 231.604 744.684C231.094 744.684 230.329 744.712 229.31 744.769C228.29 744.769 227.525 744.769 227.016 744.769V769.662C227.016 769.945 228.913 770.087 232.708 770.087C235.993 770.087 238.485 768.897 240.185 766.519C241.94 764.083 242.847 761.251 242.903 758.022ZM299.232 758.022C299.232 762.271 297.618 765.641 294.39 768.133C291.161 770.625 286.743 771.871 281.136 771.871C279.153 771.871 277.596 771.729 276.463 771.446L274.764 770.937L274.679 792.007C274.679 793.026 275.273 793.791 276.463 794.301C277.652 794.811 279.097 795.065 280.796 795.065C281.249 795.065 281.73 795.037 282.24 794.98V796.255C282.24 796.142 274.48 796.085 258.961 796.085V794.726C258.961 794.726 259.103 794.726 259.386 794.726C263.634 794.726 265.814 794.074 265.928 792.771C266.098 791.072 266.183 783.681 266.183 770.597C266.183 757.456 266.098 749.356 265.928 746.298C265.871 745.562 264.908 745.023 263.039 744.684L260.15 744.089V742.56C263.492 742.56 267.797 742.588 273.064 742.645C278.332 742.701 281.674 742.729 283.09 742.729C286.941 742.729 290.595 744.117 294.05 746.893C297.505 749.668 299.232 753.378 299.232 758.022ZM290.651 758.022C290.651 756.267 290.566 754.794 290.396 753.604C290.283 752.358 289.972 751.084 289.462 749.781C289.009 748.479 288.216 747.431 287.083 746.638C286.007 745.788 284.619 745.222 282.92 744.938C281.957 744.769 280.768 744.684 279.352 744.684C278.842 744.684 278.077 744.712 277.058 744.769C276.038 744.769 275.273 744.769 274.764 744.769V769.662C274.764 769.945 276.661 770.087 280.456 770.087C283.741 770.087 286.233 768.897 287.933 766.519C289.688 764.083 290.595 761.251 290.651 758.022ZM322.002 777.479C322.002 780.537 322.285 783.199 322.852 785.465C323.475 787.674 324.239 789.401 325.146 790.647C326.052 791.837 327.185 792.8 328.544 793.536C329.96 794.216 331.263 794.669 332.452 794.896C333.642 795.065 335.029 795.15 336.615 795.15C338.824 795.15 340.722 794.867 342.308 794.301C343.95 793.734 345.451 792.8 346.811 791.497C348.17 790.194 349.189 788.325 349.869 785.89C350.605 783.397 350.974 780.339 350.974 776.714C350.974 776.091 350.974 775.326 350.974 774.42C350.974 773.457 350.974 772.183 350.974 770.597C350.974 762.78 350.86 754.681 350.634 746.298C350.521 745.675 349.303 745.137 346.98 744.684L343.497 744.089V742.814C346.159 743.041 349.246 743.154 352.758 743.154C356.496 743.154 359.611 743.041 362.104 742.814V744.514C359.441 744.684 356.949 745.335 354.627 746.468C354.457 750.036 354.372 754.369 354.372 759.467L354.627 775.694C354.627 782.548 352.984 787.872 349.699 791.667C346.414 795.405 341.543 797.388 335.086 797.614C333.104 797.614 331.149 797.416 329.224 797.02C327.298 796.68 325.315 796.028 323.276 795.065C321.237 794.103 319.453 792.885 317.924 791.412C316.451 789.883 315.205 787.9 314.186 785.465C313.223 782.973 312.741 780.169 312.741 777.054C312.741 776.884 312.77 775.978 312.826 774.335C312.939 772.636 313.053 770.229 313.166 767.113C313.279 763.998 313.336 760.543 313.336 756.748C313.336 753.293 313.279 749.81 313.166 746.298C313.053 745.675 311.835 745.137 309.513 744.684L306.029 744.089V742.814C308.691 743.041 312.401 743.154 317.159 743.154C322.257 743.154 326.052 743.041 328.544 742.814V744.514C325.202 744.797 323.021 745.448 322.002 746.468C321.945 750.206 321.917 754.737 321.917 760.062L322.002 777.479ZM399.911 741.54C403.196 741.54 406.312 742.05 409.257 743.069C412.259 744.089 414.213 745.137 415.119 746.213C415.799 745.76 416.309 745.278 416.648 744.769C417.045 744.259 417.271 743.806 417.328 743.409C417.441 743.013 417.583 742.191 417.753 740.945H420.472L420.217 758.532H418.518C417.781 753.944 415.799 750.376 412.57 747.827C409.398 745.222 404.952 743.919 399.231 743.919C393.681 743.919 389.489 746.213 386.657 750.801C383.825 755.389 382.353 761.591 382.239 769.407C382.239 786.683 388.3 795.32 400.421 795.32C403.196 795.32 405.632 794.952 407.728 794.216C409.823 793.423 411.607 792.262 413.08 790.732C414.609 789.203 415.799 787.674 416.648 786.145C417.555 784.615 418.518 782.689 419.537 780.367L421.491 781.896C417.073 792.545 409.993 797.897 400.251 797.954C391.642 797.954 384.618 795.519 379.181 790.647C373.743 785.72 371.024 778.838 371.024 770.002C371.024 765.754 371.676 761.931 372.979 758.532C374.281 755.134 375.952 752.415 377.991 750.376C380.03 748.337 382.353 746.609 384.958 745.193C387.62 743.777 390.169 742.814 392.604 742.305C395.097 741.795 397.532 741.54 399.911 741.54ZM459.044 741.54C462.329 741.54 465.444 742.05 468.39 743.069C471.392 744.089 473.346 745.137 474.252 746.213C474.932 745.76 475.441 745.278 475.781 744.769C476.178 744.259 476.404 743.806 476.461 743.409C476.574 743.013 476.716 742.191 476.886 740.945H479.604L479.35 758.532H477.65C476.914 753.944 474.932 750.376 471.703 747.827C468.531 745.222 464.085 743.919 458.364 743.919C452.813 743.919 448.622 746.213 445.79 750.801C442.958 755.389 441.485 761.591 441.372 769.407C441.372 786.683 447.433 795.32 459.554 795.32C462.329 795.32 464.765 794.952 466.86 794.216C468.956 793.423 470.74 792.262 472.213 790.732C473.742 789.203 474.932 787.674 475.781 786.145C476.688 784.615 477.65 782.689 478.67 780.367L480.624 781.896C476.206 792.545 469.126 797.897 459.384 797.954C450.774 797.954 443.751 795.519 438.313 790.647C432.876 785.72 430.157 778.838 430.157 770.002C430.157 765.754 430.809 761.931 432.111 758.532C433.414 755.134 435.085 752.415 437.124 750.376C439.163 748.337 441.485 746.609 444.091 745.193C446.753 743.777 449.302 742.814 451.737 742.305C454.229 741.795 456.665 741.54 459.044 741.54ZM505.433 746.468C505.433 746.524 505.404 748.11 505.348 751.226C505.348 754.341 505.319 758.249 505.263 762.95C505.263 767.595 505.263 771.843 505.263 775.694C505.263 783.397 505.319 788.892 505.433 792.177C505.489 793.819 507.642 794.641 511.89 794.641L511.975 796C510.162 795.943 507.925 795.915 505.263 795.915C499.146 795.915 493.935 796.028 489.63 796.255V794.896C489.63 794.896 489.743 794.896 489.97 794.896C494.161 794.896 496.37 794.244 496.597 792.941C496.88 791.242 497.021 775.694 497.021 746.298C497.021 745.675 496.002 745.137 493.963 744.684L490.819 744.089V742.814C493.481 743.041 496.908 743.154 501.1 743.154C505.461 743.154 508.859 743.041 511.295 742.814V744.514C507.387 744.797 505.433 745.448 505.433 746.468ZM573.231 744.684C572.438 744.74 571.532 744.854 570.513 745.023C569.55 745.137 568.502 745.392 567.369 745.788C566.236 746.185 565.67 746.694 565.67 747.317C565.557 749.187 565.472 754.397 565.415 762.95L565.67 796.935H562.696L546.469 774.76C535.707 759.977 530.015 752.273 529.392 751.65C529.335 756.465 529.307 760.401 529.307 763.46C529.307 767.312 529.363 770.993 529.477 774.505C529.646 778.017 529.731 782.378 529.731 787.589C529.731 788.608 529.731 789.741 529.731 790.987C529.731 793.31 530.723 794.471 532.705 794.471C535.934 794.471 537.576 794.527 537.633 794.641V796.17C534.857 796 531.714 795.915 528.202 795.915C524.294 795.915 520.98 796.028 518.262 796.255V794.896C518.262 794.896 518.432 794.896 518.771 794.896C523.416 794.896 525.88 794.244 526.163 792.941C526.446 776.062 526.588 766.179 526.588 763.29C526.588 758.929 526.531 753.888 526.418 748.167C526.305 747.544 524.974 746.694 522.425 745.618L518.602 744.089V742.56L534.319 742.645C537.661 747.289 543.155 754.596 550.802 764.564L562.441 779.518L562.526 747.317C562.47 746.524 561.762 745.901 560.402 745.448C559.043 744.938 557.429 744.684 555.56 744.684C555.163 744.684 554.738 744.684 554.285 744.684L554.115 742.729C556.494 743.013 559.439 743.154 562.951 743.154C566.18 743.154 569.606 743.041 573.231 742.814V744.684ZM610.274 795.32C615.599 795.32 619.932 792.913 623.273 788.099C626.672 783.228 628.371 777.025 628.371 769.492C628.371 760.543 626.729 753.746 623.443 749.102C620.158 744.457 615.542 742.135 609.595 742.135C606.763 742.135 604.214 742.531 601.948 743.324C599.739 744.117 597.615 745.448 595.576 747.317C593.537 749.187 591.951 752.019 590.818 755.813C589.742 759.552 589.204 764.14 589.204 769.577C589.204 771.616 589.374 773.712 589.714 775.864C590.11 777.96 590.818 780.197 591.838 782.576C592.857 784.955 594.104 787.079 595.576 788.948C597.105 790.761 599.145 792.29 601.693 793.536C604.242 794.726 607.103 795.32 610.274 795.32ZM610.274 740.69C612.313 740.69 614.438 740.917 616.646 741.37C618.855 741.823 621.291 742.729 623.953 744.089C626.615 745.392 628.938 747.062 630.92 749.102C632.959 751.141 634.658 753.944 636.018 757.513C637.377 761.024 638.057 765.018 638.057 769.492C638.057 773.854 637.179 777.818 635.423 781.387C633.724 784.955 631.486 787.872 628.711 790.138C625.936 792.347 622.934 794.046 619.705 795.235C616.477 796.425 613.276 797.02 610.104 797.02C601.552 797.02 594.245 794.584 588.185 789.713C582.124 784.785 579.094 778.271 579.094 770.172C579.094 765.527 579.745 761.421 581.048 757.853C582.407 754.284 584.135 751.452 586.23 749.356C588.326 747.204 590.79 745.477 593.622 744.174C596.511 742.814 599.286 741.908 601.948 741.455C604.667 740.945 607.442 740.69 610.274 740.69Z" fill="#EBD8D0" fill-opacity="0.33"/>
<path d="M465.56 563.54C468.845 563.54 471.96 564.05 474.905 565.069C477.907 566.089 479.861 567.137 480.768 568.213C481.447 567.76 481.957 567.278 482.297 566.769C482.693 566.259 482.92 565.806 482.977 565.409C483.09 565.013 483.231 564.191 483.401 562.945H486.12L485.865 580.532H484.166C483.43 575.944 481.447 572.376 478.219 569.827C475.047 567.222 470.601 565.919 464.88 565.919C459.329 565.919 455.138 568.213 452.306 572.801C449.474 577.389 448.001 583.591 447.888 591.407C447.888 608.683 453.948 617.32 466.069 617.32C468.845 617.32 471.28 616.952 473.376 616.216C475.472 615.423 477.256 614.262 478.729 612.732C480.258 611.203 481.447 609.674 482.297 608.145C483.203 606.615 484.166 604.689 485.186 602.367L487.14 603.896C482.722 614.545 475.642 619.897 465.899 619.954C457.29 619.954 450.267 617.519 444.829 612.647C439.392 607.72 436.673 600.838 436.673 592.002C436.673 587.754 437.324 583.931 438.627 580.532C439.93 577.134 441.601 574.415 443.64 572.376C445.679 570.337 448.001 568.609 450.606 567.193C453.269 565.777 455.817 564.814 458.253 564.305C460.745 563.795 463.181 563.54 465.56 563.54ZM526.477 617.32C531.801 617.32 536.134 614.913 539.476 610.099C542.874 605.228 544.573 599.025 544.573 591.492C544.573 582.543 542.931 575.746 539.646 571.102C536.36 566.457 531.744 564.135 525.797 564.135C522.965 564.135 520.416 564.531 518.15 565.324C515.941 566.117 513.817 567.448 511.778 569.317C509.739 571.187 508.153 574.019 507.021 577.813C505.944 581.552 505.406 586.14 505.406 591.577C505.406 593.616 505.576 595.712 505.916 597.864C506.312 599.96 507.021 602.197 508.04 604.576C509.06 606.955 510.306 609.079 511.778 610.948C513.308 612.761 515.347 614.29 517.896 615.536C520.444 616.726 523.305 617.32 526.477 617.32ZM526.477 562.69C528.516 562.69 530.64 562.917 532.849 563.37C535.058 563.823 537.493 564.729 540.155 566.089C542.817 567.392 545.14 569.062 547.122 571.102C549.161 573.141 550.86 575.944 552.22 579.513C553.579 583.024 554.259 587.018 554.259 591.492C554.259 595.854 553.381 599.818 551.625 603.387C549.926 606.955 547.688 609.872 544.913 612.138C542.138 614.347 539.136 616.046 535.907 617.235C532.679 618.425 529.479 619.02 526.307 619.02C517.754 619.02 510.447 616.584 504.387 611.713C498.326 606.785 495.296 600.271 495.296 592.172C495.296 587.527 495.947 583.421 497.25 579.853C498.609 576.284 500.337 573.452 502.433 571.356C504.528 569.204 506.992 567.477 509.824 566.174C512.713 564.814 515.488 563.908 518.15 563.455C520.869 562.945 523.645 562.69 526.477 562.69ZM579.237 612.223C579.237 614.771 580.257 616.046 582.296 616.046C582.296 616.046 585.949 616.074 593.256 616.131C595.238 616.131 596.966 615.026 598.438 612.817C599.968 610.608 600.902 608.031 601.242 605.086H603.111L601.752 618.255H562.585V616.896L564.539 616.811C565.898 616.697 567.229 616.442 568.532 616.046C569.835 615.649 570.515 615.14 570.571 614.517C570.854 611.458 570.996 601.688 570.996 585.205C570.996 575.859 570.939 570.224 570.826 568.298C570.77 567.562 569.58 567.023 567.258 566.684L563.689 566.089V564.56L585.524 564.475V565.834C581.56 566.061 579.521 566.882 579.407 568.298C579.237 581.835 579.152 589.991 579.152 592.767C579.152 594.183 579.152 596.901 579.152 600.923C579.209 604.944 579.237 608.711 579.237 612.223ZM662.244 592.852C662.244 595.91 661.678 598.912 660.545 601.857C659.469 604.746 657.854 607.465 655.702 610.014C653.55 612.506 650.661 614.517 647.036 616.046C643.411 617.519 639.276 618.255 634.632 618.255C634.235 618.255 633.074 618.227 631.148 618.17C629.279 618.17 626.674 618.142 623.332 618.085C619.99 618.085 616.365 618.085 612.457 618.085V616.726C617.045 616.329 619.537 615.026 619.934 612.817V569.997C619.877 569.261 619.679 568.638 619.339 568.128C618.999 567.562 618.404 567.165 617.555 566.938C616.762 566.655 616.167 566.485 615.771 566.429C615.431 566.315 614.694 566.202 613.562 566.089V564.56C616.903 564.56 621.265 564.531 626.646 564.475C632.026 564.418 635.425 564.39 636.841 564.39C639.616 564.39 642.392 564.899 645.167 565.919C647.942 566.882 650.661 568.411 653.323 570.507C655.985 572.546 658.138 575.52 659.78 579.428C661.423 583.279 662.244 587.754 662.244 592.852ZM652.983 593.361C652.983 593.191 652.983 593.021 652.983 592.852C652.983 588.377 652.7 584.639 652.134 581.637C651.624 578.635 650.661 575.973 649.245 573.65C647.829 571.271 645.818 569.544 643.213 568.468C640.664 567.335 637.436 566.769 633.527 566.769C631.828 566.769 630.044 566.854 628.175 567.023C628.175 568.496 628.175 571.045 628.175 574.67C628.175 577.785 628.175 583.109 628.175 590.643C628.175 598.176 628.175 603.273 628.175 605.936C628.175 609.221 628.175 611.316 628.175 612.223C628.175 613.299 628.6 614.29 629.449 615.196C630.355 616.046 631.488 616.471 632.848 616.471C636.982 616.471 640.353 616.046 642.958 615.196C645.62 614.347 647.659 612.931 649.075 610.948C650.548 608.909 651.539 606.559 652.049 603.896C652.615 601.178 652.927 597.666 652.983 593.361ZM702.686 565.664V588.773L708.208 588.434C710.077 588.32 711.606 587.896 712.796 587.159C714.042 586.366 714.92 585.347 715.43 584.101C715.939 582.854 716.279 581.75 716.449 580.787C716.619 579.768 716.704 578.635 716.704 577.389C716.704 575.123 716.109 572.914 714.92 570.762C713.787 568.553 712.229 566.967 710.247 566.004C709.511 565.664 708.463 565.494 707.104 565.494C706.65 565.494 705.914 565.522 704.895 565.579C703.875 565.636 703.139 565.664 702.686 565.664ZM728.259 604.236C728.259 605.766 727.891 607.323 727.154 608.909C726.475 610.438 725.427 611.939 724.011 613.412C722.651 614.828 720.697 615.989 718.148 616.896C715.6 617.802 712.654 618.255 709.312 618.255C708.916 618.255 707.783 618.227 705.914 618.17C704.045 618.17 701.439 618.142 698.098 618.085C694.756 618.085 691.131 618.085 687.223 618.085V616.726L688.752 616.471C689.771 616.357 690.819 616.074 691.896 615.621C693.028 615.111 693.651 614.545 693.765 613.922C693.765 611.09 693.765 605.624 693.765 597.524C693.765 589.425 693.765 583.506 693.765 579.768C693.765 573.82 693.765 569.771 693.765 567.618C693.651 566.995 692.717 566.457 690.961 566.004L688.412 565.154V563.71C691.754 563.71 695.832 563.738 700.646 563.795C705.518 563.795 708.661 563.795 710.077 563.795C712.229 563.795 714.354 564.305 716.449 565.324C718.602 566.344 720.471 567.93 722.057 570.082C723.643 572.178 724.436 574.557 724.436 577.219C724.436 577.275 724.436 577.332 724.436 577.389C724.379 580.391 723.303 583.166 721.207 585.715C719.168 588.207 716.308 589.51 712.626 589.623C723.048 590.586 728.259 595.457 728.259 604.236ZM702.431 591.067L702.516 612.223C702.516 614.092 702.799 615.281 703.365 615.791C703.932 616.244 704.923 616.471 706.339 616.471C711.04 616.471 714.438 615.593 716.534 613.837C718.63 612.024 719.678 609.079 719.678 605.001C719.678 596.505 715.826 591.889 708.123 591.152L702.431 591.067ZM785.692 618.17L770.314 617.915C770.314 617.688 770.314 617.462 770.314 617.235C770.314 615.14 769.55 611.231 768.021 605.511C765.415 595.995 761.96 591.209 757.655 591.152L751.963 591.067L752.048 612.138C752.048 612.987 752.104 613.695 752.218 614.262C752.331 614.771 752.614 615.253 753.067 615.706C753.521 616.159 754.172 616.386 755.021 616.386C757.514 616.442 758.76 616.499 758.76 616.556L758.675 618.17C755.503 617.943 751.283 617.83 746.016 617.83C741.824 617.83 738.596 617.915 736.33 618.085V616.641C740.748 616.641 743.07 615.989 743.297 614.687C743.523 613.78 743.637 612.789 743.637 611.713C743.863 605.992 743.977 598.771 743.977 590.048C743.977 577.077 743.863 569.912 743.637 568.553C743.523 567.93 742.476 567.392 740.493 566.938L737.435 566.259V564.729C740.776 564.843 744.741 564.899 749.329 564.899C751.198 564.899 753.549 564.899 756.381 564.899C759.213 564.843 761.025 564.814 761.818 564.814C763.971 564.814 766.123 565.324 768.275 566.344C770.428 567.307 772.269 568.836 773.798 570.932C775.384 573.027 776.177 575.406 776.177 578.068C776.177 580.957 774.789 583.591 772.014 585.97C769.238 588.292 765.953 589.51 762.158 589.623C763.914 589.793 765.528 590.303 767.001 591.152C768.474 591.945 769.663 592.795 770.569 593.701C771.476 594.607 772.382 595.91 773.288 597.609C774.251 599.309 774.902 600.668 775.242 601.688C775.639 602.707 776.205 604.208 776.941 606.19C778.697 610.835 779.83 613.497 780.34 614.177C781.586 615.933 783.37 616.867 785.692 616.98V618.17ZM761.394 567.023C760.147 566.74 758.59 566.599 756.721 566.599C755.021 566.599 753.464 566.684 752.048 566.854V589.028C755.899 589.085 757.854 589.113 757.91 589.113C761.082 589.113 763.489 588.009 765.132 585.8C766.831 583.591 767.681 580.957 767.681 577.898C767.681 575.293 767.114 572.942 765.981 570.847C764.849 568.751 763.319 567.477 761.394 567.023ZM829.787 618H790.365V616.641C790.365 616.697 791.158 616.726 792.744 616.726C795.52 616.726 797.049 616.046 797.332 614.687C797.842 611.628 798.097 600.696 798.097 581.892C798.097 573.622 797.983 569.091 797.757 568.298C797.644 567.675 796.567 567.137 794.528 566.684L791.47 566.089V564.56C797.474 564.729 804.157 564.814 811.521 564.814C818.94 564.814 824.973 564.729 829.617 564.56L829.872 576.879H828.258C827.975 575.463 827.55 574.104 826.983 572.801C826.417 571.441 825.454 570.11 824.095 568.808C822.735 567.448 821.178 566.769 819.422 566.769H806.083V589.878H818.657C821.263 589.878 822.679 587.641 822.905 583.166H824.944V598.459H823.245C822.962 594.041 821.348 591.832 818.402 591.832H806.083V612.138C806.083 614.856 807.074 616.244 809.057 616.301H821.886C823.358 616.244 824.774 614.998 826.134 612.562C827.55 610.07 828.399 607.578 828.683 605.086H830.552L829.787 618ZM866.915 618.935H863.602C863.602 618.935 858.249 604.208 847.544 574.755C846.128 571.017 844.457 568.666 842.531 567.703C841.115 567.023 839.529 566.485 837.773 566.089V564.814C840.436 565.041 844.74 565.154 850.688 565.154C857.201 565.154 861.704 565.041 864.196 564.814V566.514C863.46 566.57 862.157 566.825 860.288 567.278C858.419 567.731 857.399 568.128 857.229 568.468C856.946 569.091 856.805 569.969 856.805 571.102C856.805 572.688 857.088 574.33 857.654 576.029C858.73 579.145 859.92 582.458 861.223 585.97C862.525 589.425 863.885 593.021 865.301 596.76C866.773 600.441 867.793 603.047 868.359 604.576C871.078 597.156 874.477 586.933 878.555 573.905L881.613 563.965L883.822 564.05C884.785 567.845 887.334 574.953 891.469 585.375C895.604 595.74 898.294 602.707 899.54 606.275C899.937 604.973 901.211 601.178 903.363 594.891C905.516 588.547 907.356 582.939 908.886 578.068C910.415 573.197 911.18 570.337 911.18 569.487C911.18 568.694 910.585 568.071 909.396 567.618L904.298 566.259V564.984C906.96 565.211 909.934 565.324 913.219 565.324C916.561 565.324 919.506 565.211 922.055 564.984V566.684C919.732 566.797 917.835 567.278 916.362 568.128C915.853 568.468 915.173 569.317 914.323 570.677L912.964 572.631C911.831 576.199 910.217 581.099 908.121 587.329C906.082 593.56 904.241 599.224 902.599 604.321C901.013 609.419 899.54 614.29 898.181 618.935H895.292C894.159 615.423 892.687 611.458 890.874 607.04C889.118 602.565 887.079 597.666 884.757 592.342C882.435 586.961 880.792 583.109 879.829 580.787C879.206 582.826 877.195 588.604 873.797 598.119C870.455 607.635 868.161 614.573 866.915 618.935Z" fill="#EBD8D0" fill-opacity="0.33"/>
<path d="M310.672 875.729C324.662 902.69 332.025 917.021 332.762 918.72L351.538 876.069L366.151 875.475V877.174C365.415 877.23 364.509 877.344 363.433 877.514C362.413 877.684 361.252 878.023 359.949 878.533C358.703 878.986 358.08 879.553 358.08 880.232V923.987L358.76 925.177C359.213 925.97 359.836 926.593 360.629 927.046C361.479 927.499 362.583 927.754 363.942 927.811L365.981 927.641V929.17C362.753 929.057 358.93 929 354.512 929C349.584 929 345.817 929.085 343.212 929.255V927.896C343.325 927.896 344.005 927.839 345.251 927.726C346.497 927.612 347.432 927.386 348.055 927.046C349.584 926.366 350.349 925.46 350.349 924.327V885.84L330.383 930.189H329.023L306.679 886.35C306.679 886.35 306.679 893.798 306.679 908.694C306.679 915.095 306.679 919.881 306.679 923.053C306.679 924.072 306.735 924.78 306.849 925.177C306.962 925.517 307.217 925.828 307.613 926.111C308.066 926.338 308.435 926.593 308.718 926.876C309.964 927.329 311.493 927.584 313.306 927.641C313.362 927.641 313.447 927.641 313.561 927.641C313.674 927.641 313.759 927.641 313.815 927.641V929.17C311.04 929 308.038 928.915 304.81 928.915C301.241 928.915 298.098 929.028 295.379 929.255V927.896L298.777 927.471C301.043 927.131 302.516 926.649 303.195 926.026C303.592 925.687 303.903 925.233 304.13 924.667L304.385 923.817C304.498 923.817 304.555 910.535 304.555 883.971C304.271 882.271 303.082 880.827 300.986 879.638C298.891 878.448 296.795 877.769 294.699 877.599V876.069L310.672 875.729ZM404.299 905.551H387.222L379.15 924.497C378.98 924.78 378.896 925.063 378.896 925.347C378.896 926.14 379.519 926.791 380.765 927.301C382.011 927.754 383.257 927.98 384.503 927.98L384.588 929.34L367.851 929.425V927.726C367.907 927.726 367.964 927.726 368.021 927.726C369.097 927.726 370.258 927.499 371.504 927.046C372.75 926.536 373.741 925.856 374.478 925.007C375.44 923.874 379.434 915.293 386.457 899.264L396.992 875.305H399.796L418.402 919.399C419.988 923.194 421.716 925.545 423.585 926.451C424.095 926.678 424.633 926.848 425.199 926.961C425.766 927.018 426.304 927.046 426.813 927.046C427.323 927.046 427.691 927.074 427.918 927.131L427.748 929.255C423.953 929.085 419.677 929 414.919 929C410.614 929 407.131 929.085 404.469 929.255L404.554 927.641C404.554 927.697 405.063 927.726 406.083 927.726C408.122 927.726 409.538 927.244 410.331 926.281C410.728 925.828 410.926 925.205 410.926 924.412C410.926 923.676 410.756 922.854 410.416 921.948L409.991 920.674L404.299 905.551ZM388.241 903.512H403.619L396.058 885.16L388.241 903.512ZM461.393 874.54C464.678 874.54 467.793 875.05 470.738 876.069C473.74 877.089 475.694 878.137 476.601 879.213C477.28 878.76 477.79 878.278 478.13 877.769C478.526 877.259 478.753 876.806 478.81 876.409C478.923 876.013 479.064 875.191 479.234 873.945H481.953L481.698 891.532H479.999C479.263 886.944 477.28 883.376 474.052 880.827C470.88 878.222 466.434 876.919 460.713 876.919C455.162 876.919 450.971 879.213 448.139 883.801C445.307 888.389 443.834 894.591 443.721 902.407C443.721 919.683 449.781 928.32 461.902 928.32C464.678 928.32 467.113 927.952 469.209 927.216C471.305 926.423 473.089 925.262 474.562 923.732C476.091 922.203 477.28 920.674 478.13 919.145C479.036 917.615 479.999 915.689 481.019 913.367L482.973 914.896C478.555 925.545 471.475 930.897 461.732 930.954C453.123 930.954 446.1 928.519 440.662 923.647C435.225 918.72 432.506 911.838 432.506 903.002C432.506 898.754 433.157 894.931 434.46 891.532C435.763 888.134 437.434 885.415 439.473 883.376C441.512 881.337 443.834 879.609 446.439 878.193C449.102 876.777 451.65 875.814 454.086 875.305C456.578 874.795 459.014 874.54 461.393 874.54ZM520.525 874.54C523.811 874.54 526.926 875.05 529.871 876.069C532.873 877.089 534.827 878.137 535.733 879.213C536.413 878.76 536.923 878.278 537.263 877.769C537.659 877.259 537.886 876.806 537.942 876.409C538.056 876.013 538.197 875.191 538.367 873.945H541.086L540.831 891.532H539.132C538.396 886.944 536.413 883.376 533.185 880.827C530.013 878.222 525.566 876.919 519.846 876.919C514.295 876.919 510.104 879.213 507.271 883.801C504.439 888.389 502.967 894.591 502.854 902.407C502.854 919.683 508.914 928.32 521.035 928.32C523.811 928.32 526.246 927.952 528.342 927.216C530.438 926.423 532.222 925.262 533.694 923.732C535.224 922.203 536.413 920.674 537.263 919.145C538.169 917.615 539.132 915.689 540.151 913.367L542.105 914.896C537.688 925.545 530.607 930.897 520.865 930.954C512.256 930.954 505.232 928.519 499.795 923.647C494.357 918.72 491.639 911.838 491.639 903.002C491.639 898.754 492.29 894.931 493.593 891.532C494.896 888.134 496.566 885.415 498.605 883.376C500.645 881.337 502.967 879.609 505.572 878.193C508.234 876.777 510.783 875.814 513.219 875.305C515.711 874.795 518.146 874.54 520.525 874.54ZM566.914 879.468C566.914 879.524 566.886 881.11 566.829 884.226C566.829 887.341 566.801 891.249 566.744 895.95C566.744 900.595 566.744 904.843 566.744 908.694C566.744 916.397 566.801 921.892 566.914 925.177C566.971 926.819 569.123 927.641 573.371 927.641L573.456 929C571.644 928.943 569.406 928.915 566.744 928.915C560.627 928.915 555.416 929.028 551.111 929.255V927.896C551.111 927.896 551.225 927.896 551.451 927.896C555.643 927.896 557.852 927.244 558.078 925.941C558.361 924.242 558.503 908.694 558.503 879.298C558.503 878.675 557.483 878.137 555.444 877.684L552.301 877.089V875.814C554.963 876.041 558.39 876.154 562.581 876.154C566.942 876.154 570.341 876.041 572.776 875.814V877.514C568.868 877.797 566.914 878.448 566.914 879.468ZM614.492 905.551H597.415L589.344 924.497C589.174 924.78 589.089 925.063 589.089 925.347C589.089 926.14 589.712 926.791 590.958 927.301C592.204 927.754 593.45 927.98 594.696 927.98L594.781 929.34L578.044 929.425V927.726C578.101 927.726 578.157 927.726 578.214 927.726C579.29 927.726 580.451 927.499 581.697 927.046C582.943 926.536 583.935 925.856 584.671 925.007C585.634 923.874 589.627 915.293 596.65 899.264L607.186 875.305H609.989L628.596 919.399C630.182 923.194 631.909 925.545 633.778 926.451C634.288 926.678 634.826 926.848 635.393 926.961C635.959 927.018 636.497 927.046 637.007 927.046C637.517 927.046 637.885 927.074 638.111 927.131L637.941 929.255C634.146 929.085 629.87 929 625.112 929C620.808 929 617.324 929.085 614.662 929.255L614.747 927.641C614.747 927.697 615.257 927.726 616.276 927.726C618.315 927.726 619.731 927.244 620.524 926.281C620.921 925.828 621.119 925.205 621.119 924.412C621.119 923.676 620.949 922.854 620.609 921.948L620.185 920.674L614.492 905.551ZM598.435 903.512H613.812L606.251 885.16L598.435 903.512ZM657.737 925.856C658.983 924.271 659.606 922.656 659.606 921.014L659.691 877.599C653.801 877.542 650.827 877.514 650.771 877.514C649.411 877.514 648.193 878.023 647.117 879.043C646.041 880.062 645.22 881.337 644.653 882.866C644.087 884.339 643.605 885.812 643.209 887.284C642.869 888.7 642.671 890.06 642.614 891.362H641L641.34 875.56C647.684 875.729 655.755 875.814 665.554 875.814C674.786 875.814 681.895 875.729 686.879 875.56L687.134 891.362H685.435C684.925 882.3 682.574 877.74 678.383 877.684L668.442 877.599L668.527 921.014C668.527 922.996 669.065 924.61 670.142 925.856C670.991 926.876 673.313 927.414 677.108 927.471V929.085H651.025V927.471C651.139 927.471 651.309 927.471 651.535 927.471C651.762 927.471 651.932 927.471 652.045 927.471C655.047 927.414 656.944 926.876 657.737 925.856ZM724.347 928.32C729.671 928.32 734.004 925.913 737.346 921.099C740.744 916.228 742.443 910.025 742.443 902.492C742.443 893.543 740.801 886.746 737.516 882.102C734.23 877.457 729.614 875.135 723.667 875.135C720.835 875.135 718.286 875.531 716.021 876.324C713.812 877.117 711.688 878.448 709.648 880.317C707.609 882.187 706.023 885.019 704.891 888.813C703.814 892.552 703.276 897.14 703.276 902.577C703.276 904.616 703.446 906.712 703.786 908.864C704.183 910.96 704.891 913.197 705.91 915.576C706.93 917.955 708.176 920.079 709.648 921.948C711.178 923.761 713.217 925.29 715.766 926.536C718.314 927.726 721.175 928.32 724.347 928.32ZM724.347 873.69C726.386 873.69 728.51 873.917 730.719 874.37C732.928 874.823 735.363 875.729 738.025 877.089C740.688 878.392 743.01 880.062 744.992 882.102C747.031 884.141 748.73 886.944 750.09 890.513C751.449 894.024 752.129 898.018 752.129 902.492C752.129 906.854 751.251 910.818 749.495 914.387C747.796 917.955 745.559 920.872 742.783 923.138C740.008 925.347 737.006 927.046 733.777 928.235C730.549 929.425 727.349 930.02 724.177 930.02C715.624 930.02 708.317 927.584 702.257 922.713C696.196 917.785 693.166 911.271 693.166 903.172C693.166 898.527 693.817 894.421 695.12 890.853C696.479 887.284 698.207 884.452 700.303 882.356C702.398 880.204 704.862 878.477 707.694 877.174C710.583 875.814 713.358 874.908 716.021 874.455C718.739 873.945 721.515 873.69 724.347 873.69Z" fill="#EBD8D0" fill-opacity="0.33"/>
</svg>
