<svg width="227" height="409" viewBox="0 0 227 409" fill="none" xmlns="http://www.w3.org/2000/svg">
<path d="M133.779 39.5056C139.484 31.1788 142.351 22.1208 142.993 12.286C143.131 10.1848 142.454 8.25652 142.152 6.25004C142.008 5.29188 141.612 4.37249 141.459 3.41484C141.255 2.14085 141.115 0.63271 142.571 0.120568C144.122 -0.425339 144.708 0.994481 145.274 2.13534C146.807 5.22481 147.475 8.5633 148.119 11.917C150.737 25.5519 147.745 38.1445 141.257 50.1501C138.202 55.8038 134.983 61.3963 132.626 67.392C126.579 82.7808 132.937 98.5105 145.996 107.616C152.926 112.448 160.202 116.735 166.535 122.487C177.431 132.38 183.084 144.532 184.278 159.103C186.027 180.437 177.014 197.332 163.354 212.65C150.349 227.236 134.178 237.317 117.424 246.76C104.115 254.261 90.9384 262.05 79.2997 272.067C66.968 282.68 56.7125 294.87 51.5015 310.703C46.4422 326.076 47.2206 341.001 54.5716 355.496C54.8361 356.017 55.0859 356.546 55.3576 357.064C55.8596 358.02 55.9976 358.958 54.9954 359.656C54.0616 360.307 53.077 360.093 52.3342 359.347C51.6584 358.668 51.0831 357.856 50.597 357.025C46.331 349.728 44.253 341.828 43.8796 333.386C42.9186 311.654 51.3045 293.777 65.9485 278.32C77.5894 266.033 91.3018 256.52 105.671 247.847C116.001 241.612 126.873 236.262 136.829 229.435C151.175 219.598 163.555 207.764 171.827 192.094C167.403 196.935 162.759 201.548 157.804 205.833C156.262 207.166 154.67 208.453 153.008 209.63C152.15 210.237 151.024 210.775 150.168 209.584C149.377 208.484 150.333 207.768 150.981 207.091C155.828 202.025 160.873 197.146 165.346 191.73C172.431 183.15 177.16 173.448 179.061 162.429C179.984 157.081 178.955 151.865 177.17 146.921C173.162 135.822 165.576 127.559 156.128 120.683C149.932 116.174 143.157 112.476 137.558 107.104C125.17 95.217 121.919 77.5305 129.522 62.0051C132.779 55.3538 136.17 48.7691 139.458 42.1329C139.678 41.6893 140.126 41.1661 139.692 40.3884C132.056 51.975 124.792 63.6303 122.322 77.4908C120.832 85.8512 121.884 93.9746 125.745 101.633C126.535 103.199 127.38 104.738 128.131 106.321C128.483 107.062 128.492 107.89 127.783 108.462C126.945 109.137 126.059 108.853 125.417 108.185C123.86 106.566 122.531 104.768 121.54 102.73C116.285 91.9258 116.466 80.7227 119.08 69.3385C119.209 68.7788 119.376 68.2282 119.55 67.5816C114.317 73.073 110.659 83.7971 110.633 92.4854C110.606 101.627 113.877 109.824 117.346 117.994C119.932 124.086 123.012 129.992 124.161 136.609C126.293 148.876 123.864 160.194 117.331 170.758C109.974 182.654 100.1 192.073 88.9004 200.184C80.4662 206.292 71.8285 212.118 63.3799 218.207C55.6507 223.777 50.1604 231.666 43.2916 238.143C39.8951 241.345 36.7772 244.844 33.5149 248.191C32.8506 248.872 32.2034 249.637 30.8808 249.706C30.4156 247.38 32.1799 246.054 33.1773 244.47C34.2501 242.767 35.4942 241.172 36.4716 239.384C31.5873 244.791 26.454 249.941 22.7905 256.384C16.3388 267.729 13.1072 279.795 14.5183 292.82C16.4051 310.238 22.9063 325.344 37.3503 336.188C38.3463 336.936 40.1196 337.597 38.8906 339.333C37.8111 340.858 36.4073 339.965 35.257 339.271C28.4998 335.194 23.5587 329.291 19.4939 322.696C11.6925 310.038 8.34603 296.123 9.55335 281.341C10.7422 266.786 16.9513 254.237 26.3038 243.167C37.3627 230.076 50.7764 219.893 65.108 210.681C79.5893 201.372 94.1845 192.078 105.59 178.825C112.664 170.604 118.218 161.476 119.989 150.549C121.282 142.565 119.889 134.844 116.816 127.398C114.364 121.456 111.344 115.782 109.079 109.735C103.296 94.2968 105.732 79.8916 113.843 66.0696C118.005 58.9777 123.481 52.8559 128.537 46.4267C130.283 44.2071 131.965 41.9374 133.779 39.5056Z" fill="#AB8E85"/>
<path d="M130.252 128.685C130.275 127.292 130.545 126.232 131.871 126.039C133.167 125.851 133.796 126.747 134.198 127.823C136.432 133.796 137.801 139.851 137.216 146.349C135.407 166.431 124.764 181.848 111.488 195.874C101.727 206.186 90.0078 214.136 78.7709 222.657C65.9311 232.393 53.76 242.825 44.5873 256.284C39.638 263.546 35.2181 271.068 33.5211 279.929C31.5165 290.397 34.1795 299.769 39.583 308.604C40.294 309.767 41.1107 310.864 41.8303 312.022C42.632 313.312 42.8451 314.7 41.4708 315.662C40.0348 316.668 39.1178 315.44 38.3423 314.461C33.8598 308.804 30.8215 302.473 29.1969 295.398C26.481 283.57 29.3264 272.804 35.1396 262.586C45.009 245.239 59.0841 231.735 74.6654 219.701C86.6745 210.426 99.4618 202.1 109.93 190.959C121.708 178.424 130.222 164.063 132.699 146.73C133.46 141.402 132.286 136.076 130.791 130.901C130.602 130.247 130.441 129.585 130.252 128.685Z" fill="#AB8E85"/>
<path d="M81.7861 305.807C74.2409 315.409 68.2063 325.489 66.1433 337.608C64.0232 350.063 65.8947 361.787 71.8951 372.862C72.5828 374.132 73.3712 375.507 71.9229 376.492C70.1336 377.708 69.2946 375.929 68.568 374.773C63.6273 366.919 61.3478 358.214 60.8103 349.037C59.9072 333.616 65.2649 320.304 74.2377 308.024C84.6787 293.735 97.46 282.145 112.463 272.926C113.369 272.369 114.308 271.807 115.306 271.475C116.413 271.108 117.469 271.459 118.053 272.548C118.609 273.583 118.128 274.471 117.319 275.121C116.49 275.787 115.578 276.355 114.677 276.924C102.252 284.772 91.131 294.114 81.7861 305.807Z" fill="#AB8E85"/>
<path d="M160.86 298.509C157.053 301.567 153.158 304.132 149.202 306.608C148.094 307.301 146.832 307.995 145.903 306.515C144.957 305.007 146.484 304.52 147.342 303.855C155.648 297.41 163.987 290.998 170.141 282.273C175.561 274.587 179.47 266.379 178.85 256.62C178.786 255.601 179.052 254.593 180.206 254.326C181.532 254.019 182.202 254.923 182.526 256.019C183.749 260.168 183.261 264.296 182.218 268.394C179.496 279.089 173.074 287.386 165.187 294.721C163.834 295.979 162.415 297.165 160.86 298.509Z" fill="#AB8E85"/>
<path d="M142.286 204.354C131.017 214.221 118.913 222.358 105.09 227.758C100.147 229.69 97.7711 230.213 95.3397 229.625C95.3797 228.089 96.7098 227.894 97.6939 227.442C107.934 222.744 117.941 217.644 127.438 211.519C135.626 206.238 142.301 199.375 148.753 192.22C149.142 191.788 149.445 191.278 149.831 190.842C150.432 190.163 151.171 189.479 152.08 190.088C153.126 190.788 152.786 191.82 152.207 192.663C149.839 196.113 147.36 199.477 144.301 202.363C143.664 202.963 143.055 203.592 142.286 204.354Z" fill="#AB8E85"/>
<path d="M165.948 187.067C164.446 188.605 163.483 190.374 161.811 191.452C160.896 192.042 159.784 192.683 158.874 191.803C157.778 190.742 158.939 189.826 159.559 189.057C164.31 183.161 168.072 176.723 170.299 169.447C173.073 160.384 172.686 151.392 169.565 142.482C169.339 141.84 169.09 141.197 168.956 140.533C168.806 139.79 169.126 139.177 169.806 138.838C170.623 138.43 171.08 138.985 171.449 139.588C172.67 141.587 173.793 143.626 174.411 145.918C178.474 160.983 175.718 174.645 165.948 187.067Z" fill="#AB8E85"/>
<path d="M51.7971 323.346C53.5474 311.871 58.0252 301.839 64.6949 292.74C64.982 292.348 65.2939 291.97 65.6304 291.621C66.368 290.855 67.2509 290.428 68.2204 291.098C69.3263 291.863 69.1797 292.86 68.5394 293.908C66.6638 296.979 64.6307 299.972 62.9922 303.167C57.8923 313.111 54.8076 323.549 55.9287 334.906C55.9766 335.391 56.0349 335.875 56.0583 336.361C56.1272 337.796 55.5809 339.017 54.1127 339.156C52.5786 339.301 51.7083 337.951 51.7622 336.697C51.9502 332.327 50.9685 327.965 51.7971 323.346Z" fill="#AB8E85"/>
<path d="M154.819 166.963C150.323 176.662 144.239 184.912 136.516 191.942C135.197 193.142 133.865 194.509 131.58 193.557C132.234 191.391 133.831 190.092 135.202 188.689C142.344 181.379 148.346 173.323 151.853 163.594C154.325 156.737 154.383 149.681 153.561 142.555C153.43 141.418 153.002 140.232 154.596 139.228C157.07 141.92 157.076 145.382 157.31 148.623C157.756 154.802 156.616 160.829 154.819 166.963Z" fill="#AB8E85"/>
<path d="M131.455 204.094C126.793 206.082 124.147 210.706 119.404 212.203C118.671 212.434 118.017 212.904 117.309 213.224C116.319 213.672 115.165 214.221 114.499 212.941C113.833 211.659 115.017 211.015 115.872 210.418C116.666 209.864 117.55 209.439 118.395 208.958C131.927 201.25 143.62 191.542 151.874 178.075C152.407 177.206 152.964 175.869 154.277 176.606C155.558 177.324 154.74 178.584 154.365 179.49C151.539 186.317 146.727 191.645 141.315 196.472C138.265 199.192 135.058 201.731 131.455 204.094Z" fill="#AB8E85"/>
<path d="M139.763 170.776C143.108 164.91 144.525 158.68 145.403 152.284C145.894 148.716 144.713 145.356 144.143 141.92C144.032 141.251 143.79 140.6 143.726 139.929C143.608 138.698 143.744 137.507 145.231 137.187C146.71 136.869 147.14 138.1 147.351 139.077C148.576 144.755 149.965 150.375 148.826 156.33C147.357 164.004 144.755 171.103 139.876 177.265C139.274 178.025 138.635 178.764 137.944 179.442C137.125 180.246 136.125 180.751 135.117 179.845C134.065 178.897 135.021 178.085 135.52 177.309C136.885 175.185 138.279 173.08 139.763 170.776Z" fill="#AB8E85"/>
<path d="M35.4887 322.226C27.8125 314.163 24.2522 304.456 22.6822 293.85C22.5019 292.632 22.4023 291.304 23.9617 291.103C25.3786 290.919 25.8508 292.049 26.1359 293.317C28.5617 304.103 32.6248 314.062 40.6423 322.017C41.5073 322.875 42.7704 323.94 41.3674 325.175C40.2136 326.19 39.0149 325.425 38.0228 324.507C37.2391 323.782 36.4335 323.081 35.4887 322.226Z" fill="#AB8E85"/>
<path d="M157.68 167.747C158.613 164.081 159.719 160.658 160.488 157.161C161.76 151.38 160.565 145.774 158.825 140.26C158.095 137.944 157.262 135.66 156.521 133.348C156.236 132.46 155.702 131.499 156.895 130.558C159.079 131.116 159.818 133.248 160.597 134.909C165.577 145.519 166.616 156.322 161.483 167.245C160.12 170.147 159.298 170.287 157.68 167.747Z" fill="#AB8E85"/>
<path d="M69.0496 382.248C70.3849 384.326 72.1022 385.775 73.6617 387.369C74.6412 388.37 75.7206 389.486 74.5057 390.876C73.1339 392.446 71.7799 391.258 70.7247 390.347C66.1921 386.432 62.724 381.641 59.8381 376.427C58.5241 374.053 57.3318 371.602 56.2447 369.116C55.8731 368.266 55.0555 367.017 56.5153 366.325C57.9505 365.644 58.9128 366.469 59.6015 367.684C60.8939 369.964 62.0567 372.328 63.4853 374.518C65.1804 377.117 67.0991 379.568 69.0496 382.248Z" fill="#AB8E85"/>
<path d="M127.489 324.628C120.139 330.705 114.395 337.905 109.171 345.562C108.565 346.449 107.942 347.587 106.669 346.895C105.192 346.092 106.004 344.87 106.494 343.847C110.81 334.821 117.833 328.182 125.557 322.166C125.633 322.106 125.717 322.054 125.803 322.01C126.887 321.443 128.146 320.321 129.118 321.758C130.061 323.151 128.329 323.652 127.489 324.628Z" fill="#AB8E85"/>
<path d="M38.1911 276.756C39.5806 277.448 39.5786 278.528 39.4647 279.613C38.614 287.725 39.7293 295.471 43.6682 302.707C44.151 303.594 44.5409 304.659 43.5038 305.311C42.2383 306.107 41.3552 305.261 40.6279 304.217C37.2603 299.386 35.6308 293.933 35.2358 288.141C35.0262 285.068 34.7821 281.94 35.6741 278.874C36.0362 277.63 36.5004 276.703 38.1911 276.756Z" fill="#AB8E85"/>
<path d="M165.611 218.366C166.673 216.869 167.136 214.199 169.328 215.441C171.169 216.485 169.281 218.218 168.685 219.471C165.083 227.037 160.915 234.264 155.52 240.719C155.333 240.942 155.184 241.201 154.979 241.405C154.165 242.216 153.341 243.385 152.065 242.356C150.915 241.428 151.778 240.424 152.347 239.531C155.321 234.864 158.321 230.213 161.275 225.533C162.726 223.234 164.098 220.884 165.611 218.366Z" fill="#AB8E85"/>
<path d="M40.9493 243.203C44.3361 240.014 46.9739 236.246 51.0884 234.16C52.2064 235.663 51.3668 236.504 50.6605 237.244C43.6161 244.63 37.0969 252.432 31.6706 261.112C31.1746 261.905 30.5401 262.592 29.5507 262.026C28.4934 261.422 28.9796 260.549 29.3878 259.751C32.4497 253.764 35.917 248.061 40.9493 243.203Z" fill="#AB8E85"/>
<path d="M133.171 295.838C136.665 294.107 139.94 292.414 143.286 290.876C144.577 290.283 146.293 289.624 147.007 291.559C147.624 293.228 146.114 293.953 144.864 294.496C139.781 296.703 134.993 299.451 130.245 302.288C129.075 302.987 127.595 304.274 126.523 302.318C125.58 300.597 127.072 299.657 128.28 298.847C129.81 297.822 131.41 296.902 133.171 295.838Z" fill="#AB8E85"/>
<path d="M120.945 308.143C116.539 311.365 112.61 314.807 108.986 318.602C108.277 319.346 107.56 320.491 106.338 319.645C105.001 318.72 105.7 317.525 106.378 316.591C109.77 311.924 113.834 307.941 118.751 304.9C119.745 304.285 121.044 303.864 121.936 304.988C122.893 306.192 121.89 307.131 120.945 308.143Z" fill="#AB8E85"/>
<path d="M0.0072721 263.309C0.478213 257.787 1.90495 252.759 4.03686 247.909C4.46242 246.941 4.90186 246.067 6.10565 246.3C7.47424 246.564 7.71233 247.735 7.47706 248.808C7.06162 250.701 6.51293 252.581 5.83388 254.397C4.72867 257.352 4.31024 260.429 3.94839 263.525C3.7953 264.835 4.16925 266.641 2.24197 266.668C0.436387 266.692 -0.068772 265.179 0.0072721 263.309Z" fill="#AB8E85"/>
<path d="M60.0013 274.174C62.4688 269.053 66.0392 265.168 70.4172 261.985C71.568 261.148 72.8708 260.343 73.9584 261.844C74.9878 263.264 73.6512 264.2 72.743 264.967C69.243 267.922 66.0176 271.094 63.6815 275.099C63.1607 275.992 62.5044 276.995 61.1611 276.563C60.1098 276.225 59.4901 275.583 60.0013 274.174Z" fill="#AB8E85"/>
<path d="M145.3 204.417C146.136 203.829 146.83 203.424 147.5 204.253C148.096 204.99 147.792 205.704 147.336 206.388C146.035 208.34 144.428 210.01 142.684 211.565C139.775 214.159 136.49 216.214 133.228 218.306C132.301 218.902 131.351 219.055 130.626 218.146C129.729 217.022 130.703 216.307 131.492 215.812C136.536 212.652 140.756 208.501 145.3 204.417Z" fill="#AB8E85"/>
<path d="M119.329 113.36C117.88 109.321 115.818 105.676 115.708 101.406C117.439 101.168 117.928 102.12 118.401 103.095C120.818 108.083 123.236 113.07 125.652 118.058C126.254 119.302 127.074 120.75 125.392 121.606C123.843 122.395 123.178 120.897 122.592 119.805C121.488 117.75 120.472 115.648 119.329 113.36Z" fill="#AB8E85"/>
<path d="M133.852 262.132C132.418 262.772 131.193 263.362 129.918 263.807C129.243 264.043 128.544 263.824 128.194 263.094C127.851 262.377 128.076 261.709 128.678 261.283C133.357 257.973 138.053 254.686 142.753 251.405C143.619 250.8 144.466 250.932 145.012 251.821C145.646 252.852 145.128 253.696 144.289 254.343C140.909 256.95 137.753 259.859 133.852 262.132Z" fill="#AB8E85"/>
<path d="M151.846 98.4367C149.148 94.8623 148.231 91.227 150.018 87.1345C150.438 86.1725 150.862 85.2756 151.997 85.3929C153.271 85.5248 153.93 86.6589 153.697 87.703C152.853 91.4838 153.424 94.7763 156.255 97.5712C156.772 98.0818 156.674 98.8359 156.249 99.4566C155.803 100.107 155.126 100.161 154.437 100.058C153.434 99.9074 152.686 99.2951 151.846 98.4367Z" fill="#AB8E85"/>
<path d="M13.9744 236.2C15.3256 233.58 16.9953 231.446 18.6859 229.329C19.5431 228.255 20.7352 227.452 21.9117 228.414C23.0985 229.384 22.5074 230.711 21.6479 231.763C19.7345 234.105 18.1838 236.645 17.1315 239.501C16.5987 240.947 15.9502 242.814 13.9732 242.068C11.9754 241.315 12.9246 239.49 13.2874 238.035C13.4272 237.475 13.674 236.941 13.9744 236.2Z" fill="#AB8E85"/>
<path d="M219.159 185.076C218.793 180.66 221.107 178.163 224.119 179.441C225.713 180.117 226.875 181.178 226.906 183.116C226.936 185.032 225.904 186.209 224.29 186.905C222.198 187.807 220.557 187.012 219.159 185.076Z" fill="#AB8E85"/>
<path d="M116.85 133.089C117.661 135.054 117.844 136.885 117.768 138.752C117.743 139.359 117.633 139.969 116.92 140.092C116.24 140.208 115.782 139.806 115.673 139.162C114.769 133.814 112.257 129.049 110.282 124.089C110.085 123.597 110.205 123.138 111.123 122.271C114.137 125.228 115.414 129.068 116.85 133.089Z" fill="#AB8E85"/>
<path d="M118.148 319.394C118.714 318.99 119.091 318.68 119.506 318.433C120.442 317.875 121.541 317.237 122.323 318.416C123.032 319.488 122.024 320.192 121.251 320.771C118.439 322.874 116.165 325.539 113.684 327.988C113.001 328.662 112.284 329.592 111.242 328.703C110.228 327.837 110.937 326.962 111.505 326.154C113.307 323.592 115.582 321.496 118.148 319.394Z" fill="#AB8E85"/>
<path d="M183.894 201.585C183.349 202.414 182.977 203.108 182.477 203.689C181.819 204.453 180.948 204.493 180.113 204.002C179.219 203.477 178.994 202.579 179.446 201.731C180.768 199.256 182.162 196.819 183.602 194.411C184.065 193.636 184.867 193.03 185.802 193.572C186.68 194.08 187.127 194.944 186.875 196.048C186.406 198.097 185.061 199.668 183.894 201.585Z" fill="#AB8E85"/>
<path d="M167.49 60.094C167.074 62.6266 165.486 63.3668 163.44 62.9987C161.434 62.638 160.504 61.1395 160.693 59.1424C160.883 57.1204 162.1 55.919 164.164 55.9698C166.617 56.0302 167.47 57.6412 167.49 60.094Z" fill="#AB8E85"/>
<path d="M98.596 219.636C100.459 218.556 102.118 217.549 103.826 216.634C104.675 216.18 105.59 216.253 106.128 217.159C106.712 218.143 106.041 218.838 105.314 219.361C102.852 221.133 100.166 222.476 97.2687 223.373C96.4225 223.634 95.4186 223.861 95.0296 222.758C94.6529 221.691 95.5388 221.22 96.3377 220.81C97.0287 220.454 97.7209 220.101 98.596 219.636Z" fill="#AB8E85"/>
<path d="M134.29 312.826C136.55 311.442 138.626 310.165 140.692 308.895C141.468 310.098 141.088 310.725 140.505 311.311C138.097 313.731 135.315 315.62 132.245 317.082C131.464 317.454 130.517 317.866 129.981 316.796C129.54 315.916 130.287 315.346 130.917 314.915C131.948 314.208 133.04 313.59 134.29 312.826Z" fill="#AB8E85"/>
<path d="M74.326 365.624C72.8666 366.678 71.9314 366.134 71.4765 364.83C71.1334 363.847 71.0967 362.754 70.9423 361.707C70.7567 360.448 70.3886 358.931 72.252 358.789C73.9129 358.662 74.1787 360.161 74.3681 361.419C74.5683 362.748 74.9897 364.094 74.326 365.624Z" fill="#AB8E85"/>
<path d="M79.9239 339.875C80.3201 338.475 80.6143 337.243 81.1293 336.112C81.5491 335.19 82.3267 334.556 83.4755 334.973C84.3157 335.278 84.7744 335.977 84.5484 336.798C84.0626 338.563 83.4611 340.391 81.7406 341.31C80.8408 341.791 80.0823 341.17 79.9239 339.875Z" fill="#AB8E85"/>
<path d="M152.793 377.251C153.867 378.908 153.631 380.181 152.185 381.2C151.355 381.784 150.526 381.689 149.775 381.056C148.748 380.19 148.496 379.041 149.087 377.895C149.904 376.308 151.14 375.901 152.793 377.251Z" fill="#AB8E85"/>
<path d="M94.9914 133.631C94.4694 131.892 94.426 130.485 96.4289 130.151C97.4409 129.982 98.3569 130.334 98.8137 131.327C99.2405 132.255 99.2314 133.238 98.4204 133.966C97.3212 134.954 96.1848 134.861 94.9914 133.631Z" fill="#AB8E85"/>
<path d="M71.4339 169.741C70.369 171.021 69.2687 171.387 68.1246 170.297C67.3582 169.567 67.2714 168.613 67.8692 167.677C68.3839 166.872 69.138 166.462 70.0636 166.711C71.5286 167.105 72.0599 168.076 71.4339 169.741Z" fill="#AB8E85"/>
<path d="M28.9595 218.317C28.5315 219.906 27.5913 220.401 26.2886 219.98C25.405 219.694 24.8546 218.94 24.9044 217.992C24.955 217.027 25.5843 216.401 26.5476 216.257C27.939 216.049 28.7264 216.726 28.9595 218.317Z" fill="#AB8E85"/>
<path d="M164.057 269.913C164.504 268.391 165.314 267.733 166.681 268.342C167.535 268.723 167.975 269.485 167.86 270.45C167.745 271.407 167.202 272.089 166.222 272.166C164.818 272.277 164.099 271.518 164.057 269.913Z" fill="#AB8E85"/>
<path d="M167.673 260.407C168.272 258.904 169.261 258.516 170.512 258.996C171.514 259.381 171.504 260.327 171.371 261.2C171.232 262.12 170.751 262.917 169.738 262.891C168.373 262.857 167.727 261.959 167.673 260.407Z" fill="#AB8E85"/>
<path d="M86.8335 224.727C87.7953 223.078 88.8637 223.073 89.832 224.354C90.4562 225.18 90.11 226.081 89.2361 226.528C87.6194 227.354 86.969 226.455 86.8335 224.727Z" fill="#AB8E85"/>
<path d="M176.801 212.658C176.516 211.348 176.909 210.574 178.084 210.416C178.904 210.305 179.581 210.644 179.919 211.458C180.27 212.302 179.919 213.009 179.267 213.46C178.314 214.119 177.471 213.857 176.801 212.658Z" fill="#AB8E85"/>
</svg>
