<svg width="50" height="40" viewBox="0 0 50 40" fill="none" xmlns="http://www.w3.org/2000/svg">
<path d="M18.75 2.85714H32.5H33.75H35V17.1429V20V22.8571C35 26.0089 32.7578 28.5714 30 28.5714H15C12.2422 28.5714 10 26.0089 10 22.8571V2.85714H16.25V6.47321L13.3984 9.1875C12.8281 9.73214 12.5 10.5357 12.5 11.3839V17.1429C12.5 18.7232 13.6172 20 15 20H20C21.3828 20 22.5 18.7232 22.5 17.1429V11.3839C22.5 10.5357 22.1719 9.73214 21.6016 9.1875L18.75 6.47321V2.85714ZM17.5 0H10C8.61719 0 7.5 1.27679 7.5 2.85714V22.8571C7.5 27.5893 10.8594 31.4286 15 31.4286H30C34.1406 31.4286 37.5 27.5893 37.5 22.8571V20H41.25C46.0859 20 50 15.5268 50 10C50 4.47321 46.0859 0 41.25 0H35H33.75H32.5H17.5ZM37.5 17.1429V2.85714H41.25C44.7031 2.85714 47.5 6.05357 47.5 10C47.5 13.9464 44.7031 17.1429 41.25 17.1429H37.5ZM0 38.5714C0 39.3571 0.5625 40 1.25 40H43.75C44.4375 40 45 39.3571 45 38.5714C45 37.7857 44.4375 37.1429 43.75 37.1429H1.25C0.5625 37.1429 0 37.7857 0 38.5714ZM15 17.1429V11.3839L17.5 9L20 11.3839V17.1429H15Z" fill="#1E3050"/>
</svg>
